v -0.0115103 0.0990268 -0.00289902
v -0.0100954 0.0986905 0.00776548
v -0.00843869 0.106213 0.00537528
v -0.00833347 0.106203 -0.0065044
v -0.0098939 0.100036 -0.00867833
v -0.00975062 0.0808844 -0.00537173
v -0.00973718 0.0808844 0.00502968
v -0.0084678 0.0808844 0.00668409
v -0.00495291 0.0808844 0.00907876
v -0.00529992 0.0989737 0.010887
v -0.00763497 0.102683 0.00872647
v -0.00378874 0.106716 0.000739796
v -0.0037977 0.106716 -0.00101495
v -0.00337233 0.106107 0.00854364
v -0.00164399 0.106716 0.00221584
v -0.00298949 0.106716 0.00135741
v -0.00377307 0.106716 -0.00129589
v -0.00375068 0.106716 -0.00132042
v -0.00167309 0.106716 -0.00289679
v -0.00163279 0.106716 -0.00292355
v 0.000556737 0.106038 -0.00917108
v -0.00600961 0.104139 -0.00942304
v -0.00563574 0.0995704 -0.0115546
v -0.00682005 0.0808844 -0.00867387
v 0.00355671 0.0808844 0.00890707
v 0.00564773 0.0994819 0.0112237
v 0.00523579 0.104246 0.00923038
v 0.00837233 0.106152 0.00665957
v 0.00139628 0.106716 0.00229165
v 0.00138509 0.106716 0.00229165
v -0.000170867 0.106716 -0.00292355
v 0.008538 0.106218 -0.000421862
v 0.00897904 0.10481 -0.00814098
v 0.00672234 0.0995198 -0.0112714
v 0.0016224 0.106716 -0.00282767
v 0.00210821 0.106716 -0.00271619
v 0.00351417 0.106716 -0.00168162
v -0.000112659 0.0808844 -0.00956351
v -0.00490365 0.0808844 -0.00938736
v 0.00600146 0.0808844 0.00816905
v 0.00913351 0.0987992 0.00887809
v 0.0104208 0.100713 0.0064968
v 0.0113611 0.0995653 -0.00235276
v 0.00383655 0.106716 0.000715269
v 0.00240597 0.106716 0.00186578
v 0.00239478 0.106716 0.00187247
v 0.0035679 0.106716 -0.00161473
v 0.0039373 0.106716 -0.000531116
v 0.0107522 0.0960835 -0.00594029
v 0.00949396 0.0808844 -0.00613204
v 0.009185 0.0808844 -0.0064665
v 0.00513729 0.0808844 -0.00932047
v 0.00601265 0.0808844 0.00816014
v 0.00943127 0.0808844 0.00532177
v 0.0109581 0.0968825 0.00550683
v 0.00968873 0.0808844 -0.005452
f 1 2 3
f 1 3 4
f 1 4 5
f 1 5 6
f 1 6 7
f 1 7 2
f 2 7 8
f 2 8 9
f 2 9 10
f 2 10 11
f 2 11 3
f 3 12 13
f 3 13 4
f 3 11 14
f 3 14 15
f 3 15 16
f 3 16 12
f 4 13 17
f 4 17 18
f 4 18 19
f 4 19 20
f 4 20 21
f 4 21 22
f 4 22 5
f 5 23 24
f 5 24 6
f 5 22 23
f 6 24 39
f 6 39 38
f 6 38 52
f 6 52 51
f 6 51 50
f 6 50 56
f 6 56 54
f 6 54 53
f 6 53 40
f 6 40 25
f 6 25 9
f 6 9 8
f 6 8 7
f 9 25 26
f 9 26 10
f 10 26 14
f 10 14 11
f 12 16 15
f 12 15 30
f 12 30 29
f 12 29 46
f 12 46 45
f 12 45 44
f 12 44 48
f 12 48 47
f 12 47 37
f 12 37 36
f 12 36 35
f 12 35 31
f 12 31 20
f 12 20 19
f 12 19 18
f 12 18 17
f 12 17 13
f 14 26 27
f 14 27 28
f 14 28 29
f 14 29 30
f 14 30 15
f 20 31 21
f 21 32 33
f 21 33 34
f 21 34 23
f 21 23 22
f 21 31 35
f 21 35 36
f 21 36 37
f 21 37 32
f 23 34 38
f 23 38 39
f 23 39 24
f 25 40 26
f 26 40 41
f 26 41 28
f 26 28 27
f 28 41 42
f 28 42 43
f 28 43 32
f 28 32 44
f 28 44 45
f 28 45 46
f 28 46 29
f 32 43 33
f 32 37 47
f 32 47 48
f 32 48 44
f 33 43 49
f 33 49 34
f 34 49 50
f 34 50 51
f 34 51 52
f 34 52 38
f 40 53 41
f 41 53 54
f 41 54 55
f 41 55 42
f 42 55 43
f 43 55 56
f 43 56 49
f 49 56 50
f 54 56 55
