v 0.0141963 0.0169715 0.00435433
v 0.0136071 0.0109309 0.00377636
v 0.0138919 0.010593 -0.00039171
v 0.0138919 0.010593 -0.0003931
v 0.0137579 0.0169715 0.00311641
v 0.0130653 0.0169715 0.00729421
v 0.0123392 0.0115809 0.00734422
v 0.00955489 0.00596711 0.0080653
v 0.0113227 0.00337527 0.000386329
v 0.0137244 0.0169715 0.0030789
v 0.0115293 0.00406729 -0.00039171
v 0.0109903 0.00331221 -0.00039171
v 0.00791558 0.00207692 -0.00039171
v 0.00391924 0.00060557 -0.00039171
v 0.00236651 0.000453581 -0.00039171
v -0.00341994 0.000867504 -0.00039171
v -0.00850822 0.00206398 -0.00039171
v -0.00995484 0.00293548 -0.00039171
v -0.0131888 0.00918469 -0.00039171
v -0.01363 0.0111007 -0.00039171
v -0.00519609 0.0110926 -0.00039171
v 0.00218498 0.0110312 -0.00039171
v -0.0143282 0.0169715 0.00212302
v 0.0107837 0.0169715 0.0108093
v 0.0104095 0.0146772 0.0108523
v 0.0048911 0.00506005 0.0108635
v 0.00626231 0.0017681 0.0050754
v -0.00211297 0.000710662 0.00366521
v -0.0096253 0.00238413 0.00120327
v -0.013496 0.00983467 0.000604458
v -0.0135127 0.0133886 0.00466554
v -0.0140014 0.0169715 0.00459608
v 0.0100296 0.0169715 0.0113998
v 0.00531838 0.0164558 0.0135255
v 0.00073837 0.00266385 0.00992565
v -0.00223305 0.0104006 0.0129405
v -0.00551446 0.00321843 0.00853768
v -0.0113959 0.00617893 0.00547554
v -0.0114685 0.0134031 0.00919207
v -0.0134289 0.0169715 0.0060424
v -0.0136915 0.0169715 0.00538384
v 0.00541612 0.0169715 0.0135616
v 0.00506145 0.0169715 0.0136019
v -0.00678234 0.0067707 0.0104203
v -0.00438901 0.0169715 0.0138006
v -0.00826526 0.0156409 0.0122
v -0.0120912 0.0169715 0.00899895
v -0.0112814 0.0169715 0.0100618
v -0.00722638 0.0169715 0.0128614
v -0.00866741 0.0169715 0.0121472
f 1 2 3
f 1 3 4
f 1 4 5
f 1 5 10
f 1 10 23
f 1 23 32
f 1 32 41
f 1 41 40
f 1 40 47
f 1 47 48
f 1 48 50
f 1 50 49
f 1 49 45
f 1 45 43
f 1 43 42
f 1 42 33
f 1 33 24
f 1 24 6
f 1 6 7
f 1 7 2
f 2 7 8
f 2 8 9
f 2 9 3
f 3 9 4
f 4 10 5
f 4 9 11
f 4 11 12
f 4 12 13
f 4 13 14
f 4 14 15
f 4 15 16
f 4 16 17
f 4 17 18
f 4 18 19
f 4 19 20
f 4 20 21
f 4 21 22
f 4 22 23
f 4 23 10
f 6 24 7
f 7 24 25
f 7 25 8
f 8 26 27
f 8 27 9
f 8 25 26
f 9 12 11
f 9 27 13
f 9 13 12
f 13 27 14
f 14 27 15
f 15 27 28
f 15 28 16
f 16 28 29
f 16 29 17
f 17 29 18
f 18 29 19
f 19 29 30
f 19 30 20
f 20 30 23
f 20 23 21
f 21 23 22
f 23 30 31
f 23 31 32
f 24 33 25
f 25 33 34
f 25 34 26
f 26 35 27
f 26 34 36
f 26 36 35
f 27 35 28
f 28 35 37
f 28 37 29
f 29 37 38
f 29 38 30
f 30 38 31
f 31 38 39
f 31 39 40
f 31 40 41
f 31 41 32
f 33 42 34
f 34 42 43
f 34 43 36
f 35 36 44
f 35 44 37
f 36 45 46
f 36 46 44
f 36 43 45
f 37 44 38
f 38 44 39
f 39 47 40
f 39 44 46
f 39 46 48
f 39 48 47
f 45 49 46
f 46 49 50
f 46 50 48
