v 0.014492 0.0169715 -0.00334879
v 0.0138907 0.0105927 -0.000393005
v 0.014492 0.0169715 -0.00374499
v -0.0143423 0.0169715 -0.00276202
v 0.0138907 0.0105927 -0.000394376
v 0.00218369 0.0110309 -0.000393005
v 0.0115279 0.0040677 -0.000393005
v 0.0138992 0.0169715 -0.00620174
v 0.0135774 0.0139298 -0.00590013
v -0.014314 0.0169715 -0.00415628
v -0.0136309 0.0111007 -0.000393005
v -0.00519568 0.0110926 -0.000393005
v 0.012451 0.00716462 -0.00388483
v 0.0109887 0.00331132 -0.000393005
v 0.0136282 0.0169715 -0.0068598
v 0.0116408 0.0135614 -0.0096072
v 0.0126119 0.0169715 -0.00887648
v -0.0142209 0.0169715 -0.00458813
v -0.0141616 0.0161502 -0.00437563
v -0.011251 0.00509676 -0.00665964
v -0.0131876 0.00918379 -0.000393005
v 0.00785795 0.00271077 -0.00771117
v 0.00953482 0.00646506 -0.00909172
v 0.00791441 0.00207775 -0.000393005
v 0.00737239 0.00919515 -0.0114964
v 0.011367 0.0169715 -0.0107369
v -0.0120217 0.0169715 -0.00958663
v -0.0119342 0.0160886 -0.00954139
v -0.00995528 0.00293476 -0.000393005
v -0.00664106 0.0129673 -0.0130318
v -0.00390838 0.00500911 -0.0111605
v -0.0050263 0.00106167 -0.0053682
v 0.0034851 0.000391322 -0.00140614
v -0.000416311 0.00138305 -0.0072327
v 0.0038041 0.00382098 -0.0104819
v 0.00391984 0.00060557 -0.000393005
v 0.00593548 0.0169715 -0.0138736
v 0.00958564 0.0169715 -0.0120201
v 0.00210182 0.00939642 -0.0129139
v -0.0114967 0.0169715 -0.010135
v -0.00850708 0.00206314 -0.000393005
v -0.00814291 0.0169715 -0.0128728
v -0.00607646 0.0169715 -0.0138078
v -0.00262956 0.0169715 -0.0142671
v -0.00167255 0.0169715 -0.0143438
v -0.00342 0.00086852 -0.000393005
v 0.00236718 0.000454622 -0.000393005
v 0.00510833 0.0169715 -0.0140875
v 0.00211029 0.0169715 -0.0143987
f 1 2 5
f 1 5 3
f 1 3 8
f 1 8 15
f 1 15 17
f 1 17 26
f 1 26 38
f 1 38 37
f 1 37 48
f 1 48 49
f 1 49 45
f 1 45 44
f 1 44 43
f 1 43 42
f 1 42 40
f 1 40 27
f 1 27 18
f 1 18 10
f 1 10 4
f 1 4 2
f 2 4 6
f 2 6 12
f 2 12 11
f 2 11 21
f 2 21 29
f 2 29 41
f 2 41 46
f 2 46 47
f 2 47 36
f 2 36 24
f 2 24 14
f 2 14 7
f 2 7 5
f 3 5 9
f 3 9 8
f 4 10 11
f 4 11 12
f 4 12 6
f 5 7 13
f 5 13 9
f 7 14 13
f 8 9 15
f 9 13 16
f 9 16 17
f 9 17 15
f 10 18 19
f 10 19 11
f 11 19 20
f 11 20 21
f 13 14 22
f 13 22 23
f 13 23 16
f 14 24 22
f 16 23 25
f 16 25 26
f 16 26 17
f 18 27 28
f 18 28 20
f 18 20 19
f 20 29 21
f 20 28 30
f 20 30 31
f 20 31 32
f 20 32 29
f 22 24 33
f 22 33 34
f 22 34 35
f 22 35 23
f 23 35 25
f 24 36 33
f 25 37 38
f 25 38 26
f 25 35 39
f 25 39 37
f 27 40 28
f 28 40 30
f 29 32 41
f 30 42 43
f 30 43 44
f 30 44 45
f 30 45 39
f 30 39 31
f 30 40 42
f 31 39 35
f 31 35 34
f 31 34 32
f 32 46 41
f 32 34 33
f 32 33 47
f 32 47 46
f 33 36 47
f 37 39 48
f 39 45 49
f 39 49 48
