#VRML V2.0 utf8

# Vertices: 51
# Triangles: 98

Group {
    children [
        Shape {
            appearance Appearance {
                material Material {
                    diffuseColor 0.070000 0.490000 0.730000
                    ambientIntensity 0.400000
                    specularColor 0.500000 0.500000 0.500000
                    emissiveColor 0.000000 0.000000 0.000000
                    shininess 0.400000
                    transparency 0.500000
                }
            }
            geometry IndexedFaceSet {
                ccw TRUE
                solid TRUE
                convex TRUE
                coord DEF co Coordinate {
                    point [
                        -0.001295 0.195226 0.003558,
                        0.001674 0.190388 0.003307,
                        0.002101 0.196681 0.003241,
                        0.000794 0.203196 0.003086,
                        -0.000477 0.205562 0.001963,
                        -0.001611 0.199502 0.002168,
                        -0.002929 0.186878 0.001793,
                        -0.003789 0.106716 0.000741,
                        -0.002990 0.106716 0.001358,
                        -0.001646 0.106716 0.002217,
                        -0.001615 0.106716 0.002217,
                        0.001386 0.106716 0.002293,
                        0.001397 0.106716 0.002293,
                        0.001237 0.204873 -0.002819,
                        0.002396 0.106716 0.001873,
                        0.002406 0.106716 0.001866,
                        0.002421 0.106716 0.001855,
                        0.003837 0.106716 0.000717,
                        0.003819 0.175864 0.000730,
                        0.003207 0.185288 0.001587,
                        0.003858 0.179355 -0.001290,
                        0.003022 0.187809 -0.001426,
                        0.000356 0.205756 -0.001454,
                        -0.001243 0.202362 -0.003637,
                        -0.002072 0.195381 -0.002397,
                        -0.003817 0.179151 -0.000992,
                        -0.003786 0.179103 0.000595,
                        -0.003661 0.175157 0.000856,
                        -0.003808 0.106823 0.000608,
                        -0.003799 0.106716 -0.001016,
                        0.001984 0.196370 -0.004118,
                        -0.000485 0.196060 -0.004740,
                        0.003939 0.106716 -0.000533,
                        0.003784 0.179161 -0.001420,
                        0.003556 0.106735 -0.001653,
                        -0.001823 0.190883 -0.003793,
                        -0.003276 0.180334 -0.001854,
                        -0.003775 0.106716 -0.001297,
                        -0.003846 0.107550 -0.000490,
                        -0.003821 0.152818 0.000232,
                        0.003515 0.106716 -0.001683,
                        0.002121 0.106716 -0.002708,
                        0.002109 0.106716 -0.002717,
                        0.001623 0.106716 -0.002829,
                        0.001212 0.107191 -0.002924,
                        -0.000172 0.106716 -0.002924,
                        -0.001594 0.106716 -0.002925,
                        -0.001633 0.106716 -0.002925,
                        0.003568 0.106716 -0.001616,
                        -0.001674 0.106716 -0.002898,
                        -0.003750 0.106716 -0.001320,
                    ]
                }
                coordIndex [ 
                        0, 1, 2, -1,
                        0, 2, 3, -1,
                        0, 3, 4, -1,
                        0, 4, 5, -1,
                        0, 5, 6, -1,
                        0, 6, 7, -1,
                        0, 7, 8, -1,
                        0, 8, 9, -1,
                        0, 9, 10, -1,
                        0, 10, 11, -1,
                        0, 11, 12, -1,
                        0, 12, 1, -1,
                        1, 12, 2, -1,
                        2, 13, 3, -1,
                        2, 12, 14, -1,
                        2, 14, 15, -1,
                        2, 15, 16, -1,
                        2, 16, 17, -1,
                        2, 17, 18, -1,
                        2, 18, 19, -1,
                        2, 19, 20, -1,
                        2, 20, 21, -1,
                        2, 21, 13, -1,
                        3, 13, 22, -1,
                        3, 22, 4, -1,
                        4, 22, 23, -1,
                        4, 23, 5, -1,
                        5, 23, 24, -1,
                        5, 24, 25, -1,
                        5, 25, 26, -1,
                        5, 26, 6, -1,
                        6, 26, 27, -1,
                        6, 27, 7, -1,
                        7, 28, 29, -1,
                        7, 29, 37, -1,
                        7, 37, 50, -1,
                        7, 50, 49, -1,
                        7, 49, 47, -1,
                        7, 47, 46, -1,
                        7, 46, 45, -1,
                        7, 45, 43, -1,
                        7, 43, 42, -1,
                        7, 42, 41, -1,
                        7, 41, 40, -1,
                        7, 40, 48, -1,
                        7, 48, 32, -1,
                        7, 32, 17, -1,
                        7, 17, 16, -1,
                        7, 16, 15, -1,
                        7, 15, 14, -1,
                        7, 14, 12, -1,
                        7, 12, 11, -1,
                        7, 11, 10, -1,
                        7, 10, 9, -1,
                        7, 9, 8, -1,
                        7, 27, 26, -1,
                        7, 26, 28, -1,
                        13, 21, 30, -1,
                        13, 30, 31, -1,
                        13, 31, 23, -1,
                        13, 23, 22, -1,
                        17, 32, 18, -1,
                        18, 20, 19, -1,
                        18, 32, 20, -1,
                        20, 33, 30, -1,
                        20, 30, 21, -1,
                        20, 32, 34, -1,
                        20, 34, 33, -1,
                        23, 31, 35, -1,
                        23, 35, 25, -1,
                        23, 25, 24, -1,
                        25, 35, 36, -1,
                        25, 36, 37, -1,
                        25, 37, 38, -1,
                        25, 38, 39, -1,
                        25, 39, 26, -1,
                        26, 39, 28, -1,
                        28, 38, 29, -1,
                        28, 39, 38, -1,
                        29, 38, 37, -1,
                        30, 33, 34, -1,
                        30, 34, 40, -1,
                        30, 40, 41, -1,
                        30, 41, 42, -1,
                        30, 42, 31, -1,
                        31, 42, 43, -1,
                        31, 43, 44, -1,
                        31, 44, 45, -1,
                        31, 45, 46, -1,
                        31, 46, 47, -1,
                        31, 47, 35, -1,
                        32, 48, 34, -1,
                        34, 48, 40, -1,
                        35, 47, 49, -1,
                        35, 49, 50, -1,
                        35, 50, 37, -1,
                        35, 37, 36, -1,
                        43, 45, 44, -1,
                ]
            }
        }
    ]
}
#VRML V2.0 utf8

# Vertices: 56
# Triangles: 108

Group {
    children [
        Shape {
            appearance Appearance {
                material Material {
                    diffuseColor 0.580000 0.300000 0.720000
                    ambientIntensity 0.400000
                    specularColor 0.500000 0.500000 0.500000
                    emissiveColor 0.000000 0.000000 0.000000
                    shininess 0.400000
                    transparency 0.500000
                }
            }
            geometry IndexedFaceSet {
                ccw TRUE
                solid TRUE
                convex TRUE
                coord DEF co Coordinate {
                    point [
                        -0.011510 0.099027 -0.002899,
                        -0.010095 0.098690 0.007765,
                        -0.008439 0.106213 0.005375,
                        -0.008333 0.106203 -0.006504,
                        -0.009894 0.100036 -0.008678,
                        -0.009751 0.080884 -0.005372,
                        -0.009737 0.080884 0.005030,
                        -0.008468 0.080884 0.006684,
                        -0.004953 0.080884 0.009079,
                        -0.005300 0.098974 0.010887,
                        -0.007635 0.102683 0.008726,
                        -0.003789 0.106716 0.000740,
                        -0.003798 0.106716 -0.001015,
                        -0.003372 0.106107 0.008544,
                        -0.001644 0.106716 0.002216,
                        -0.002989 0.106716 0.001357,
                        -0.003773 0.106716 -0.001296,
                        -0.003751 0.106716 -0.001320,
                        -0.001673 0.106716 -0.002897,
                        -0.001633 0.106716 -0.002924,
                        0.000557 0.106038 -0.009171,
                        -0.006010 0.104139 -0.009423,
                        -0.005636 0.099570 -0.011555,
                        -0.006820 0.080884 -0.008674,
                        0.003557 0.080884 0.008907,
                        0.005648 0.099482 0.011224,
                        0.005236 0.104246 0.009230,
                        0.008372 0.106152 0.006660,
                        0.001396 0.106716 0.002292,
                        0.001385 0.106716 0.002292,
                        -0.000171 0.106716 -0.002924,
                        0.008538 0.106218 -0.000422,
                        0.008979 0.104810 -0.008141,
                        0.006722 0.099520 -0.011271,
                        0.001622 0.106716 -0.002828,
                        0.002108 0.106716 -0.002716,
                        0.003514 0.106716 -0.001682,
                        -0.000113 0.080884 -0.009564,
                        -0.004904 0.080884 -0.009387,
                        0.006001 0.080884 0.008169,
                        0.009134 0.098799 0.008878,
                        0.010421 0.100713 0.006497,
                        0.011361 0.099565 -0.002353,
                        0.003837 0.106716 0.000715,
                        0.002406 0.106716 0.001866,
                        0.002395 0.106716 0.001872,
                        0.003568 0.106716 -0.001615,
                        0.003937 0.106716 -0.000531,
                        0.010752 0.096084 -0.005940,
                        0.009494 0.080884 -0.006132,
                        0.009185 0.080884 -0.006466,
                        0.005137 0.080884 -0.009320,
                        0.006013 0.080884 0.008160,
                        0.009431 0.080884 0.005322,
                        0.010958 0.096883 0.005507,
                        0.009689 0.080884 -0.005452,
                    ]
                }
                coordIndex [ 
                        0, 1, 2, -1,
                        0, 2, 3, -1,
                        0, 3, 4, -1,
                        0, 4, 5, -1,
                        0, 5, 6, -1,
                        0, 6, 1, -1,
                        1, 6, 7, -1,
                        1, 7, 8, -1,
                        1, 8, 9, -1,
                        1, 9, 10, -1,
                        1, 10, 2, -1,
                        2, 11, 12, -1,
                        2, 12, 3, -1,
                        2, 10, 13, -1,
                        2, 13, 14, -1,
                        2, 14, 15, -1,
                        2, 15, 11, -1,
                        3, 12, 16, -1,
                        3, 16, 17, -1,
                        3, 17, 18, -1,
                        3, 18, 19, -1,
                        3, 19, 20, -1,
                        3, 20, 21, -1,
                        3, 21, 4, -1,
                        4, 22, 23, -1,
                        4, 23, 5, -1,
                        4, 21, 22, -1,
                        5, 23, 38, -1,
                        5, 38, 37, -1,
                        5, 37, 51, -1,
                        5, 51, 50, -1,
                        5, 50, 49, -1,
                        5, 49, 55, -1,
                        5, 55, 53, -1,
                        5, 53, 52, -1,
                        5, 52, 39, -1,
                        5, 39, 24, -1,
                        5, 24, 8, -1,
                        5, 8, 7, -1,
                        5, 7, 6, -1,
                        8, 24, 25, -1,
                        8, 25, 9, -1,
                        9, 25, 13, -1,
                        9, 13, 10, -1,
                        11, 15, 14, -1,
                        11, 14, 29, -1,
                        11, 29, 28, -1,
                        11, 28, 45, -1,
                        11, 45, 44, -1,
                        11, 44, 43, -1,
                        11, 43, 47, -1,
                        11, 47, 46, -1,
                        11, 46, 36, -1,
                        11, 36, 35, -1,
                        11, 35, 34, -1,
                        11, 34, 30, -1,
                        11, 30, 19, -1,
                        11, 19, 18, -1,
                        11, 18, 17, -1,
                        11, 17, 16, -1,
                        11, 16, 12, -1,
                        13, 25, 26, -1,
                        13, 26, 27, -1,
                        13, 27, 28, -1,
                        13, 28, 29, -1,
                        13, 29, 14, -1,
                        19, 30, 20, -1,
                        20, 31, 32, -1,
                        20, 32, 33, -1,
                        20, 33, 22, -1,
                        20, 22, 21, -1,
                        20, 30, 34, -1,
                        20, 34, 35, -1,
                        20, 35, 36, -1,
                        20, 36, 31, -1,
                        22, 33, 37, -1,
                        22, 37, 38, -1,
                        22, 38, 23, -1,
                        24, 39, 25, -1,
                        25, 39, 40, -1,
                        25, 40, 27, -1,
                        25, 27, 26, -1,
                        27, 40, 41, -1,
                        27, 41, 42, -1,
                        27, 42, 31, -1,
                        27, 31, 43, -1,
                        27, 43, 44, -1,
                        27, 44, 45, -1,
                        27, 45, 28, -1,
                        31, 42, 32, -1,
                        31, 36, 46, -1,
                        31, 46, 47, -1,
                        31, 47, 43, -1,
                        32, 42, 48, -1,
                        32, 48, 33, -1,
                        33, 48, 49, -1,
                        33, 49, 50, -1,
                        33, 50, 51, -1,
                        33, 51, 37, -1,
                        39, 52, 40, -1,
                        40, 52, 53, -1,
                        40, 53, 54, -1,
                        40, 54, 41, -1,
                        41, 54, 42, -1,
                        42, 54, 55, -1,
                        42, 55, 48, -1,
                        48, 55, 49, -1,
                        53, 55, 54, -1,
                ]
            }
        }
    ]
}
#VRML V2.0 utf8

# Vertices: 122
# Triangles: 240

Group {
    children [
        Shape {
            appearance Appearance {
                material Material {
                    diffuseColor 0.440000 0.780000 0.230000
                    ambientIntensity 0.400000
                    specularColor 0.500000 0.500000 0.500000
                    emissiveColor 0.000000 0.000000 0.000000
                    shininess 0.400000
                    transparency 0.500000
                }
            }
            geometry IndexedFaceSet {
                ccw TRUE
                solid TRUE
                convex TRUE
                coord DEF co Coordinate {
                    point [
                        0.000873 0.039118 0.016252,
                        0.008458 0.043673 0.014017,
                        0.003809 0.049735 0.014474,
                        -0.002219 0.050104 0.014600,
                        -0.008251 0.042096 0.014313,
                        -0.007150 0.033632 0.015057,
                        -0.000936 0.029040 0.015366,
                        0.005061 0.016972 0.013601,
                        0.005416 0.016972 0.013563,
                        0.007901 0.029803 0.014461,
                        0.013136 0.037460 0.010896,
                        0.010690 0.052050 0.011495,
                        0.005999 0.080878 0.008167,
                        0.005932 0.062641 0.011459,
                        0.003556 0.080878 0.008905,
                        -0.004954 0.080878 0.009079,
                        -0.011347 0.051599 0.011182,
                        -0.012426 0.038956 0.011401,
                        -0.010899 0.024323 0.011852,
                        -0.008668 0.016972 0.012145,
                        -0.007227 0.016972 0.012860,
                        -0.005229 0.019530 0.014133,
                        -0.004387 0.016972 0.013798,
                        0.010030 0.016972 0.011398,
                        0.010786 0.016972 0.010809,
                        0.012883 0.029797 0.010567,
                        0.015162 0.035771 0.007984,
                        0.015761 0.042472 0.007082,
                        0.010411 0.066833 0.008206,
                        0.006012 0.080878 0.008161,
                        -0.008466 0.080878 0.006683,
                        -0.015407 0.044830 0.006608,
                        -0.009737 0.080878 0.005030,
                        -0.014661 0.036184 0.008409,
                        -0.013268 0.023722 0.008631,
                        -0.012090 0.016972 0.008998,
                        -0.011280 0.016972 0.010061,
                        0.013065 0.016972 0.007295,
                        0.015729 0.034495 0.006802,
                        0.016443 0.039631 -0.003985,
                        0.015633 0.049347 -0.001679,
                        0.012777 0.066420 0.000733,
                        0.009431 0.080878 0.005320,
                        -0.016214 0.043097 0.004170,
                        -0.015788 0.034395 0.005182,
                        -0.009750 0.080878 -0.005370,
                        -0.011949 0.071062 -0.000420,
                        -0.016102 0.047689 0.001068,
                        -0.014888 0.023478 0.004466,
                        -0.013992 0.023028 0.006596,
                        -0.013428 0.016972 0.006038,
                        0.014199 0.016972 0.004354,
                        0.015335 0.024811 0.003903,
                        0.014653 0.017510 -0.003364,
                        0.014848 0.025937 -0.007087,
                        0.014848 0.034257 -0.008785,
                        0.015473 0.040839 -0.007535,
                        0.014461 0.053145 -0.006356,
                        0.011237 0.073802 -0.002626,
                        0.009687 0.080878 -0.005451,
                        -0.016265 0.037091 -0.001312,
                        -0.015660 0.024266 -0.002211,
                        -0.006820 0.080878 -0.008672,
                        -0.010870 0.063424 -0.008872,
                        -0.014658 0.045837 -0.008221,
                        -0.014447 0.054346 -0.004050,
                        -0.015756 0.040820 -0.006639,
                        -0.014744 0.018798 0.000827,
                        -0.014002 0.016972 0.004595,
                        -0.013691 0.016972 0.005381,
                        0.014493 0.016972 -0.003348,
                        0.014493 0.016972 -0.003744,
                        0.013901 0.016972 -0.006201,
                        0.013696 0.020788 -0.008060,
                        0.014439 0.043498 -0.009416,
                        0.010971 0.021845 -0.012347,
                        0.011733 0.032950 -0.013094,
                        0.009492 0.080878 -0.006134,
                        -0.014860 0.025980 -0.006926,
                        -0.014315 0.016972 -0.004153,
                        -0.014344 0.016972 -0.002758,
                        -0.004902 0.080878 -0.009387,
                        -0.006039 0.052500 -0.013867,
                        -0.009833 0.039594 -0.014373,
                        -0.011584 0.050098 -0.011506,
                        -0.014322 0.038868 -0.009719,
                        -0.014328 0.016972 0.002122,
                        0.013629 0.016972 -0.006859,
                        0.012611 0.016972 -0.008875,
                        0.011365 0.016972 -0.010737,
                        0.010782 0.045481 -0.013339,
                        0.010968 0.058024 -0.010263,
                        0.005673 0.018398 -0.014309,
                        0.005519 0.033000 -0.015903,
                        0.009585 0.016972 -0.012019,
                        0.005935 0.016972 -0.013874,
                        0.006169 0.041295 -0.016035,
                        0.009185 0.080878 -0.006466,
                        -0.013073 0.027532 -0.010125,
                        -0.012023 0.016972 -0.009587,
                        -0.014219 0.016972 -0.004584,
                        -0.000110 0.080878 -0.009564,
                        -0.000753 0.046269 -0.015951,
                        -0.004640 0.041227 -0.016228,
                        -0.004925 0.035552 -0.016148,
                        -0.010694 0.030860 -0.013468,
                        0.005138 0.080878 -0.009319,
                        0.002112 0.018755 -0.014747,
                        0.001629 0.027788 -0.015897,
                        0.005109 0.016972 -0.014086,
                        0.000335 0.036428 -0.016647,
                        0.004661 0.050223 -0.014792,
                        -0.011495 0.016972 -0.010134,
                        -0.002421 0.032531 -0.016312,
                        -0.005024 0.024423 -0.015249,
                        -0.009583 0.020819 -0.012717,
                        0.002109 0.016972 -0.014396,
                        -0.001675 0.016972 -0.014344,
                        -0.001992 0.017610 -0.014463,
                        -0.008143 0.016972 -0.012872,
                        -0.002629 0.016972 -0.014267,
                        -0.006074 0.016972 -0.013806,
                    ]
                }
                coordIndex [ 
                        0, 1, 2, -1,
                        0, 2, 3, -1,
                        0, 3, 4, -1,
                        0, 4, 5, -1,
                        0, 5, 6, -1,
                        0, 6, 7, -1,
                        0, 7, 8, -1,
                        0, 8, 9, -1,
                        0, 9, 1, -1,
                        1, 9, 10, -1,
                        1, 10, 11, -1,
                        1, 11, 12, -1,
                        1, 12, 13, -1,
                        1, 13, 2, -1,
                        2, 13, 12, -1,
                        2, 12, 14, -1,
                        2, 14, 3, -1,
                        3, 14, 15, -1,
                        3, 15, 4, -1,
                        4, 16, 17, -1,
                        4, 17, 5, -1,
                        4, 15, 16, -1,
                        5, 18, 19, -1,
                        5, 19, 20, -1,
                        5, 20, 21, -1,
                        5, 21, 6, -1,
                        5, 17, 18, -1,
                        6, 21, 22, -1,
                        6, 22, 7, -1,
                        7, 22, 20, -1,
                        7, 20, 19, -1,
                        7, 19, 36, -1,
                        7, 36, 35, -1,
                        7, 35, 50, -1,
                        7, 50, 69, -1,
                        7, 69, 68, -1,
                        7, 68, 86, -1,
                        7, 86, 80, -1,
                        7, 80, 79, -1,
                        7, 79, 100, -1,
                        7, 100, 99, -1,
                        7, 99, 112, -1,
                        7, 112, 119, -1,
                        7, 119, 121, -1,
                        7, 121, 120, -1,
                        7, 120, 117, -1,
                        7, 117, 116, -1,
                        7, 116, 109, -1,
                        7, 109, 95, -1,
                        7, 95, 94, -1,
                        7, 94, 89, -1,
                        7, 89, 88, -1,
                        7, 88, 87, -1,
                        7, 87, 72, -1,
                        7, 72, 71, -1,
                        7, 71, 70, -1,
                        7, 70, 51, -1,
                        7, 51, 37, -1,
                        7, 37, 24, -1,
                        7, 24, 23, -1,
                        7, 23, 8, -1,
                        8, 23, 9, -1,
                        9, 23, 24, -1,
                        9, 24, 25, -1,
                        9, 25, 10, -1,
                        10, 26, 27, -1,
                        10, 27, 11, -1,
                        10, 25, 26, -1,
                        11, 27, 28, -1,
                        11, 28, 29, -1,
                        11, 29, 12, -1,
                        12, 29, 42, -1,
                        12, 42, 59, -1,
                        12, 59, 77, -1,
                        12, 77, 97, -1,
                        12, 97, 106, -1,
                        12, 106, 101, -1,
                        12, 101, 81, -1,
                        12, 81, 62, -1,
                        12, 62, 45, -1,
                        12, 45, 32, -1,
                        12, 32, 30, -1,
                        12, 30, 15, -1,
                        12, 15, 14, -1,
                        15, 30, 16, -1,
                        16, 31, 17, -1,
                        16, 30, 32, -1,
                        16, 32, 31, -1,
                        17, 31, 33, -1,
                        17, 33, 18, -1,
                        18, 33, 34, -1,
                        18, 34, 35, -1,
                        18, 35, 36, -1,
                        18, 36, 19, -1,
                        20, 22, 21, -1,
                        24, 37, 25, -1,
                        25, 37, 38, -1,
                        25, 38, 26, -1,
                        26, 38, 27, -1,
                        27, 38, 39, -1,
                        27, 39, 40, -1,
                        27, 40, 41, -1,
                        27, 41, 42, -1,
                        27, 42, 28, -1,
                        28, 42, 29, -1,
                        31, 43, 44, -1,
                        31, 44, 33, -1,
                        31, 32, 43, -1,
                        32, 45, 46, -1,
                        32, 46, 47, -1,
                        32, 47, 43, -1,
                        33, 44, 34, -1,
                        34, 48, 49, -1,
                        34, 49, 50, -1,
                        34, 50, 35, -1,
                        34, 44, 48, -1,
                        37, 51, 38, -1,
                        38, 51, 52, -1,
                        38, 52, 39, -1,
                        39, 52, 53, -1,
                        39, 53, 54, -1,
                        39, 54, 55, -1,
                        39, 55, 56, -1,
                        39, 56, 57, -1,
                        39, 57, 40, -1,
                        40, 57, 58, -1,
                        40, 58, 41, -1,
                        41, 58, 42, -1,
                        42, 58, 59, -1,
                        43, 60, 44, -1,
                        43, 47, 60, -1,
                        44, 60, 61, -1,
                        44, 61, 48, -1,
                        45, 62, 63, -1,
                        45, 63, 64, -1,
                        45, 64, 65, -1,
                        45, 65, 46, -1,
                        46, 65, 47, -1,
                        47, 65, 66, -1,
                        47, 66, 60, -1,
                        48, 61, 67, -1,
                        48, 67, 68, -1,
                        48, 68, 49, -1,
                        49, 68, 69, -1,
                        49, 69, 50, -1,
                        51, 70, 53, -1,
                        51, 53, 52, -1,
                        53, 70, 71, -1,
                        53, 71, 54, -1,
                        54, 71, 72, -1,
                        54, 72, 73, -1,
                        54, 73, 55, -1,
                        55, 74, 56, -1,
                        55, 73, 75, -1,
                        55, 75, 76, -1,
                        55, 76, 74, -1,
                        56, 74, 57, -1,
                        57, 74, 77, -1,
                        57, 77, 59, -1,
                        57, 59, 58, -1,
                        60, 66, 61, -1,
                        61, 78, 79, -1,
                        61, 79, 80, -1,
                        61, 80, 67, -1,
                        61, 66, 78, -1,
                        62, 81, 82, -1,
                        62, 82, 83, -1,
                        62, 83, 84, -1,
                        62, 84, 63, -1,
                        63, 84, 64, -1,
                        64, 84, 85, -1,
                        64, 85, 66, -1,
                        64, 66, 65, -1,
                        66, 85, 78, -1,
                        67, 80, 86, -1,
                        67, 86, 68, -1,
                        72, 87, 73, -1,
                        73, 87, 88, -1,
                        73, 88, 89, -1,
                        73, 89, 75, -1,
                        74, 76, 90, -1,
                        74, 90, 91, -1,
                        74, 91, 77, -1,
                        75, 92, 93, -1,
                        75, 93, 76, -1,
                        75, 89, 94, -1,
                        75, 94, 95, -1,
                        75, 95, 92, -1,
                        76, 93, 96, -1,
                        76, 96, 90, -1,
                        77, 91, 97, -1,
                        78, 98, 99, -1,
                        78, 99, 100, -1,
                        78, 100, 79, -1,
                        78, 85, 98, -1,
                        81, 101, 102, -1,
                        81, 102, 103, -1,
                        81, 103, 82, -1,
                        82, 103, 83, -1,
                        83, 103, 104, -1,
                        83, 104, 105, -1,
                        83, 105, 85, -1,
                        83, 85, 84, -1,
                        85, 105, 98, -1,
                        90, 96, 106, -1,
                        90, 106, 97, -1,
                        90, 97, 91, -1,
                        92, 107, 108, -1,
                        92, 108, 93, -1,
                        92, 95, 109, -1,
                        92, 109, 107, -1,
                        93, 108, 110, -1,
                        93, 110, 96, -1,
                        96, 110, 102, -1,
                        96, 102, 111, -1,
                        96, 111, 106, -1,
                        98, 105, 99, -1,
                        99, 105, 112, -1,
                        101, 106, 102, -1,
                        102, 106, 111, -1,
                        102, 110, 103, -1,
                        103, 110, 104, -1,
                        104, 110, 113, -1,
                        104, 113, 114, -1,
                        104, 114, 105, -1,
                        105, 114, 115, -1,
                        105, 115, 112, -1,
                        107, 109, 116, -1,
                        107, 116, 117, -1,
                        107, 117, 118, -1,
                        107, 118, 114, -1,
                        107, 114, 108, -1,
                        108, 114, 113, -1,
                        108, 113, 110, -1,
                        112, 115, 119, -1,
                        114, 118, 120, -1,
                        114, 120, 121, -1,
                        114, 121, 119, -1,
                        114, 119, 115, -1,
                        117, 120, 118, -1,
                ]
            }
        }
    ]
}
#VRML V2.0 utf8

# Vertices: 50
# Triangles: 96

Group {
    children [
        Shape {
            appearance Appearance {
                material Material {
                    diffuseColor 0.090000 0.400000 0.650000
                    ambientIntensity 0.400000
                    specularColor 0.500000 0.500000 0.500000
                    emissiveColor 0.000000 0.000000 0.000000
                    shininess 0.400000
                    transparency 0.500000
                }
            }
            geometry IndexedFaceSet {
                ccw TRUE
                solid TRUE
                convex TRUE
                coord DEF co Coordinate {
                    point [
                        0.014196 0.016972 0.004354,
                        0.013607 0.010931 0.003776,
                        0.013892 0.010593 -0.000392,
                        0.013892 0.010593 -0.000393,
                        0.013758 0.016972 0.003116,
                        0.013065 0.016972 0.007294,
                        0.012339 0.011581 0.007344,
                        0.009555 0.005967 0.008065,
                        0.011323 0.003375 0.000386,
                        0.013724 0.016972 0.003079,
                        0.011529 0.004067 -0.000392,
                        0.010990 0.003312 -0.000392,
                        0.007916 0.002077 -0.000392,
                        0.003919 0.000606 -0.000392,
                        0.002367 0.000454 -0.000392,
                        -0.003420 0.000868 -0.000392,
                        -0.008508 0.002064 -0.000392,
                        -0.009955 0.002935 -0.000392,
                        -0.013189 0.009185 -0.000392,
                        -0.013630 0.011101 -0.000392,
                        -0.005196 0.011093 -0.000392,
                        0.002185 0.011031 -0.000392,
                        -0.014328 0.016972 0.002123,
                        0.010784 0.016972 0.010809,
                        0.010409 0.014677 0.010852,
                        0.004891 0.005060 0.010863,
                        0.006262 0.001768 0.005075,
                        -0.002113 0.000711 0.003665,
                        -0.009625 0.002384 0.001203,
                        -0.013496 0.009835 0.000604,
                        -0.013513 0.013389 0.004666,
                        -0.014001 0.016972 0.004596,
                        0.010030 0.016972 0.011400,
                        0.005318 0.016456 0.013525,
                        0.000738 0.002664 0.009926,
                        -0.002233 0.010401 0.012941,
                        -0.005514 0.003218 0.008538,
                        -0.011396 0.006179 0.005476,
                        -0.011468 0.013403 0.009192,
                        -0.013429 0.016972 0.006042,
                        -0.013691 0.016972 0.005384,
                        0.005416 0.016972 0.013562,
                        0.005061 0.016972 0.013602,
                        -0.006782 0.006771 0.010420,
                        -0.004389 0.016972 0.013801,
                        -0.008265 0.015641 0.012200,
                        -0.012091 0.016972 0.008999,
                        -0.011281 0.016972 0.010062,
                        -0.007226 0.016972 0.012861,
                        -0.008667 0.016972 0.012147,
                    ]
                }
                coordIndex [ 
                        0, 1, 2, -1,
                        0, 2, 3, -1,
                        0, 3, 4, -1,
                        0, 4, 9, -1,
                        0, 9, 22, -1,
                        0, 22, 31, -1,
                        0, 31, 40, -1,
                        0, 40, 39, -1,
                        0, 39, 46, -1,
                        0, 46, 47, -1,
                        0, 47, 49, -1,
                        0, 49, 48, -1,
                        0, 48, 44, -1,
                        0, 44, 42, -1,
                        0, 42, 41, -1,
                        0, 41, 32, -1,
                        0, 32, 23, -1,
                        0, 23, 5, -1,
                        0, 5, 6, -1,
                        0, 6, 1, -1,
                        1, 6, 7, -1,
                        1, 7, 8, -1,
                        1, 8, 2, -1,
                        2, 8, 3, -1,
                        3, 9, 4, -1,
                        3, 8, 10, -1,
                        3, 10, 11, -1,
                        3, 11, 12, -1,
                        3, 12, 13, -1,
                        3, 13, 14, -1,
                        3, 14, 15, -1,
                        3, 15, 16, -1,
                        3, 16, 17, -1,
                        3, 17, 18, -1,
                        3, 18, 19, -1,
                        3, 19, 20, -1,
                        3, 20, 21, -1,
                        3, 21, 22, -1,
                        3, 22, 9, -1,
                        5, 23, 6, -1,
                        6, 23, 24, -1,
                        6, 24, 7, -1,
                        7, 25, 26, -1,
                        7, 26, 8, -1,
                        7, 24, 25, -1,
                        8, 11, 10, -1,
                        8, 26, 12, -1,
                        8, 12, 11, -1,
                        12, 26, 13, -1,
                        13, 26, 14, -1,
                        14, 26, 27, -1,
                        14, 27, 15, -1,
                        15, 27, 28, -1,
                        15, 28, 16, -1,
                        16, 28, 17, -1,
                        17, 28, 18, -1,
                        18, 28, 29, -1,
                        18, 29, 19, -1,
                        19, 29, 22, -1,
                        19, 22, 20, -1,
                        20, 22, 21, -1,
                        22, 29, 30, -1,
                        22, 30, 31, -1,
                        23, 32, 24, -1,
                        24, 32, 33, -1,
                        24, 33, 25, -1,
                        25, 34, 26, -1,
                        25, 33, 35, -1,
                        25, 35, 34, -1,
                        26, 34, 27, -1,
                        27, 34, 36, -1,
                        27, 36, 28, -1,
                        28, 36, 37, -1,
                        28, 37, 29, -1,
                        29, 37, 30, -1,
                        30, 37, 38, -1,
                        30, 38, 39, -1,
                        30, 39, 40, -1,
                        30, 40, 31, -1,
                        32, 41, 33, -1,
                        33, 41, 42, -1,
                        33, 42, 35, -1,
                        34, 35, 43, -1,
                        34, 43, 36, -1,
                        35, 44, 45, -1,
                        35, 45, 43, -1,
                        35, 42, 44, -1,
                        36, 43, 37, -1,
                        37, 43, 38, -1,
                        38, 46, 39, -1,
                        38, 43, 45, -1,
                        38, 45, 47, -1,
                        38, 47, 46, -1,
                        44, 48, 45, -1,
                        45, 48, 49, -1,
                        45, 49, 47, -1,
                ]
            }
        }
    ]
}
#VRML V2.0 utf8

# Vertices: 49
# Triangles: 94

Group {
    children [
        Shape {
            appearance Appearance {
                material Material {
                    diffuseColor 0.920000 0.420000 0.870000
                    ambientIntensity 0.400000
                    specularColor 0.500000 0.500000 0.500000
                    emissiveColor 0.000000 0.000000 0.000000
                    shininess 0.400000
                    transparency 0.500000
                }
            }
            geometry IndexedFaceSet {
                ccw TRUE
                solid TRUE
                convex TRUE
                coord DEF co Coordinate {
                    point [
                        0.014492 0.016972 -0.003349,
                        0.013891 0.010593 -0.000393,
                        0.014492 0.016972 -0.003745,
                        -0.014342 0.016972 -0.002762,
                        0.013891 0.010593 -0.000394,
                        0.002184 0.011031 -0.000393,
                        0.011528 0.004068 -0.000393,
                        0.013899 0.016972 -0.006202,
                        0.013577 0.013930 -0.005900,
                        -0.014314 0.016972 -0.004156,
                        -0.013631 0.011101 -0.000393,
                        -0.005196 0.011093 -0.000393,
                        0.012451 0.007165 -0.003885,
                        0.010989 0.003311 -0.000393,
                        0.013628 0.016972 -0.006860,
                        0.011641 0.013561 -0.009607,
                        0.012612 0.016972 -0.008876,
                        -0.014221 0.016972 -0.004588,
                        -0.014162 0.016150 -0.004376,
                        -0.011251 0.005097 -0.006660,
                        -0.013188 0.009184 -0.000393,
                        0.007858 0.002711 -0.007711,
                        0.009535 0.006465 -0.009092,
                        0.007914 0.002078 -0.000393,
                        0.007372 0.009195 -0.011496,
                        0.011367 0.016972 -0.010737,
                        -0.012022 0.016972 -0.009587,
                        -0.011934 0.016089 -0.009541,
                        -0.009955 0.002935 -0.000393,
                        -0.006641 0.012967 -0.013032,
                        -0.003908 0.005009 -0.011160,
                        -0.005026 0.001062 -0.005368,
                        0.003485 0.000391 -0.001406,
                        -0.000416 0.001383 -0.007233,
                        0.003804 0.003821 -0.010482,
                        0.003920 0.000606 -0.000393,
                        0.005935 0.016972 -0.013874,
                        0.009586 0.016972 -0.012020,
                        0.002102 0.009396 -0.012914,
                        -0.011497 0.016972 -0.010135,
                        -0.008507 0.002063 -0.000393,
                        -0.008143 0.016972 -0.012873,
                        -0.006076 0.016972 -0.013808,
                        -0.002630 0.016972 -0.014267,
                        -0.001673 0.016972 -0.014344,
                        -0.003420 0.000869 -0.000393,
                        0.002367 0.000455 -0.000393,
                        0.005108 0.016972 -0.014087,
                        0.002110 0.016972 -0.014399,
                    ]
                }
                coordIndex [ 
                        0, 1, 4, -1,
                        0, 4, 2, -1,
                        0, 2, 7, -1,
                        0, 7, 14, -1,
                        0, 14, 16, -1,
                        0, 16, 25, -1,
                        0, 25, 37, -1,
                        0, 37, 36, -1,
                        0, 36, 47, -1,
                        0, 47, 48, -1,
                        0, 48, 44, -1,
                        0, 44, 43, -1,
                        0, 43, 42, -1,
                        0, 42, 41, -1,
                        0, 41, 39, -1,
                        0, 39, 26, -1,
                        0, 26, 17, -1,
                        0, 17, 9, -1,
                        0, 9, 3, -1,
                        0, 3, 1, -1,
                        1, 3, 5, -1,
                        1, 5, 11, -1,
                        1, 11, 10, -1,
                        1, 10, 20, -1,
                        1, 20, 28, -1,
                        1, 28, 40, -1,
                        1, 40, 45, -1,
                        1, 45, 46, -1,
                        1, 46, 35, -1,
                        1, 35, 23, -1,
                        1, 23, 13, -1,
                        1, 13, 6, -1,
                        1, 6, 4, -1,
                        2, 4, 8, -1,
                        2, 8, 7, -1,
                        3, 9, 10, -1,
                        3, 10, 11, -1,
                        3, 11, 5, -1,
                        4, 6, 12, -1,
                        4, 12, 8, -1,
                        6, 13, 12, -1,
                        7, 8, 14, -1,
                        8, 12, 15, -1,
                        8, 15, 16, -1,
                        8, 16, 14, -1,
                        9, 17, 18, -1,
                        9, 18, 10, -1,
                        10, 18, 19, -1,
                        10, 19, 20, -1,
                        12, 13, 21, -1,
                        12, 21, 22, -1,
                        12, 22, 15, -1,
                        13, 23, 21, -1,
                        15, 22, 24, -1,
                        15, 24, 25, -1,
                        15, 25, 16, -1,
                        17, 26, 27, -1,
                        17, 27, 19, -1,
                        17, 19, 18, -1,
                        19, 28, 20, -1,
                        19, 27, 29, -1,
                        19, 29, 30, -1,
                        19, 30, 31, -1,
                        19, 31, 28, -1,
                        21, 23, 32, -1,
                        21, 32, 33, -1,
                        21, 33, 34, -1,
                        21, 34, 22, -1,
                        22, 34, 24, -1,
                        23, 35, 32, -1,
                        24, 36, 37, -1,
                        24, 37, 25, -1,
                        24, 34, 38, -1,
                        24, 38, 36, -1,
                        26, 39, 27, -1,
                        27, 39, 29, -1,
                        28, 31, 40, -1,
                        29, 41, 42, -1,
                        29, 42, 43, -1,
                        29, 43, 44, -1,
                        29, 44, 38, -1,
                        29, 38, 30, -1,
                        29, 39, 41, -1,
                        30, 38, 34, -1,
                        30, 34, 33, -1,
                        30, 33, 31, -1,
                        31, 45, 40, -1,
                        31, 33, 32, -1,
                        31, 32, 46, -1,
                        31, 46, 45, -1,
                        32, 35, 46, -1,
                        36, 38, 47, -1,
                        38, 44, 48, -1,
                        38, 48, 47, -1,
                ]
            }
        }
    ]
}
