v 0.000873303 0.0391183 0.0162521
v 0.008458 0.0436728 0.0140167
v 0.00380921 0.049735 0.0144741
v -0.00221949 0.0501041 0.0145997
v -0.00825138 0.0420963 0.014313
v -0.00715002 0.0336317 0.0150571
v -0.000935626 0.0290397 0.0153663
v 0.00506105 0.0169716 0.0136012
v 0.00541644 0.0169716 0.0135626
v 0.00790091 0.0298029 0.0144612
v 0.0131356 0.0374605 0.0108956
v 0.0106895 0.0520498 0.0114947
v 0.00599914 0.0808782 0.0081674
v 0.0059319 0.0626415 0.0114593
v 0.00355628 0.0808782 0.00890501
v -0.00495369 0.0808782 0.00907894
v -0.0113474 0.0515994 0.0111822
v -0.0124263 0.0389557 0.0114013
v -0.0108991 0.0243225 0.0118522
v -0.0086676 0.0169716 0.0121453
v -0.00722686 0.0169716 0.0128604
v -0.00522903 0.0195303 0.0141327
v -0.004387 0.0169716 0.0137977
v 0.01003 0.0169716 0.0113981
v 0.0107856 0.0169716 0.0108086
v 0.0128827 0.0297967 0.010567
v 0.0151622 0.0357713 0.00798381
v 0.015761 0.0424716 0.00708193
v 0.010411 0.0668331 0.00820605
v 0.00601194 0.0808782 0.00816096
v -0.00846589 0.0808782 0.00668253
v -0.0154071 0.0448302 0.00660845
v -0.00973695 0.0808782 0.00503016
v -0.0146611 0.0361842 0.00840898
v -0.0132684 0.0237219 0.00863122
v -0.0120902 0.0169716 0.00899842
v -0.0112801 0.0169716 0.0100613
v 0.0130652 0.0169716 0.00729452
v 0.0157289 0.034495 0.0068017
v 0.0164429 0.0396313 -0.00398538
v 0.0156329 0.0493472 -0.00167915
v 0.012777 0.0664202 0.000733365
v 0.0094313 0.0808782 0.00532005
v -0.0162139 0.0430973 0.00417016
v -0.0157881 0.0343949 0.00518155
v -0.00974975 0.0808782 -0.0053704
v -0.0119493 0.0710623 -0.000419748
v -0.0161018 0.0476893 0.00106835
v -0.0148884 0.023478 0.00446649
v -0.0139919 0.0230275 0.00659556
v -0.0134284 0.0169716 0.00603833
v 0.0141985 0.0169716 0.00435375
v 0.0153351 0.0248105 0.00390282
v 0.0146532 0.0175096 -0.00336373
v 0.0148485 0.0259366 -0.00708719
v 0.0148485 0.0342573 -0.00878465
v 0.0154728 0.0408388 -0.00753491
v 0.0144611 0.0531446 -0.00635603
v 0.011237 0.0738025 -0.00262612
v 0.00968743 0.0808782 -0.00545093
v -0.0162651 0.0370913 -0.00131196
v -0.01566 0.0242662 -0.00221062
v -0.00682025 0.0808782 -0.00867192
v -0.0108703 0.0634235 -0.00887162
v -0.0146579 0.0458375 -0.00822098
v -0.0144466 0.0543458 -0.0040498
v -0.015756 0.04082 -0.00663947
v -0.0147443 0.0187983 0.000826774
v -0.0140015 0.0169716 0.00459533
v -0.013691 0.0169716 0.00538125
v 0.0144931 0.0169716 -0.00334762
v 0.0144931 0.0169716 -0.00374381
v 0.0139008 0.0169716 -0.00620142
v 0.0136959 0.0207878 -0.00805993
v 0.0144387 0.0434976 -0.00941596
v 0.0109713 0.0218451 -0.0123471
v 0.0117333 0.0329498 -0.0130943
v 0.00949213 0.0808782 -0.00613378
v -0.0148596 0.0259804 -0.00692614
v -0.0143153 0.0169716 -0.00415287
v -0.0143441 0.0169716 -0.00275818
v -0.00490246 0.0808782 -0.00938698
v -0.00603905 0.0525003 -0.0138674
v -0.009833 0.0395938 -0.0143731
v -0.0115843 0.0500979 -0.0115064
v -0.0143217 0.0388681 -0.00971874
v -0.0143281 0.0169716 0.00212161
v 0.0136287 0.0169716 -0.0068585
v 0.0126105 0.0169716 -0.00887484
v 0.0113651 0.0169716 -0.0107366
v 0.0107824 0.0454808 -0.0133391
v 0.0109681 0.0580244 -0.0102631
v 0.00567257 0.018398 -0.0143086
v 0.00551889 0.0329998 -0.015903
v 0.00958498 0.0169716 -0.0120185
v 0.0059351 0.0169716 -0.0138738
v 0.00616882 0.0412955 -0.0160351
v 0.00918477 0.0808782 -0.00646554
v -0.0130731 0.0275319 -0.0101246
v -0.0120229 0.0169716 -0.00958668
v -0.0142192 0.0169716 -0.00458448
v -0.000109602 0.0808782 -0.00956413
v -0.000753132 0.0462691 -0.0159513
v -0.00463993 0.0412267 -0.0162284
v -0.00492488 0.0355523 -0.0161478
v -0.0106942 0.0308602 -0.013468
v 0.00513789 0.0808782 -0.00931933
v 0.00211234 0.0187546 -0.0147467
v 0.00162889 0.0277884 -0.0158966
v 0.00510908 0.0169716 -0.0140864
v 0.000335427 0.0364282 -0.0166471
v 0.00466085 0.050223 -0.0147918
v -0.0114946 0.0169716 -0.0101342
v -0.00242119 0.0325306 -0.0163121
v -0.00502413 0.0244226 -0.0152492
v -0.00958327 0.0208191 -0.0127175
v 0.00210914 0.0169716 -0.0143956
v -0.00167521 0.0169716 -0.0143441
v -0.00199217 0.0176097 -0.0144633
v -0.00814253 0.0169716 -0.0128721
v -0.0026293 0.0169716 -0.0142668
v -0.00607427 0.0169716 -0.0138062
f 1 2 3
f 1 3 4
f 1 4 5
f 1 5 6
f 1 6 7
f 1 7 8
f 1 8 9
f 1 9 10
f 1 10 2
f 2 10 11
f 2 11 12
f 2 12 13
f 2 13 14
f 2 14 3
f 3 14 13
f 3 13 15
f 3 15 4
f 4 15 16
f 4 16 5
f 5 17 18
f 5 18 6
f 5 16 17
f 6 19 20
f 6 20 21
f 6 21 22
f 6 22 7
f 6 18 19
f 7 22 23
f 7 23 8
f 8 23 21
f 8 21 20
f 8 20 37
f 8 37 36
f 8 36 51
f 8 51 70
f 8 70 69
f 8 69 87
f 8 87 81
f 8 81 80
f 8 80 101
f 8 101 100
f 8 100 113
f 8 113 120
f 8 120 122
f 8 122 121
f 8 121 118
f 8 118 117
f 8 117 110
f 8 110 96
f 8 96 95
f 8 95 90
f 8 90 89
f 8 89 88
f 8 88 73
f 8 73 72
f 8 72 71
f 8 71 52
f 8 52 38
f 8 38 25
f 8 25 24
f 8 24 9
f 9 24 10
f 10 24 25
f 10 25 26
f 10 26 11
f 11 27 28
f 11 28 12
f 11 26 27
f 12 28 29
f 12 29 30
f 12 30 13
f 13 30 43
f 13 43 60
f 13 60 78
f 13 78 98
f 13 98 107
f 13 107 102
f 13 102 82
f 13 82 63
f 13 63 46
f 13 46 33
f 13 33 31
f 13 31 16
f 13 16 15
f 16 31 17
f 17 32 18
f 17 31 33
f 17 33 32
f 18 32 34
f 18 34 19
f 19 34 35
f 19 35 36
f 19 36 37
f 19 37 20
f 21 23 22
f 25 38 26
f 26 38 39
f 26 39 27
f 27 39 28
f 28 39 40
f 28 40 41
f 28 41 42
f 28 42 43
f 28 43 29
f 29 43 30
f 32 44 45
f 32 45 34
f 32 33 44
f 33 46 47
f 33 47 48
f 33 48 44
f 34 45 35
f 35 49 50
f 35 50 51
f 35 51 36
f 35 45 49
f 38 52 39
f 39 52 53
f 39 53 40
f 40 53 54
f 40 54 55
f 40 55 56
f 40 56 57
f 40 57 58
f 40 58 41
f 41 58 59
f 41 59 42
f 42 59 43
f 43 59 60
f 44 61 45
f 44 48 61
f 45 61 62
f 45 62 49
f 46 63 64
f 46 64 65
f 46 65 66
f 46 66 47
f 47 66 48
f 48 66 67
f 48 67 61
f 49 62 68
f 49 68 69
f 49 69 50
f 50 69 70
f 50 70 51
f 52 71 54
f 52 54 53
f 54 71 72
f 54 72 55
f 55 72 73
f 55 73 74
f 55 74 56
f 56 75 57
f 56 74 76
f 56 76 77
f 56 77 75
f 57 75 58
f 58 75 78
f 58 78 60
f 58 60 59
f 61 67 62
f 62 79 80
f 62 80 81
f 62 81 68
f 62 67 79
f 63 82 83
f 63 83 84
f 63 84 85
f 63 85 64
f 64 85 65
f 65 85 86
f 65 86 67
f 65 67 66
f 67 86 79
f 68 81 87
f 68 87 69
f 73 88 74
f 74 88 89
f 74 89 90
f 74 90 76
f 75 77 91
f 75 91 92
f 75 92 78
f 76 93 94
f 76 94 77
f 76 90 95
f 76 95 96
f 76 96 93
f 77 94 97
f 77 97 91
f 78 92 98
f 79 99 100
f 79 100 101
f 79 101 80
f 79 86 99
f 82 102 103
f 82 103 104
f 82 104 83
f 83 104 84
f 84 104 105
f 84 105 106
f 84 106 86
f 84 86 85
f 86 106 99
f 91 97 107
f 91 107 98
f 91 98 92
f 93 108 109
f 93 109 94
f 93 96 110
f 93 110 108
f 94 109 111
f 94 111 97
f 97 111 103
f 97 103 112
f 97 112 107
f 99 106 100
f 100 106 113
f 102 107 103
f 103 107 112
f 103 111 104
f 104 111 105
f 105 111 114
f 105 114 115
f 105 115 106
f 106 115 116
f 106 116 113
f 108 110 117
f 108 117 118
f 108 118 119
f 108 119 115
f 108 115 109
f 109 115 114
f 109 114 111
f 113 116 120
f 115 119 121
f 115 121 122
f 115 122 120
f 115 120 116
f 118 121 119
