v -0.00129501 0.195226 0.0035575
v 0.00167411 0.190388 0.00330735
v 0.00210089 0.196681 0.00324075
v 0.000793894 0.203196 0.00308644
v -0.00047728 0.205562 0.0019632
v -0.00161128 0.199502 0.00216787
v -0.00292894 0.186878 0.00179345
v -0.00378934 0.106716 0.00074087
v -0.00298991 0.106716 0.00135812
v -0.00164557 0.106716 0.0022166
v -0.00161509 0.106716 0.00221741
v 0.00138604 0.106716 0.00229294
v 0.00139747 0.106716 0.00229294
v 0.00123667 0.204873 -0.0028189
v 0.00239582 0.106716 0.00187304
v 0.00240649 0.106716 0.00186574
v 0.00242097 0.106716 0.00185518
v 0.00383694 0.106716 0.000716505
v 0.00381865 0.175864 0.000730312
v 0.00320745 0.185288 0.00158716
v 0.00385828 0.179355 -0.00129038
v 0.00302226 0.187809 -0.00142602
v 0.00035569 0.205756 -0.00145363
v -0.00124318 0.202362 -0.00363676
v -0.00207234 0.195381 -0.00239657
v -0.00381678 0.179151 -0.000992315
v -0.00378629 0.179103 0.000595491
v -0.00366055 0.175157 0.000856199
v -0.00380763 0.106823 0.000608485
v -0.00379925 0.106716 -0.00101587
v 0.00198429 0.19637 -0.00411838
v -0.000484901 0.19606 -0.0047397
v 0.00393906 0.106716 -0.000532623
v 0.00378435 0.179161 -0.00142033
v 0.00355573 0.106735 -0.00165262
v -0.00182314 0.190883 -0.0037927
v -0.00327569 0.180334 -0.00185404
v -0.00377486 0.106716 -0.00129688
v -0.0038465 0.10755 -0.000489578
v -0.00382135 0.152818 0.000231635
v 0.00351457 0.106716 -0.00168267
v 0.0021207 0.106716 -0.00270763
v 0.00210851 0.106716 -0.00271657
v 0.00162305 0.106716 -0.00282865
v 0.00121228 0.107191 -0.00292448
v -0.00017168 0.106716 -0.00292448
v -0.00159375 0.106716 -0.0029253
v -0.00163262 0.106716 -0.0029253
v 0.00356792 0.106716 -0.00161607
v -0.00167377 0.106716 -0.00289768
v -0.00375048 0.106716 -0.00132043
f 1 2 3
f 1 3 4
f 1 4 5
f 1 5 6
f 1 6 7
f 1 7 8
f 1 8 9
f 1 9 10
f 1 10 11
f 1 11 12
f 1 12 13
f 1 13 2
f 2 13 3
f 3 14 4
f 3 13 15
f 3 15 16
f 3 16 17
f 3 17 18
f 3 18 19
f 3 19 20
f 3 20 21
f 3 21 22
f 3 22 14
f 4 14 23
f 4 23 5
f 5 23 24
f 5 24 6
f 6 24 25
f 6 25 26
f 6 26 27
f 6 27 7
f 7 27 28
f 7 28 8
f 8 29 30
f 8 30 38
f 8 38 51
f 8 51 50
f 8 50 48
f 8 48 47
f 8 47 46
f 8 46 44
f 8 44 43
f 8 43 42
f 8 42 41
f 8 41 49
f 8 49 33
f 8 33 18
f 8 18 17
f 8 17 16
f 8 16 15
f 8 15 13
f 8 13 12
f 8 12 11
f 8 11 10
f 8 10 9
f 8 28 27
f 8 27 29
f 14 22 31
f 14 31 32
f 14 32 24
f 14 24 23
f 18 33 19
f 19 21 20
f 19 33 21
f 21 34 31
f 21 31 22
f 21 33 35
f 21 35 34
f 24 32 36
f 24 36 26
f 24 26 25
f 26 36 37
f 26 37 38
f 26 38 39
f 26 39 40
f 26 40 27
f 27 40 29
f 29 39 30
f 29 40 39
f 30 39 38
f 31 34 35
f 31 35 41
f 31 41 42
f 31 42 43
f 31 43 32
f 32 43 44
f 32 44 45
f 32 45 46
f 32 46 47
f 32 47 48
f 32 48 36
f 33 49 35
f 35 49 41
f 36 48 50
f 36 50 51
f 36 51 38
f 36 38 37
f 44 46 45
