v -0.0508458 0.0376627 -0.0014019
v -0.0497089 0.0376627 -0.0004290
v -0.0512925 0.0376627 -0.0013856
v -0.0516557 0.0386438 -0.0013806
v -0.0487822 0.0376627 0.0010040
v -0.0519659 0.0411841 0.0002053
v -0.0541867 0.0376627 -0.0003187
v -0.0626373 0.0441343 0.0006166
v -0.0626373 0.0441461 0.0006141
v -0.0626373 0.0464283 0.0001727
v -0.0626373 0.0465003 0.0001590
v -0.0547364 0.0417043 -0.0009556
v -0.0494933 0.0391157 0.0016083
v -0.0485860 0.0376627 0.0013763
v -0.0587689 0.0463318 0.0014804
v -0.0532294 0.0430379 0.0083207
v -0.0555727 0.0376627 0.0013187
v -0.0626373 0.0415279 0.0044831
v -0.0626373 0.0466047 0.0002593
v -0.0621850 0.0464737 0.0001101
v -0.0484218 0.0376627 0.0042373
v -0.0625301 0.0476852 0.0014139
v -0.0616535 0.0475966 0.0082693
v -0.0564076 0.0437599 0.0113911
v -0.0501709 0.0383877 0.0105198
v -0.0486277 0.0376627 0.0076074
v -0.0558120 0.0376627 0.0016998
v -0.0574456 0.0376627 0.0064389
v -0.0626373 0.0412275 0.0074669
v -0.0626373 0.0466323 0.0002868
v -0.0626373 0.0476990 0.0014302
v -0.0626373 0.0477000 0.0015142
v -0.0626373 0.0477256 0.0081653
v -0.0626373 0.0473031 0.0096447
v -0.0626373 0.0464973 0.0112043
v -0.0512020 0.0376627 0.0114062
v -0.0500721 0.0376627 0.0108006
v -0.0496366 0.0376627 0.0103831
v -0.0492804 0.0376627 0.0095945
v -0.0566887 0.0376627 0.0079509
v -0.0549270 0.0376627 0.0103343
v -0.0626373 0.0430911 0.0106539
v -0.0626373 0.0459506 0.0111417
v -0.0523333 0.0376627 0.0112607
f 1 2 5
f 1 5 14
f 1 14 21
f 1 21 26
f 1 26 39
f 1 39 38
f 1 38 37
f 1 37 36
f 1 36 44
f 1 44 41
f 1 41 40
f 1 40 28
f 1 28 27
f 1 27 17
f 1 17 7
f 1 7 3
f 1 3 4
f 1 4 2
f 2 4 6
f 2 6 5
f 3 7 8
f 3 8 9
f 3 9 10
f 3 10 11
f 3 11 4
f 4 12 6
f 4 11 12
f 5 13 14
f 5 6 13
f 6 12 15
f 6 15 16
f 6 16 13
f 7 17 8
f 8 18 29
f 8 29 42
f 8 42 43
f 8 43 35
f 8 35 34
f 8 34 33
f 8 33 32
f 8 32 31
f 8 31 30
f 8 30 19
f 8 19 11
f 8 11 10
f 8 10 9
f 8 17 18
f 11 19 20
f 11 20 12
f 12 20 15
f 13 21 14
f 13 16 21
f 15 20 22
f 15 22 23
f 15 23 16
f 16 24 25
f 16 25 26
f 16 26 21
f 16 23 24
f 17 27 18
f 18 27 28
f 18 28 29
f 19 30 20
f 20 30 31
f 20 31 22
f 22 31 32
f 22 32 23
f 23 32 33
f 23 33 34
f 23 34 35
f 23 35 24
f 24 35 36
f 24 36 37
f 24 37 25
f 25 37 38
f 25 38 39
f 25 39 26
f 28 40 29
f 29 40 41
f 29 41 42
f 35 43 36
f 36 43 44
f 41 44 42
f 42 44 43
