v -0.0875053 0.0255904 0.0074807
v -0.0875020 0.0255904 0.0071449
v -0.0848887 0.0204996 0.0002775
v -0.0833847 0.0173918 0.0072629
v -0.0845747 0.0202137 0.0109151
v -0.0874940 0.0255904 0.0076422
v -0.0864847 0.0242716 0.0006834
v -0.0874467 0.0255904 0.0063878
v -0.0812800 0.0194621 -0.0006426
v -0.0749480 0.0147066 -0.0016933
v -0.0817113 0.0161477 0.0002915
v -0.0779893 0.0127411 0.0076464
v -0.0794193 0.0149163 0.0114769
v -0.0812580 0.0183229 0.0120374
v -0.0855840 0.0255904 0.0116245
v -0.0865433 0.0255904 0.0008309
v -0.0858053 0.0255904 0.0006455
v -0.0835773 0.0255904 0.0002213
v -0.0713660 0.0124297 -0.0022088
v -0.0713660 0.0118212 -0.0018506
v -0.0757760 0.0117974 0.0004474
v -0.0713660 0.0094299 0.0006174
v -0.0713660 0.0093585 0.0073107
v -0.0713660 0.0095666 0.0100596
v -0.0743887 0.0117036 0.0115135
v -0.0713660 0.0111602 0.0119040
v -0.0852760 0.0255904 0.0117663
v -0.0713660 0.0122693 0.0121413
v -0.0811747 0.0255904 0.0034394
v -0.0713660 0.0158315 0.0005472
v -0.0713660 0.0147717 -0.0004417
v -0.0713660 0.0094506 0.0002522
v -0.0713660 0.0141966 0.0117143
v -0.0828667 0.0255904 0.0110007
v -0.0808887 0.0255904 0.0077545
v -0.0713660 0.0165131 0.0035335
v -0.0713660 0.0155757 0.0096270
v -0.0810273 0.0255904 0.0083263
v -0.0713660 0.0161636 0.0086845
v -0.0713660 0.0164464 0.0047570
f 1 2 3
f 1 3 4
f 1 4 5
f 1 5 6
f 1 6 15
f 1 15 27
f 1 27 34
f 1 34 38
f 1 38 35
f 1 35 29
f 1 29 18
f 1 18 17
f 1 17 16
f 1 16 8
f 1 8 2
f 2 7 3
f 2 8 7
f 3 7 9
f 3 9 10
f 3 10 11
f 3 11 4
f 4 11 12
f 4 12 13
f 4 13 5
f 5 13 14
f 5 14 15
f 5 15 6
f 7 8 16
f 7 16 17
f 7 17 9
f 9 17 18
f 9 18 10
f 10 19 11
f 10 18 19
f 11 19 20
f 11 20 21
f 11 21 12
f 12 21 22
f 12 22 23
f 12 23 24
f 12 24 25
f 12 25 13
f 13 25 26
f 13 26 14
f 14 27 15
f 14 26 28
f 14 28 27
f 18 29 30
f 18 30 31
f 18 31 19
f 19 31 30
f 19 30 36
f 19 36 40
f 19 40 39
f 19 39 37
f 19 37 33
f 19 33 28
f 19 28 26
f 19 26 24
f 19 24 23
f 19 23 22
f 19 22 32
f 19 32 20
f 20 32 21
f 21 32 22
f 24 26 25
f 27 28 33
f 27 33 34
f 29 35 36
f 29 36 30
f 33 37 34
f 34 37 38
f 35 38 39
f 35 39 40
f 35 40 36
f 37 39 38
