v -0.0777113 0.0382098 0.0054726
v -0.0809613 0.0325553 0.0047979
v -0.0817860 0.0325553 0.0025538
v -0.0796973 0.0382098 0.0024601
v -0.0789753 0.0382098 0.0095945
v -0.0813233 0.0325553 0.0092324
v -0.0831133 0.0325553 0.0013770
v -0.0808733 0.0382098 0.0018381
v -0.0806200 0.0382098 0.0107197
v -0.0846260 0.0325553 0.0114565
v -0.0850413 0.0325553 0.0008897
v -0.0834253 0.0382098 0.0013560
v -0.0827547 0.0382098 0.0115207
v -0.0852773 0.0325553 0.0116428
v -0.0867907 0.0325553 0.0015833
v -0.0850900 0.0329637 0.0009192
v -0.0854660 0.0361719 0.0013528
v -0.0846160 0.0382098 0.0020244
v -0.0838047 0.0382098 0.0109776
v -0.0850827 0.0351219 0.0116028
v -0.0866373 0.0325553 0.0100187
v -0.0868500 0.0325553 0.0016075
v -0.0869220 0.0345041 0.0094724
v -0.0849187 0.0382098 0.0054842
v -0.0849567 0.0382098 0.0081451
v -0.0870820 0.0325553 0.0090251
v -0.0868567 0.0325553 0.0016707
f 1 2 3
f 1 3 4
f 1 4 8
f 1 8 12
f 1 12 18
f 1 18 24
f 1 24 25
f 1 25 19
f 1 19 13
f 1 13 9
f 1 9 5
f 1 5 6
f 1 6 2
f 2 6 10
f 2 10 14
f 2 14 21
f 2 21 26
f 2 26 27
f 2 27 22
f 2 22 15
f 2 15 11
f 2 11 7
f 2 7 3
f 3 7 4
f 4 7 8
f 5 9 6
f 6 9 10
f 7 11 8
f 8 11 12
f 9 13 10
f 10 13 14
f 11 15 16
f 11 16 12
f 12 16 17
f 12 17 18
f 13 19 20
f 13 20 14
f 14 20 21
f 15 22 16
f 16 22 17
f 17 22 23
f 17 23 18
f 18 23 24
f 19 25 23
f 19 23 20
f 20 23 21
f 21 23 26
f 22 27 23
f 23 25 24
f 23 27 26
