v -0.0253785 0.0163425 0.0026443
v -0.0253785 0.0060486 0.0026443
v -0.0253785 0.0159605 0.0059143
v -0.0056057 0.0121094 0.0026443
v -0.0234234 0.0065867 0.0066695
v -0.0253785 0.0060738 0.0052690
v -0.0182472 0.0078714 0.0026443
v -0.0253785 0.0158165 0.0068285
v -0.0089529 0.0124369 0.0043767
v -0.0104343 0.0109255 0.0054008
v -0.0055455 0.0119029 0.0026443
v -0.0253785 0.0086291 0.0070793
v -0.0253785 0.0063509 0.0068175
v -0.0253785 0.0061766 0.0066098
v -0.0104538 0.0099783 0.0026443
v -0.0137175 0.0094312 0.0058661
v -0.0253785 0.0137801 0.0075083
v -0.0166143 0.0133720 0.0060777
v -0.0058037 0.0117618 0.0026443
v -0.0253785 0.0135543 0.0075240
f 1 2 6
f 1 6 14
f 1 14 13
f 1 13 12
f 1 12 20
f 1 20 17
f 1 17 8
f 1 8 3
f 1 3 4
f 1 4 11
f 1 11 19
f 1 19 15
f 1 15 7
f 1 7 2
f 2 5 6
f 2 7 5
f 3 8 4
f 4 9 10
f 4 10 11
f 4 8 9
f 5 12 13
f 5 13 14
f 5 14 6
f 5 7 15
f 5 15 16
f 5 16 12
f 8 17 18
f 8 18 9
f 9 18 10
f 10 19 11
f 10 18 17
f 10 17 20
f 10 20 16
f 10 16 19
f 12 16 20
f 15 19 16
