v 0.0098194 0.0060292 0.0012806
v 0.0098194 -0.0000997 0.0012982
v 0.0098194 0.0060292 -0.0004860
v 0.0061914 0.0060292 0.0017679
v 0.0098194 -0.0065173 0.0007215
v 0.0082173 0.0010609 0.0014662
v 0.0030940 -0.0075857 0.0013883
v 0.0098194 0.0031991 -0.0007166
v 0.0063844 0.0005981 -0.0038283
v 0.0049270 0.0060292 -0.0035586
v 0.0048339 0.0060292 0.0018389
v 0.0040243 -0.0046544 0.0014624
v 0.0098194 -0.0061587 -0.0009740
v -0.0028251 -0.0089159 0.0012967
v -0.0013884 -0.0086570 0.0010423
v -0.0001998 -0.0076631 -0.0029965
v -0.0126479 0.0004002 0.0024484
v -0.0110527 -0.0091719 0.0016297
v 0.0098194 -0.0026099 -0.0009534
v 0.0045239 -0.0048404 -0.0033845
v -0.0003341 0.0002247 -0.0051618
v 0.0010027 0.0060292 -0.0038573
v -0.0079553 0.0060292 0.0023995
v -0.0123757 0.0026277 0.0025072
v -0.0076935 -0.0080737 -0.0026528
v -0.0056124 -0.0066765 -0.0039856
v -0.0015882 -0.0062465 -0.0040322
v -0.0133473 -0.0081229 -0.0029178
v -0.0253682 0.0060292 0.0026409
v -0.0253785 0.0027111 0.0024461
v -0.0253785 0.0000223 0.0003404
v -0.0147875 -0.0079636 -0.0007243
v -0.0047201 -0.0000119 -0.0049541
v -0.0028148 0.0060292 -0.0038871
v -0.0091233 -0.0066483 -0.0038451
v -0.0253785 -0.0000566 -0.0007594
v -0.0187462 -0.0037318 -0.0031042
v -0.0253785 0.0060292 0.0024943
v -0.0253785 0.0018153 -0.0026979
v -0.0253785 0.0060292 -0.0024909
f 1 2 5
f 1 5 13
f 1 13 19
f 1 19 8
f 1 8 3
f 1 3 10
f 1 10 22
f 1 22 34
f 1 34 40
f 1 40 38
f 1 38 29
f 1 29 23
f 1 23 11
f 1 11 4
f 1 4 2
f 2 4 6
f 2 6 7
f 2 7 5
f 3 8 9
f 3 9 10
f 4 11 12
f 4 12 6
f 5 7 14
f 5 14 15
f 5 15 16
f 5 16 13
f 6 12 7
f 7 12 17
f 7 17 18
f 7 18 14
f 8 19 9
f 9 19 13
f 9 13 20
f 9 20 21
f 9 21 10
f 10 21 22
f 11 23 24
f 11 24 17
f 11 17 12
f 13 16 20
f 14 16 15
f 14 18 25
f 14 25 16
f 16 26 27
f 16 27 20
f 16 25 28
f 16 28 26
f 17 24 29
f 17 29 30
f 17 30 18
f 18 30 31
f 18 31 32
f 18 32 28
f 18 28 25
f 20 27 21
f 21 27 26
f 21 26 33
f 21 33 34
f 21 34 22
f 23 29 24
f 26 28 35
f 26 35 33
f 28 32 36
f 28 36 37
f 28 37 35
f 29 38 30
f 30 38 40
f 30 40 39
f 30 39 36
f 30 36 31
f 31 36 32
f 33 35 37
f 33 37 39
f 33 39 40
f 33 40 34
f 36 39 37
