v -0.0441280 0.0206020 -0.0020868
v -0.0481517 0.0206020 -0.0007752
v -0.0484732 0.0255904 -0.0009293
v -0.0443163 0.0255904 -0.0020091
v -0.0437931 0.0248759 -0.0020717
v -0.0415938 0.0206020 -0.0020730
v -0.0505406 0.0206020 0.0010386
v -0.0504680 0.0255904 0.0008607
v -0.0440080 0.0255904 -0.0020141
v -0.0375509 0.0209307 -0.0017009
v -0.0375509 0.0206020 -0.0017097
v -0.0526895 0.0206020 0.0045661
v -0.0517751 0.0255904 0.0048392
v -0.0413641 0.0255904 -0.0016007
v -0.0375509 0.0214649 -0.0015794
v -0.0375509 0.0206020 0.0095116
v -0.0519589 0.0206020 0.0055269
v -0.0494158 0.0255904 0.0091045
v -0.0509823 0.0255904 0.0064050
v -0.0402467 0.0255904 -0.0001727
v -0.0375509 0.0226257 -0.0003882
v -0.0375509 0.0206645 0.0095154
v -0.0447534 0.0255904 0.0107104
v -0.0447001 0.0206020 0.0103960
v -0.0495433 0.0206020 0.0086410
v -0.0398687 0.0255904 0.0053941
v -0.0375509 0.0235779 0.0036366
v -0.0375509 0.0227199 -0.0000900
v -0.0375509 0.0224733 0.0080247
v -0.0413019 0.0255904 0.0095104
v -0.0429543 0.0255904 0.0104787
v -0.0402274 0.0255904 0.0069111
v -0.0375509 0.0224811 0.0080159
f 1 2 3
f 1 3 4
f 1 4 5
f 1 5 6
f 1 6 11
f 1 11 16
f 1 16 24
f 1 24 25
f 1 25 17
f 1 17 12
f 1 12 7
f 1 7 2
f 2 7 3
f 3 7 8
f 3 8 13
f 3 13 19
f 3 19 18
f 3 18 23
f 3 23 31
f 3 31 30
f 3 30 32
f 3 32 26
f 3 26 20
f 3 20 14
f 3 14 9
f 3 9 4
f 4 9 5
f 5 9 10
f 5 10 6
f 6 10 11
f 7 12 8
f 8 12 13
f 9 14 10
f 10 14 15
f 10 15 21
f 10 21 28
f 10 28 27
f 10 27 33
f 10 33 29
f 10 29 22
f 10 22 16
f 10 16 11
f 12 17 18
f 12 18 19
f 12 19 13
f 14 20 21
f 14 21 15
f 16 22 23
f 16 23 24
f 17 25 18
f 18 25 24
f 18 24 23
f 20 26 27
f 20 27 28
f 20 28 21
f 22 29 30
f 22 30 31
f 22 31 23
f 26 32 27
f 27 32 33
f 29 33 30
f 30 33 32
