v -0.0679620 0.0468167 0.0007282
v -0.0679620 0.0481522 0.0020139
v -0.0679620 0.0459003 0.0009056
v -0.0834233 0.0382098 0.0013567
v -0.0779353 0.0436878 0.0013663
v -0.0713293 0.0470171 0.0010895
v -0.0679620 0.0482950 0.0022346
v -0.0679620 0.0442073 0.0013663
v -0.0808713 0.0382098 0.0018374
v -0.0846147 0.0382098 0.0020244
v -0.0788567 0.0446963 0.0022885
v -0.0722627 0.0480246 0.0028791
v -0.0689653 0.0485532 0.0074968
v -0.0679620 0.0484043 0.0039767
v -0.0679620 0.0420657 0.0042989
v -0.0796953 0.0382098 0.0024597
v -0.0849173 0.0382098 0.0054843
v -0.0835880 0.0406714 0.0028347
v -0.0761900 0.0468429 0.0065344
v -0.0828127 0.0422530 0.0066981
v -0.0749107 0.0458891 0.0112778
v -0.0679620 0.0475943 0.0099424
v -0.0679620 0.0482515 0.0082014
v -0.0679620 0.0484225 0.0076035
v -0.0679620 0.0484185 0.0065491
v -0.0679620 0.0420171 0.0064403
v -0.0777107 0.0382098 0.0054726
v -0.0849573 0.0382098 0.0081454
v -0.0824320 0.0415270 0.0103048
v -0.0679620 0.0469301 0.0113951
v -0.0789953 0.0431967 0.0113866
v -0.0679620 0.0427157 0.0088976
v -0.0789733 0.0382098 0.0095938
v -0.0838047 0.0382098 0.0109777
v -0.0679620 0.0445373 0.0108055
v -0.0827533 0.0382098 0.0115207
v -0.0679620 0.0434357 0.0101220
v -0.0806187 0.0382098 0.0107200
f 1 2 7
f 1 7 14
f 1 14 25
f 1 25 24
f 1 24 23
f 1 23 22
f 1 22 30
f 1 30 35
f 1 35 37
f 1 37 32
f 1 32 26
f 1 26 15
f 1 15 8
f 1 8 3
f 1 3 4
f 1 4 5
f 1 5 6
f 1 6 2
f 2 6 7
f 3 8 4
f 4 9 16
f 4 16 27
f 4 27 33
f 4 33 38
f 4 38 36
f 4 36 34
f 4 34 28
f 4 28 17
f 4 17 10
f 4 10 11
f 4 11 5
f 4 8 9
f 5 11 6
f 6 12 7
f 6 11 12
f 7 12 13
f 7 13 14
f 8 15 16
f 8 16 9
f 10 17 18
f 10 18 11
f 11 19 12
f 11 18 20
f 11 20 19
f 12 19 13
f 13 19 21
f 13 21 22
f 13 22 23
f 13 23 24
f 13 24 25
f 13 25 14
f 15 26 27
f 15 27 16
f 17 28 18
f 18 28 20
f 19 20 29
f 19 29 21
f 20 28 29
f 21 30 22
f 21 29 31
f 21 31 30
f 26 32 33
f 26 33 27
f 28 34 29
f 29 34 31
f 30 31 36
f 30 36 35
f 31 34 36
f 32 37 33
f 33 37 38
f 35 36 37
f 36 38 37
