v -0.0253785 0.0165603 0.0007754
v -0.0253785 0.0151738 -0.0015889
v -0.0253785 0.0163417 0.0026443
v -0.0048682 0.0120370 0.0022632
v 0.0005031 0.0108927 -0.0013076
v -0.0253785 0.0132544 -0.0020851
v -0.0023359 0.0095248 -0.0033536
v -0.0253785 0.0060488 0.0026443
v -0.0056055 0.0121091 0.0026443
v -0.0012816 0.0111690 0.0022370
v 0.0098194 0.0078631 0.0013406
v 0.0098194 0.0078961 -0.0003332
v 0.0044860 0.0076683 -0.0034776
v -0.0253785 0.0114432 -0.0023210
v -0.0028148 0.0060292 -0.0038874
v 0.0010027 0.0060292 -0.0038574
v -0.0182466 0.0078713 0.0026443
v -0.0253785 0.0060292 0.0024946
v -0.0253682 0.0060292 0.0026404
v -0.0079553 0.0060292 0.0024000
v -0.0055470 0.0119019 0.0026443
v 0.0050476 0.0088403 0.0019384
v 0.0098194 0.0060292 0.0012805
v 0.0061914 0.0060292 0.0017677
v 0.0098194 0.0060292 -0.0004854
v 0.0049270 0.0060292 -0.0035588
v -0.0253785 0.0060292 -0.0024911
v -0.0104497 0.0099784 0.0026443
v 0.0048339 0.0060292 0.0018393
v -0.0058054 0.0117617 0.0026443
f 1 2 6
f 1 6 14
f 1 14 27
f 1 27 18
f 1 18 8
f 1 8 3
f 1 3 4
f 1 4 5
f 1 5 2
f 2 5 7
f 2 7 6
f 3 8 17
f 3 17 28
f 3 28 30
f 3 30 21
f 3 21 9
f 3 9 4
f 4 9 10
f 4 10 5
f 5 10 11
f 5 11 12
f 5 12 13
f 5 13 7
f 6 7 15
f 6 15 14
f 7 13 16
f 7 16 15
f 8 18 19
f 8 19 20
f 8 20 17
f 9 21 22
f 9 22 10
f 10 22 11
f 11 23 25
f 11 25 12
f 11 22 24
f 11 24 23
f 12 25 26
f 12 26 13
f 13 26 16
f 14 15 27
f 15 16 26
f 15 26 25
f 15 25 23
f 15 23 24
f 15 24 29
f 15 29 20
f 15 20 19
f 15 19 18
f 15 18 27
f 17 20 28
f 20 29 21
f 20 21 30
f 20 30 28
f 21 29 24
f 21 24 22
