v 0.0098194 0.0078946 -0.0003330
v 0.0098194 0.0031992 -0.0007168
v 0.0098194 0.0078612 0.0013412
v 0.0175877 0.0076463 0.0009170
v 0.0427818 0.0051825 -0.0005449
v 0.0129566 0.0075883 -0.0005086
v 0.0180446 -0.0062919 -0.0012878
v 0.0098194 -0.0026099 -0.0009531
v 0.0246793 0.0052130 -0.0009353
v 0.0961580 -0.0041344 -0.0028705
v 0.0385286 -0.0061685 -0.0017368
v 0.0098194 -0.0000981 0.0012984
v 0.0917287 -0.0048952 -0.0019879
v 0.0995940 -0.0042084 -0.0023065
v 0.0544078 0.0036043 -0.0004963
v 0.0501810 0.0043186 -0.0005598
v 0.0852173 -0.0008313 -0.0017574
v 0.0569123 0.0024718 -0.0015723
v 0.0522109 0.0028565 -0.0015191
v 0.0669920 0.0007702 -0.0019607
v 0.0352683 -0.0067013 -0.0002332
v 0.0098194 -0.0065169 0.0007220
v 0.0098194 -0.0061583 -0.0009733
v 0.0114715 -0.0061002 -0.0010800
v 0.0484059 -0.0064661 -0.0019285
v 0.0613237 -0.0066853 -0.0021713
v 0.0667720 -0.0069351 -0.0013422
v 0.0911840 -0.0020059 -0.0021796
v 0.0904633 -0.0057053 -0.0025675
v 0.0821853 -0.0058984 -0.0025753
v 0.0754280 -0.0000719 -0.0019998
v 0.0751113 -0.0061307 -0.0015282
v 0.0827040 -0.0061932 -0.0018357
v 0.0742153 0.0006743 -0.0012994
v 0.0633009 0.0024268 -0.0008624
v 0.0557084 -0.0067101 -0.0009197
v 0.0721500 -0.0065329 -0.0023222
f 1 2 8
f 1 8 23
f 1 23 22
f 1 22 12
f 1 12 3
f 1 3 4
f 1 4 5
f 1 5 6
f 1 6 2
f 2 7 8
f 2 6 9
f 2 9 10
f 2 10 11
f 2 11 7
f 3 12 13
f 3 13 14
f 3 14 15
f 3 15 4
f 4 15 16
f 4 16 5
f 5 16 17
f 5 17 18
f 5 18 6
f 6 18 19
f 6 19 20
f 6 20 9
f 7 21 22
f 7 22 23
f 7 23 24
f 7 24 8
f 7 11 25
f 7 25 26
f 7 26 27
f 7 27 21
f 8 24 23
f 9 20 10
f 10 28 14
f 10 14 29
f 10 29 30
f 10 30 26
f 10 26 25
f 10 25 11
f 10 20 31
f 10 31 28
f 12 22 13
f 13 32 33
f 13 33 14
f 13 22 32
f 14 28 17
f 14 17 34
f 14 34 15
f 14 33 29
f 15 34 35
f 15 35 16
f 16 35 17
f 17 28 18
f 17 35 34
f 18 28 31
f 18 31 20
f 18 20 19
f 21 27 22
f 22 27 36
f 22 36 32
f 26 30 37
f 26 37 27
f 27 37 33
f 27 33 32
f 27 32 36
f 29 33 37
f 29 37 30
