v -0.0626373 0.0412266 0.0074673
v -0.0626373 0.0430919 0.0106545
v -0.0679620 0.0427150 0.0088974
v -0.0679620 0.0420163 0.0064401
v -0.0679620 0.0420649 0.0042988
v -0.0626373 0.0415281 0.0044826
v -0.0626373 0.0459511 0.0111412
v -0.0673613 0.0470197 0.0114054
v -0.0679620 0.0469302 0.0113944
v -0.0679620 0.0445381 0.0108054
v -0.0679620 0.0434371 0.0101217
v -0.0679620 0.0442084 0.0013669
v -0.0626373 0.0441351 0.0006161
v -0.0626373 0.0464977 0.0112039
v -0.0637287 0.0469767 0.0111709
v -0.0679620 0.0482517 0.0082005
v -0.0679620 0.0475938 0.0099423
v -0.0679620 0.0459011 0.0009056
v -0.0626373 0.0465005 0.0001581
v -0.0626373 0.0473029 0.0096450
v -0.0626373 0.0477255 0.0081653
v -0.0679620 0.0484222 0.0076027
v -0.0679620 0.0468175 0.0007284
v -0.0626373 0.0466330 0.0002858
v -0.0674433 0.0483271 0.0021563
v -0.0679620 0.0484187 0.0065491
v -0.0626373 0.0477001 0.0015144
v -0.0679620 0.0481524 0.0020143
v -0.0626373 0.0476995 0.0014297
v -0.0679620 0.0482947 0.0022345
v -0.0679620 0.0484045 0.0039762
f 1 2 3
f 1 3 4
f 1 4 5
f 1 5 6
f 1 6 13
f 1 13 19
f 1 19 24
f 1 24 29
f 1 29 27
f 1 27 21
f 1 21 20
f 1 20 14
f 1 14 7
f 1 7 2
f 2 7 8
f 2 8 9
f 2 9 10
f 2 10 11
f 2 11 3
f 3 11 10
f 3 10 9
f 3 9 17
f 3 17 16
f 3 16 22
f 3 22 26
f 3 26 31
f 3 31 30
f 3 30 28
f 3 28 23
f 3 23 18
f 3 18 12
f 3 12 5
f 3 5 4
f 5 12 13
f 5 13 6
f 7 14 8
f 8 14 15
f 8 15 16
f 8 16 17
f 8 17 9
f 12 18 13
f 13 18 19
f 14 20 15
f 15 20 16
f 16 21 22
f 16 20 21
f 18 23 19
f 19 23 25
f 19 25 24
f 21 26 22
f 21 27 26
f 23 28 25
f 24 25 29
f 25 30 31
f 25 31 27
f 25 27 29
f 25 28 30
f 26 27 31
