v -0.0375509 0.0206015 0.0095117
v -0.0375509 0.0206015 -0.0017095
v -0.0446993 0.0206015 0.0103961
v -0.0545169 0.0098503 0.0111986
v -0.0375509 0.0176009 0.0093329
v -0.0375509 0.0127488 -0.0020751
v -0.0415939 0.0206015 -0.0020724
v -0.0495435 0.0206015 0.0086406
v -0.0561123 0.0141817 0.0099405
v -0.0561123 0.0120863 0.0108410
v -0.0561123 0.0097779 0.0112510
v -0.0561123 0.0080570 0.0098531
v -0.0375509 0.0080698 0.0085465
v -0.0418283 0.0094517 0.0093531
v -0.0375509 0.0145165 0.0091407
v -0.0375509 0.0084571 -0.0021033
v -0.0561123 0.0107441 -0.0024770
v -0.0441287 0.0206015 -0.0020859
v -0.0519585 0.0206015 0.0055262
v -0.0561123 0.0170079 0.0047049
v -0.0526907 0.0206015 0.0045664
v -0.0561123 0.0076569 0.0094875
v -0.0375509 0.0064397 0.0068529
v -0.0375509 0.0068397 -0.0012377
v -0.0561123 0.0098787 -0.0024811
v -0.0561123 0.0124409 -0.0022404
v -0.0481517 0.0206015 -0.0007753
v -0.0561123 0.0166177 0.0035664
v -0.0505393 0.0206015 0.0010393
v -0.0561123 0.0150627 -0.0002618
v -0.0561123 0.0157125 0.0013068
v -0.0561123 0.0074739 0.0008471
v -0.0375509 0.0061077 0.0017060
v -0.0375509 0.0061502 0.0033002
v -0.0561123 0.0079364 -0.0007108
v -0.0561123 0.0094318 -0.0021571
f 1 2 7
f 1 7 18
f 1 18 27
f 1 27 29
f 1 29 21
f 1 21 19
f 1 19 8
f 1 8 3
f 1 3 4
f 1 4 5
f 1 5 15
f 1 15 13
f 1 13 23
f 1 23 34
f 1 34 33
f 1 33 24
f 1 24 16
f 1 16 6
f 1 6 2
f 2 6 7
f 3 8 9
f 3 9 10
f 3 10 11
f 3 11 4
f 4 11 12
f 4 12 13
f 4 13 14
f 4 14 15
f 4 15 5
f 6 16 17
f 6 17 7
f 7 17 18
f 8 19 9
f 9 20 28
f 9 28 31
f 9 31 30
f 9 30 26
f 9 26 17
f 9 17 25
f 9 25 36
f 9 36 35
f 9 35 32
f 9 32 22
f 9 22 12
f 9 12 11
f 9 11 10
f 9 19 21
f 9 21 20
f 12 22 13
f 13 15 14
f 13 22 23
f 16 24 25
f 16 25 17
f 17 26 18
f 18 26 27
f 20 21 28
f 21 29 30
f 21 30 31
f 21 31 28
f 22 32 33
f 22 33 34
f 22 34 23
f 24 33 32
f 24 32 35
f 24 35 36
f 24 36 25
f 26 30 27
f 27 30 29
