v -0.0598117 0.0094597 -0.0026023
v -0.0561141 0.0107443 -0.0024764
v -0.0561141 0.0098793 -0.0024808
v -0.0561141 0.0094317 -0.0021582
v -0.0561141 0.0079367 -0.0007103
v -0.0591400 0.0072261 -0.0003632
v -0.0595087 0.0057143 0.0011006
v -0.0674593 0.0062112 0.0010312
v -0.0704153 0.0118253 -0.0023448
v -0.0561141 0.0124397 -0.0022407
v -0.0561141 0.0074745 0.0008475
v -0.0561141 0.0076569 0.0094870
v -0.0605985 0.0055767 0.0079683
v -0.0678220 0.0061071 0.0081519
v -0.0713647 0.0094496 0.0002530
v -0.0713647 0.0118209 -0.0018501
v -0.0713647 0.0124285 -0.0022074
v -0.0561141 0.0150638 -0.0002605
v -0.0713647 0.0147706 -0.0004427
v -0.0561141 0.0080575 0.0098529
v -0.0564947 0.0076301 0.0095319
v -0.0629063 0.0094731 0.0114686
v -0.0692793 0.0107835 0.0121745
v -0.0713647 0.0111595 0.0119040
v -0.0713647 0.0095671 0.0100598
v -0.0713647 0.0093590 0.0073101
v -0.0713647 0.0094295 0.0006175
v -0.0561141 0.0157128 0.0013074
v -0.0713647 0.0158303 0.0005466
v -0.0561141 0.0097786 0.0112502
v -0.0713647 0.0122673 0.0121412
v -0.0561141 0.0166181 0.0035668
v -0.0713647 0.0165107 0.0035335
v -0.0561141 0.0170075 0.0047065
v -0.0561141 0.0120838 0.0108409
v -0.0713647 0.0141943 0.0117145
v -0.0713647 0.0164447 0.0047572
v -0.0561141 0.0141820 0.0099397
v -0.0713647 0.0161627 0.0086842
v -0.0713647 0.0155741 0.0096273
f 1 2 3
f 1 3 4
f 1 4 5
f 1 5 6
f 1 6 7
f 1 7 8
f 1 8 9
f 1 9 2
f 2 10 18
f 2 18 28
f 2 28 32
f 2 32 34
f 2 34 38
f 2 38 35
f 2 35 30
f 2 30 20
f 2 20 12
f 2 12 11
f 2 11 5
f 2 5 4
f 2 4 3
f 2 9 10
f 5 11 7
f 5 7 6
f 7 11 12
f 7 12 13
f 7 13 8
f 8 14 15
f 8 15 16
f 8 16 9
f 8 13 14
f 9 16 17
f 9 17 10
f 10 17 19
f 10 19 18
f 12 20 21
f 12 21 13
f 13 21 22
f 13 22 14
f 14 23 24
f 14 24 25
f 14 25 26
f 14 26 27
f 14 27 15
f 14 22 23
f 15 27 26
f 15 26 25
f 15 25 24
f 15 24 31
f 15 31 36
f 15 36 40
f 15 40 39
f 15 39 37
f 15 37 33
f 15 33 29
f 15 29 19
f 15 19 17
f 15 17 16
f 18 19 29
f 18 29 28
f 20 30 22
f 20 22 21
f 22 30 23
f 23 31 24
f 23 30 31
f 28 29 32
f 29 33 34
f 29 34 32
f 30 35 31
f 31 35 36
f 33 37 34
f 34 37 39
f 34 39 38
f 35 38 36
f 36 38 40
f 38 39 40
