v -0.0300804 0.0158666 0.0082735
v -0.0253785 0.0158164 0.0068287
v -0.0300804 0.0170421 0.0077975
v -0.0300804 0.0135421 0.0080651
v -0.0253785 0.0135539 0.0075236
v -0.0253785 0.0137798 0.0075077
v -0.0253785 0.0159604 0.0059139
v -0.0300804 0.0179428 0.0070107
v -0.0253785 0.0086301 0.0070794
v -0.0300804 0.0059186 0.0071894
v -0.0253785 0.0165600 0.0007759
v -0.0300804 0.0184909 0.0009250
v -0.0253785 0.0063505 0.0068171
v -0.0300804 0.0057839 0.0071735
v -0.0300804 0.0173419 -0.0013817
v -0.0253785 0.0151732 -0.0015890
v -0.0253785 0.0061762 0.0066098
v -0.0300804 0.0051896 0.0064660
v -0.0253785 0.0132541 -0.0020850
v -0.0300804 0.0135659 -0.0020364
v -0.0253785 0.0050007 0.0025813
v -0.0300804 0.0051513 0.0059689
v -0.0253785 0.0114447 -0.0023209
v -0.0300781 0.0050007 -0.0024066
v -0.0300804 0.0131287 -0.0020480
v -0.0253785 0.0050007 -0.0025314
v -0.0300804 0.0050007 0.0039869
v -0.0275691 0.0050007 -0.0025081
v -0.0300804 0.0050007 0.0021889
f 1 2 3
f 1 3 8
f 1 8 12
f 1 12 15
f 1 15 20
f 1 20 25
f 1 25 29
f 1 29 27
f 1 27 22
f 1 22 18
f 1 18 14
f 1 14 10
f 1 10 4
f 1 4 5
f 1 5 6
f 1 6 2
f 2 7 8
f 2 8 3
f 2 6 5
f 2 5 9
f 2 9 13
f 2 13 17
f 2 17 21
f 2 21 26
f 2 26 23
f 2 23 19
f 2 19 16
f 2 16 11
f 2 11 7
f 4 9 5
f 4 10 9
f 7 11 8
f 8 11 12
f 9 10 13
f 10 14 13
f 11 15 12
f 11 16 15
f 13 14 17
f 14 18 17
f 15 16 19
f 15 19 20
f 17 18 21
f 18 22 21
f 19 23 20
f 20 23 24
f 20 24 25
f 21 22 27
f 21 27 29
f 21 29 24
f 21 24 28
f 21 28 26
f 23 26 28
f 23 28 24
f 24 29 25
