v -0.0440077 0.0255915 -0.0020142
v -0.0457989 0.0315663 -0.0015280
v -0.0413630 0.0255915 -0.0016016
v -0.0443157 0.0255915 -0.0020090
v -0.0508439 0.0376627 -0.0014019
v -0.0402463 0.0255915 -0.0001733
v -0.0497065 0.0376627 -0.0004295
v -0.0484745 0.0255915 -0.0009288
v -0.0493745 0.0325046 -0.0014071
v -0.0512913 0.0376627 -0.0013848
v -0.0398677 0.0255915 0.0053929
v -0.0487808 0.0376627 0.0010041
v -0.0485864 0.0376627 0.0013759
v -0.0504688 0.0255915 0.0008609
v -0.0541855 0.0376627 -0.0003191
v -0.0402273 0.0255915 0.0069106
v -0.0484229 0.0376627 0.0042366
v -0.0471427 0.0359268 0.0073784
v -0.0517748 0.0255915 0.0048384
v -0.0574444 0.0376627 0.0064389
v -0.0558115 0.0376627 0.0016992
v -0.0555723 0.0376627 0.0013181
v -0.0413027 0.0255915 0.0095111
v -0.0486294 0.0376627 0.0076083
v -0.0492781 0.0376627 0.0095951
v -0.0566873 0.0376627 0.0079500
v -0.0509815 0.0255915 0.0064047
v -0.0429546 0.0255915 0.0104781
v -0.0496343 0.0376627 0.0103835
v -0.0500713 0.0376627 0.0108001
v -0.0498562 0.0360887 0.0114098
v -0.0447854 0.0284832 0.0108921
v -0.0494157 0.0255915 0.0091050
v -0.0549253 0.0376627 0.0103336
v -0.0447544 0.0255915 0.0107094
v -0.0512001 0.0376627 0.0114059
v -0.0523323 0.0376627 0.0112600
f 1 2 3
f 1 3 6
f 1 6 11
f 1 11 16
f 1 16 23
f 1 23 28
f 1 28 35
f 1 35 33
f 1 33 27
f 1 27 19
f 1 19 14
f 1 14 8
f 1 8 4
f 1 4 5
f 1 5 2
f 2 6 3
f 2 5 7
f 2 7 6
f 4 8 9
f 4 9 10
f 4 10 5
f 5 10 15
f 5 15 22
f 5 22 21
f 5 21 20
f 5 20 26
f 5 26 34
f 5 34 37
f 5 37 36
f 5 36 30
f 5 30 29
f 5 29 25
f 5 25 24
f 5 24 17
f 5 17 13
f 5 13 12
f 5 12 7
f 6 7 12
f 6 12 13
f 6 13 11
f 8 14 15
f 8 15 10
f 8 10 9
f 11 13 17
f 11 17 18
f 11 18 16
f 14 19 20
f 14 20 21
f 14 21 22
f 14 22 15
f 16 18 23
f 17 24 18
f 18 24 25
f 18 25 23
f 19 26 20
f 19 27 26
f 23 25 29
f 23 29 30
f 23 30 31
f 23 31 32
f 23 32 28
f 26 27 33
f 26 33 34
f 28 32 35
f 30 36 31
f 31 36 37
f 31 37 35
f 31 35 32
f 33 37 34
f 33 35 37
