v -0.0375509 0.0206627 0.0095161
v -0.0344871 0.0181461 0.0089896
v -0.0300809 0.0158654 0.0082727
v -0.0300809 0.0170413 0.0077975
v -0.0375509 0.0224715 0.0080252
v -0.0375509 0.0176008 0.0093329
v -0.0375509 0.0145165 0.0091413
v -0.0300809 0.0135420 0.0080649
v -0.0300809 0.0179426 0.0070106
v -0.0375509 0.0224796 0.0080159
v -0.0375509 0.0080691 0.0085471
v -0.0300809 0.0059187 0.0071892
v -0.0300809 0.0184919 0.0009253
v -0.0375509 0.0235762 0.0036352
v -0.0375509 0.0064395 0.0068529
v -0.0328507 0.0046085 0.0063824
v -0.0303748 0.0057498 0.0071962
v -0.0300809 0.0057844 0.0071729
v -0.0375509 0.0226240 -0.0003882
v -0.0375509 0.0227197 -0.0000905
v -0.0300809 0.0173425 -0.0013818
v -0.0375509 0.0061506 0.0033001
v -0.0300809 0.0027937 0.0006614
v -0.0300809 0.0051903 0.0064665
v -0.0300809 0.0057742 0.0071612
v -0.0375509 0.0214643 -0.0015791
v -0.0300809 0.0135664 -0.0020368
v -0.0375509 0.0209293 -0.0017017
v -0.0375509 0.0061079 0.0017052
v -0.0300809 0.0031497 -0.0008728
v -0.0375509 0.0127485 -0.0020753
v -0.0300809 0.0048994 -0.0024116
v -0.0375509 0.0068403 -0.0012370
v -0.0375509 0.0084577 -0.0021045
f 1 2 3
f 1 3 4
f 1 4 5
f 1 5 10
f 1 10 14
f 1 14 20
f 1 20 19
f 1 19 26
f 1 26 28
f 1 28 31
f 1 31 34
f 1 34 33
f 1 33 29
f 1 29 22
f 1 22 15
f 1 15 11
f 1 11 7
f 1 7 6
f 1 6 2
f 2 6 7
f 2 7 3
f 3 7 8
f 3 8 12
f 3 12 18
f 3 18 25
f 3 25 24
f 3 24 23
f 3 23 30
f 3 30 32
f 3 32 27
f 3 27 21
f 3 21 13
f 3 13 9
f 3 9 4
f 4 9 5
f 5 9 10
f 7 11 8
f 8 11 12
f 9 13 14
f 9 14 10
f 11 15 16
f 11 16 17
f 11 17 18
f 11 18 12
f 13 19 20
f 13 20 14
f 13 21 19
f 15 22 23
f 15 23 16
f 16 23 24
f 16 24 25
f 16 25 17
f 17 25 18
f 19 21 26
f 21 27 28
f 21 28 26
f 22 29 23
f 23 29 30
f 27 31 28
f 27 32 31
f 29 33 30
f 30 33 32
f 31 32 34
f 32 33 34
