v -0.0253785 -0.0000555 -0.0007589
v -0.0253785 0.0000237 0.0003412
v -0.0300804 0.0027934 0.0006606
v -0.0300804 0.0031482 -0.0008722
v -0.0253785 0.0018160 -0.0026975
v -0.0253785 0.0027117 0.0024466
v -0.0300804 0.0049994 0.0039872
v -0.0300804 0.0048980 -0.0024115
v -0.0270328 0.0030472 -0.0026157
v -0.0275691 0.0049994 -0.0025083
v -0.0253785 0.0049994 -0.0025312
v -0.0253785 0.0049994 0.0025808
v -0.0300804 0.0049994 0.0021888
v -0.0300781 0.0049994 -0.0024069
f 1 2 3
f 1 3 4
f 1 4 5
f 1 5 11
f 1 11 12
f 1 12 6
f 1 6 2
f 2 6 7
f 2 7 3
f 3 7 13
f 3 13 8
f 3 8 4
f 4 8 5
f 5 8 9
f 5 9 10
f 5 10 11
f 6 12 7
f 7 12 11
f 7 11 10
f 7 10 14
f 7 14 13
f 8 14 10
f 8 10 9
f 8 13 14
