####
#
# OBJ File Generated by Meshlab
#
####
# Object top_simplified.obj
#
# Vertices: 250
# Faces: 500
#
####
mtllib ./top_simplified.obj.mtl

vn 0.0854555 -0.8724815 0.4811170
v 9.8516817 -6.5122242 0.7188939
vn 0.4867591 0.7940829 0.3640026
v -31.4093838 18.6674061 7.0291729
vn 0.3645604 0.6437758 -0.6727916
v -31.8266335 18.1482811 -1.3049184
vn 0.4801462 -0.5639083 -0.6719129
v 4.5261631 -4.8412838 -3.3848114
vn -0.5559441 -0.7732942 -0.3048646
v -71.5534515 9.6061583 0.2142975
vn -0.0257064 -0.4728961 -0.8807431
v 11.4660282 -6.1016407 -1.0801951
vn 0.7444576 0.6539750 0.1345351
v -41.2884674 26.8243618 6.4726567
vn 0.1196921 -0.8878622 -0.4442685
v 90.4688416 -5.7060461 -2.5676205
vn 0.0106536 -0.7149978 0.6990456
v 27.2061329 -6.2251143 0.0753834
vn 0.1038198 0.1974752 -0.9747949
v -81.2804031 19.4624500 -0.6432777
vn 0.1141792 0.7076177 0.6973093
v 25.2868767 6.7498670 0.6141964
vn -0.4678769 -0.7727277 -0.4289327
v -29.8456516 3.0276234 -0.8633565
vn 0.1141249 -0.7709127 -0.6266332
v -59.1389847 7.2255292 -0.3644867
vn 0.3880657 0.9030319 -0.1842238
v -27.6713772 17.1755943 0.7336542
vn 0.0310923 -0.0455272 0.9984791
v 4.0254750 -4.6547847 1.4626254
vn -0.5823816 -0.5984820 -0.5501373
v -81.7118912 16.1462402 0.2913957
vn 0.0387523 -0.4517650 0.8912950
v -30.3745060 5.7480812 7.1962733
vn -0.3652974 0.4989826 0.7858589
v -52.2506065 15.7961197 9.0955830
vn 0.0158451 -0.8778914 -0.4785976
v -7.6915627 -8.0750341 -2.6529410
vn -0.5538432 -0.8290498 0.0770333
v -77.9884720 12.7406559 7.6467266
vn 0.0076461 -0.3832407 -0.9236169
v 82.1939774 -5.8987665 -2.5755847
vn 0.6348091 0.7604390 0.1369311
v -53.2282181 43.0384789 8.3212795
vn 0.0726992 0.5723911 -0.8167517
v -17.7451439 13.0873566 -2.1515472
vn 0.1224667 0.9597915 0.2525910
v 17.5863152 7.6469946 0.9172285
vn -0.0107355 -0.7871934 -0.6166128
v 18.0366783 -6.2932777 -1.2880588
vn -0.4042034 -0.6091743 0.6822950
v -17.4850979 -3.2771571 0.2259201
vn 0.8265942 0.5612459 0.0417743
v -79.1572800 22.2249908 5.2010531
vn -0.0597113 0.1870272 -0.9805384
v -2.8188860 5.9883103 -3.8936756
vn 0.0100820 -0.8523349 0.5228992
v -46.4762993 8.3231659 8.3373661
vn -0.5397066 -0.7678510 -0.3451401
v -24.3920593 -0.7369508 -0.7361202
vn -0.0247285 -0.5556921 -0.8310203
v 38.5250931 -6.1688066 -1.7371491
vn -0.0974186 0.9777303 0.1858845
v -61.9144287 15.0686235 5.5002990
vn 0.1898806 -0.7385441 0.6469141
v -70.7270508 43.1405869 9.7923431
vn 0.0725188 0.4874185 0.8701518
v -63.7283401 46.9772186 11.1719522
vn 0.5608977 0.8218793 -0.0995404
v -34.4337692 20.8709202 1.2691644
vn -0.3650809 0.7331076 -0.5738198
v -54.3796005 15.9365664 0.3332517
vn -0.0905606 0.0827820 0.9924445
v -85.0827942 35.1214867 11.6036749
vn 0.2080033 0.9697729 -0.1275743
v -17.5971031 14.4721565 0.9182135
vn -0.0092037 0.4570551 0.8893908
v -67.3619537 47.0201569 11.4054127
vn 0.0900425 -0.0403010 0.9951222
v 8.2199869 1.0609518 1.4662530
vn -0.4803750 -0.3810694 0.7899532
v -13.1045809 -6.9223185 -0.1699572
vn -0.6425640 0.6407216 0.4202231
v -82.4330826 41.5263824 10.3056622
vn 0.0324870 0.5545436 -0.8315203
v 12.9498987 7.5883589 -0.5082507
vn -0.9713634 -0.2185340 0.0932530
v -87.6328278 25.8441181 7.4879498
vn -0.6155012 -0.5004096 0.6088912
v -52.9995499 34.8462906 9.7054882
vn 0.5554334 -0.1723961 -0.8134945
v -81.9932480 36.1186295 2.0170677
vn -0.0277142 -0.6262226 -0.7791516
v 28.0933990 -6.1434073 -1.4988375
vn 0.3324481 0.4964111 0.8019066
v -56.4089508 43.7607765 11.3921022
vn -0.4487204 0.8833137 0.1356726
v -76.1896515 46.8431396 6.5351381
vn -0.7375361 -0.4178458 0.5305143
v -84.5751114 20.2147255 10.9159002
vn 0.2573266 0.8159363 -0.5177172
v -69.5391617 14.8037977 0.1948510
vn 0.0384061 -0.8202890 -0.5706583
v 72.1506500 -6.5341802 -2.3224373
vn 0.0563196 -0.3773178 0.9243698
v 17.9802876 -6.0202761 0.4423806
vn -0.1828518 0.3922315 0.9015098
v -74.9103165 45.8895454 11.2786684
vn 0.1182726 -0.4009174 0.9084475
v -1.3866731 -8.6578255 1.0426553
vn -0.2619456 0.8866339 -0.3811364
v -72.2610931 48.0254860 2.8783829
vn -0.0350045 -0.2350063 -0.9713634
v -9.1247025 -6.6486177 -3.8453248
vn 0.1256389 0.9918798 -0.0197303
v 54.4019318 3.6055713 -0.4958518
vn -0.7821936 -0.6193991 0.0672167
v -83.3852844 17.3913307 7.2640104
vn 0.0268275 0.4288493 -0.9029776
v 24.6770363 5.2140627 -0.9355990
vn 0.4859439 0.8266222 0.2838211
v -73.7569122 16.9408188 8.8433867
vn -0.1369421 -0.9121342 -0.3863394
v -64.0348892 42.3321648 3.5697634
vn 0.2248735 -0.9426602 -0.2466249
v -71.5590973 41.8198318 4.9661231
vn 0.9355730 0.2318721 0.2663428
v -81.1200943 26.0372448 8.0948801
vn -0.2977641 -0.9331976 0.2011936
v -33.0079765 4.5180836 0.8599797
vn 0.0100641 0.1199874 -0.9927244
v -29.8650932 13.3538284 -2.0467689
vn 0.0818386 -0.9188434 0.3860431
v -2.8250329 -8.9161844 1.2969600
vn -0.5338188 -0.6733945 0.5114464
v -14.7903538 -7.9639373 -0.7239195
vn -0.6034531 0.7923286 0.0897765
v -54.2900505 17.6187439 4.4551506
vn -0.4574571 0.0495561 -0.8878498
v -47.9205666 21.3348713 -0.6359372
vn -0.0177275 -0.3140686 -0.9492348
v -5.6122346 -6.6779795 -3.9856181
vn 0.1855026 0.9401432 -0.2858663
v -62.5312119 47.6858482 1.4134351
vn 0.0532496 -0.0111189 0.9985194
v -51.6477318 11.5354815 10.9015064
vn -0.2588591 -0.2376533 -0.9362227
v -21.9396534 -0.7462215 -2.8683033
vn -0.1828707 -0.2516911 0.9503735
v -11.8159409 -5.0924864 1.9001698
vn 0.8265904 -0.0706403 0.5583532
v -82.0331192 30.6945896 9.2183561
vn 0.3625886 0.3686461 -0.8559378
v 4.4877157 7.6674333 -3.4780285
vn 0.7578956 -0.4500064 0.4723224
v -79.5570145 37.1809006 9.2708416
vn 0.0925695 -0.2191461 -0.9712908
v -1.5875909 -6.2467575 -4.0329170
vn -0.0254080 0.9036609 -0.4274945
v -67.4438477 48.3277206 2.1562212
vn 0.2310346 -0.7548808 -0.6138226
v 5.1082492 -6.3249421 -0.6683554
vn -0.6339539 -0.0597018 -0.7710630
v -86.4849396 24.2724876 0.6822526
vn -0.1180813 -0.5665547 0.8155199
v -64.3105850 43.8274689 10.5576382
vn 0.2893457 0.1620993 0.9433997
v -44.7848015 28.4822865 10.8924322
vn -0.7302881 0.4181471 0.5402151
v -52.4290810 18.7336941 6.1553292
vn 0.3170294 0.9334333 0.1679129
v -61.6545258 47.5969429 8.2701244
vn -0.0114613 0.3705990 -0.9287223
v -62.1851158 46.4737892 0.1096824
vn 0.3066244 0.7236215 0.6183472
v -8.9521780 12.4376268 4.3764405
vn 0.2664285 0.1854901 0.9458379
v -34.4875031 18.1472359 8.9899464
vn 0.2352551 -0.9605699 0.1481906
v 3.0969524 -7.5861349 1.3889565
vn -0.5579835 -0.8243486 0.0954149
v -59.0336571 39.4526863 6.8362174
vn 0.4231864 0.8308127 -0.3614743
v -58.7689781 46.3322182 1.4791322
vn 0.2075572 -0.9063148 -0.3681217
v -59.5086975 5.7141385 1.0997436
vn -0.2106662 -0.8044159 -0.5554591
v -13.3488255 -8.1230736 -2.9184394
vn 0.0755546 -0.8199331 -0.5674515
v -49.9487076 9.3835821 -1.4180279
vn 0.1752945 -0.5876745 0.7898802
v -17.9532948 7.9445815 2.4143295
vn 0.1395604 0.9895195 -0.0370684
v 74.2179871 0.6753078 -1.2995489
vn 0.1496348 0.6089135 0.7789955
v 85.2237701 -0.8323812 -1.7574608
vn 0.0518403 -0.3928358 0.9181463
v -41.8266983 9.4516134 9.3531542
vn -0.3403671 -0.5600485 0.7553118
v -23.6645737 1.5230339 2.2987404
vn -0.0406934 0.9855336 0.1645225
v -68.9648819 48.5542030 7.4977965
vn 0.4831451 -0.5323762 0.6950874
v -77.9143524 40.0821838 10.1843500
vn -0.3472920 -0.4827514 0.8039525
v -14.9061518 -4.8421888 1.6100231
vn 0.1160973 0.0332641 0.9926807
v -49.8573647 36.0890770 11.4097872
vn -0.1448103 0.2497300 -0.9574262
v -50.6762428 12.6328459 -2.2936261
vn -0.0338632 0.1612710 -0.9863290
v -74.9464951 14.7064524 -1.6945294
vn 0.3441975 0.1609733 0.9249950
v -42.3116913 24.5755692 10.3339491
vn 0.1626379 0.7149147 0.6800337
v 8.5646210 7.8970933 1.4097271
vn 0.5649867 -0.5224369 -0.6386312
v 99.5937805 -4.2089534 -2.3067932
vn 0.3385526 0.3405504 -0.8771589
v -38.8656006 22.2263927 -1.6427854
vn 0.0602429 0.8921194 -0.4477653
v 42.7773552 5.1835394 -0.5448123
vn -0.3619867 -0.0066287 0.9321597
v -85.7431793 26.4340630 11.7361956
vn 0.1854819 0.9370397 0.2958937
v -65.9608688 14.4075708 8.3275099
vn 0.1219752 0.2172372 0.9684679
v -76.1008530 15.6418905 12.0661583
vn 0.3068624 0.6553475 0.6901849
v 5.0486240 8.8394566 1.9385329
vn -0.7323408 0.5389287 -0.4162126
v -83.5882492 40.6712303 2.8346980
vn -0.9819018 0.0958750 0.1633310
v -51.3147888 23.1685658 4.6632738
vn -0.6171122 -0.3899117 -0.6834775
v -53.2705994 36.4377632 -0.3567263
vn -0.7173254 0.3080656 -0.6249319
v -50.3510857 20.8322754 1.0734514
vn 0.5860020 0.6613430 -0.4682170
v -51.9647522 41.1834335 0.2050854
vn -0.3699951 -0.7300471 0.5745736
v -74.3871307 11.7035170 11.5141840
vn 0.1503129 -0.9471099 0.2835295
v -60.5976143 5.5766864 7.9686418
vn -0.1421870 0.3036704 -0.9421079
v -71.3291168 47.0180054 1.0886613
vn 0.0903263 0.4311173 0.8977634
v 30.8679218 5.7639956 0.3831429
vn 0.2758215 0.9082197 -0.3147373
v 0.5051157 10.8923512 -1.3081887
vn 0.2129480 -0.7086961 0.6726092
v -23.4236584 6.5861716 6.6697149
vn 0.1836471 -0.4850622 -0.8549786
v 96.1611481 -4.1351757 -2.8705378
vn -0.0899247 -0.0362168 0.9952899
v -81.2590637 18.3235149 12.0378170
vn -0.1785229 -0.0683016 -0.9815623
v -4.1833591 -3.4582305 -3.8882263
vn -0.4959093 -0.5722892 0.6531150
v -79.4184494 14.9149380 11.4778147
vn -0.4784459 -0.7999202 -0.3622392
v -75.7748718 11.7968712 0.4474139
vn -0.1555498 -0.0047872 0.9878165
v -13.3026199 4.2810936 2.0990942
vn 0.1679114 -0.8935269 0.4164320
v -56.4941444 7.6295156 9.5330029
vn 0.0086468 -0.3841071 0.9232481
v -62.9057732 9.4725161 11.4686527
vn -0.4100164 -0.8194886 0.4004062
v -70.0152740 8.6124487 9.4109697
vn -0.6438933 -0.6228745 -0.4443297
v -55.9109993 37.8422699 1.5629747
vn -0.0730328 0.0694678 -0.9949073
v -8.5538750 4.2799625 -3.3492472
vn -0.7769709 0.1217956 -0.6176425
v -86.8565445 32.5396461 1.6080041
vn 0.5820648 0.1182949 0.8044918
v -83.5919571 26.7349205 11.1231184
vn 0.3100700 -0.9259731 -0.2154775
v -56.5278854 7.3995090 0.8896320
vn -0.3466418 -0.1109361 -0.9314144
v -49.3744965 32.5055046 -1.4078120
vn 0.7653627 0.6150749 -0.1894807
v -49.4924355 39.1151543 1.6071020
vn -0.4281424 -0.5371262 -0.7267665
v -18.7488422 -3.7322097 -3.1048036
vn -0.0223325 -0.9208438 0.3892918
v -28.8941936 5.1508970 2.7503073
vn -0.2931286 0.0407158 -0.9552057
v -6.5153437 3.0852613 -3.8884432
vn -0.0930869 0.1352701 -0.9864263
v -77.9368515 43.6879196 1.3660438
vn -0.5744072 0.0946754 0.8130763
v -48.7568436 21.9996414 8.5091534
vn 0.1802216 0.1136012 0.9770440
v -26.1157036 13.8152599 7.6287718
vn -0.8703839 -0.4910128 -0.0365845
v -53.1498680 32.8188553 5.3652835
vn 0.6004178 0.7138423 -0.3604548
v -38.0506210 23.0160294 -0.3088169
vn 0.0041866 -0.8054639 0.5926301
v 35.2601700 -6.7015443 -0.2332051
vn 0.1842737 0.6696476 -0.7194548
v -24.5683956 14.8005285 -1.6249940
vn 0.0636906 0.4425668 0.8944709
v 39.7835159 5.0176253 0.0467467
vn 0.7961819 0.4689834 0.3822945
v -44.3760529 30.5474873 9.0446196
vn 0.0422868 -0.8742215 0.4836823
v 66.7753067 -6.9365511 -1.3424294
vn -0.3484121 -0.5567114 0.7541097
v -20.0305538 -1.1291993 2.0526907
vn -0.1814391 -0.8694298 0.4595342
v -37.0430298 6.3317699 6.7693434
vn -0.6267853 -0.2857775 0.7248942
v -50.3129349 30.4729996 9.9165573
vn 0.5659419 -0.0001583 -0.8244451
v 8.1702023 0.8870022 -0.8263592
vn 0.0546114 0.5302097 -0.8461060
v -10.8027725 11.4362574 -2.5955756
vn 0.9772875 -0.1962920 -0.0798657
v -81.0876923 32.3338699 4.7713175
vn 0.3606761 -0.0673938 0.9302531
v -10.4330091 10.9250994 5.4011579
vn -0.0574659 0.0337921 -0.9977754
v -43.7924271 24.8759880 -2.0721879
vn 0.5677818 0.7429173 -0.3545388
v -77.5190811 19.2956467 1.7316904
vn 0.7888228 0.5778999 -0.2092614
v -43.2349014 29.0949802 0.0109639
vn -0.3203479 -0.7960058 -0.5135680
v -36.2101898 6.3032465 -1.1190102
vn 0.0486965 -0.5875223 -0.8077415
v -71.2161102 44.2519341 1.8247949
vn 0.6890242 -0.7171497 -0.1046041
v -77.7050247 38.2207947 5.4731960
vn -0.0195495 -0.5115981 -0.8590025
v 61.3259430 -6.6863456 -2.1717613
vn 0.1478172 0.9011546 -0.4075176
v -12.8128834 12.9875879 -1.1277511
vn 0.0562203 -0.6008207 0.7974044
v 75.1185226 -6.1320143 -1.5283021
vn -0.7688997 -0.3984846 -0.5000033
v -84.8901520 20.5008087 0.2761426
vn 0.6701832 0.5143902 0.5350302
v -50.1705894 38.3868713 10.5203876
vn -0.1351656 -0.9814308 -0.1361020
v -44.2906075 7.7495718 4.2631469
vn -0.4992662 0.7411469 -0.4488147
v -78.8578720 44.6973495 2.2877595
vn -0.0845712 -0.2196189 -0.9719132
v -35.0691643 7.9257932 -2.0766854
vn 0.5840767 0.4373195 0.6838173
v -80.1541138 21.3083553 10.5468903
vn 0.1359750 0.7149390 0.6858374
v 63.3078613 2.4277852 -0.8625503
vn -0.3937828 -0.6910007 0.6061791
v -25.2598801 2.3290987 0.8069501
vn -0.0824874 0.0538600 -0.9951357
v -44.4522400 16.4633389 -2.1008382
vn 0.8169212 0.5621525 0.1289348
v -47.1424103 35.9271088 7.3784919
vn -0.0322871 0.0364899 0.9988123
v -44.6524849 16.3350697 10.1280327
vn -0.7443359 0.6592416 0.1066045
v -82.8138809 42.2525406 6.6988926
vn -0.1531959 -0.0212873 -0.9879665
v -4.7169876 -0.0107089 -4.9543133
vn -0.4372544 -0.7389818 0.5125569
v -23.8224468 -0.8932019 0.2353635
vn -0.3199566 -0.9425877 -0.0956884
v -39.4447174 6.7703071 2.0570159
vn -0.8163736 -0.1873975 -0.5462750
v -50.5612488 29.2953129 0.6931397
vn 0.2236569 0.5338164 0.8154861
v -16.6151409 13.3724213 6.0778284
vn 0.1255602 -0.5017446 0.8558546
v 91.7344437 -4.8965492 -1.9882938
vn 0.0670152 0.5434780 -0.8367441
v 91.1918106 -2.0060835 -2.1796679
vn 0.6114497 0.6137712 0.4994139
v -37.5402718 22.4685478 8.0206175
vn -0.3063284 -0.3925583 -0.8672145
v -27.0324535 3.0476742 -2.6162779
vn -0.3579912 -0.7760786 0.5191765
v -11.0537567 -9.1718416 1.6299359
vn -0.2148602 -0.8501569 -0.4806958
v -67.4603348 6.2100759 1.0298060
vn -0.1653913 0.2641717 0.9501889
v -78.9952087 43.1965179 11.3868856
vn 0.1830111 0.5488580 0.8156359
v -66.1709442 12.6092710 11.3294134
vn 0.0385991 0.4970204 -0.8668799
v 56.9144707 2.4723446 -1.5726887
vn 0.1059458 -0.2698962 0.9570431
v -54.5184593 9.8492870 11.1998367
vn -0.3095256 -0.3975042 0.8638196
v -56.9224205 40.5796738 10.9855442
vn 0.1752823 -0.8354281 -0.5208994
v -0.1970429 -7.6635532 -2.9972949
vn -0.0905679 -0.0521528 0.9945238
v -12.6500998 0.4013250 2.4487360
vn -0.0826801 0.0923787 -0.9922854
v -85.0900650 32.9634438 0.9185140
vn -0.3814707 -0.8528138 0.3566354
v -67.8225708 6.1064701 8.1520100
vn -0.4953548 0.2703722 -0.8255438
v -85.4666977 36.1719856 1.3520705
vn 0.1753149 0.0263761 -0.9841591
v 2.7715018 1.3218385 -3.9849763
vn -0.2111500 0.9309848 -0.2977970
v -58.2699013 15.4358177 2.5158741
vn -0.0010384 -0.2708871 -0.9626106
v -48.3340416 10.7609396 -2.2259297
vn 0.8802136 0.2739438 -0.3875293
v -81.4021225 25.9803295 3.5438359
vn 0.0259092 0.3485116 -0.9369463
v 52.2032127 2.8569345 -1.5191609
vn -0.0913845 0.0224807 -0.9955620
v -7.4866753 -1.4896647 -3.5631485
vn 0.0523330 -0.7955351 0.6036432
v 82.7069626 -6.1944752 -1.8361250
vn -0.0022867 0.2282035 -0.9736108
v 36.2233582 3.7520099 -1.2415801
vn -0.0208655 0.6067302 0.7946340
v -59.9950485 12.5623255 10.7903957
vn -0.2743571 -0.5608784 -0.7811169
v -62.6393089 44.1355782 0.6162004
vn 0.0037048 -0.9347817 0.3552036
v 45.7301979 -6.7636890 -0.6166183
vn -0.3725738 -0.3047250 -0.8765452
v -56.5871620 40.8727112 -0.2225890
vn 0.3662567 0.9295830 -0.0416127
v -73.0243912 17.0712090 3.6592658
vn 0.0181583 0.0038231 -0.9998279
v -0.3327162 0.2253347 -5.1618171
vn -0.1818135 -0.1539533 -0.9712066
v -70.4159622 11.8260603 -2.3450332
vn 0.5116746 0.5958760 0.6189676
v -4.8678355 12.0380287 2.2632604
vn 0.1381230 0.8601421 0.4909965
v 50.1771927 4.3192201 -0.5596870
vn 0.1314594 0.9822975 -0.1334540
v -67.9074097 15.3462801 3.2710080
vn 0.4291769 -0.0347446 -0.9025519
v 6.3862815 0.5985382 -3.8284461
vn -0.0235760 -0.7340707 -0.6786637
v 48.3976631 -6.4673319 -1.9286928
vn 0.1660643 0.1093979 -0.9800280
v -84.5170364 28.0924950 0.5741929
vn 0.0750524 -0.9807712 -0.1801524
v -49.8816452 8.5889177 0.2050126
vn 0.0256411 0.3518125 -0.9357193
v 66.9945374 0.7701993 -1.9607569
vn 0.4729777 0.3788254 -0.7954769
v -45.7986603 31.5653591 -1.5293278
vn 0.4210302 0.8212672 -0.3850372
v 5.8089452 8.2903366 -0.1076666
vn -0.9362475 0.2908117 0.1971529
v -86.9224319 34.5035934 9.4725962
vn -0.0084401 0.3559631 -0.9344620
v -2.3345783 9.5240936 -3.3536451
vn 0.0705263 0.1119626 -0.9912066
v -1.2351732 4.9754620 -4.1018424
vn 0.0039229 -0.3510851 -0.9363354
v -59.8106651 9.4594040 -2.6022735
vn 0.3488756 0.7670087 0.5385011
v -27.0215855 16.2755070 6.9698277
vn 0.3108958 -0.6536489 0.6899905
v -13.7159586 9.4311552 5.8662443
vn 0.1270488 0.3396265 -0.9319402
v -54.7352524 41.7032967 -0.9557481
vn 0.4104732 -0.5957128 -0.6903898
v -77.2639618 40.4248924 2.9273748
vn -0.1532057 -0.9560491 0.2499964
v -64.6123199 42.1988487 7.8142085
vn 0.0497312 0.4615846 -0.8857012
v 75.4349976 -0.0723183 -2.0002148
vn -0.1869687 -0.7796331 -0.5976747
v -42.0350494 8.6280451 -1.6367642
vn 0.0170817 -0.5671555 0.8234336
v 55.7087517 -6.7111812 -0.9197259
vn -0.0567782 -0.9429771 0.3279794
v -32.8506050 4.6080737 6.3826804
vn -0.0310535 0.6648287 -0.7463501
v -61.7246628 12.2422228 -2.1871479
vn -0.0415182 -0.2985749 0.9534827
v -69.2802505 10.7832403 12.1744852
vn 0.0301942 -0.6733187 0.7387356
v -5.0116787 -8.8954430 1.1204758
vn 0.0862567 -0.3884194 0.9174367
v -10.1535168 10.0282497 2.3497326
vn 0.0741547 0.9371606 -0.3409267
v 35.3549156 5.4291220 -0.5269991
vn -0.0097485 0.0922974 -0.9956838
v -51.6556206 38.6428719 -1.3814743
vn -0.0918538 0.0076530 0.9957431
v -12.3768301 2.6283164 2.5079350
vn 0.1233134 0.3244835 0.9378189
v -1.2813962 11.1684237 2.2369866
# 250 vertices, 0 vertices normals


usemtl material_0
vt 0.0000000 0.0000000
f 245/1/245 201/1/201 75/1/75
f 115/1/115 40/1/40 108/1/108
f 115/1/115 15/1/15 40/1/40
f 249/1/249 201/1/201 55/1/55
f 250/1/250 55/1/55 15/1/15
f 55/1/55 90/1/90 15/1/15
f 201/1/201 67/1/67 55/1/55
f 246/1/246 249/1/249 250/1/250
f 220/1/220 88/1/88 162/1/162
vt 0.5976740 0.9177470
f 132/1/132 249/1/249 246/2/246
f 245/1/245 67/1/67 201/1/201
f 115/1/115 250/1/250 15/1/15
f 245/1/245 75/1/75 193/1/193
f 201/1/201 132/1/132 103/1/103
f 75/1/75 201/1/201 103/1/103
vt 0.5245300 0.9828840
vt 0.5218740 0.9809820
vt 0.5256030 0.9782120
f 171/3/171 178/4/178 155/5/155
vt 0.4997460 0.9725920
vt 0.4947910 0.9652360
vt 0.5042530 0.9585830
f 178/6/178 241/7/241 155/8/155
vt 0.4313640 0.9812890
vt 0.4357090 0.9888310
vt 0.4269460 0.9884040
f 241/9/241 58/10/58 221/11/221
vt 0.4113690 0.9853390
vt 0.4223290 0.9818060
vt 0.4196070 0.9888270
f 153/12/153 241/13/241 221/14/221
vt 0.3921220 0.9920750
vt 0.3997750 0.9953080
vt 0.3917140 0.9969840
f 153/15/153 221/16/221 111/17/111
vt 0.4072270 0.9422670
vt 0.4115580 0.9477860
vt 0.4060100 0.9527620
f 215/18/215 241/19/241 153/20/153
vt 0.4761230 0.9648630
vt 0.4676110 0.9615470
vt 0.4740690 0.9535270
f 178/21/178 58/22/58 241/23/241
vt 0.3849140 0.9598030
vt 0.3738290 0.9585350
vt 0.3766000 0.9513340
f 153/24/153 151/25/151 215/26/215
vt 0.3083340 0.9647330
vt 0.3113310 0.9709520
vt 0.3027000 0.9727310
f 151/27/151 153/28/153 124/29/124
vt 0.2810660 0.9629140
vt 0.2860980 0.9729690
vt 0.2772770 0.9697620
f 9/30/9 124/31/124 11/32/11
vt 0.2322680 0.9768510
vt 0.2258080 0.9711700
vt 0.2307010 0.9657640
f 11/33/11 24/34/24 53/35/53
vt 0.1846870 0.9906500
vt 0.1795600 0.9896070
vt 0.1869470 0.9890610
f 43/36/43 108/37/108 24/38/24
vt 0.2031630 0.9731910
vt 0.2010630 0.9665490
vt 0.2062440 0.9601260
f 24/39/24 108/40/108 53/41/53
vt 0.1782330 0.9349820
vt 0.1846100 0.9348370
vt 0.1802160 0.9454520
f 15/42/15 1/43/1 40/44/40
vt 0.2987220 0.9541620
vt 0.2937810 0.9459800
vt 0.3031680 0.9459460
f 124/45/124 9/46/9 151/47/151
vt 0.1738040 0.9141100
vt 0.1794410 0.9175130
vt 0.1746370 0.9253770
f 90/48/90 1/49/1 15/50/15
vt 0.2618590 0.9331830
vt 0.2706280 0.9391070
vt 0.2631710 0.9423040
f 53/51/53 9/52/9 11/53/11
vt 0.2006130 0.9440930
vt 0.1960920 0.9526870
vt 0.1895540 0.9523950
f 53/54/53 108/55/108 40/56/40
vt 0.1958770 0.9368910
vt 0.1888570 0.9424990
f 1/57/1 53/54/53 40/58/40
vt 0.6216020 0.9728120
vt 0.6249300 0.9803130
vt 0.6189120 0.9789500
f 96/59/96 100/60/100 156/61/156
vt 0.6283800 0.9736120
f 100/60/100 96/59/96 144/62/144
vt 0.6038410 0.9745440
vt 0.6061970 0.9687940
vt 0.6125360 0.9754160
f 132/63/132 96/64/96 156/65/156
vt 0.5887520 0.9605730
vt 0.5836780 0.9603840
vt 0.5864480 0.9526320
f 132/66/132 201/67/201 249/68/249
vt 0.6112650 0.9321640
vt 0.6119040 0.9234950
vt 0.6177140 0.9299760
f 132/69/132 246/70/246 96/71/96
vt 0.6045240 0.8868420
vt 0.6105390 0.8800820
vt 0.6137210 0.8836900
f 162/72/162 88/73/88 188/74/188
vt 0.6253310 0.8995430
vt 0.6212410 0.8958760
vt 0.6270550 0.8907040
f 235/75/235 162/76/162 188/77/188
vt 0.6726380 0.8674190
vt 0.6710390 0.8765230
vt 0.6663740 0.8730590
f 14/78/14 234/79/234 38/80/38
vt 0.6496070 0.8733910
vt 0.6539300 0.8778950
vt 0.6465520 0.8798070
f 38/81/38 234/82/234 188/83/188
vt 0.6505300 0.8904790
vt 0.6423770 0.8865200
vt 0.6501940 0.8846990
f 148/84/148 188/85/188 234/86/234
vt 0.6520400 0.8995160
vt 0.6484160 0.8957240
vt 0.6568240 0.8927810
f 235/87/235 188/88/188 148/89/148
vt 0.6927120 0.9291470
vt 0.6856410 0.9262410
vt 0.6947590 0.9225010
f 17/90/17 126/91/126 89/92/89
vt 0.6846260 0.9082380
vt 0.6901810 0.9130310
vt 0.6816880 0.9147680
f 148/93/148 89/94/89 126/95/126
vt 0.7213370 0.9241740
vt 0.7113180 0.9255990
vt 0.7109010 0.9204820
f 99/96/99 17/97/17 89/98/89
vt 0.7702020 0.9541620
vt 0.7629070 0.9562930
vt 0.7669790 0.9495240
f 198/99/198 29/100/29 73/101/73
vt 0.7063660 0.8922650
vt 0.7001320 0.8889340
vt 0.7041760 0.8861990
f 89/102/89 148/103/148 234/104/234
vt 0.7606870 0.9503160
vt 0.7547860 0.9485790
vt 0.7530100 0.9432960
f 73/105/73 29/106/29 99/107/99
vt 0.6566850 0.9051040
vt 0.6489890 0.9074630
f 148/108/148 126/109/126 235/87/235
vt 0.7720910 0.9631890
vt 0.7732670 0.9574230
vt 0.7772420 0.9607880
f 29/110/29 198/111/198 133/112/133
vt 0.7614970 0.9386420
vt 0.7528560 0.9340510
vt 0.7615600 0.9307400
f 73/113/73 99/114/99 182/115/182
vt 0.7842350 0.9389720
vt 0.7776230 0.9364760
vt 0.7865590 0.9320280
f 73/116/73 182/117/182 18/118/18
vt 0.7150350 0.8899350
vt 0.7124720 0.8851610
vt 0.7193460 0.8818440
f 89/119/89 234/120/234 2/121/2
vt 0.7475590 0.9081460
vt 0.7411000 0.9036630
vt 0.7512590 0.8983440
f 99/122/99 89/123/89 182/124/182
vt 0.7847640 0.9123020
vt 0.7795530 0.9155480
vt 0.7769260 0.9060000
f 147/125/147 18/126/18 182/127/182
vt 0.7576330 0.8924180
vt 0.7521240 0.8892330
vt 0.7590370 0.8870120
f 182/128/182 89/129/89 107/130/107
vt 0.7327360 0.8781280
vt 0.7338110 0.8849070
vt 0.7247850 0.8843190
f 191/131/191 89/132/89 2/133/2
vt 0.7450570 0.8742080
vt 0.7488370 0.8806370
vt 0.7411250 0.8809610
f 191/134/191 107/135/107 89/136/89
vt 0.7675610 0.8602160
vt 0.7678300 0.8662540
vt 0.7609270 0.8647840
f 7/137/7 84/138/84 191/139/191
vt 0.7795970 0.8895880
vt 0.7726140 0.8871060
vt 0.7778590 0.8816180
f 84/140/84 182/141/182 107/142/107
vt 0.7716840 0.8738310
vt 0.7658750 0.8705950
vt 0.7769800 0.8690560
f 107/143/107 191/144/191 84/145/84
vt 0.9660530 0.9103310
vt 0.9621950 0.9119890
vt 0.9635460 0.9064980
f 230/146/230 37/147/37 183/148/183
vt 0.9580050 0.9076350
f 183/148/183 37/147/37 42/149/42
vt 0.9515500 0.8893870
vt 0.9465770 0.8921930
vt 0.9462730 0.8865950
f 42/150/42 37/151/37 195/152/195
vt 0.9404280 0.8974110
vt 0.9357480 0.8933590
vt 0.9428060 0.8907850
f 37/153/37 102/154/102 195/155/195
vt 0.9375580 0.9055420
vt 0.9356470 0.8989330
f 78/156/78 102/157/102 37/153/37
vt 0.9260100 0.8411180
vt 0.9247330 0.8448560
vt 0.9207630 0.8399450
f 101/158/101 54/159/54 39/160/39
vt 0.9389450 0.9163650
vt 0.9418980 0.9214970
vt 0.9352270 0.9204250
f 78/161/78 37/162/37 76/163/76
vt 0.9435020 0.9430520
vt 0.9418970 0.9375740
vt 0.9446800 0.9339030
f 112/164/112 139/165/139 37/166/37
vt 0.9485930 0.9356090
f 37/166/37 230/167/230 112/164/112
vt 0.8687070 0.9828860
vt 0.8700930 0.9886140
vt 0.8646250 0.9835460
f 61/168/61 114/169/114 196/170/196
vt 0.8643030 0.9915470
vt 0.8630680 0.9871730
f 244/171/244 196/172/196 114/169/114
vt 0.9023050 0.9791050
vt 0.9050100 0.9844980
vt 0.8984490 0.9812530
f 177/173/177 128/174/128 114/175/114
vt 0.9532740 0.8657900
vt 0.9510880 0.8714660
vt 0.9513260 0.8645770
f 183/176/183 42/177/42 49/178/49
vt 0.9449900 0.8597340
vt 0.9437840 0.8656390
vt 0.9392740 0.8633440
f 49/179/49 42/180/42 195/181/195
vt 0.9436240 0.8575650
vt 0.9399450 0.8568110
f 49/182/49 195/181/195 54/183/54
vt 0.9256710 0.8680050
vt 0.9231950 0.8645930
vt 0.9271370 0.8634250
f 102/184/102 33/185/33 195/186/195
vt 0.8908450 0.9912560
vt 0.8946630 0.9925990
vt 0.8903440 0.9944240
f 114/187/114 130/188/130 121/189/121
vt 0.8984510 0.9910820
vt 0.8946750 0.9838360
vt 0.9003530 0.9874770
f 130/190/130 114/191/114 128/192/128
vt 0.9328780 0.9598590
vt 0.9260820 0.9612810
vt 0.9257850 0.9547270
f 112/193/112 177/194/177 139/195/139
vt 0.9357460 0.9367520
vt 0.9312070 0.9298620
vt 0.9389420 0.9321310
f 139/196/139 76/197/76 37/198/37
vt 0.9315910 0.9676790
vt 0.9263070 0.9687480
f 50/199/50 128/200/128 112/193/112
f 128/200/128 177/194/177 112/193/112
vt 0.9234670 0.8600060
vt 0.9293890 0.8594240
f 195/186/195 33/201/33 54/202/54
vt 0.9077040 0.8466610
vt 0.9056870 0.8439250
vt 0.9087250 0.8467890
f 83/203/83 39/204/39 54/205/54
vt 0.8766460 0.8286430
vt 0.8804170 0.8313860
vt 0.8756210 0.8340520
f 48/206/48 34/207/34 199/208/199
vt 0.8820220 0.8204610
vt 0.8803360 0.8258930
vt 0.8769550 0.8218450
f 86/209/86 34/210/34 48/211/48
vt 0.8349330 0.8388490
vt 0.8392760 0.8331440
vt 0.8407540 0.8377700
f 104/212/104 173/213/173 48/214/48
vt 0.8726460 0.8381420
vt 0.8724960 0.8408060
vt 0.8698660 0.8427700
f 199/215/199 83/216/83 91/217/91
vt 0.8797600 0.8370190
f 83/218/83 199/208/199 34/207/34
vt 0.8372680 0.8451310
f 104/212/104 48/214/48 199/219/199
vt 0.9303440 0.9444900
vt 0.9241450 0.9435780
vt 0.9298240 0.9371130
f 139/220/139 64/221/64 76/222/76
vt 0.8151130 0.9404000
vt 0.8122250 0.9384830
vt 0.8156150 0.9374020
f 69/223/69 18/224/18 85/225/85
vt 0.8465680 0.9926130
vt 0.8400240 0.9882030
vt 0.8442540 0.9845610
f 244/226/244 134/227/134 196/228/196
vt 0.8205450 0.9823320
vt 0.8240660 0.9772350
vt 0.8288320 0.9816550
f 134/229/134 213/230/213 196/231/196
vt 0.8145150 0.9770420
vt 0.8194560 0.9735280
f 134/229/134 198/232/198 213/233/213
vt 0.8200500 0.9673530
vt 0.8105150 0.9734620
vt 0.8116960 0.9666080
f 213/234/213 198/235/198 73/236/73
vt 0.8172710 0.9616870
vt 0.8110250 0.9591360
f 213/237/213 73/236/73 18/238/18
vt 0.8175150 0.9499440
vt 0.8134980 0.9529660
vt 0.8114290 0.9487310
f 69/239/69 213/240/213 18/241/18
vt 0.8330530 0.9661090
vt 0.8342620 0.9734290
vt 0.8300520 0.9716860
f 113/242/113 196/243/196 213/244/213
vt 0.7806660 0.9006910
vt 0.7863360 0.9047800
f 84/245/84 147/246/147 182/127/182
vt 0.8144340 0.9013870
vt 0.8157780 0.9041720
vt 0.8084200 0.9008790
f 117/247/117 85/248/85 147/249/147
vt 0.7964730 0.8551730
vt 0.8000950 0.8576190
vt 0.7947550 0.8611270
f 154/250/154 104/251/104 84/252/84
vt 0.7859360 0.8285450
vt 0.7903380 0.8293860
vt 0.7851300 0.8339600
f 165/253/165 181/254/181 154/255/154
vt 0.7992500 0.8774160
vt 0.7961130 0.8690210
vt 0.8032900 0.8687120
f 147/256/147 84/257/84 158/258/158
vt 0.7871470 0.8601900
vt 0.7826880 0.8579430
vt 0.7893640 0.8540070
f 84/259/84 7/260/7 154/261/154
vt 0.6929840 0.8708610
vt 0.6955820 0.8740470
vt 0.6908750 0.8763810
f 14/262/14 2/263/2 234/264/234
vt 0.7979230 0.9254520
vt 0.8046690 0.9209510
vt 0.8060080 0.9252900
f 18/265/18 147/266/147 85/267/85
vt 0.8101580 0.8548880
vt 0.8133260 0.8616790
vt 0.8054180 0.8593770
f 104/268/104 158/269/158 84/270/84
vt 0.8107110 0.8442450
vt 0.8099340 0.8498920
vt 0.8052470 0.8488050
f 173/271/173 104/272/104 154/273/154
vt 0.8045980 0.8423610
f 181/274/181 173/271/173 154/273/154
vt 0.8870070 0.8378330
vt 0.8864860 0.8318000
vt 0.8903470 0.8353770
f 83/275/83 34/276/34 39/277/39
vt 0.9064140 0.8227750
vt 0.9081700 0.8292800
vt 0.9039570 0.8233960
f 101/278/101 34/279/34 86/280/86
vt 0.9139170 0.8282050
vt 0.9122050 0.8336010
f 101/281/101 39/282/39 34/279/34
vt 0.8152840 0.8565240
vt 0.8220950 0.8573630
f 104/283/104 45/284/45 158/269/158
vt 0.8392650 0.8245600
vt 0.8432340 0.8298010
vt 0.8353720 0.8303670
f 22/285/22 48/286/48 173/287/173
vt 0.8171280 0.8331790
vt 0.8176480 0.8393640
vt 0.8131000 0.8367080
f 22/288/22 173/289/173 181/290/181
vt 0.3690690 0.6128420
vt 0.3760110 0.6202510
vt 0.3643440 0.6234470
f 231/291/231 77/292/77 28/293/28
vt 0.3467110 0.5931300
vt 0.3516290 0.5986810
vt 0.3449310 0.6041510
f 160/294/160 231/295/231 137/296/137
vt 0.3775390 0.6415420
vt 0.3677340 0.6439160
vt 0.3720760 0.6367600
f 77/297/77 232/298/232 28/299/28
vt 0.3736730 0.6465060
vt 0.3727470 0.6534110
f 232/298/232 77/300/77 205/301/205
vt 0.3622700 0.6546250
vt 0.3554230 0.6535000
vt 0.3585650 0.6491700
f 205/302/205 218/303/218 232/304/232
vt 0.3601700 0.6712780
vt 0.3655780 0.6760650
vt 0.3576370 0.6806650
f 205/305/205 77/306/77 223/307/223
vt 0.3502940 0.6351200
vt 0.3502050 0.6431600
vt 0.3433470 0.6405040
f 28/308/28 232/309/232 184/310/184
vt 0.3320690 0.6505720
vt 0.3295890 0.6565740
vt 0.3210820 0.6566710
f 232/311/232 218/312/218 129/313/129
vt 0.3235070 0.6495680
f 129/313/129 184/314/184 232/311/232
vt 0.3398820 0.6251970
vt 0.3503580 0.6214500
vt 0.3498730 0.6281150
f 145/315/145 231/316/231 28/317/28
vt 0.3298890 0.6335620
vt 0.3311040 0.6267130
vt 0.3360310 0.6303480
f 184/318/184 145/319/145 28/320/28
vt 0.3194180 0.6391510
vt 0.3212940 0.6338420
vt 0.3239240 0.6396680
f 129/321/129 145/322/145 184/323/184
vt 0.3134060 0.6382550
f 210/324/210 145/322/145 129/321/129
vt 0.3118470 0.6309630
vt 0.3166700 0.6247020
f 210/325/210 137/326/137 145/322/145
vt 0.3241350 0.6150180
vt 0.3314520 0.6209100
vt 0.3241990 0.6225940
f 137/327/137 231/328/231 145/329/145
vt 0.2707050 0.5773730
vt 0.2786280 0.5641570
vt 0.2776540 0.5746890
f 74/330/74 66/331/66 137/332/137
vt 0.2686160 0.5675710
vt 0.2743390 0.5592980
f 74/333/74 192/334/192 66/331/66
vt 0.2662630 0.6007430
vt 0.2760660 0.6016020
vt 0.2636760 0.6096150
f 74/335/74 137/336/137 143/337/143
vt 0.2825800 0.6093150
vt 0.2742010 0.6094290
f 137/336/137 57/338/57 143/339/143
vt 0.3092650 0.6220810
f 210/325/210 57/340/57 137/326/137
vt 0.3031110 0.6390780
vt 0.3049930 0.6286460
vt 0.3082370 0.6384830
f 71/341/71 57/342/57 210/343/210
vt 0.3106000 0.6590670
vt 0.3030040 0.6523560
vt 0.3078130 0.6493880
f 129/344/129 71/345/71 210/346/210
vt 0.2650620 0.6486380
vt 0.2727630 0.6548240
vt 0.2640230 0.6524620
f 94/347/94 57/348/57 19/349/19
vt 0.3062230 0.6616040
vt 0.3008720 0.6636590
f 71/345/71 129/350/129 79/351/79
vt 0.2779270 0.6640450
vt 0.2798000 0.6548860
vt 0.2842240 0.6616910
f 19/352/19 57/353/57 71/354/71
vt 0.2967980 0.6800470
vt 0.2947090 0.6789770
vt 0.2954870 0.6714750
f 200/355/200 19/356/19 71/357/71
vt 0.3066570 0.6874860
vt 0.3020390 0.6765390
vt 0.3119020 0.6867580
f 200/358/200 71/359/71 79/360/79
vt 0.3298600 0.6798570
vt 0.3250830 0.6751640
vt 0.3313230 0.6727690
f 79/361/79 129/362/129 218/363/218
vt 0.3377290 0.6797300
vt 0.3397260 0.6747740
f 79/364/79 218/363/218 205/365/205
vt 0.3352760 0.6865190
vt 0.3336880 0.6929480
vt 0.3267640 0.6890620
f 223/366/223 4/367/4 79/368/79
vt 0.3452670 0.6776530
vt 0.3444520 0.6864680
f 79/364/79 205/369/205 223/370/223
vt 0.3268720 0.6964630
f 79/368/79 4/367/4 200/371/200
vt 0.3022640 0.5645770
vt 0.3084270 0.5682110
vt 0.2993380 0.5736490
f 66/372/66 23/373/23 137/374/137
vt 0.2512300 0.6265720
vt 0.2531150 0.6317370
vt 0.2493840 0.6310180
f 143/375/143 94/376/94 68/377/68
vt 0.2553700 0.6373120
vt 0.2618940 0.6296720
vt 0.2634800 0.6376730
f 94/378/94 143/379/143 57/380/57
vt 0.3191410 0.5677150
vt 0.3237000 0.5734980
vt 0.3172030 0.5788920
f 23/381/23 160/382/160 137/383/137
vt 0.2437280 0.4888700
vt 0.2485510 0.4918490
vt 0.2376840 0.4957700
f 66/384/66 192/385/192 176/386/176
vt 0.3169640 0.5401080
vt 0.3100620 0.5408520
vt 0.3109920 0.5325610
f 23/387/23 66/388/66 152/389/152
vt 0.2160230 0.4754310
vt 0.2227560 0.4731290
vt 0.2192900 0.4805410
f 240/390/240 176/391/176 166/392/166
vt 0.2011710 0.4486330
vt 0.2057420 0.4562060
vt 0.1989090 0.4548370
f 207/393/207 240/394/240 95/395/95
vt 0.2099510 0.4506080
f 207/393/207 176/396/176 240/394/240
vt 0.2808970 0.4773180
vt 0.2881800 0.4811890
vt 0.2793080 0.4850280
f 3/397/3 152/398/152 66/399/66
vt 0.2686610 0.4424200
vt 0.2723450 0.4475890
vt 0.2633120 0.4522230
f 110/400/110 3/401/3 66/402/66
vt 0.2737150 0.4442700
f 150/403/150 3/401/3 110/400/110
vt 0.2687420 0.3977630
vt 0.2648460 0.3985030
vt 0.2707700 0.3922070
f 110/404/110 163/405/163 228/406/228
vt 0.2441450 0.4245740
vt 0.2477670 0.4297270
vt 0.2434190 0.4350290
f 163/407/163 110/408/110 176/409/176
vt 0.2267590 0.4024770
vt 0.2296920 0.3967800
vt 0.2311910 0.4084630
f 70/410/70 163/411/163 180/412/180
vt 0.2302700 0.4221790
vt 0.2403670 0.4203330
vt 0.2347350 0.4280450
f 180/413/180 163/414/163 176/415/176
vt 0.2512300 0.3880870
vt 0.2419770 0.3834530
vt 0.2504860 0.3778140
f 163/416/163 70/417/70 141/418/141
vt 0.2417300 0.3703430
vt 0.2440400 0.3776660
f 187/419/187 141/418/141 70/420/70
vt 0.2696310 0.3530260
vt 0.2760810 0.3520330
vt 0.2712560 0.3595990
f 141/421/141 228/422/228 163/423/163
vt 0.2244000 0.3741290
vt 0.2330480 0.3728100
vt 0.2276130 0.3808210
f 119/424/119 187/425/187 70/426/70
vt 0.2094070 0.3749590
vt 0.2101940 0.3690760
vt 0.2166010 0.3753380
f 69/427/69 117/428/117 119/429/119
vt 0.2082770 0.3895890
vt 0.2143490 0.3842410
vt 0.2163580 0.3923290
f 105/430/105 119/431/119 70/432/70
vt 0.1986040 0.3864700
vt 0.1999730 0.3908920
vt 0.1955520 0.3878710
f 119/433/119 105/434/105 36/435/36
vt 0.2074290 0.4028600
vt 0.2136430 0.4012390
vt 0.2110600 0.4113360
f 105/436/105 70/437/70 180/438/180
vt 0.2269500 0.3609500
vt 0.2358570 0.3653430
vt 0.2286310 0.3685960
f 117/439/117 187/440/187 119/441/119
vt 0.2370030 0.5317530
vt 0.2418630 0.5344470
vt 0.2366660 0.5362970
f 176/442/176 192/443/192 12/444/12
vt 0.2388940 0.4469880
vt 0.2498900 0.4408650
vt 0.2470170 0.4504300
f 176/445/176 110/446/110 66/447/66
vt 0.2231300 0.4393460
vt 0.2287750 0.4325890
vt 0.2314540 0.4385920
f 207/448/207 180/449/180 176/450/176
vt 0.1653370 0.4212000
vt 0.1644720 0.4163940
vt 0.1696540 0.4198480
f 95/451/95 233/452/233 207/453/207
vt 0.1484540 0.4118550
vt 0.1502170 0.4156820
vt 0.1466980 0.4139410
f 233/454/233 95/455/95 13/456/13
vt 0.1672520 0.4107200
f 233/452/233 105/457/105 207/453/207
vt 0.1659010 0.3980530
vt 0.1635810 0.3896500
vt 0.1688550 0.3937890
f 105/458/105 243/459/243 36/460/36
vt 0.1579970 0.3963480
vt 0.1627310 0.4035240
vt 0.1584760 0.4072660
f 243/461/243 105/462/105 233/463/233
vt 0.1158140 0.4007360
vt 0.1137310 0.3942130
vt 0.1184980 0.3946420
f 93/464/93 194/465/194 13/466/13
vt 0.1634170 0.2138060
vt 0.1607730 0.2084110
vt 0.1657820 0.2071170
f 204/467/204 230/468/230 116/469/116
vt 0.1410970 0.2235540
vt 0.1351120 0.2196640
vt 0.1389860 0.2169450
f 138/470/138 44/471/44 230/472/230
vt 0.1560650 0.2188280
vt 0.1481500 0.2151790
vt 0.1563000 0.2127190
f 204/473/204 138/474/138 230/475/230
vt 0.1638460 0.2239900
vt 0.1673810 0.2206570
vt 0.1688300 0.2263000
f 138/476/138 204/477/204 202/478/202
vt 0.1549390 0.2461920
vt 0.1621210 0.2431070
vt 0.1601790 0.2486880
f 225/479/225 46/480/46 208/481/208
vt 0.1311650 0.2377780
vt 0.1326530 0.2317750
vt 0.1382120 0.2345850
f 82/482/82 44/483/44 138/484/138
vt 0.1396530 0.2392370
vt 0.1443010 0.2350190
vt 0.1446610 0.2439560
f 82/485/82 138/486/138 225/487/225
vt 0.1498470 0.2390260
f 202/488/202 225/487/225 138/486/138
vt 0.1571400 0.2397770
f 202/488/202 46/489/46 225/479/225
vt 0.1657370 0.2512500
f 46/480/46 161/490/161 208/481/208
vt 0.1806740 0.2368090
vt 0.1848660 0.2420370
vt 0.1806170 0.2440060
f 46/491/46 168/492/168 161/493/161
vt 0.1940940 0.2349530
vt 0.1983160 0.2410360
vt 0.1926890 0.2391760
f 46/494/46 237/495/237 168/496/168
vt 0.1974200 0.2315720
vt 0.1910990 0.2270590
vt 0.1984410 0.2267420
f 237/497/237 46/498/46 146/499/146
vt 0.1863100 0.2188240
vt 0.1917520 0.2213230
vt 0.1851740 0.2247150
f 204/500/204 146/501/146 46/502/46
vt 0.1895920 0.2124960
vt 0.1937410 0.2160460
f 204/500/204 116/503/116 146/504/146
vt 0.1699300 0.2309700
vt 0.1772120 0.2235240
vt 0.1767840 0.2319760
f 202/505/202 204/506/204 46/507/46
vt 0.1578610 0.2025730
vt 0.1633480 0.2008510
f 116/469/116 230/508/230 183/509/183
vt 0.1179180 0.2048600
vt 0.1190310 0.1984390
vt 0.1226160 0.1982950
f 44/510/44 112/511/112 230/512/230
vt 0.2001030 0.2116270
vt 0.2007330 0.2179320
vt 0.1951470 0.2111900
f 175/513/175 146/514/146 116/515/116
vt 0.2048750 0.2415230
vt 0.2091120 0.2429500
vt 0.2062720 0.2434930
f 237/516/237 63/517/63 168/518/168
vt 0.2135810 0.2430780
vt 0.2108580 0.2380130
vt 0.2163170 0.2372300
f 63/519/63 237/520/237 167/521/167
vt 0.1226360 0.2594030
vt 0.1249300 0.2622300
vt 0.1178150 0.2645640
f 82/522/82 10/523/10 172/524/172
vt 0.1304160 0.2574020
f 82/522/82 225/525/225 10/523/10
vt 0.1392900 0.2627090
vt 0.1463120 0.2616420
vt 0.1430540 0.2637400
f 225/526/225 208/527/208 10/528/10
vt 0.1130720 0.2918910
vt 0.1066740 0.2913480
vt 0.1112280 0.2864710
f 10/529/10 16/530/16 172/531/172
vt 0.1210870 0.2908350
vt 0.1260340 0.2975140
vt 0.1207800 0.2988040
f 10/532/10 164/533/164 106/534/106
vt 0.2157530 0.2325950
vt 0.2236100 0.2310190
f 167/521/167 237/535/237 146/536/146
vt 0.2428370 0.2293810
vt 0.2404980 0.2368220
vt 0.2373580 0.2272100
f 123/537/123 167/538/167 146/539/146
vt 0.2745070 0.2737730
vt 0.2799330 0.2751330
vt 0.2720490 0.2804040
f 214/540/214 87/541/87 216/542/216
vt 0.2777570 0.2840990
f 216/542/216 87/541/87 236/543/236
vt 0.2694380 0.2914360
vt 0.2640100 0.2933640
vt 0.2657880 0.2837420
f 216/544/216 136/545/136 214/546/214
vt 0.2546100 0.3155930
vt 0.2502920 0.3129940
vt 0.2617410 0.3119030
f 118/547/118 149/548/149 136/549/136
vt 0.2807630 0.2659150
vt 0.2825730 0.2687730
vt 0.2815020 0.2698640
f 72/550/72 92/551/92 87/552/87
vt 0.2854610 0.2839150
vt 0.2825840 0.2806020
vt 0.2849130 0.2801940
f 236/553/236 87/554/87 92/555/92
vt 0.2526990 0.2474360
vt 0.2451800 0.2485500
vt 0.2476270 0.2408580
f 214/556/214 62/557/62 167/558/167
vt 0.2422730 0.2439430
vt 0.2383350 0.2506570
f 167/559/167 62/557/62 63/560/63
vt 0.2522080 0.2385640
f 167/558/167 123/561/123 214/556/214
vt 0.2657890 0.2403180
vt 0.2618060 0.2355390
vt 0.2641060 0.2374400
f 87/562/87 80/563/80 72/564/72
vt 0.2592970 0.2377780
f 87/562/87 123/565/123 80/563/80
vt 0.2819910 0.3013760
vt 0.2861970 0.3002820
vt 0.2847650 0.3054590
f 236/566/236 120/567/120 248/568/248
vt 0.2671950 0.3041280
vt 0.2732150 0.3064430
vt 0.2711310 0.3130090
f 136/569/136 216/570/216 118/571/118
vt 0.2787130 0.3133180
f 248/572/248 118/571/118 216/570/216
vt 0.2798750 0.3069200
f 216/570/216 236/573/236 248/572/248
vt 0.2645400 0.3316210
vt 0.2588650 0.3325400
vt 0.2621610 0.3240740
f 141/574/141 187/575/187 118/576/118
vt 0.2573800 0.2841690
vt 0.2541700 0.2902140
vt 0.2552100 0.2855700
f 214/577/214 136/578/136 91/579/91
vt 0.2543350 0.2812750
vt 0.2575860 0.2781100
f 214/577/214 91/580/91 62/581/62
vt 0.1131610 0.3082650
vt 0.1063210 0.3129960
vt 0.1060300 0.3043350
f 10/582/10 106/583/106 16/584/16
vt 0.1166210 0.3737230
vt 0.1175050 0.3819410
vt 0.1120620 0.3823140
f 233/585/233 13/586/13 194/587/194
vt 0.1040760 0.3327540
vt 0.1094100 0.3306010
vt 0.1051570 0.3353920
f 131/588/131 106/589/106 219/590/219
vt 0.1169440 0.3634750
vt 0.1073640 0.3657520
vt 0.1057350 0.3606220
f 219/591/219 194/592/194 5/593/5
vt 0.1153290 0.3691680
f 219/591/219 233/594/233 194/592/194
vt 0.1277000 0.3682470
vt 0.1334500 0.3758430
vt 0.1285380 0.3756570
f 219/595/219 243/596/243 233/597/233
vt 0.2023860 0.4320920
vt 0.2099670 0.4356610
vt 0.2070180 0.4427980
f 105/598/105 180/599/180 207/600/207
vt 0.2284290 0.3457640
vt 0.2251190 0.3518960
vt 0.2230200 0.3472980
f 149/601/149 187/602/187 117/603/117
vt 0.2725970 0.3397150
vt 0.2771650 0.3359490
vt 0.2774830 0.3429430
f 141/604/141 248/605/248 228/606/228
vt 0.2831560 0.3347730
vt 0.2806800 0.3402510
f 248/605/248 120/607/120 228/608/228
vt 0.2699000 0.3288110
f 248/605/248 141/604/141 118/609/118
vt 0.1025350 0.3187350
vt 0.1013870 0.3131970
f 106/583/106 131/610/131 16/611/16
vt 0.2461470 0.3394540
vt 0.2392940 0.3391230
vt 0.2445920 0.3333190
f 187/612/187 149/613/149 118/614/118
vt 0.2572110 0.2423460
vt 0.2634160 0.2441970
vt 0.2606920 0.2492080
f 123/615/123 87/616/87 214/617/214
vt 0.3286710 0.3937050
vt 0.3272440 0.3980210
vt 0.3240260 0.3954840
f 43/618/43 24/619/24 60/620/60
vt 0.3526830 0.3652710
vt 0.3564520 0.3700730
vt 0.3523830 0.3669580
f 159/621/159 229/622/229 43/623/43
vt 0.3745370 0.3505180
vt 0.3768530 0.3577080
vt 0.3735490 0.3551080
f 77/624/77 229/625/229 159/626/159
vt 0.3904280 0.3490200
vt 0.3940290 0.3544960
vt 0.3854290 0.3581010
f 77/627/77 125/628/125 229/629/229
vt 0.4131920 0.3493290
vt 0.4100750 0.3555890
vt 0.4097350 0.3480960
f 231/630/231 125/631/125 77/632/77
vt 0.4544070 0.3644940
vt 0.4460640 0.3721010
vt 0.4405150 0.3639520
f 170/633/170 220/634/220 125/635/125
vt 0.4241790 0.3468350
vt 0.4296620 0.3465920
vt 0.4316360 0.3505330
f 231/636/231 160/637/160 125/638/125
vt 0.4411510 0.3476750
vt 0.4403560 0.3508870
vt 0.4362790 0.3465520
f 170/639/170 125/640/125 160/641/160
vt 0.4747970 0.3601140
vt 0.4823570 0.3660540
vt 0.4770790 0.3725360
f 220/642/220 38/643/38 88/644/88
vt 0.3709160 0.3744610
vt 0.3750500 0.3713690
vt 0.3755340 0.3745580
f 108/645/108 229/646/229 115/647/115
vt 0.3856590 0.3653870
vt 0.3911400 0.3720520
vt 0.3828450 0.3742320
f 229/648/229 125/649/125 115/650/115
vt 0.3531230 0.3369360
vt 0.3573490 0.3383810
vt 0.3514970 0.3421820
f 223/651/223 77/652/77 159/653/159
vt 0.5691070 0.3259710
vt 0.5689040 0.3311180
vt 0.5635270 0.3287260
f 3/654/3 14/655/14 152/656/152
vt 0.5823250 0.3255950
vt 0.5852180 0.3297740
vt 0.5760270 0.3286510
f 150/657/150 35/658/35 3/659/3
vt 0.5793330 0.3356520
vt 0.5711910 0.3379320
f 3/659/3 35/660/35 14/661/14
vt 0.5804320 0.3425840
vt 0.5809090 0.3484200
vt 0.5755040 0.3497270
f 35/662/35 2/663/2 14/664/14
vt 0.6392420 0.3170940
vt 0.6441360 0.3225280
vt 0.6368650 0.3218890
f 110/665/110 165/666/165 150/667/150
vt 0.6446460 0.3180890
f 228/668/228 165/666/165 110/665/110
vt 0.5225550 0.3360330
vt 0.5257900 0.3326260
vt 0.5313670 0.3356880
f 23/669/23 152/670/152 38/671/38
vt 0.5405270 0.3356740
vt 0.5469880 0.3340740
vt 0.5452400 0.3409890
f 38/672/38 152/673/152 14/674/14
vt 0.4353330 0.3759250
vt 0.4234630 0.3758900
vt 0.4255480 0.3702170
f 220/675/220 250/676/250 125/677/125
vt 0.4865480 0.3560440
vt 0.4794780 0.3512540
vt 0.4849760 0.3453150
f 38/678/38 220/679/220 170/680/170
vt 0.4853760 0.3400970
vt 0.4912200 0.3413280
f 170/680/170 160/681/160 23/682/23
vt 0.5113240 0.3446440
vt 0.5061970 0.3467900
vt 0.5068510 0.3388710
f 38/683/38 170/684/170 23/685/23
vt 0.6828500 0.3233700
vt 0.6832930 0.3160310
vt 0.6893340 0.3185660
f 165/686/165 228/687/228 142/688/142
vt 0.4881820 0.3704700
vt 0.4838980 0.3725150
f 38/643/38 188/689/188 88/690/88
vt 0.6280680 0.3452700
vt 0.6305900 0.3522260
vt 0.6242020 0.3533890
f 7/691/7 191/692/191 35/693/35
vt 0.6192320 0.3420470
vt 0.6212090 0.3333770
vt 0.6269160 0.3387410
f 35/694/35 150/695/150 7/696/7
vt 0.8687830 0.3029220
vt 0.8758300 0.3047790
vt 0.8686350 0.3088650
f 146/697/146 175/698/175 56/699/56
vt 0.8835480 0.3110320
vt 0.8839330 0.3037030
vt 0.8913470 0.3097790
f 49/700/49 175/701/175 183/702/183
vt 0.8761300 0.3124220
f 175/698/175 49/703/49 56/699/56
vt 0.8505480 0.3247020
vt 0.8477290 0.3194410
vt 0.8559460 0.3227520
f 101/704/101 56/705/56 49/706/49
vt 0.8540930 0.3328660
vt 0.8607570 0.3379380
vt 0.8547620 0.3414360
f 49/707/49 54/708/54 101/709/101
vt 0.8281530 0.3272600
vt 0.8271300 0.3207260
vt 0.8360590 0.3262100
f 101/710/101 80/711/80 56/712/56
vt 0.8988450 0.3023790
vt 0.8978070 0.3097690
vt 0.8913650 0.3024840
f 116/713/116 183/714/183 175/715/175
vt 0.8568830 0.3037330
vt 0.8585380 0.3060540
vt 0.8542740 0.3041580
f 146/716/146 56/717/56 123/718/123
vt 0.8311760 0.3084450
vt 0.8292190 0.3142740
vt 0.8261240 0.3097460
f 123/719/123 56/720/56 80/721/80
vt 0.8189710 0.3206000
vt 0.8186980 0.3288340
vt 0.8143040 0.3232020
f 80/722/80 101/723/101 72/724/72
vt 0.8140250 0.3301610
f 86/725/86 72/724/72 101/723/101
vt 0.7945760 0.3220390
vt 0.8001760 0.3272650
vt 0.7915170 0.3292120
f 92/726/92 72/727/72 86/728/86
vt 0.7768000 0.3378750
vt 0.7817490 0.3451920
vt 0.7737300 0.3427130
f 92/729/92 86/730/86 22/731/22
vt 0.7602670 0.3154230
vt 0.7612260 0.3115360
vt 0.7656950 0.3133480
f 120/732/120 236/733/236 92/734/92
vt 0.7564170 0.3197680
vt 0.7642440 0.3206400
vt 0.7582510 0.3256860
f 120/735/120 92/736/92 22/737/22
vt 0.7499210 0.3375090
vt 0.7477100 0.3281750
vt 0.7536930 0.3302040
f 142/738/142 120/739/120 22/740/22
vt 0.6088370 0.3495810
vt 0.6110090 0.3539810
vt 0.6059440 0.3531700
f 35/741/35 191/742/191 2/743/2
vt 0.6561360 0.3306860
vt 0.6498990 0.3371650
vt 0.6450830 0.3304920
f 165/744/165 7/745/7 150/746/150
vt 0.6689750 0.3406450
vt 0.6693870 0.3473260
vt 0.6615340 0.3420390
f 165/747/165 154/748/154 7/749/7
vt 0.7019470 0.3174480
vt 0.7004490 0.3126220
vt 0.7063530 0.3147970
f 142/750/142 228/751/228 120/752/120
vt 0.6884350 0.3357630
vt 0.6824550 0.3379950
vt 0.6819050 0.3313060
f 181/753/181 165/754/165 142/755/142
vt 0.7193560 0.3393620
vt 0.7219700 0.3464950
vt 0.7149850 0.3443730
f 142/756/142 22/757/22 181/758/181
vt 0.7886090 0.3534040
vt 0.7858610 0.3578600
vt 0.7813430 0.3529280
f 86/759/86 48/760/48 22/761/22
vt 0.5204350 0.2379630
vt 0.5237460 0.2430390
vt 0.5209790 0.2422020
f 30/762/30 192/763/192 74/764/74
vt 0.5274570 0.2346230
vt 0.5277820 0.2409740
f 30/762/30 12/765/12 192/766/192
vt 0.3576510 0.2676830
vt 0.3603990 0.2724120
vt 0.3541950 0.2752950
f 90/767/90 200/768/200 4/769/4
vt 0.3698960 0.2553340
vt 0.3757700 0.2476740
vt 0.3799830 0.2492550
f 90/770/90 55/771/55 200/772/200
vt 0.3828490 0.2431140
vt 0.3890820 0.2477120
f 67/773/67 19/774/19 200/772/200
vt 0.3810770 0.2448820
f 67/773/67 200/772/200 55/775/55
vt 0.3888000 0.2423670
f 19/774/19 67/773/67 245/776/245
vt 0.3476280 0.2676640
vt 0.3514180 0.2627860
f 4/769/4 81/777/81 90/778/90
vt 0.5646750 0.2439820
vt 0.5624250 0.2390530
vt 0.5683860 0.2438500
f 176/779/176 12/780/12 166/781/166
vt 0.5625110 0.2294220
vt 0.5708120 0.2360850
f 12/780/12 65/782/65 166/783/166
vt 0.5511810 0.2233470
vt 0.5399980 0.2191620
vt 0.5470610 0.2171610
f 65/784/65 179/785/179 144/786/144
vt 0.5261550 0.2191160
vt 0.5234340 0.2113950
vt 0.5303130 0.2123070
f 179/787/179 100/788/100 144/789/144
vt 0.5023240 0.2408790
vt 0.4978030 0.2396340
vt 0.5032990 0.2363770
f 74/790/74 143/791/143 30/792/30
vt 0.4955740 0.2337700
f 143/791/143 185/793/185 30/792/30
vt 0.4882600 0.2391640
vt 0.4873820 0.2337200
f 143/794/143 68/795/68 185/793/185
vt 0.5240920 0.2306060
f 185/796/185 12/765/12 30/762/30
vt 0.4858150 0.2279930
vt 0.4950050 0.2297320
f 26/797/26 185/798/185 68/795/68
vt 0.4697120 0.2338860
vt 0.4600190 0.2302620
vt 0.4663320 0.2247600
f 68/799/68 41/800/41 26/801/26
vt 0.4775430 0.2173280
vt 0.4689610 0.2156230
vt 0.4772520 0.2125210
f 26/802/26 103/803/103 156/804/156
vt 0.4468340 0.2266630
vt 0.4403350 0.2232900
vt 0.4484700 0.2195760
f 41/805/41 75/806/75 103/807/103
vt 0.4589250 0.2257030
vt 0.4626630 0.2194830
f 41/808/41 103/809/103 26/801/26
vt 0.4677130 0.2091960
vt 0.4725610 0.2043430
f 156/804/156 103/810/103 132/811/132
vt 0.5103310 0.2212530
vt 0.5036630 0.2218730
vt 0.5081960 0.2149220
f 179/812/179 26/813/26 156/814/156
vt 0.5107290 0.2284540
f 179/812/179 185/815/185 26/813/26
vt 0.5177950 0.2149150
vt 0.5180250 0.2191020
f 156/814/156 100/816/100 179/817/179
vt 0.5187330 0.2248180
vt 0.5269260 0.2257050
f 185/796/185 179/818/179 65/819/65
vt 0.4260950 0.2458160
vt 0.4255070 0.2377410
vt 0.4345780 0.2443400
f 19/820/19 193/821/193 94/822/94
vt 0.4335610 0.2299090
vt 0.4387680 0.2358350
vt 0.4289510 0.2343780
f 193/823/193 68/824/68 94/825/94
vt 0.4423420 0.2298270
f 68/824/68 193/823/193 41/826/41
f 75/806/75 41/826/41 193/823/193
vt 0.4007370 0.2445920
vt 0.3950750 0.2403770
vt 0.4019360 0.2386080
f 19/827/19 245/828/245 193/829/193
vt 0.5726700 0.2122430
vt 0.5618550 0.2090270
vt 0.5745180 0.2069440
f 65/830/65 144/831/144 242/832/242
vt 0.5637940 0.1952370
vt 0.5561660 0.2004360
vt 0.5568260 0.1919660
f 242/833/242 144/834/144 126/835/126
vt 0.5637290 0.1894400
f 17/836/17 242/833/242 126/835/126
vt 0.5314530 0.1825180
vt 0.5236260 0.1715630
vt 0.5357160 0.1750560
f 144/837/144 96/838/96 126/839/126
vt 0.4940890 0.1426070
vt 0.4919170 0.1484520
vt 0.4860920 0.1463550
f 235/840/235 96/841/96 246/842/246
vt 0.5128320 0.1544680
vt 0.5199400 0.1580840
vt 0.5154710 0.1594330
f 235/843/235 126/844/126 96/845/96
vt 0.6303460 0.2540840
vt 0.6200640 0.2538240
vt 0.6218110 0.2492910
f 95/846/95 240/847/240 174/848/174
vt 0.6290320 0.2479390
f 95/846/95 174/848/174 226/849/226
vt 0.6095220 0.2522190
vt 0.6088960 0.2443620
vt 0.6143520 0.2508820
f 166/850/166 186/851/186 240/852/240
vt 0.6156150 0.2438560
f 240/852/240 186/851/186 174/853/174
vt 0.5841020 0.2251350
vt 0.5890890 0.2159340
vt 0.5911210 0.2237780
f 65/854/65 242/855/242 186/856/186
vt 0.5981360 0.2111320
vt 0.5962820 0.2197940
f 157/857/157 186/858/186 242/855/242
vt 0.5888690 0.2326450
f 166/859/166 65/854/65 186/856/186
vt 0.5881760 0.2002940
vt 0.5814370 0.1982320
vt 0.5838570 0.1946170
f 157/860/157 242/861/242 17/862/17
vt 0.6147790 0.2017030
vt 0.6050200 0.2023340
vt 0.6074930 0.1966190
f 99/863/99 157/864/157 17/865/17
vt 0.6205810 0.2238100
vt 0.6200490 0.2141950
vt 0.6255200 0.2181210
f 186/866/186 157/867/157 174/868/174
vt 0.6278550 0.2103150
f 174/868/174 157/867/157 29/869/29
vt 0.6203350 0.2088330
vt 0.6273110 0.2036990
f 157/870/157 99/871/99 29/869/29
vt 0.5344230 0.2291290
f 12/765/12 185/796/185 65/872/65
vt 0.6470750 0.2417860
vt 0.6446340 0.2356980
vt 0.6560470 0.2344720
f 226/873/226 174/874/174 29/875/29
vt 0.6773460 0.2497270
vt 0.6753520 0.2420130
vt 0.6817830 0.2428660
f 226/876/226 29/877/29 133/878/133
vt 0.6876820 0.2444490
vt 0.6927470 0.2495750
vt 0.6839890 0.2496790
f 133/879/133 140/880/140 226/881/226
vt 0.6755660 0.2771640
vt 0.6745260 0.2704980
vt 0.6819990 0.2692950
f 95/882/95 226/883/226 140/884/140
vt 0.6876010 0.2786210
vt 0.6823260 0.2782900
vt 0.6879540 0.2729410
f 13/885/13 95/886/95 140/887/140
vt 0.7066970 0.2455970
vt 0.7054350 0.2394830
vt 0.7139320 0.2460260
f 140/888/140 133/889/133 122/890/122
vt 0.7181880 0.2348390
vt 0.7246990 0.2384850
vt 0.7215390 0.2436720
f 133/891/133 134/892/134 122/893/122
vt 0.7129360 0.2573890
vt 0.7098610 0.2526720
vt 0.7177270 0.2535000
f 93/894/93 140/895/140 122/896/122
vt 0.7542880 0.2511810
vt 0.7554160 0.2444560
vt 0.7621390 0.2485240
f 203/897/203 134/898/134 135/899/135
vt 0.7637620 0.2383040
vt 0.7649780 0.2428070
f 134/898/134 244/900/244 135/901/135
vt 0.7422270 0.2500090
vt 0.7432160 0.2466750
vt 0.7517650 0.2540170
f 122/902/122 134/903/134 203/904/203
vt 0.7178060 0.2738910
vt 0.7209670 0.2703600
vt 0.7274920 0.2755190
f 93/905/93 122/906/122 194/907/194
vt 0.7915360 0.2591790
vt 0.7850000 0.2607380
vt 0.7868830 0.2515320
f 20/908/20 131/909/131 121/910/121
vt 0.7775700 0.2523880
f 131/909/131 135/911/135 121/910/121
vt 0.7821400 0.2458900
vt 0.7833950 0.2385160
vt 0.7879480 0.2437750
f 135/912/135 244/913/244 121/914/121
vt 0.7748070 0.2641460
vt 0.7832470 0.2699170
vt 0.7755400 0.2690550
f 135/915/135 131/916/131 5/917/5
vt 0.7960130 0.2525310
vt 0.7964780 0.2469890
vt 0.8041840 0.2483380
f 20/918/20 121/919/121 130/920/130
vt 0.7963580 0.2367510
vt 0.7953420 0.2414730
vt 0.7903280 0.2388520
f 114/921/114 121/922/121 244/923/244
vt 0.7485430 0.2786550
vt 0.7528210 0.2717820
vt 0.7559070 0.2796160
f 194/924/194 203/925/203 5/926/5
vt 0.7489710 0.2677720
vt 0.7452840 0.2617390
vt 0.7518660 0.2638420
f 194/927/194 122/928/122 203/929/203
vt 0.7610880 0.2711820
f 135/930/135 5/926/5 203/925/203
vt 0.8489170 0.2964740
vt 0.8513510 0.2896450
vt 0.8571330 0.2938710
f 16/931/16 59/932/59 172/933/172
vt 0.8121020 0.2962420
vt 0.8081040 0.2907660
vt 0.8166550 0.2893500
f 16/934/16 131/935/131 20/936/20
vt 0.8454690 0.2483870
vt 0.8515280 0.2512650
vt 0.8462200 0.2531750
f 128/937/128 50/938/50 130/939/130
vt 0.8317720 0.2705430
vt 0.8253790 0.2694080
vt 0.8280120 0.2625430
f 59/940/59 20/941/20 130/942/130
vt 0.8923350 0.2629130
vt 0.8854700 0.2617880
vt 0.8889800 0.2612340
f 44/943/44 50/944/50 112/945/112
vt 0.8705750 0.2896880
vt 0.8631370 0.2880210
vt 0.8697980 0.2839110
f 82/946/82 172/947/172 44/948/44
vt 0.8614460 0.2806680
vt 0.8573190 0.2753490
vt 0.8664450 0.2796430
f 172/949/172 59/950/59 44/951/44
vt 0.8234440 0.2881540
vt 0.8223140 0.2804400
vt 0.8292800 0.2820310
f 16/952/16 20/953/20 59/954/59
vt 0.8337140 0.2631350
vt 0.8330750 0.2549150
vt 0.8399420 0.2583800
f 59/955/59 130/956/130 50/957/50
vt 0.8663020 0.2714990
vt 0.8609860 0.2688800
vt 0.8656470 0.2646290
f 44/958/44 59/959/59 50/960/50
vt 0.7835680 0.3013770
vt 0.7818570 0.3061660
vt 0.7773100 0.3045760
f 131/961/131 219/962/219 5/963/5
vt 0.7060670 0.2804540
vt 0.7046210 0.2760670
vt 0.7107480 0.2764630
f 13/964/13 140/965/140 93/966/93
vt 0.7205870 0.2283260
vt 0.7146270 0.2269090
vt 0.7191260 0.2220950
f 134/967/134 133/968/133 198/969/198
vt 0.8481340 0.2314610
vt 0.8530920 0.2336330
vt 0.8471630 0.2334320
f 21/970/21 8/971/8 211/972/211
vt 0.7757860 0.1935310
vt 0.7811120 0.1946460
vt 0.7755960 0.1993120
f 227/973/227 21/974/21 52/975/52
vt 0.7884400 0.2157280
vt 0.7861710 0.2187720
vt 0.7834410 0.2184110
f 52/976/52 21/977/21 171/978/171
vt 0.7023770 0.1664360
vt 0.7081830 0.1603540
vt 0.7100700 0.1710230
f 169/979/169 197/980/197 227/981/227
vt 0.6897840 0.1568570
vt 0.6969320 0.1569710
vt 0.6946710 0.1639730
f 209/982/209 197/983/197 169/984/169
vt 0.6690230 0.1577110
vt 0.6744060 0.1541130
vt 0.6749740 0.1641450
f 224/985/224 209/986/209 169/987/169
vt 0.6361730 0.1438840
vt 0.6392320 0.1387760
vt 0.6395490 0.1484850
f 31/988/31 209/989/209 224/990/224
vt 0.6248280 0.1340940
vt 0.6303960 0.1298610
vt 0.6316940 0.1389870
f 212/991/212 209/992/209 31/993/31
vt 0.5901310 0.1376590
vt 0.5816690 0.1376370
vt 0.5839000 0.1312680
f 31/994/31 47/995/47 212/996/212
vt 0.5895260 0.1571120
vt 0.5977180 0.1588420
vt 0.5916630 0.1601310
f 47/997/47 31/998/31 151/999/151
vt 0.6818310 0.1880890
vt 0.6827000 0.1848730
vt 0.6884740 0.1901920
f 241/1000/241 224/1001/224 169/1002/169
vt 0.7456050 0.1987920
vt 0.7504830 0.1948960
vt 0.7521320 0.2018120
f 169/1003/169 227/1004/227 52/1005/52
vt 0.7213970 0.1984330
vt 0.7245620 0.2006750
vt 0.7227760 0.2020560
f 169/1006/169 155/1007/155 241/1008/241
vt 0.7337990 0.2014810
vt 0.7420500 0.2022770
vt 0.7381310 0.2049090
f 169/1009/169 52/1010/52 155/1011/155
vt 0.8632150 0.2323480
vt 0.8667010 0.2287940
vt 0.8700470 0.2363360
f 8/1012/8 190/1013/190 127/1014/127
vt 0.5785240 0.0978420
vt 0.5826830 0.0949460
vt 0.5846530 0.0996980
f 60/1015/60 247/1016/247 212/1017/212
vt 0.8063170 0.1993150
vt 0.8094230 0.1922490
vt 0.8138250 0.1978540
f 21/1018/21 239/1019/239 98/1020/98
vt 0.5719340 0.1287070
vt 0.5792090 0.1252560
vt 0.5768570 0.1331470
f 60/1021/60 212/1022/212 47/1023/47
vt 0.5359570 0.1186290
vt 0.5330290 0.1113190
vt 0.5415510 0.1164110
f 47/1024/47 25/1025/25 60/1026/60
vt 0.6303030 0.1206430
vt 0.6348400 0.1160550
vt 0.6385640 0.1197470
f 212/1027/212 111/1028/111 209/1029/209
vt 0.6235820 0.1707690
vt 0.6267260 0.1681510
vt 0.6299190 0.1717970
f 151/1030/151 31/1031/31 215/1032/215
vt 0.6311720 0.1699660
f 31/1031/31 224/1033/224 215/1032/215
vt 0.8874740 0.2250110
vt 0.8910510 0.2263860
vt 0.8879150 0.2298660
f 190/1034/190 109/1035/109 127/1036/127
vt 0.4311370 0.1102050
vt 0.4375540 0.1069610
vt 0.4349360 0.1123930
f 4/1037/4 159/1038/159 81/1039/81
vt 0.4437750 0.0865710
vt 0.4507910 0.0852470
vt 0.4457790 0.0919090
f 4/1040/4 223/1041/223 159/1042/159
vt 0.4457140 0.1163150
vt 0.4482150 0.1075760
vt 0.4518030 0.1147650
f 81/1043/81 159/1044/159 6/1045/6
vt 0.4651120 0.1036220
vt 0.4741370 0.0983500
vt 0.4733350 0.1090700
f 159/1046/159 43/1047/43 6/1048/6
vt 0.5073710 0.0888770
vt 0.5151580 0.0915090
vt 0.5087310 0.0961750
f 43/1049/43 60/1050/60 25/1051/25
vt 0.4990060 0.1028200
vt 0.4995080 0.0950590
vt 0.5057190 0.1009040
f 6/1052/6 43/1053/43 25/1054/25
vt 0.4788460 0.1232740
vt 0.4856640 0.1271780
vt 0.4792080 0.1280270
f 6/1055/6 25/1056/25 1/1057/1
vt 0.4835070 0.1304840
vt 0.4813520 0.1290150
f 25/1056/25 53/1058/53 1/1059/1
vt 0.3617200 0.2244440
vt 0.3655090 0.2265030
vt 0.3607900 0.2305250
f 36/1060/36 69/1061/69 119/1062/119
vt 0.3775450 0.2206230
vt 0.3694700 0.2222740
vt 0.3732000 0.2150580
f 69/1063/69 36/1064/36 206/1065/206
vt 0.3580690 0.1979240
vt 0.3622650 0.2071380
vt 0.3556280 0.2017010
f 243/1066/243 206/1067/206 36/1068/36
vt 0.3584680 0.1742190
vt 0.3616890 0.1807800
vt 0.3530400 0.1854200
f 222/1069/222 206/1070/206 243/1071/243
vt 0.3919730 0.0376490
vt 0.3986570 0.0352530
vt 0.3993010 0.0441860
f 208/1072/208 161/1073/161 64/1074/64
vt 0.3885930 0.0573070
vt 0.3959090 0.0572950
vt 0.3940740 0.0642210
f 208/1075/208 64/1076/64 27/1077/27
vt 0.3754610 0.0685070
vt 0.3844660 0.0707640
vt 0.3776580 0.0747480
f 208/1078/208 27/1079/27 164/1080/164
vt 0.4007120 0.0938170
vt 0.3903970 0.0965410
vt 0.3944010 0.0904310
f 177/1081/177 61/1082/61 27/1083/27
vt 0.4041120 0.0641180
vt 0.4049850 0.0709390
vt 0.4002740 0.0694900
f 64/1084/64 177/1085/177 27/1086/27
vt 0.4111090 0.0665850
f 177/1085/177 64/1084/64 139/1087/139
vt 0.4075820 0.0902580
vt 0.4160880 0.0927300
vt 0.4086480 0.0966390
f 177/1088/177 114/1089/114 61/1090/61
vt 0.4036140 0.0372140
f 161/1073/161 76/1091/76 64/1074/64
vt 0.3666460 0.0685470
vt 0.3710840 0.0649730
vt 0.3719690 0.0753090
f 10/1092/10 208/1093/208 164/1094/164
vt 0.3843460 0.0960300
vt 0.3867710 0.0876920
f 164/1095/164 27/1096/27 61/1082/61
vt 0.3803590 0.1049630
vt 0.3862450 0.1029600
f 217/1097/217 164/1095/164 61/1098/61
vt 0.4070990 0.1357390
vt 0.4172350 0.1310910
vt 0.4167550 0.1386070
f 113/1099/113 61/1100/61 196/1101/196
vt 0.3765320 0.2369860
vt 0.3782810 0.2351510
vt 0.3777250 0.2383500
f 69/1102/69 85/1103/85 117/1104/117
vt 0.3813480 0.1962230
vt 0.3877690 0.2022230
vt 0.3809290 0.2021050
f 32/1105/32 69/1106/69 206/1107/206
vt 0.3486080 0.1434830
vt 0.3508750 0.1424490
vt 0.3494620 0.1454130
f 106/1108/106 51/1109/51 219/1110/219
vt 0.3704710 0.1266870
vt 0.3786750 0.1249980
vt 0.3748440 0.1341280
f 51/1111/51 217/1112/217 222/1113/222
vt 0.3642120 0.1132800
vt 0.3719200 0.1146730
vt 0.3665520 0.1194430
f 164/1114/164 217/1115/217 51/1116/51
vt 0.3905120 0.1314110
vt 0.3961720 0.1269470
vt 0.3984700 0.1375460
f 217/1117/217 61/1118/61 113/1119/113
vt 0.3926140 0.1389500
vt 0.3862960 0.1423740
f 217/1117/217 113/1120/113 222/1121/222
vt 0.3960770 0.1925680
vt 0.4022530 0.1940460
vt 0.4000090 0.1988780
f 32/1122/32 213/1123/213 69/1124/69
vt 0.3762900 0.1628330
vt 0.3813910 0.1682710
vt 0.3743310 0.1724210
f 222/1125/222 32/1126/32 206/1127/206
vt 0.3958840 0.1530410
vt 0.3981580 0.1622940
vt 0.3928320 0.1623680
f 222/1128/222 113/1129/113 32/1130/32
vt 0.4003400 0.1882740
f 32/1122/32 113/1131/113 213/1123/213
vt 0.3589330 0.1164400
f 106/1132/106 164/1114/164 51/1116/51
vt 0.3511670 0.1614280
vt 0.3511900 0.1579870
vt 0.3562640 0.1562210
f 243/1133/243 219/1134/219 51/1135/51
vt 0.3569400 0.1625010
vt 0.3625850 0.1586950
f 243/1136/243 51/1135/51 222/1137/222
vt 0.8236020 0.0176420
vt 0.8275550 0.0089000
vt 0.8299050 0.0167510
f 211/1138/211 189/1139/189 98/1140/98
vt 0.8216900 0.0117170
f 189/1139/189 211/1138/211 8/1141/8
vt 0.8363710 0.0088860
vt 0.8439120 0.0122840
vt 0.8370640 0.0148180
f 189/1142/189 190/1143/190 98/1144/98
vt 0.8348740 0.0597790
vt 0.8332740 0.0539560
vt 0.8358440 0.0531720
f 171/1145/171 211/1146/211 98/1147/98
vt 0.8722510 0.0968010
vt 0.8684590 0.0986730
vt 0.8676490 0.0937990
f 227/1148/227 239/1149/239 21/1150/21
vt 0.8655830 0.1047760
vt 0.8673920 0.1093450
vt 0.8627510 0.1122590
f 239/1151/239 227/1152/227 97/1153/97
vt 0.8587980 0.1172620
vt 0.8540380 0.1124750
f 97/1153/97 178/1154/178 171/1155/171
vt 0.8663370 0.1236260
vt 0.8645560 0.1171570
vt 0.8692650 0.1186110
f 178/1156/178 97/1157/97 227/1158/227
vt 0.8831080 0.1492100
vt 0.8850960 0.1540330
vt 0.8807320 0.1550400
f 227/1159/227 197/1160/197 178/1161/178
vt 0.8530040 0.0261280
vt 0.8509690 0.0281980
vt 0.8490750 0.0217560
f 21/1162/21 98/1163/98 190/1164/190
vt 0.8521880 0.0709150
vt 0.8498260 0.0613650
vt 0.8548800 0.0650920
f 97/1165/97 98/1166/98 239/1167/239
vt 0.8362390 0.0771320
vt 0.8401170 0.0704690
vt 0.8469440 0.0732870
f 171/1168/171 98/1169/98 97/1170/97
vt 0.8919690 0.1800250
vt 0.8963720 0.1866370
vt 0.8913050 0.1854190
f 197/1171/197 209/1172/209 58/1173/58
vt 0.8895720 0.1831050
f 58/1173/58 178/1174/178 197/1171/197
vt 0.8960870 0.1976430
vt 0.8997570 0.1960320
vt 0.8992480 0.2037430
f 58/1175/58 209/1176/209 221/1177/221
vt 0.9263500 0.2543830
vt 0.9207570 0.2579180
vt 0.9203470 0.2534690
f 212/1178/212 247/1179/247 111/1180/111
vt 0.9299480 0.3038040
vt 0.9256480 0.3072470
vt 0.9255700 0.2996180
f 60/1181/60 11/1182/11 247/1183/247
vt 0.9209350 0.3059490
f 11/1182/11 124/1184/124 247/1183/247
vt 0.9176810 0.2547150
f 247/1179/247 153/1185/153 111/1180/111
vt 0.9119300 0.2319960
vt 0.9145320 0.2275800
vt 0.9173490 0.2322940
f 111/1186/111 221/1187/221 209/1188/209
vt 0.8566290 0.0187240
vt 0.8532050 0.0169510
f 21/1189/21 190/1164/190 8/1190/8
vt 0.9216920 0.2798420
vt 0.9183940 0.2767980
vt 0.9188770 0.2708830
f 247/1191/247 124/1192/124 153/1193/153
vt 0.9253110 0.3365590
vt 0.9274450 0.3410520
vt 0.9251830 0.3400600
f 11/1194/11 60/1195/60 24/1196/24
vt 0.9266940 0.4016410
vt 0.9283630 0.3966270
vt 0.9301140 0.4006230
f 108/1197/108 43/1198/43 229/1199/229
vt 0.2875500 0.1571730
vt 0.2899760 0.1609870
vt 0.2879060 0.1632410
f 78/1200/78 76/1201/76 161/1202/161
vt 0.2832990 0.1627980
vt 0.2831810 0.1555120
f 161/1203/161 168/1204/168 78/1200/78
vt 0.2712520 0.1121390
vt 0.2704220 0.1071120
vt 0.2794650 0.1130380
f 168/1205/168 33/1206/33 102/1207/102
vt 0.2712400 0.1173260
vt 0.2758870 0.1225440
f 168/1208/168 102/1207/102 78/1209/78
vt 0.2485770 0.0818160
vt 0.2391200 0.0806010
vt 0.2409100 0.0724610
f 33/1210/33 63/1211/63 238/1212/238
vt 0.2369530 0.0909130
vt 0.2346200 0.0847210
vt 0.2417420 0.0866650
f 62/1213/62 238/1214/238 63/1215/63
vt 0.2155430 0.0804670
vt 0.2184820 0.0728960
vt 0.2261910 0.0763400
f 62/1216/62 91/1217/91 238/1218/238
vt 0.1850410 0.0559800
vt 0.1857660 0.0503450
vt 0.1942060 0.0549480
f 136/1219/136 149/1220/149 91/1221/91
vt 0.2600430 0.1152240
vt 0.2561620 0.1082990
vt 0.2631350 0.1091510
f 168/1222/168 63/1223/63 33/1224/33
vt 0.2605950 0.0790620
vt 0.2602420 0.0745980
vt 0.2632900 0.0739070
f 33/1225/33 83/1226/83 54/1227/54
vt 0.2485410 0.0751370
vt 0.2455670 0.0661460
f 33/1228/33 238/1212/238 83/1229/83
vt 0.1326680 0.0175290
vt 0.1346660 0.0230700
vt 0.1303590 0.0222550
f 158/1230/158 149/1231/149 117/1232/117
vt 0.1359060 0.0109010
vt 0.1411180 0.0049390
vt 0.1444760 0.0101710
f 117/1233/117 147/1234/147 158/1235/158
vt 0.1541300 0.0248300
vt 0.1547220 0.0167800
vt 0.1607140 0.0233140
f 149/1236/149 158/1237/158 45/1238/45
vt 0.2285520 0.0609820
vt 0.2380000 0.0612850
vt 0.2288160 0.0682550
f 91/1239/91 83/1240/83 238/1241/238
vt 0.1910350 0.0257870
vt 0.1942960 0.0344660
vt 0.1864510 0.0321670
f 45/1242/45 199/1243/199 91/1244/91
vt 0.1770150 0.0367930
vt 0.1797150 0.0251950
vt 0.1816940 0.0357470
f 149/1245/149 45/1246/45 91/1247/91
vt 0.1855010 0.0205690
vt 0.1863600 0.0153860
vt 0.1904420 0.0167840
f 45/1248/45 104/1249/104 199/1250/199
vt 0.9964670 0.8824120
vt 0.9947690 0.8853070
vt 0.9941980 0.8818940
f 52/1251/52 171/1252/171 155/1253/155
vt 0.9749920 0.6435960
vt 0.9720790 0.6491050
vt 0.9718810 0.6410100
f 47/1254/47 151/1255/151 9/1256/9
vt 0.9975700 0.9649080
vt 0.9950470 0.9646080
vt 0.9966640 0.9608870
f 127/1257/127 189/1258/189 8/1259/8
vt 0.9969720 0.9711150
vt 0.9946520 0.9721330
f 127/1260/127 109/1261/109 189/1258/189
vt 0.9874390 0.9722100
vt 0.9891340 0.9780000
vt 0.9824650 0.9762330
f 189/1262/189 109/1263/109 190/1264/190
vt 0.9772140 0.6222690
vt 0.9725310 0.6155910
vt 0.9775940 0.6147660
f 47/1265/47 9/1266/9 25/1267/25
vt 0.9731260 0.6088250
f 25/1267/25 9/1266/9 53/1268/53
vt 0.9846020 0.7682150
vt 0.9812180 0.7663710
vt 0.9819610 0.7608550
f 224/1269/224 241/1270/241 215/1271/215
vt 0.9965570 0.8982350
vt 0.9934060 0.8969660
vt 0.9948290 0.8940460
f 21/1272/21 211/1273/211 171/1274/171
vt 0.9873530 0.5129970
vt 0.9832650 0.5112900
vt 0.9867780 0.5053340
f 6/1275/6 1/1276/1 81/1277/81
vt 0.9817120 0.5066230
f 1/1276/1 90/1278/90 81/1277/81
vt 0.5000000 0.5000000
f 115/1279/115 125/1279/125 250/1279/250
vt 0.1501130 0.2270410
vt 0.6004540 0.9081630
f 220/1280/220 235/1/235 246/1281/246
f 250/1/250 220/1/220 246/1/246
f 162/1/162 235/1/235 220/1/220
f 55/1/55 250/1/250 249/1/249
# 500 faces, 1281 coords texture

# End of File
