v -0.0835787 0.0255904 0.0002212
v -0.0858060 0.0255904 0.0006451
v -0.0850413 0.0325553 0.0008903
v -0.0831140 0.0325553 0.0013774
v -0.0817853 0.0325553 0.0025540
v -0.0811760 0.0255904 0.0034390
v -0.0865440 0.0255904 0.0008304
v -0.0867913 0.0325553 0.0015831
v -0.0809607 0.0325553 0.0047986
v -0.0808900 0.0255904 0.0077553
v -0.0868560 0.0325396 0.0016080
v -0.0874473 0.0255904 0.0063888
v -0.0876327 0.0258447 0.0074874
v -0.0868500 0.0325553 0.0016080
v -0.0813227 0.0325553 0.0092325
v -0.0810293 0.0255904 0.0083261
v -0.0868567 0.0325553 0.0016713
v -0.0875020 0.0255904 0.0071449
v -0.0875047 0.0255904 0.0074807
v -0.0874947 0.0255904 0.0076423
v -0.0857433 0.0264344 0.0117359
v -0.0866373 0.0325553 0.0100191
v -0.0870820 0.0325553 0.0090257
v -0.0846267 0.0325553 0.0114556
v -0.0828673 0.0255904 0.0110013
v -0.0855847 0.0255904 0.0116241
v -0.0852767 0.0255904 0.0117676
v -0.0852780 0.0325553 0.0116421
f 1 2 3
f 1 3 4
f 1 4 5
f 1 5 6
f 1 6 10
f 1 10 16
f 1 16 25
f 1 25 27
f 1 27 26
f 1 26 20
f 1 20 19
f 1 19 18
f 1 18 12
f 1 12 7
f 1 7 2
f 2 7 3
f 3 7 8
f 3 8 14
f 3 14 17
f 3 17 23
f 3 23 22
f 3 22 28
f 3 28 24
f 3 24 15
f 3 15 9
f 3 9 5
f 3 5 4
f 5 9 6
f 6 9 10
f 7 11 8
f 7 12 13
f 7 13 11
f 8 11 14
f 9 15 10
f 10 15 16
f 11 17 14
f 11 13 17
f 12 18 13
f 13 18 19
f 13 19 20
f 13 20 21
f 13 21 22
f 13 22 23
f 13 23 17
f 15 24 25
f 15 25 16
f 20 26 21
f 21 27 28
f 21 28 22
f 21 26 27
f 24 28 27
f 24 27 25
