v -0.0380678 0.0245137 0.00396639
v -0.0380678 0.00907289 0.00396639
v -0.0380678 0.0239408 0.00887146
v -0.00840855 0.0181641 0.00396639
v -0.0351351 0.00988 0.0100042
v -0.0380678 0.00911068 0.00790348
v -0.0273708 0.0118071 0.00396639
v -0.0380678 0.0237247 0.0102428
v -0.0134294 0.0186554 0.00656509
v -0.0156515 0.0163882 0.00810124
v -0.00831827 0.0178543 0.00396639
v -0.0380678 0.0129437 0.010619
v -0.0380678 0.00952632 0.0102263
v -0.0380678 0.00926485 0.00991466
v -0.0156807 0.0149675 0.00396639
v -0.0205763 0.0141468 0.00879909
v -0.0380678 0.0206701 0.0112624
v -0.0249215 0.020058 0.0091165
v -0.00870561 0.0176427 0.00396639
v -0.0380678 0.0203315 0.011286
f 1 2 6
f 1 6 14
f 1 14 13
f 1 13 12
f 1 12 20
f 1 20 17
f 1 17 8
f 1 8 3
f 1 3 4
f 1 4 11
f 1 11 19
f 1 19 15
f 1 15 7
f 1 7 2
f 2 5 6
f 2 7 5
f 3 8 4
f 4 9 10
f 4 10 11
f 4 8 9
f 5 12 13
f 5 13 14
f 5 14 6
f 5 7 15
f 5 15 16
f 5 16 12
f 8 17 18
f 8 18 9
f 9 18 10
f 10 19 11
f 10 18 17
f 10 17 20
f 10 20 16
f 10 16 19
f 12 16 20
f 15 19 16
