v -0.131258 0.0383856 0.011221
v -0.131253 0.0383856 0.0107174
v -0.127333 0.0307494 0.000416201
v -0.125077 0.0260877 0.0108944
v -0.126862 0.0303205 0.0163726
v -0.131241 0.0383856 0.0114633
v -0.129727 0.0364074 0.00102513
v -0.13117 0.0383856 0.00958171
v -0.12192 0.0291931 -0.000963893
v -0.112422 0.0220599 -0.00253994
v -0.122567 0.0242216 0.000437272
v -0.116984 0.0191117 0.0114696
v -0.119129 0.0223745 0.0172154
v -0.121887 0.0274843 0.0180561
v -0.128376 0.0383856 0.0174367
v -0.129815 0.0383856 0.00124636
v -0.128708 0.0383856 0.000968239
v -0.125366 0.0383856 0.00033192
v -0.107049 0.0186446 -0.00331321
v -0.107049 0.0177318 -0.00277593
v -0.113664 0.0176961 0.00067115
v -0.107049 0.0141449 0.000926099
v -0.107049 0.0140377 0.010966
v -0.107049 0.0143499 0.0150894
v -0.111583 0.0175554 0.0172702
v -0.107049 0.0167403 0.017856
v -0.127914 0.0383856 0.0176495
v -0.107049 0.0184039 0.018212
v -0.121762 0.0383856 0.00515909
v -0.107049 0.0237473 0.000820748
v -0.107049 0.0221576 -0.00066259
v -0.107049 0.0141759 0.000378275
v -0.107049 0.0212949 0.0175715
v -0.1243 0.0383856 0.0165011
v -0.121333 0.0383856 0.0116318
v -0.107049 0.0247697 0.00530026
v -0.107049 0.0233636 0.0144405
v -0.121541 0.0383856 0.0124894
v -0.107049 0.0242454 0.0130267
v -0.107049 0.0246696 0.00713547
f 1 2 3
f 1 3 4
f 1 4 5
f 1 5 6
f 1 6 15
f 1 15 27
f 1 27 34
f 1 34 38
f 1 38 35
f 1 35 29
f 1 29 18
f 1 18 17
f 1 17 16
f 1 16 8
f 1 8 2
f 2 7 3
f 2 8 7
f 3 7 9
f 3 9 10
f 3 10 11
f 3 11 4
f 4 11 12
f 4 12 13
f 4 13 5
f 5 13 14
f 5 14 15
f 5 15 6
f 7 8 16
f 7 16 17
f 7 17 9
f 9 17 18
f 9 18 10
f 10 19 11
f 10 18 19
f 11 19 20
f 11 20 21
f 11 21 12
f 12 21 22
f 12 22 23
f 12 23 24
f 12 24 25
f 12 25 13
f 13 25 26
f 13 26 14
f 14 27 15
f 14 26 28
f 14 28 27
f 18 29 30
f 18 30 31
f 18 31 19
f 19 31 30
f 19 30 36
f 19 36 40
f 19 40 39
f 19 39 37
f 19 37 33
f 19 33 28
f 19 28 26
f 19 26 24
f 19 24 23
f 19 23 22
f 19 22 32
f 19 32 20
f 20 32 21
f 21 32 22
f 24 26 25
f 27 28 33
f 27 33 34
f 29 35 36
f 29 36 30
f 33 37 34
f 34 37 38
f 35 38 39
f 35 39 40
f 35 40 36
f 37 39 38
