v -0.125368 0.0383856 0.000331832
v -0.128709 0.0383856 0.000967583
v -0.127562 0.0488329 0.00133547
v -0.124671 0.0488329 0.00206616
v -0.122678 0.0488329 0.003831
v -0.121764 0.0383856 0.00515845
v -0.129816 0.0383856 0.00124562
v -0.130187 0.0488329 0.00237471
v -0.121441 0.0488329 0.00719793
v -0.121335 0.0383856 0.0116329
v -0.130284 0.0488094 0.00241201
v -0.131171 0.0383856 0.00958327
v -0.131449 0.038767 0.0112311
v -0.130275 0.0488329 0.00241201
v -0.121984 0.0488329 0.0138487
v -0.121544 0.0383856 0.0124891
v -0.130285 0.0488329 0.00250695
v -0.131253 0.0383856 0.0107174
v -0.131257 0.0383856 0.011221
v -0.131242 0.0383856 0.0114634
v -0.128615 0.0396516 0.0176039
v -0.129956 0.0488329 0.0150287
v -0.130623 0.0488329 0.0135385
v -0.12694 0.0488329 0.0171834
v -0.124301 0.0383856 0.0165019
v -0.128377 0.0383856 0.0174361
v -0.127915 0.0383856 0.0176514
v -0.127917 0.0488329 0.0174632
f 1 2 3
f 1 3 4
f 1 4 5
f 1 5 6
f 1 6 10
f 1 10 16
f 1 16 25
f 1 25 27
f 1 27 26
f 1 26 20
f 1 20 19
f 1 19 18
f 1 18 12
f 1 12 7
f 1 7 2
f 2 7 3
f 3 7 8
f 3 8 14
f 3 14 17
f 3 17 23
f 3 23 22
f 3 22 28
f 3 28 24
f 3 24 15
f 3 15 9
f 3 9 5
f 3 5 4
f 5 9 6
f 6 9 10
f 7 11 8
f 7 12 13
f 7 13 11
f 8 11 14
f 9 15 10
f 10 15 16
f 11 17 14
f 11 13 17
f 12 18 13
f 13 18 19
f 13 19 20
f 13 20 21
f 13 21 22
f 13 22 23
f 13 23 17
f 15 24 25
f 15 25 16
f 20 26 21
f 21 27 28
f 21 28 22
f 21 26 27
f 24 28 27
f 24 27 25
