v -0.0762687 0.0564941 -0.00210292
v -0.0745634 0.0564941 -0.000643572
v -0.0769387 0.0564941 -0.00207847
v -0.0774835 0.0579657 -0.00207095
v -0.0731733 0.0564941 0.00150595
v -0.0779489 0.0617762 0.00030801
v -0.0812801 0.0564941 -0.00047808
v -0.0939559 0.0662014 0.000924845
v -0.0939559 0.0662191 0.000921084
v -0.0939559 0.0696425 0.000259115
v -0.0939559 0.0697504 0.000238428
v -0.0821046 0.0625564 -0.00143342
v -0.0742399 0.0586735 0.0024124
v -0.072879 0.0564941 0.00206449
v -0.0881534 0.0694977 0.00222058
v -0.0798441 0.0645569 0.0124811
v -0.083359 0.0564941 0.00197798
v -0.0939559 0.0622919 0.00672461
v -0.0939559 0.069907 0.000388876
v -0.0932775 0.0697105 0.000165084
v -0.0726327 0.0564941 0.00635601
v -0.0937952 0.0715278 0.00212091
v -0.0924802 0.0713949 0.012404
v -0.0846114 0.0656399 0.0170867
v -0.0752564 0.0575816 0.0157797
v -0.0729416 0.0564941 0.0114111
v -0.083718 0.0564941 0.00254968
v -0.0861684 0.0564941 0.00965834
v -0.0939559 0.0618412 0.0112004
v -0.0939559 0.0699484 0.000430248
v -0.0939559 0.0715485 0.00214535
v -0.0939559 0.07155 0.00227135
v -0.0939559 0.0715884 0.0122479
v -0.0939559 0.0709546 0.014467
v -0.0939559 0.069746 0.0168065
v -0.076803 0.0564941 0.0171093
v -0.0751082 0.0564941 0.0162009
v -0.0744549 0.0564941 0.0155747
v -0.0739206 0.0564941 0.0143918
v -0.085033 0.0564941 0.0119263
v -0.0823905 0.0564941 0.0155014
v -0.0939559 0.0646367 0.0159809
v -0.0939559 0.0689259 0.0167125
v -0.0784999 0.0564941 0.0168911
f 1 2 5
f 1 5 14
f 1 14 21
f 1 21 26
f 1 26 39
f 1 39 38
f 1 38 37
f 1 37 36
f 1 36 44
f 1 44 41
f 1 41 40
f 1 40 28
f 1 28 27
f 1 27 17
f 1 17 7
f 1 7 3
f 1 3 4
f 1 4 2
f 2 4 6
f 2 6 5
f 3 7 8
f 3 8 9
f 3 9 10
f 3 10 11
f 3 11 4
f 4 12 6
f 4 11 12
f 5 13 14
f 5 6 13
f 6 12 15
f 6 15 16
f 6 16 13
f 7 17 8
f 8 18 29
f 8 29 42
f 8 42 43
f 8 43 35
f 8 35 34
f 8 34 33
f 8 33 32
f 8 32 31
f 8 31 30
f 8 30 19
f 8 19 11
f 8 11 10
f 8 10 9
f 8 17 18
f 11 19 20
f 11 20 12
f 12 20 15
f 13 21 14
f 13 16 21
f 15 20 22
f 15 22 23
f 15 23 16
f 16 24 25
f 16 25 26
f 16 26 21
f 16 23 24
f 17 27 18
f 18 27 28
f 18 28 29
f 19 30 20
f 20 30 31
f 20 31 22
f 22 31 32
f 22 32 23
f 23 32 33
f 23 33 34
f 23 34 35
f 23 35 24
f 24 35 36
f 24 36 37
f 24 37 25
f 25 37 38
f 25 38 39
f 25 39 26
f 28 40 29
f 29 40 41
f 29 41 42
f 35 43 36
f 36 43 44
f 41 44 42
f 42 44 43
