v -0.0451206 0.0237999 0.0124102
v -0.0380678 0.0237246 0.0102431
v -0.0451206 0.0255631 0.0116963
v -0.0451206 0.0203131 0.0120977
v -0.0380678 0.0203309 0.0112854
v -0.0380678 0.0206697 0.0112616
v -0.0380678 0.0239406 0.00887082
v -0.0451206 0.0269142 0.010516
v -0.0380678 0.0129452 0.0106191
v -0.0451206 0.00887797 0.0107841
v -0.0380678 0.02484 0.0011638
v -0.0451206 0.0277364 0.00138749
v -0.0380678 0.0095258 0.0102257
v -0.0451206 0.0086759 0.0107603
v -0.0451206 0.0260128 -0.00207258
v -0.0380678 0.0227598 -0.00238352
v -0.0380678 0.0092643 0.00991471
v -0.0451206 0.00778439 0.00969895
v -0.0380678 0.0198812 -0.00312757
v -0.0451206 0.0203488 -0.0030546
v -0.0380678 0.00750108 0.00387189
v -0.0451206 0.00772693 0.00895332
v -0.0380678 0.017167 -0.00348135
v -0.0451172 0.00750108 -0.00360986
v -0.0451206 0.019693 -0.00307205
v -0.0380678 0.00750108 -0.00379706
v -0.0451206 0.00750108 0.00598029
v -0.0413536 0.00750108 -0.00376216
v -0.0451206 0.00750108 0.00328331
f 1 2 3
f 1 3 8
f 1 8 12
f 1 12 15
f 1 15 20
f 1 20 25
f 1 25 29
f 1 29 27
f 1 27 22
f 1 22 18
f 1 18 14
f 1 14 10
f 1 10 4
f 1 4 5
f 1 5 6
f 1 6 2
f 2 7 8
f 2 8 3
f 2 6 5
f 2 5 9
f 2 9 13
f 2 13 17
f 2 17 21
f 2 21 26
f 2 26 23
f 2 23 19
f 2 19 16
f 2 16 11
f 2 11 7
f 4 9 5
f 4 10 9
f 7 11 8
f 8 11 12
f 9 10 13
f 10 14 13
f 11 15 12
f 11 16 15
f 13 14 17
f 14 18 17
f 15 16 19
f 15 19 20
f 17 18 21
f 18 22 21
f 19 23 20
f 20 23 24
f 20 24 25
f 21 22 27
f 21 27 29
f 21 29 24
f 21 24 28
f 21 28 26
f 23 26 28
f 23 28 24
f 24 29 25
