v -0.0897176 0.0141895 -0.0039034
v -0.0841711 0.0161165 -0.00371464
v -0.0841711 0.014819 -0.00372115
v -0.0841711 0.0141476 -0.00323732
v -0.0841711 0.011905 -0.0010655
v -0.08871 0.0108392 -0.000544789
v -0.0892631 0.00857146 0.00165089
v -0.101189 0.00931673 0.00154675
v -0.105623 0.017738 -0.0035172
v -0.0841711 0.0186595 -0.00336099
v -0.0841711 0.0112118 0.0012712
v -0.0841711 0.0114854 0.0142305
v -0.0908977 0.008365 0.0119524
v -0.101733 0.00916063 0.0122279
v -0.107047 0.0141744 0.00037948
v -0.107047 0.0177313 -0.00277518
v -0.107047 0.0186427 -0.00331109
v -0.0841711 0.0225957 -0.000390744
v -0.107047 0.0221559 -0.000664119
v -0.0841711 0.0120863 0.0147794
v -0.0847421 0.0114451 0.0142978
v -0.0943595 0.0142097 0.0172029
v -0.103919 0.0161753 0.0182617
v -0.107047 0.0167392 0.017856
v -0.107047 0.0143507 0.0150897
v -0.107047 0.0140385 0.0109652
v -0.107047 0.0141442 0.000926231
v -0.0841711 0.0235692 0.00196115
v -0.107047 0.0237455 0.000819919
v -0.0841711 0.0146679 0.0168753
v -0.107047 0.018401 0.0182118
v -0.0841711 0.0249272 0.00535014
v -0.107047 0.024766 0.00530024
v -0.0841711 0.0255113 0.00705982
v -0.0841711 0.0181257 0.0162613
v -0.107047 0.0212914 0.0175718
v -0.107047 0.024667 0.00713576
v -0.0841711 0.021273 0.0149096
v -0.107047 0.024244 0.0130263
v -0.107047 0.0233611 0.014441
f 1 2 3
f 1 3 4
f 1 4 5
f 1 5 6
f 1 6 7
f 1 7 8
f 1 8 9
f 1 9 2
f 2 10 18
f 2 18 28
f 2 28 32
f 2 32 34
f 2 34 38
f 2 38 35
f 2 35 30
f 2 30 20
f 2 20 12
f 2 12 11
f 2 11 5
f 2 5 4
f 2 4 3
f 2 9 10
f 5 11 7
f 5 7 6
f 7 11 12
f 7 12 13
f 7 13 8
f 8 14 15
f 8 15 16
f 8 16 9
f 8 13 14
f 9 16 17
f 9 17 10
f 10 17 19
f 10 19 18
f 12 20 21
f 12 21 13
f 13 21 22
f 13 22 14
f 14 23 24
f 14 24 25
f 14 25 26
f 14 26 27
f 14 27 15
f 14 22 23
f 15 27 26
f 15 26 25
f 15 25 24
f 15 24 31
f 15 31 36
f 15 36 40
f 15 40 39
f 15 39 37
f 15 37 33
f 15 33 29
f 15 29 19
f 15 19 17
f 15 17 16
f 18 19 29
f 18 29 28
f 20 30 22
f 20 22 21
f 22 30 23
f 23 31 24
f 23 30 31
f 28 29 32
f 29 33 34
f 29 34 32
f 30 35 31
f 31 35 36
f 33 37 34
f 34 37 39
f 34 39 38
f 35 38 36
f 36 38 40
f 38 39 40
