v -0.066192 0.030903 -0.00313015
v -0.0722275 0.030903 -0.00116285
v -0.0727098 0.0383856 -0.00139396
v -0.0664744 0.0383856 -0.00301365
v -0.0656896 0.0373139 -0.0031076
v -0.0623907 0.030903 -0.00310948
v -0.0758109 0.030903 0.00155793
v -0.075702 0.0383856 0.00129112
v -0.066012 0.0383856 -0.00302117
v -0.0563264 0.031396 -0.00255142
v -0.0563264 0.030903 -0.00256457
v -0.0790343 0.030903 0.00684918
v -0.0776627 0.0383856 0.0072588
v -0.0620461 0.0383856 -0.0024011
v -0.0563264 0.0321973 -0.00236916
v -0.0563264 0.030903 0.0142674
v -0.0779383 0.030903 0.00829036
v -0.0741237 0.0383856 0.0136568
v -0.0764734 0.0383856 0.00960754
v -0.06037 0.0383856 -0.00025905
v -0.0563264 0.0339385 -0.000582236
v -0.0563264 0.0309967 0.0142731
v -0.0671301 0.0383856 0.0160656
v -0.0670501 0.030903 0.015594
v -0.0743149 0.030903 0.0129615
v -0.0598031 0.0383856 0.00809119
v -0.0563264 0.0353669 0.00545496
v -0.0563264 0.0340799 -0.000135037
v -0.0563264 0.03371 0.0120371
v -0.0619528 0.0383856 0.0142656
v -0.0644314 0.0383856 0.015718
v -0.0603411 0.0383856 0.0103666
v -0.0563264 0.0337217 0.0120239
f 1 2 3
f 1 3 4
f 1 4 5
f 1 5 6
f 1 6 11
f 1 11 16
f 1 16 24
f 1 24 25
f 1 25 17
f 1 17 12
f 1 12 7
f 1 7 2
f 2 7 3
f 3 7 8
f 3 8 13
f 3 13 19
f 3 19 18
f 3 18 23
f 3 23 31
f 3 31 30
f 3 30 32
f 3 32 26
f 3 26 20
f 3 20 14
f 3 14 9
f 3 9 4
f 4 9 5
f 5 9 10
f 5 10 6
f 6 10 11
f 7 12 8
f 8 12 13
f 9 14 10
f 10 14 15
f 10 15 21
f 10 21 28
f 10 28 27
f 10 27 33
f 10 33 29
f 10 29 22
f 10 22 16
f 10 16 11
f 12 17 18
f 12 18 19
f 12 19 13
f 14 20 21
f 14 21 15
f 16 22 23
f 16 23 24
f 17 25 18
f 18 25 24
f 18 24 23
f 20 26 27
f 20 27 28
f 20 28 21
f 22 29 30
f 22 30 31
f 22 31 23
f 26 32 27
f 27 32 33
f 29 33 30
f 30 33 32
