v -0.0660115 0.0383873 -0.00302134
v -0.0686983 0.0473494 -0.00229206
v -0.0620445 0.0383873 -0.00240243
v -0.0664735 0.0383873 -0.00301345
v -0.0762658 0.0564941 -0.00210284
v -0.0603694 0.0383873 -0.000259926
v -0.0745598 0.0564941 -0.000644276
v -0.0727118 0.0383873 -0.00139327
v -0.0740617 0.0487569 -0.00211072
v -0.0769369 0.0564941 -0.00207721
v -0.0598016 0.0383873 0.00808936
v -0.0731712 0.0564941 0.00150612
v -0.0728796 0.0564941 0.00206392
v -0.0757032 0.0383873 0.00129128
v -0.0812782 0.0564941 -0.00047871
v -0.060341 0.0383873 0.0103659
v -0.0726344 0.0564941 0.00635485
v -0.0707141 0.0538902 0.0110676
v -0.0776622 0.0383873 0.00725758
v -0.0861666 0.0564941 0.0096583
v -0.0837172 0.0564941 0.00254879
v -0.0833585 0.0564941 0.00197719
v -0.0619541 0.0383873 0.0142666
v -0.0729441 0.0564941 0.0114125
v -0.0739171 0.0564941 0.0143927
v -0.0850309 0.0564941 0.011925
v -0.0764723 0.0383873 0.00960705
v -0.0644319 0.0383873 0.0157172
v -0.0744514 0.0564941 0.0155753
v -0.075107 0.0564941 0.0162001
v -0.0747843 0.0541331 0.0171147
v -0.0671781 0.0427248 0.0163381
v -0.0741236 0.0383873 0.0136575
v -0.082388 0.0564941 0.0155004
v -0.0671316 0.0383873 0.0160641
v -0.0768001 0.0564941 0.0171088
v -0.0784984 0.0564941 0.01689
f 1 2 3
f 1 3 6
f 1 6 11
f 1 11 16
f 1 16 23
f 1 23 28
f 1 28 35
f 1 35 33
f 1 33 27
f 1 27 19
f 1 19 14
f 1 14 8
f 1 8 4
f 1 4 5
f 1 5 2
f 2 6 3
f 2 5 7
f 2 7 6
f 4 8 9
f 4 9 10
f 4 10 5
f 5 10 15
f 5 15 22
f 5 22 21
f 5 21 20
f 5 20 26
f 5 26 34
f 5 34 37
f 5 37 36
f 5 36 30
f 5 30 29
f 5 29 25
f 5 25 24
f 5 24 17
f 5 17 13
f 5 13 12
f 5 12 7
f 6 7 12
f 6 12 13
f 6 13 11
f 8 14 15
f 8 15 10
f 8 10 9
f 11 13 17
f 11 17 18
f 11 18 16
f 14 19 20
f 14 20 21
f 14 21 22
f 14 22 15
f 16 18 23
f 17 24 18
f 18 24 25
f 18 25 23
f 19 26 20
f 19 27 26
f 23 25 29
f 23 29 30
f 23 30 31
f 23 31 32
f 23 32 28
f 26 27 33
f 26 33 34
f 28 32 35
f 30 36 31
f 31 36 37
f 31 37 35
f 31 35 32
f 33 37 34
f 33 35 37
