v -0.0563264 0.0309022 0.0142675
v -0.0563264 0.0309022 -0.00256424
v -0.0670489 0.0309022 0.0155942
v -0.0817753 0.0147755 0.0167979
v -0.0563264 0.0264013 0.0139993
v -0.0563264 0.0191232 -0.00311267
v -0.0623908 0.0309022 -0.00310863
v -0.0743153 0.0309022 0.0129609
v -0.0841684 0.0212726 0.0149107
v -0.0841684 0.0181294 0.0162615
v -0.0841684 0.0146669 0.0168765
v -0.0841684 0.0120855 0.0147796
v -0.0563264 0.0121047 0.0128198
v -0.0627424 0.0141775 0.0140296
v -0.0563264 0.0217748 0.013711
v -0.0563264 0.0126857 -0.00315501
v -0.0841684 0.0161162 -0.00371553
v -0.0661931 0.0309022 -0.0031288
v -0.0779377 0.0309022 0.00828927
v -0.0841684 0.0255118 0.00705733
v -0.0790361 0.0309022 0.00684966
v -0.0841684 0.0114854 0.0142312
v -0.0563264 0.00965949 0.0102793
v -0.0563264 0.0102596 -0.00185654
v -0.0841684 0.014818 -0.00372158
v -0.0841684 0.0186614 -0.00336067
v -0.0722275 0.0309022 -0.00116295
v -0.0841684 0.0249265 0.00534956
v -0.075809 0.0309022 0.001559
v -0.0841684 0.0225941 -0.000392736
v -0.0841684 0.0235688 0.00196024
v -0.0841684 0.0112109 0.00127068
v -0.0563264 0.00916151 0.00255906
v -0.0563264 0.00922535 0.00495035
v -0.0841684 0.0119046 -0.00106617
v -0.0841684 0.0141477 -0.00323566
f 1 2 7
f 1 7 18
f 1 18 27
f 1 27 29
f 1 29 21
f 1 21 19
f 1 19 8
f 1 8 3
f 1 3 4
f 1 4 5
f 1 5 15
f 1 15 13
f 1 13 23
f 1 23 34
f 1 34 33
f 1 33 24
f 1 24 16
f 1 16 6
f 1 6 2
f 2 6 7
f 3 8 9
f 3 9 10
f 3 10 11
f 3 11 4
f 4 11 12
f 4 12 13
f 4 13 14
f 4 14 15
f 4 15 5
f 6 16 17
f 6 17 7
f 7 17 18
f 8 19 9
f 9 20 28
f 9 28 31
f 9 31 30
f 9 30 26
f 9 26 17
f 9 17 25
f 9 25 36
f 9 36 35
f 9 35 32
f 9 32 22
f 9 22 12
f 9 12 11
f 9 11 10
f 9 19 21
f 9 21 20
f 12 22 13
f 13 15 14
f 13 22 23
f 16 24 25
f 16 25 17
f 17 26 18
f 18 26 27
f 20 21 28
f 21 29 30
f 21 30 31
f 21 31 28
f 22 32 33
f 22 33 34
f 22 34 23
f 24 33 32
f 24 32 35
f 24 35 36
f 24 36 25
f 26 30 27
f 27 30 29
