v -0.0380678 -8.32359e-05 -0.00113842
v -0.0380678 3.55277e-05 0.000511812
v -0.0451206 0.00419004 0.00099088
v -0.0451206 0.00472225 -0.00130825
v -0.0380678 0.00272405 -0.00404621
v -0.0380678 0.00406757 0.00366993
v -0.0451206 0.0074991 0.00598085
v -0.0451206 0.00734694 -0.00361721
v -0.0405492 0.00457083 -0.0039235
v -0.0413536 0.0074991 -0.0037625
v -0.0380678 0.0074991 -0.00379686
v -0.0380678 0.0074991 0.00387118
v -0.0451206 0.0074991 0.00328314
v -0.0451172 0.0074991 -0.00361034
f 1 2 3
f 1 3 4
f 1 4 5
f 1 5 11
f 1 11 12
f 1 12 6
f 1 6 2
f 2 6 7
f 2 7 3
f 3 7 13
f 3 13 8
f 3 8 4
f 4 8 5
f 5 8 9
f 5 9 10
f 5 10 11
f 6 12 7
f 7 12 11
f 7 11 10
f 7 10 14
f 7 14 13
f 8 14 10
f 8 10 9
f 8 13 14
