v -0.0939559 0.0618399 0.0112009
v -0.0939559 0.0646378 0.0159818
v -0.101943 0.0640725 0.0133461
v -0.101943 0.0630244 0.00966016
v -0.101943 0.0630973 0.00644813
v -0.0939559 0.0622921 0.00672392
v -0.0939559 0.0689266 0.0167118
v -0.101042 0.0705295 0.0171081
v -0.101943 0.0703953 0.0170916
v -0.101943 0.0668071 0.0162081
v -0.101943 0.0651556 0.0151825
v -0.101943 0.0663126 0.00205038
v -0.0939559 0.0662027 0.000924102
v -0.0939559 0.0697466 0.0168059
v -0.095593 0.0704651 0.0167563
v -0.101943 0.0723776 0.0123008
v -0.101943 0.0713907 0.0149134
v -0.101943 0.0688516 0.00135843
v -0.0939559 0.0697508 0.000237109
v -0.0939559 0.0709543 0.0144675
v -0.0939559 0.0715883 0.0122479
v -0.101943 0.0726333 0.0114041
v -0.101943 0.0702263 0.00109255
v -0.0939559 0.0699495 0.000428674
v -0.101165 0.0724906 0.00323445
v -0.101943 0.072628 0.00982365
v -0.0939559 0.0715502 0.00227167
v -0.101943 0.0722286 0.00302142
v -0.0939559 0.0715492 0.00214451
v -0.101943 0.072442 0.0033517
v -0.101943 0.0726068 0.00596426
f 1 2 3
f 1 3 4
f 1 4 5
f 1 5 6
f 1 6 13
f 1 13 19
f 1 19 24
f 1 24 29
f 1 29 27
f 1 27 21
f 1 21 20
f 1 20 14
f 1 14 7
f 1 7 2
f 2 7 8
f 2 8 9
f 2 9 10
f 2 10 11
f 2 11 3
f 3 11 10
f 3 10 9
f 3 9 17
f 3 17 16
f 3 16 22
f 3 22 26
f 3 26 31
f 3 31 30
f 3 30 28
f 3 28 23
f 3 23 18
f 3 18 12
f 3 12 5
f 3 5 4
f 5 12 13
f 5 13 6
f 7 14 8
f 8 14 15
f 8 15 16
f 8 16 17
f 8 17 9
f 12 18 13
f 13 18 19
f 14 20 15
f 15 20 16
f 16 21 22
f 16 20 21
f 18 23 19
f 19 23 25
f 19 25 24
f 21 26 22
f 21 27 26
f 23 28 25
f 24 25 29
f 25 30 31
f 25 31 27
f 25 27 29
f 25 28 30
f 26 27 31
