v -0.101943 0.070225 0.00109225
v -0.101943 0.0722283 0.00302078
v -0.101943 0.0688504 0.00135847
v -0.125135 0.0573147 0.00203512
v -0.116903 0.0655317 0.00204939
v -0.106994 0.0705257 0.00163421
v -0.101943 0.0724425 0.00335197
v -0.101943 0.0663109 0.00204939
v -0.121307 0.0573147 0.00275614
v -0.126922 0.0573147 0.00303663
v -0.118285 0.0670445 0.00343279
v -0.108394 0.0720369 0.00431862
v -0.103448 0.0728298 0.0112452
v -0.101943 0.0726065 0.00596508
v -0.101943 0.0630985 0.0064484
v -0.119543 0.0573147 0.00368951
v -0.127376 0.0573147 0.00822639
v -0.125382 0.0610071 0.00425206
v -0.114285 0.0702644 0.00980154
v -0.124219 0.0633795 0.0100472
v -0.112366 0.0688337 0.0169167
v -0.101943 0.0713914 0.0149136
v -0.101943 0.0723772 0.0123021
v -0.101943 0.0726338 0.0114052
v -0.101943 0.0726278 0.00982372
v -0.101943 0.0630256 0.0096605
v -0.116566 0.0573147 0.00820895
v -0.127436 0.0573147 0.0122181
v -0.123648 0.0622905 0.0154572
v -0.101943 0.0703951 0.0170926
v -0.118493 0.0647951 0.0170799
v -0.101943 0.0640736 0.0133464
v -0.11846 0.0573147 0.0143907
v -0.125707 0.0573147 0.0164666
v -0.101943 0.066806 0.0162083
v -0.12413 0.0573147 0.0172811
v -0.101943 0.0651535 0.015183
v -0.120928 0.0573147 0.01608
f 1 2 7
f 1 7 14
f 1 14 25
f 1 25 24
f 1 24 23
f 1 23 22
f 1 22 30
f 1 30 35
f 1 35 37
f 1 37 32
f 1 32 26
f 1 26 15
f 1 15 8
f 1 8 3
f 1 3 4
f 1 4 5
f 1 5 6
f 1 6 2
f 2 6 7
f 3 8 4
f 4 9 16
f 4 16 27
f 4 27 33
f 4 33 38
f 4 38 36
f 4 36 34
f 4 34 28
f 4 28 17
f 4 17 10
f 4 10 11
f 4 11 5
f 4 8 9
f 5 11 6
f 6 12 7
f 6 11 12
f 7 12 13
f 7 13 14
f 8 15 16
f 8 16 9
f 10 17 18
f 10 18 11
f 11 19 12
f 11 18 20
f 11 20 19
f 12 19 13
f 13 19 21
f 13 21 22
f 13 22 23
f 13 23 24
f 13 24 25
f 13 25 14
f 15 26 27
f 15 27 16
f 17 28 18
f 18 28 20
f 19 20 29
f 19 29 21
f 20 28 29
f 21 30 22
f 21 29 31
f 21 31 30
f 26 32 33
f 26 33 27
f 28 34 29
f 29 34 31
f 30 31 36
f 30 36 35
f 31 34 36
f 32 37 33
f 33 37 38
f 35 36 37
f 36 38 37
