v 0.0147291 0.0118419 -0.000499507
v 0.0147291 0.00479877 -0.00107524
v 0.0147291 0.0117918 0.00201184
v 0.0263815 0.0114695 0.0013755
v 0.0641727 0.00777372 -0.000817368
v 0.0194349 0.0113824 -0.000762948
v 0.0270669 -0.00943783 -0.00193174
v 0.0147291 -0.00391481 -0.00142959
v 0.0370189 0.00781945 -0.001403
v 0.144237 -0.00620155 -0.0043058
v 0.0577929 -0.00925272 -0.00260518
v 0.0147291 -0.000147126 0.00194753
v 0.137593 -0.00734274 -0.00298179
v 0.149391 -0.00631262 -0.00345982
v 0.0816117 0.00540639 -0.000744396
v 0.0752715 0.0064779 -0.00083963
v 0.127826 -0.00124694 -0.0026361
v 0.0853684 0.00370767 -0.00235844
v 0.0783164 0.0042848 -0.00227866
v 0.100488 0.00115523 -0.00294098
v 0.0529025 -0.010052 -0.000349852
v 0.0147291 -0.0097754 0.001083
v 0.0147291 -0.00923747 -0.00145989
v 0.0172072 -0.00915036 -0.00162006
v 0.0726088 -0.00969918 -0.00289274
v 0.0919855 -0.010028 -0.00325698
v 0.100158 -0.0104026 -0.00201337
v 0.136776 -0.00300882 -0.00326935
v 0.135695 -0.00855798 -0.00385127
v 0.123278 -0.00884764 -0.00386302
v 0.113142 -0.000107924 -0.00299972
v 0.112667 -0.00919609 -0.00229227
v 0.124056 -0.00928974 -0.0027536
v 0.111323 0.00101149 -0.00194905
v 0.0949513 0.00364016 -0.00129354
v 0.0835626 -0.0100651 -0.0013795
v 0.108225 -0.00979936 -0.00348332
f 1 2 8
f 1 8 23
f 1 23 22
f 1 22 12
f 1 12 3
f 1 3 4
f 1 4 5
f 1 5 6
f 1 6 2
f 2 7 8
f 2 6 9
f 2 9 10
f 2 10 11
f 2 11 7
f 3 12 13
f 3 13 14
f 3 14 15
f 3 15 4
f 4 15 16
f 4 16 5
f 5 16 17
f 5 17 18
f 5 18 6
f 6 18 19
f 6 19 20
f 6 20 9
f 7 21 22
f 7 22 23
f 7 23 24
f 7 24 8
f 7 11 25
f 7 25 26
f 7 26 27
f 7 27 21
f 8 24 23
f 9 20 10
f 10 28 14
f 10 14 29
f 10 29 30
f 10 30 26
f 10 26 25
f 10 25 11
f 10 20 31
f 10 31 28
f 12 22 13
f 13 32 33
f 13 33 14
f 13 22 32
f 14 28 17
f 14 17 34
f 14 34 15
f 14 33 29
f 15 34 35
f 15 35 16
f 16 35 17
f 17 28 18
f 17 35 34
f 18 28 31
f 18 31 20
f 18 20 19
f 21 27 22
f 22 27 36
f 22 36 32
f 26 30 37
f 26 37 27
f 27 37 33
f 27 33 32
f 27 32 36
f 29 33 37
f 29 37 30
