v 0.0147291 0.00904384 0.00192093
v 0.0147291 -0.000149576 0.00194728
v 0.0147291 0.00904384 -0.00072898
v 0.00928713 0.00904384 0.00265186
v 0.0147291 -0.00977599 0.00108231
v 0.0123259 0.00159135 0.00219932
v 0.00464104 -0.0113785 0.00208246
v 0.0147291 0.00479866 -0.00107497
v 0.00957654 0.000897209 -0.00574238
v 0.00739045 0.00904384 -0.00533796
v 0.00725091 0.00904384 0.0027584
v 0.00603642 -0.00698159 0.00219359
v 0.0147291 -0.00923809 -0.00146106
v -0.00423769 -0.0133739 0.00194499
v -0.00208261 -0.0129855 0.00156348
v -0.000299626 -0.0114946 -0.00449476
v -0.0189718 0.00060036 0.00367264
v -0.016579 -0.0137578 0.00244449
v 0.0147291 -0.00391488 -0.00143012
v 0.00678579 -0.00726058 -0.00507675
v -0.000501181 0.000336989 -0.0077427
v 0.00150403 0.00904384 -0.00578592
v -0.0119329 0.00904384 0.00359932
v -0.0185636 0.00394159 0.00376085
v -0.0115402 -0.0121106 -0.00397921
v -0.00841865 -0.0100148 -0.00597839
v -0.00238235 -0.00936978 -0.00604827
v -0.0200209 -0.0121843 -0.00437676
v -0.0380523 0.00904384 0.00396134
v -0.0380678 0.00406658 0.0036692
v -0.0380678 3.34437e-05 0.000510622
v -0.0221812 -0.0119454 -0.00108643
v -0.00708012 -1.78918e-05 -0.00743108
v -0.00422218 0.00904384 -0.0058306
v -0.0136849 -0.00997241 -0.00576759
v -0.0380678 -8.48513e-05 -0.00113913
v -0.0281193 -0.00559777 -0.0046563
v -0.0380678 0.00904384 0.00374138
v -0.0380678 0.00272295 -0.00404681
v -0.0380678 0.00904384 -0.00373633
f 1 2 5
f 1 5 13
f 1 13 19
f 1 19 8
f 1 8 3
f 1 3 10
f 1 10 22
f 1 22 34
f 1 34 40
f 1 40 38
f 1 38 29
f 1 29 23
f 1 23 11
f 1 11 4
f 1 4 2
f 2 4 6
f 2 6 7
f 2 7 5
f 3 8 9
f 3 9 10
f 4 11 12
f 4 12 6
f 5 7 14
f 5 14 15
f 5 15 16
f 5 16 13
f 6 12 7
f 7 12 17
f 7 17 18
f 7 18 14
f 8 19 9
f 9 19 13
f 9 13 20
f 9 20 21
f 9 21 10
f 10 21 22
f 11 23 24
f 11 24 17
f 11 17 12
f 13 16 20
f 14 16 15
f 14 18 25
f 14 25 16
f 16 26 27
f 16 27 20
f 16 25 28
f 16 28 26
f 17 24 29
f 17 29 30
f 17 30 18
f 18 30 31
f 18 31 32
f 18 32 28
f 18 28 25
f 20 27 21
f 21 27 26
f 21 26 33
f 21 33 34
f 21 34 22
f 23 29 24
f 26 28 35
f 26 35 33
f 28 32 36
f 28 36 37
f 28 37 35
f 29 38 30
f 30 38 40
f 30 40 39
f 30 39 36
f 30 36 31
f 31 36 32
f 33 35 37
f 33 37 39
f 33 39 40
f 33 40 34
f 36 39 37
