v -0.116567 0.0573147 0.0082089
v -0.121442 0.0488329 0.00719685
v -0.122679 0.0488329 0.00383071
v -0.119546 0.0573147 0.00369019
v -0.118463 0.0573147 0.0143917
v -0.121985 0.0488329 0.0138486
v -0.12467 0.0488329 0.00206553
v -0.12131 0.0573147 0.00275708
v -0.12093 0.0573147 0.0160796
v -0.126939 0.0488329 0.0171848
v -0.127562 0.0488329 0.00133452
v -0.125138 0.0573147 0.00203396
v -0.124132 0.0573147 0.0172811
v -0.127916 0.0488329 0.0174642
v -0.130186 0.0488329 0.00237499
v -0.127635 0.0494456 0.00137873
v -0.128199 0.0542578 0.00202922
v -0.126924 0.0573147 0.00303654
v -0.125707 0.0573147 0.0164664
v -0.127624 0.0526828 0.0174042
v -0.129956 0.0488329 0.015028
v -0.130275 0.0488329 0.0024113
v -0.130383 0.0517562 0.0142086
v -0.127378 0.0573147 0.00822627
v -0.127435 0.0573147 0.0122176
v -0.130623 0.0488329 0.0135376
v -0.130285 0.0488329 0.00250604
f 1 2 3
f 1 3 4
f 1 4 8
f 1 8 12
f 1 12 18
f 1 18 24
f 1 24 25
f 1 25 19
f 1 19 13
f 1 13 9
f 1 9 5
f 1 5 6
f 1 6 2
f 2 6 10
f 2 10 14
f 2 14 21
f 2 21 26
f 2 26 27
f 2 27 22
f 2 22 15
f 2 15 11
f 2 11 7
f 2 7 3
f 3 7 4
f 4 7 8
f 5 9 6
f 6 9 10
f 7 11 8
f 8 11 12
f 9 13 10
f 10 13 14
f 11 15 16
f 11 16 12
f 12 16 17
f 12 17 18
f 13 19 20
f 13 20 14
f 14 20 21
f 15 22 16
f 16 22 17
f 17 22 23
f 17 23 18
f 18 23 24
f 19 25 23
f 19 23 20
f 20 23 21
f 21 23 26
f 22 27 23
f 23 25 24
f 23 27 26
