v -0.0563264 0.0309941 0.0142742
v -0.0517307 0.0272191 0.0134844
v -0.0451213 0.0237981 0.0124091
v -0.0451213 0.025562 0.0116963
v -0.0563264 0.0337072 0.0120378
v -0.0563264 0.0264012 0.0139993
v -0.0563264 0.0217748 0.013712
v -0.0451213 0.020313 0.0120973
v -0.0451213 0.0269139 0.0105159
v -0.0563264 0.0337194 0.0120238
v -0.0563264 0.0121037 0.0128206
v -0.0451213 0.00887802 0.0107838
v -0.0451213 0.0277379 0.00138792
v -0.0563264 0.0353643 0.00545276
v -0.0563264 0.00965927 0.0102794
v -0.049276 0.00691268 0.00957365
v -0.0455622 0.00862472 0.0107943
v -0.0451213 0.0086766 0.0107593
v -0.0563264 0.033936 -0.000582326
v -0.0563264 0.0340795 -0.000135737
v -0.0451213 0.0260137 -0.00207271
v -0.0563264 0.00922592 0.00495013
v -0.0451213 0.00419051 0.000992121
v -0.0451213 0.00778548 0.00969975
v -0.0451213 0.00866134 0.0107418
v -0.0563264 0.0321965 -0.00236869
v -0.0451213 0.0203496 -0.00305521
v -0.0563264 0.0313939 -0.00255258
v -0.0563264 0.00916183 0.00255781
v -0.0451213 0.00472457 -0.00130913
v -0.0563264 0.0191228 -0.003113
v -0.0451213 0.00734908 -0.00361738
v -0.0563264 0.0102605 -0.00185555
v -0.0563264 0.0126866 -0.00315678
f 1 2 3
f 1 3 4
f 1 4 5
f 1 5 10
f 1 10 14
f 1 14 20
f 1 20 19
f 1 19 26
f 1 26 28
f 1 28 31
f 1 31 34
f 1 34 33
f 1 33 29
f 1 29 22
f 1 22 15
f 1 15 11
f 1 11 7
f 1 7 6
f 1 6 2
f 2 6 7
f 2 7 3
f 3 7 8
f 3 8 12
f 3 12 18
f 3 18 25
f 3 25 24
f 3 24 23
f 3 23 30
f 3 30 32
f 3 32 27
f 3 27 21
f 3 21 13
f 3 13 9
f 3 9 4
f 4 9 5
f 5 9 10
f 7 11 8
f 8 11 12
f 9 13 14
f 9 14 10
f 11 15 16
f 11 16 17
f 11 17 18
f 11 18 12
f 13 19 20
f 13 20 14
f 13 21 19
f 15 22 23
f 15 23 16
f 16 23 24
f 16 24 25
f 16 25 17
f 17 25 18
f 19 21 26
f 21 27 28
f 21 28 26
f 22 29 23
f 23 29 30
f 27 31 28
f 27 32 31
f 29 33 30
f 30 33 32
f 31 32 34
f 32 33 34
