v -0.0380678 0.0248405 0.00116312
v -0.0380678 0.0227607 -0.00238339
v -0.0380678 0.0245126 0.00396639
v -0.00730235 0.0180555 0.0033948
v 0.000754659 0.0163391 -0.00196142
v -0.0380678 0.0198816 -0.00312761
v -0.00350382 0.0142872 -0.00503034
v -0.0380678 0.00907322 0.00396639
v -0.00840831 0.0181637 0.00396639
v -0.0019224 0.0167535 0.00335548
v 0.0147291 0.0117946 0.00201091
v 0.0147291 0.0118441 -0.000499847
v 0.00672894 0.0115024 -0.00521639
v -0.0380678 0.0171648 -0.00348149
v -0.00422218 0.00904384 -0.00583113
v 0.00150403 0.00904384 -0.00578606
v -0.0273699 0.011807 0.00396639
v -0.0380678 0.00904384 0.00374197
v -0.0380523 0.00904384 0.00396063
v -0.0119329 0.00904384 0.00360004
v -0.00832046 0.0178529 0.00396639
v 0.00757133 0.0132605 0.00290761
v 0.0147291 0.00904384 0.00192076
v 0.00928713 0.00904384 0.00265155
v 0.0147291 0.00904384 -0.000728098
v 0.00739045 0.00904384 -0.00533819
v -0.0380678 0.00904384 -0.0037366
v -0.0156746 0.0149676 0.00396639
v 0.00725091 0.00904384 0.00275896
v -0.00870806 0.0176426 0.00396639
f 1 2 6
f 1 6 14
f 1 14 27
f 1 27 18
f 1 18 8
f 1 8 3
f 1 3 4
f 1 4 5
f 1 5 2
f 2 5 7
f 2 7 6
f 3 8 17
f 3 17 28
f 3 28 30
f 3 30 21
f 3 21 9
f 3 9 4
f 4 9 10
f 4 10 5
f 5 10 11
f 5 11 12
f 5 12 13
f 5 13 7
f 6 7 15
f 6 15 14
f 7 13 16
f 7 16 15
f 8 18 19
f 8 19 20
f 8 20 17
f 9 21 22
f 9 22 10
f 10 22 11
f 11 23 25
f 11 25 12
f 11 22 24
f 11 24 23
f 12 25 26
f 12 26 13
f 13 26 16
f 14 15 27
f 15 16 26
f 15 26 25
f 15 25 23
f 15 23 24
f 15 24 29
f 15 29 20
f 15 20 19
f 15 19 18
f 15 18 27
f 17 20 28
f 20 29 21
f 20 21 30
f 20 30 28
f 21 29 24
f 21 24 22
