v -0.0375238 -0.0197333 -0.0047651
v -0.0389650 -0.0197333 -0.0045715
v -0.0354528 -0.0113839 -0.0033167
v -0.0356164 -0.0169521 -0.0044059
v -0.0213502 -0.0125927 -0.0002657
v -0.0350381 -0.0197333 -0.0039702
v -0.0387073 -0.0113839 -0.0025944
v -0.0421926 -0.0197333 -0.0023002
v -0.0238493 -0.0113839 -0.0011345
v -0.0213502 -0.0113839 -0.0003498
v -0.0213502 -0.0135415 0.0032859
v -0.0325547 -0.0197333 -0.0015511
v -0.0333885 -0.0197333 -0.0026785
v -0.0425983 -0.0113839 0.0008285
v -0.0442457 -0.0197333 0.0006973
v -0.0213502 -0.0113839 0.0074604
v -0.0213502 -0.0134851 0.0038668
v -0.0316604 -0.0197333 0.0037776
v -0.0317120 -0.0197333 0.0034298
v -0.0408657 -0.0113839 0.0057356
v -0.0413969 -0.0197333 0.0053126
v -0.0311405 -0.0113839 0.0081827
v -0.0365802 -0.0197333 0.0071585
v -0.0213502 -0.0123377 0.0072553
v -0.0213502 -0.0125207 0.0070133
v -0.0317747 -0.0197333 0.0040222
v -0.0395635 -0.0197333 0.0070961
v -0.0370890 -0.0113839 0.0080999
v -0.0362395 -0.0113839 0.0082489
v -0.0353609 -0.0141823 0.0080082
v -0.0339287 -0.0197333 0.0067916
f 1 2 3
f 1 3 4
f 1 4 5
f 1 5 6
f 1 6 13
f 1 13 12
f 1 12 19
f 1 19 18
f 1 18 26
f 1 26 31
f 1 31 23
f 1 23 27
f 1 27 21
f 1 21 15
f 1 15 8
f 1 8 2
f 2 7 3
f 2 8 7
f 3 7 14
f 3 14 20
f 3 20 28
f 3 28 29
f 3 29 22
f 3 22 16
f 3 16 10
f 3 10 9
f 3 9 4
f 4 9 5
f 5 9 10
f 5 10 16
f 5 16 24
f 5 24 25
f 5 25 17
f 5 17 11
f 5 11 12
f 5 12 13
f 5 13 6
f 7 8 14
f 8 15 14
f 11 17 18
f 11 18 19
f 11 19 12
f 14 15 20
f 15 21 20
f 16 22 23
f 16 23 24
f 17 25 26
f 17 26 18
f 20 21 27
f 20 27 28
f 22 29 30
f 22 30 23
f 23 31 24
f 23 30 27
f 24 31 25
f 25 31 26
f 27 30 29
f 27 29 28
