v -0.0911013 0.0017553 0.0083553
v -0.0911013 0.0008763 0.0079323
v -0.0911013 0.0034722 0.0073969
v -0.0932740 0.0016807 0.0081243
v -0.0987020 -0.0051589 0.0064338
v -0.0967827 -0.0051589 0.0061815
v -0.0911013 -0.0011985 0.0054044
v -0.0911013 0.0042539 0.0067134
v -0.0963167 0.0030008 0.0057977
v -0.0992347 -0.0013758 0.0069290
v -0.1016413 -0.0051589 0.0054897
v -0.0951047 -0.0051589 0.0032235
v -0.0911013 -0.0012753 0.0045313
v -0.0911013 0.0056033 0.0028670
v -0.0914693 0.0058865 0.0017440
v -0.1004200 0.0001541 0.0018944
v -0.0973027 0.0033425 0.0016350
v -0.1016860 -0.0049708 0.0054944
v -0.1017033 -0.0051589 0.0053961
v -0.0951347 -0.0051589 0.0031347
v -0.0911013 -0.0014655 0.0013258
v -0.0911013 0.0058206 0.0018565
v -0.0911013 0.0058444 0.0016101
v -0.0911013 0.0056930 0.0008176
v -0.0911013 0.0046161 -0.0027267
v -0.0949713 0.0038020 -0.0023370
v -0.0986887 0.0009152 -0.0028950
v -0.1026000 -0.0051589 -0.0003279
v -0.1019920 -0.0051589 0.0038407
v -0.0973667 -0.0051589 -0.0030229
v -0.0911013 -0.0004092 -0.0014071
v -0.0911013 0.0034344 -0.0035299
v -0.0911013 0.0030549 -0.0037289
v -0.0996793 -0.0035868 -0.0036484
v -0.1020533 -0.0051589 -0.0012839
v -0.1024920 -0.0051589 -0.0007141
v -0.0998500 -0.0051589 -0.0037467
v -0.0911013 0.0026992 -0.0037419
v -0.0911013 -0.0001281 -0.0020657
f 1 2 7
f 1 7 13
f 1 13 21
f 1 21 31
f 1 31 39
f 1 39 38
f 1 38 33
f 1 33 32
f 1 32 25
f 1 25 24
f 1 24 23
f 1 23 22
f 1 22 14
f 1 14 8
f 1 8 3
f 1 3 4
f 1 4 5
f 1 5 6
f 1 6 2
f 2 6 7
f 3 8 9
f 3 9 4
f 4 10 5
f 4 9 10
f 5 10 11
f 5 11 19
f 5 19 29
f 5 29 28
f 5 28 36
f 5 36 35
f 5 35 37
f 5 37 30
f 5 30 20
f 5 20 12
f 5 12 6
f 6 12 7
f 7 12 13
f 8 14 15
f 8 15 9
f 9 16 10
f 9 15 17
f 9 17 16
f 10 16 18
f 10 18 11
f 11 18 19
f 12 20 21
f 12 21 13
f 14 22 15
f 15 22 23
f 15 23 24
f 15 24 25
f 15 25 26
f 15 26 17
f 16 17 27
f 16 27 28
f 16 28 18
f 17 26 27
f 18 28 29
f 18 29 19
f 20 30 21
f 21 30 31
f 25 32 26
f 26 32 27
f 27 32 33
f 27 33 34
f 27 34 35
f 27 35 36
f 27 36 28
f 30 37 38
f 30 38 39
f 30 39 31
f 33 38 37
f 33 37 34
f 34 37 35
