v -0.0700773 0.0013699 -0.0053371
v -0.0672200 0.0021339 -0.0048154
v -0.0524623 0.0008255 -0.0040523
v -0.0611047 -0.0010862 -0.0051572
v -0.0763260 -0.0016510 -0.0039549
v -0.0911007 0.0026987 -0.0037420
v -0.0900940 0.0033382 -0.0038394
v -0.0896300 0.0049251 -0.0028740
v -0.0613637 0.0024033 -0.0022308
v -0.0755993 0.0039913 -0.0019400
v -0.0498851 -0.0011247 -0.0042442
v -0.0484315 0.0014356 -0.0006882
v -0.0484315 0.0008334 -0.0025906
v -0.0484315 0.0000773 -0.0035246
v -0.0484315 -0.0010896 -0.0039444
v -0.0484315 -0.0018649 -0.0038439
v -0.0484315 -0.0038140 -0.0030044
v -0.0541415 -0.0036295 -0.0034077
v -0.0661966 -0.0029968 -0.0040403
v -0.0770400 -0.0035492 -0.0001964
v -0.0911007 -0.0001287 -0.0020659
v -0.0911007 0.0030553 -0.0037300
v -0.0911007 0.0034344 -0.0035306
v -0.0837320 0.0050202 -0.0010705
v -0.0911007 0.0046161 -0.0027256
v -0.0911007 0.0056936 0.0008185
v -0.0911007 0.0058453 0.0016101
v -0.0484315 0.0012352 0.0027585
v -0.0484315 -0.0049640 -0.0004393
v -0.0608165 -0.0051666 0.0001244
v -0.0911007 -0.0014654 0.0013252
v -0.0911007 -0.0004094 -0.0014063
v -0.0728087 -0.0046052 0.0035170
v -0.0911007 0.0058204 0.0018575
v -0.0484315 0.0003648 0.0071721
v -0.0484315 -0.0057178 0.0063535
v -0.0620780 -0.0055446 0.0049083
v -0.0824040 -0.0028282 0.0047374
v -0.0911007 -0.0012752 0.0045320
v -0.0761880 -0.0031688 0.0073385
v -0.0911007 0.0056031 0.0028664
v -0.0484315 0.0002064 0.0076473
v -0.0897593 0.0045753 0.0069487
v -0.0484315 -0.0030783 0.0092994
v -0.0592000 -0.0045384 0.0080146
v -0.0911007 -0.0011983 0.0054045
v -0.0765680 -0.0019374 0.0087057
v -0.0858667 -0.0010613 0.0074689
v -0.0911007 0.0042539 0.0067133
v -0.0484398 -0.0007014 0.0090910
v -0.0484315 -0.0007025 0.0090910
v -0.0791667 0.0023218 0.0089831
v -0.0911007 0.0034718 0.0073969
v -0.0911007 0.0017559 0.0083549
v -0.0862840 0.0019211 0.0088647
v -0.0484315 -0.0029425 0.0093474
v -0.0585776 -0.0032605 0.0091915
v -0.0911007 0.0008753 0.0079321
v -0.0622451 -0.0009742 0.0099785
v -0.0732973 0.0004984 0.0097162
v -0.0809500 0.0010168 0.0092859
v -0.0651022 0.0007689 0.0092275
v -0.0484315 -0.0007252 0.0090940
f 1 2 3
f 1 3 4
f 1 4 5
f 1 5 6
f 1 6 7
f 1 7 8
f 1 8 2
f 2 9 3
f 2 8 10
f 2 10 9
f 3 11 4
f 3 9 12
f 3 12 13
f 3 13 14
f 3 14 15
f 3 15 11
f 4 11 16
f 4 16 17
f 4 17 18
f 4 18 19
f 4 19 5
f 5 20 21
f 5 21 6
f 5 19 20
f 6 22 7
f 6 21 32
f 6 32 31
f 6 31 39
f 6 39 46
f 6 46 58
f 6 58 54
f 6 54 53
f 6 53 49
f 6 49 41
f 6 41 34
f 6 34 27
f 6 27 26
f 6 26 25
f 6 25 23
f 6 23 22
f 7 22 23
f 7 23 8
f 8 24 10
f 8 23 25
f 8 25 26
f 8 26 27
f 8 27 24
f 9 10 12
f 10 24 12
f 11 15 16
f 12 28 35
f 12 35 42
f 12 42 51
f 12 51 63
f 12 63 56
f 12 56 44
f 12 44 36
f 12 36 29
f 12 29 17
f 12 17 16
f 12 16 15
f 12 15 14
f 12 14 13
f 12 24 27
f 12 27 28
f 17 29 18
f 18 30 19
f 18 29 30
f 19 30 20
f 20 31 32
f 20 32 21
f 20 30 33
f 20 33 31
f 27 34 28
f 28 34 35
f 29 36 30
f 30 37 33
f 30 36 37
f 31 33 38
f 31 38 39
f 33 37 40
f 33 40 38
f 34 41 35
f 35 41 43
f 35 43 42
f 36 44 45
f 36 45 37
f 37 45 40
f 38 40 46
f 38 46 39
f 40 47 48
f 40 48 46
f 40 45 47
f 41 49 43
f 42 50 51
f 42 43 52
f 42 52 50
f 43 49 53
f 43 53 54
f 43 54 55
f 43 55 52
f 44 56 57
f 44 57 45
f 45 57 47
f 46 48 58
f 47 57 59
f 47 59 60
f 47 60 61
f 47 61 54
f 47 54 58
f 47 58 48
f 50 52 62
f 50 62 59
f 50 59 51
f 51 59 63
f 52 55 60
f 52 60 62
f 54 61 55
f 55 61 60
f 56 59 57
f 56 63 59
f 59 62 60
