v -0.0213479 -0.0028097 0.0083533
v -0.0213479 -0.0028066 0.0031034
v -0.0213420 -0.0028097 0.0031034
v -0.0112871 -0.0028097 0.0080512
v -0.0112871 0.0024090 0.0085283
v -0.0213479 0.0011133 0.0086309
v -0.0112871 -0.0028097 0.0030598
v -0.0213479 0.0039747 0.0033548
v -0.0112871 0.0043797 0.0085201
v -0.0112871 0.0049769 0.0082349
v -0.0112871 0.0062471 0.0074944
v -0.0213479 0.0025368 0.0077223
v -0.0112871 -0.0025683 0.0030756
v -0.0112871 0.0071675 0.0054134
v -0.0112871 0.0076369 0.0038538
f 1 2 3
f 1 3 7
f 1 7 4
f 1 4 5
f 1 5 6
f 1 6 12
f 1 12 8
f 1 8 2
f 2 7 3
f 2 8 7
f 4 7 13
f 4 13 15
f 4 15 14
f 4 14 11
f 4 11 10
f 4 10 9
f 4 9 5
f 5 9 6
f 6 9 10
f 6 10 11
f 6 11 12
f 7 8 13
f 8 12 14
f 8 14 15
f 8 15 13
f 11 14 12
