v -0.0213506 0.0039751 0.0033543
v -0.0213506 0.0025364 0.0077225
v -0.0213506 -0.0099842 -0.0004414
v -0.0428555 -0.0009561 -0.0027966
v -0.0484273 0.0000767 -0.0035253
v -0.0484273 0.0008330 -0.0025897
v -0.0484273 0.0014343 -0.0006886
v -0.0484273 0.0012344 0.0027583
v -0.0484273 0.0003654 0.0071721
v -0.0213506 0.0011126 0.0086308
v -0.0484273 0.0002060 0.0076471
v -0.0484273 -0.0007050 0.0090914
v -0.0213506 -0.0100052 -0.0004466
v -0.0484273 -0.0010914 -0.0039456
v -0.0276195 -0.0090505 0.0083289
v -0.0213506 -0.0092520 0.0080010
v -0.0484273 -0.0007276 0.0090940
v -0.0484273 -0.0029436 0.0093477
v -0.0400087 -0.0025603 0.0091643
v -0.0213506 -0.0100338 -0.0004518
v -0.0354549 -0.0113839 -0.0033171
v -0.0484273 -0.0018672 -0.0038441
v -0.0311395 -0.0113839 0.0081831
v -0.0213506 -0.0113839 0.0074610
v -0.0484273 -0.0030789 0.0092996
v -0.0362395 -0.0113839 0.0082482
v -0.0213506 -0.0113839 -0.0003503
v -0.0238502 -0.0113839 -0.0011350
v -0.0238847 -0.0113839 -0.0011415
v -0.0387073 -0.0113839 -0.0025949
v -0.0484273 -0.0038141 -0.0030035
v -0.0484273 -0.0057175 0.0063536
v -0.0408649 -0.0113839 0.0057355
v -0.0370877 -0.0113839 0.0080999
v -0.0425985 -0.0113839 0.0008286
v -0.0484273 -0.0049642 -0.0004388
f 1 2 10
f 1 10 16
f 1 16 24
f 1 24 27
f 1 27 20
f 1 20 13
f 1 13 3
f 1 3 4
f 1 4 5
f 1 5 6
f 1 6 7
f 1 7 8
f 1 8 9
f 1 9 2
f 2 9 11
f 2 11 12
f 2 12 10
f 3 13 4
f 4 14 5
f 4 13 14
f 5 14 22
f 5 22 31
f 5 31 36
f 5 36 32
f 5 32 25
f 5 25 18
f 5 18 17
f 5 17 12
f 5 12 11
f 5 11 9
f 5 9 8
f 5 8 7
f 5 7 6
f 10 15 16
f 10 12 17
f 10 17 18
f 10 18 19
f 10 19 15
f 13 20 14
f 14 21 22
f 14 20 21
f 15 23 16
f 15 19 18
f 15 18 23
f 16 23 24
f 18 25 26
f 18 26 23
f 20 27 28
f 20 28 29
f 20 29 21
f 21 30 22
f 21 29 28
f 21 28 27
f 21 27 24
f 21 24 23
f 21 23 26
f 21 26 34
f 21 34 33
f 21 33 35
f 21 35 30
f 22 30 31
f 25 32 33
f 25 33 34
f 25 34 26
f 30 35 31
f 31 35 36
f 32 35 33
f 32 36 35
