v -0.0213479 -0.0135415 0.0032871
v -0.0213479 -0.0134837 0.0038681
v -0.0213479 -0.0125909 -0.0002667
v -0.0112871 -0.0111707 0.0023002
v -0.0213479 -0.0125194 0.0070133
v -0.0112871 -0.0106445 0.0064272
v -0.0213479 -0.0100342 -0.0004521
v -0.0132351 -0.0103703 0.0006771
v -0.0112871 -0.0028107 0.0030604
v -0.0213479 -0.0123367 0.0072556
v -0.0112871 -0.0092233 0.0075961
v -0.0213479 -0.0100058 -0.0004469
v -0.0213479 -0.0099848 -0.0004417
v -0.0213479 -0.0033852 0.0017089
v -0.0213479 -0.0031521 0.0022295
v -0.0213420 -0.0028107 0.0031035
v -0.0112871 -0.0028107 0.0080511
v -0.0213479 -0.0092517 0.0080003
v -0.0112871 -0.0068389 0.0077667
v -0.0213479 -0.0028107 0.0083537
f 1 2 5
f 1 5 10
f 1 10 18
f 1 18 20
f 1 20 15
f 1 15 14
f 1 14 13
f 1 13 12
f 1 12 7
f 1 7 3
f 1 3 4
f 1 4 2
f 2 4 6
f 2 6 5
f 3 7 8
f 3 8 4
f 4 8 9
f 4 9 17
f 4 17 19
f 4 19 11
f 4 11 6
f 5 6 10
f 6 11 10
f 7 12 8
f 8 12 13
f 8 13 9
f 9 13 14
f 9 14 15
f 9 15 16
f 9 16 20
f 9 20 17
f 10 11 18
f 11 19 18
f 15 20 16
f 17 20 18
f 17 18 19
