v 0.0090466 0.0071539 0.0047078
v 0.0090466 0.0070341 0.0038584
v 0.0090466 0.0067557 0.0052813
v 0.0120389 0.0068545 0.0050676
v 0.0599797 0.0048904 0.0032705
v 0.0106515 0.0067856 0.0034228
v 0.0090466 0.0025836 0.0029555
v 0.0090466 -0.0004014 0.0048277
v 0.0197283 0.0061628 0.0051709
v 0.0321147 0.0056913 0.0048450
v 0.0575586 0.0044713 0.0041685
v 0.0745880 0.0037153 0.0035054
v 0.0875727 0.0019908 0.0029385
v 0.1016820 -0.0012173 0.0018511
v 0.0725840 0.0023635 0.0025174
v 0.0536867 0.0045207 0.0030186
v 0.0927953 -0.0009628 0.0016783
v 0.0090466 -0.0081378 0.0024264
v 0.0090466 -0.0076333 0.0042041
v 0.0278620 -0.0059492 0.0041346
v 0.0454714 0.0008081 0.0043336
v 0.0723207 -0.0022113 0.0033198
v 0.0886880 -0.0026738 0.0023220
v 0.0808447 -0.0030122 0.0020804
v 0.0459067 -0.0057681 0.0027488
v 0.0090466 -0.0077905 0.0037050
v 0.0728740 -0.0037951 0.0023213
v 0.0637881 -0.0044388 0.0023805
v 0.0570237 -0.0043939 0.0035184
f 1 2 7
f 1 7 18
f 1 18 26
f 1 26 19
f 1 19 8
f 1 8 3
f 1 3 4
f 1 4 5
f 1 5 2
f 2 6 7
f 2 5 6
f 3 8 9
f 3 9 4
f 4 9 10
f 4 10 11
f 4 11 5
f 5 11 12
f 5 12 13
f 5 13 14
f 5 14 15
f 5 15 16
f 5 16 6
f 6 16 17
f 6 17 7
f 7 17 18
f 8 19 20
f 8 20 9
f 9 20 21
f 9 21 11
f 9 11 10
f 11 21 22
f 11 22 12
f 12 22 13
f 13 22 14
f 14 17 15
f 14 22 23
f 14 23 24
f 14 24 18
f 14 18 17
f 15 17 16
f 18 25 26
f 18 24 27
f 18 27 28
f 18 28 25
f 19 26 25
f 19 25 29
f 19 29 20
f 20 29 21
f 21 29 22
f 22 29 23
f 23 27 24
f 23 29 25
f 23 25 27
f 25 28 27
