v -0.0949260 -0.0113855 0.0009888
v -0.0952173 -0.0113855 -0.0015286
v -0.0949700 -0.0113855 0.0034718
v -0.0822540 -0.0217960 -0.0031317
v -0.0970247 -0.0113855 -0.0038905
v -0.0822540 -0.0218415 -0.0032847
v -0.0822540 -0.0231127 -0.0055940
v -0.0978767 -0.0113855 0.0058949
v -0.0822540 -0.0231614 0.0054641
v -0.0822540 -0.0223441 0.0037777
v -0.0822540 -0.0218933 0.0027596
v -0.0977660 -0.0113855 -0.0042796
v -0.0822540 -0.0241035 -0.0062426
v -0.0993013 -0.0113855 0.0055694
v -0.0977760 -0.0121931 0.0058471
v -0.0822540 -0.0254105 0.0062571
v -0.0822540 -0.0250505 0.0061751
v -0.1002507 -0.0113855 -0.0035723
v -0.0886607 -0.0207923 -0.0057053
v -0.0968007 -0.0129389 -0.0044363
v -0.0822540 -0.0263527 -0.0056527
v -0.0824520 -0.0263283 -0.0056160
v -0.0997293 -0.0131546 0.0053148
v -0.1001520 -0.0113855 0.0053540
v -0.0950667 -0.0175037 0.0056917
v -0.0822540 -0.0262440 0.0057811
v -0.1002527 -0.0114390 -0.0035674
v -0.1002767 -0.0113855 -0.0035392
v -0.0932773 -0.0188577 -0.0048768
v -0.0822540 -0.0264208 -0.0056172
v -0.0837740 -0.0271343 -0.0020621
v -0.0907153 -0.0230268 -0.0012973
v -0.0822540 -0.0264581 -0.0055426
v -0.1022780 -0.0113855 0.0021428
v -0.1024147 -0.0128660 0.0013693
v -0.0949220 -0.0195421 0.0034902
v -0.0868987 -0.0250489 0.0046197
v -0.0822540 -0.0273321 0.0049746
v -0.0984100 -0.0171453 -0.0005985
v -0.1024940 -0.0113855 0.0009777
v -0.0822540 -0.0278186 -0.0022494
v -0.0822540 -0.0279483 -0.0002008
v -0.0822540 -0.0277845 0.0040213
f 1 2 5
f 1 5 12
f 1 12 18
f 1 18 28
f 1 28 40
f 1 40 34
f 1 34 24
f 1 24 14
f 1 14 8
f 1 8 3
f 1 3 4
f 1 4 2
f 2 4 6
f 2 6 7
f 2 7 5
f 3 8 9
f 3 9 10
f 3 10 11
f 3 11 4
f 4 11 10
f 4 10 9
f 4 9 17
f 4 17 16
f 4 16 26
f 4 26 38
f 4 38 43
f 4 43 42
f 4 42 41
f 4 41 33
f 4 33 30
f 4 30 21
f 4 21 13
f 4 13 7
f 4 7 6
f 5 7 12
f 7 13 12
f 8 14 15
f 8 15 16
f 8 16 17
f 8 17 9
f 12 13 19
f 12 19 20
f 12 20 18
f 13 21 22
f 13 22 19
f 14 23 15
f 14 24 23
f 15 23 25
f 15 25 16
f 16 25 26
f 18 27 28
f 18 20 27
f 19 22 29
f 19 29 20
f 20 29 27
f 21 30 22
f 22 31 32
f 22 32 29
f 22 30 33
f 22 33 31
f 23 24 34
f 23 34 35
f 23 35 36
f 23 36 25
f 25 36 37
f 25 37 26
f 26 37 38
f 27 39 35
f 27 35 28
f 27 29 39
f 28 35 40
f 29 32 39
f 31 33 41
f 31 41 42
f 31 42 43
f 31 43 37
f 31 37 32
f 32 37 36
f 32 36 39
f 34 40 35
f 35 39 36
f 37 43 38
