v -0.0949260 -0.0113839 0.0009897
v -0.0952193 -0.0113839 -0.0015285
v -0.0951040 -0.0051589 0.0032236
v -0.0949700 -0.0113839 0.0034722
v -0.0970260 -0.0113839 -0.0038904
v -0.0973687 -0.0051589 -0.0030231
v -0.0951353 -0.0051589 0.0031345
v -0.0967833 -0.0051589 0.0061813
v -0.0978793 -0.0113839 0.0058950
v -0.0977680 -0.0113839 -0.0042806
v -0.0998500 -0.0051589 -0.0037457
v -0.0987027 -0.0051589 0.0064340
v -0.0993027 -0.0113839 0.0055698
v -0.1001147 -0.0076054 -0.0038988
v -0.1002513 -0.0113839 -0.0035726
v -0.1028040 -0.0056567 -0.0005353
v -0.1020527 -0.0051589 -0.0012841
v -0.1016413 -0.0051589 0.0054901
v -0.1001533 -0.0113839 0.0053538
v -0.1002773 -0.0113839 -0.0035391
v -0.1019920 -0.0051589 0.0038414
v -0.1026000 -0.0051589 -0.0003276
v -0.1024927 -0.0051589 -0.0007146
v -0.1024960 -0.0113839 0.0009792
v -0.1017033 -0.0051589 0.0053957
v -0.1022793 -0.0113839 0.0021434
f 1 2 3
f 1 3 4
f 1 4 9
f 1 9 13
f 1 13 19
f 1 19 26
f 1 26 24
f 1 24 20
f 1 20 15
f 1 15 10
f 1 10 5
f 1 5 2
f 2 5 6
f 2 6 7
f 2 7 3
f 3 7 6
f 3 6 11
f 3 11 17
f 3 17 23
f 3 23 22
f 3 22 21
f 3 21 25
f 3 25 18
f 3 18 12
f 3 12 8
f 3 8 4
f 4 8 9
f 5 10 6
f 6 10 11
f 8 12 9
f 9 12 13
f 10 14 11
f 10 15 14
f 11 14 16
f 11 16 17
f 12 18 19
f 12 19 13
f 14 15 16
f 15 20 16
f 16 21 22
f 16 22 23
f 16 23 17
f 16 20 24
f 16 24 25
f 16 25 21
f 18 25 26
f 18 26 19
f 24 26 25
