v -0.0637871 -0.0301868 -0.0069158
v -0.0637871 -0.0286041 -0.0050432
v -0.0637871 -0.0319275 -0.0067898
v -0.0672847 -0.0316312 -0.0068501
v -0.0646076 -0.0301720 -0.0069078
v -0.0765600 -0.0270461 -0.0067201
v -0.0822520 -0.0241043 -0.0062429
v -0.0822520 -0.0231141 -0.0055941
v -0.0637871 -0.0285424 -0.0049561
v -0.0637871 -0.0324287 -0.0059386
v -0.0637871 -0.0335337 -0.0038636
v -0.0671400 -0.0333966 -0.0035580
v -0.0726687 -0.0308720 -0.0056880
v -0.0822520 -0.0264215 -0.0056169
v -0.0822520 -0.0263536 -0.0056531
v -0.0822520 -0.0218438 -0.0032845
v -0.0637871 -0.0279276 -0.0020366
v -0.0822520 -0.0217969 -0.0031317
v -0.0637871 -0.0343620 0.0009205
v -0.0682893 -0.0335905 0.0033011
v -0.0755967 -0.0308177 -0.0030741
v -0.0637871 -0.0344089 0.0016684
v -0.0822520 -0.0264597 -0.0055419
v -0.0637871 -0.0278757 -0.0009830
v -0.0822520 -0.0218944 0.0027596
v -0.0637871 -0.0338830 0.0040571
v -0.0637871 -0.0328571 0.0058895
v -0.0664331 -0.0319732 0.0067153
v -0.0758500 -0.0304807 0.0054633
v -0.0791320 -0.0296226 0.0036188
v -0.0822520 -0.0279511 -0.0002002
v -0.0822520 -0.0278202 -0.0022497
v -0.0637871 -0.0285103 0.0036563
v -0.0822520 -0.0223463 0.0037783
v -0.0637871 -0.0318695 0.0067783
v -0.0799327 -0.0268425 0.0063600
v -0.0822520 -0.0262462 0.0057809
v -0.0822520 -0.0273338 0.0049753
v -0.0822520 -0.0277869 0.0040209
v -0.0637871 -0.0299214 0.0060343
v -0.0822520 -0.0231635 0.0054646
v -0.0637871 -0.0313707 0.0066857
v -0.0822520 -0.0254129 0.0062581
v -0.0822520 -0.0250524 0.0061750
f 1 2 9
f 1 9 17
f 1 17 24
f 1 24 33
f 1 33 40
f 1 40 42
f 1 42 35
f 1 35 27
f 1 27 26
f 1 26 22
f 1 22 19
f 1 19 11
f 1 11 10
f 1 10 3
f 1 3 4
f 1 4 5
f 1 5 6
f 1 6 7
f 1 7 8
f 1 8 2
f 2 8 9
f 3 10 4
f 4 10 11
f 4 11 12
f 4 12 13
f 4 13 14
f 4 14 15
f 4 15 6
f 4 6 5
f 6 15 7
f 7 15 14
f 7 14 23
f 7 23 32
f 7 32 31
f 7 31 39
f 7 39 38
f 7 38 37
f 7 37 43
f 7 43 44
f 7 44 41
f 7 41 34
f 7 34 25
f 7 25 18
f 7 18 16
f 7 16 8
f 8 16 9
f 9 16 18
f 9 18 17
f 11 19 12
f 12 20 21
f 12 21 13
f 12 19 22
f 12 22 20
f 13 21 23
f 13 23 14
f 17 18 24
f 18 25 24
f 20 22 26
f 20 26 27
f 20 27 28
f 20 28 29
f 20 29 30
f 20 30 21
f 21 30 31
f 21 31 32
f 21 32 23
f 24 25 33
f 25 34 33
f 27 35 28
f 28 36 29
f 28 35 36
f 29 36 37
f 29 37 38
f 29 38 39
f 29 39 30
f 30 39 31
f 33 34 41
f 33 41 40
f 35 42 43
f 35 43 36
f 36 43 37
f 40 41 42
f 41 44 42
f 42 44 43
