v -0.0465733 -0.0268022 -0.0064491
v -0.0456996 -0.0268022 -0.0063106
v -0.0513645 -0.0268022 -0.0042632
v -0.0389676 -0.0197333 -0.0045709
v -0.0375264 -0.0197333 -0.0047641
v -0.0421583 -0.0264894 -0.0056352
v -0.0425175 -0.0268022 -0.0055753
v -0.0528844 -0.0268022 -0.0009758
v -0.0442457 -0.0197333 0.0006959
v -0.0421944 -0.0197333 -0.0022998
v -0.0350415 -0.0197333 -0.0039702
v -0.0333919 -0.0197333 -0.0026795
v -0.0325545 -0.0197333 -0.0015512
v -0.0386360 -0.0261309 -0.0013594
v -0.0400135 -0.0268022 -0.0020760
v -0.0533755 -0.0268022 0.0006040
v -0.0413973 -0.0197333 0.0053127
v -0.0317127 -0.0197333 0.0034292
v -0.0316595 -0.0197333 0.0037782
v -0.0391865 -0.0268022 -0.0006734
v -0.0494621 -0.0268022 0.0056018
v -0.0395671 -0.0197333 0.0070963
v -0.0317743 -0.0197333 0.0040220
v -0.0400432 -0.0268022 0.0046281
v -0.0387997 -0.0268022 0.0019507
v -0.0388103 -0.0268022 0.0018721
v -0.0447643 -0.0268022 0.0070377
v -0.0365826 -0.0197333 0.0071589
v -0.0339297 -0.0197333 0.0067913
v -0.0405853 -0.0268022 0.0053127
v -0.0442648 -0.0268022 0.0069964
v -0.0372585 -0.0228010 0.0066887
f 1 2 7
f 1 7 15
f 1 15 20
f 1 20 26
f 1 26 25
f 1 25 24
f 1 24 30
f 1 30 31
f 1 31 27
f 1 27 21
f 1 21 16
f 1 16 8
f 1 8 3
f 1 3 4
f 1 4 5
f 1 5 2
f 2 5 6
f 2 6 7
f 3 8 9
f 3 9 10
f 3 10 4
f 4 10 9
f 4 9 17
f 4 17 22
f 4 22 28
f 4 28 29
f 4 29 23
f 4 23 19
f 4 19 18
f 4 18 13
f 4 13 12
f 4 12 11
f 4 11 5
f 5 11 6
f 6 11 12
f 6 12 13
f 6 13 14
f 6 14 7
f 7 14 15
f 8 16 9
f 9 16 17
f 13 18 14
f 14 18 19
f 14 19 20
f 14 20 15
f 16 21 17
f 17 21 22
f 19 23 24
f 19 24 25
f 19 25 26
f 19 26 20
f 21 27 22
f 22 27 28
f 23 29 24
f 24 29 30
f 27 31 28
f 28 31 29
f 29 31 32
f 29 32 30
f 30 32 31
