####
#
# OBJ File Generated by Meshlab
#
####
# Object bottom_simplified_new.obj
#
# Vertices: 250
# Faces: 500
#
####
mtllib ./bottom_simplified_new.obj.mtl

vn -0.3067000 0.8000000 0.5157000
v -0.0148871 0.0047950 0.0074529
vn 0.3073000 0.4221000 0.8529000
v 0.0030911 0.0074213 0.0083126
vn 0.0321000 0.3014000 0.9530000
v 0.0197267 0.0061635 0.0051713
vn 0.3002000 -0.8628000 0.4067000
v 0.0027811 -0.0092018 0.0060027
vn 0.0256000 -0.0724000 0.9970000
v 0.0454701 0.0008085 0.0043338
vn 0.0754000 -0.9553000 -0.2859000
v 0.0728754 -0.0037963 0.0023211
vn -0.4594000 -0.4405000 -0.7713000
v -0.0932775 -0.0188574 -0.0048774
vn -0.0196000 0.2455000 -0.9692000
v -0.0700799 0.0013704 -0.0053371
vn 0.1450000 -0.9890000 0.0291000
v -0.0562026 -0.0344547 0.0016065
vn -0.3406000 0.6069000 -0.7181000
v -0.0436405 -0.0236133 -0.0048019
vn 0.0790000 -0.6402000 -0.7641000
v 0.0166392 -0.0070289 0.0025151
vn -0.0341000 0.0646000 -0.9973000
v -0.0093635 -0.0071138 0.0025827
vn -0.6122000 0.5241000 -0.5920000
v -0.0426085 -0.0204759 -0.0022671
vn 0.0241000 0.5599000 0.8282000
v -0.0791699 0.0023223 0.0089832
vn 0.0354000 -0.4793000 0.8769000
v 0.0278568 -0.0059503 0.0041346
vn -0.0699000 -0.9975000 -0.0049000
v -0.0633472 -0.0344889 0.0015096
vn -0.0871000 -0.2032000 0.9753000
v -0.0070137 -0.0039908 0.0078629
vn -0.1600000 -0.9360000 -0.3134000
v -0.0770442 -0.0035494 -0.0001974
vn 0.1243000 -0.0867000 -0.9885000
v -0.0498820 -0.0011256 -0.0042455
vn 0.4461000 0.8635000 -0.2351000
v -0.0820136 -0.0219645 -0.0032551
vn 0.0617000 -0.9462000 0.3175000
v -0.0905525 -0.0010309 0.0052836
vn 0.7082000 0.2361000 0.6654000
v 0.0071241 0.0035323 0.0077786
vn 0.0852000 0.9507000 0.2982000
v -0.0634253 -0.0285740 0.0036448
vn 0.0654000 0.6932000 -0.7178000
v -0.0672171 0.0021342 -0.0048160
vn 0.0377000 -0.6694000 -0.7420000
v 0.0637911 -0.0044399 0.0023806
vn -0.2716000 0.6075000 -0.7465000
v -0.0141549 0.0062810 0.0037009
vn -0.3931000 -0.6463000 -0.6540000
v -0.0824504 -0.0263288 -0.0056163
vn -0.8271000 0.5506000 0.1124000
v -0.1004204 0.0001535 0.0018944
vn -0.2017000 0.9455000 -0.2556000
v -0.0546708 -0.0278061 -0.0042900
vn 0.5947000 0.8038000 -0.0141000
v -0.0891114 -0.0169708 0.0004179
vn 0.2149000 0.9756000 0.0458000
v -0.0674922 -0.0273181 -0.0005784
vn -0.0580000 -0.9665000 -0.2498000
v -0.0885318 -0.0006605 -0.0009189
vn 0.4309000 -0.8220000 0.3723000
v -0.0264952 -0.0150491 0.0057666
vn -0.1335000 -0.1060000 0.9854000
v -0.0932735 0.0016814 0.0081246
vn -0.7983000 0.0597000 0.5993000
v -0.1016863 -0.0049711 0.0054945
vn -0.3499000 0.7886000 -0.5056000
v -0.0949713 0.0038027 -0.0023373
vn -0.1234000 0.5814000 -0.8042000
v -0.0529426 -0.0290573 -0.0067761
vn 0.1700000 0.2791000 -0.9451000
v -0.0346979 -0.0040786 -0.0014920
vn 0.4801000 -0.0603000 0.8752000
v 0.0090561 -0.0003864 0.0048150
vn 0.0641000 0.9914000 0.1139000
v -0.0521991 0.0015206 0.0020922
vn 0.2194000 -0.6814000 -0.6982000
v 0.0045974 -0.0087900 0.0023742
vn 0.0283000 0.5817000 0.8129000
v 0.0575658 0.0044714 0.0041687
vn 0.0119000 -0.4479000 -0.8940000
v 0.0387871 -0.0052945 0.0025644
vn 0.0674000 -0.9737000 -0.2176000
v 0.0285175 -0.0066268 0.0025488
vn 0.1183000 -0.4798000 -0.8694000
v 0.0010321 -0.0104729 0.0022548
vn 0.0847000 0.9614000 0.2619000
v -0.0634138 0.0016757 0.0071976
vn 0.4788000 0.5897000 0.6504000
v 0.0064329 0.0066683 0.0054690
vn -0.2447000 0.0959000 -0.9648000
v -0.1001153 -0.0076053 -0.0038995
vn -0.1486000 -0.7314000 -0.6656000
v -0.0869433 0.0001653 -0.0029109
vn 0.4740000 0.7214000 -0.5048000
v -0.0893314 -0.0182228 -0.0041920
vn 0.5004000 0.8184000 0.2827000
v -0.0838962 -0.0212000 0.0031837
vn 0.2105000 -0.7215000 0.6596000
v -0.0203624 -0.0120360 0.0072522
vn -0.4346000 0.1606000 0.8862000
v -0.0992354 -0.0013768 0.0069299
vn 0.3792000 -0.5320000 0.7571000
v -0.0317346 -0.0177096 0.0068594
vn -0.0511000 0.6234000 0.7802000
v -0.0560788 -0.0299613 0.0061271
vn -0.1994000 -0.9739000 0.1084000
v -0.0824041 -0.0028293 0.0047386
vn 0.1411000 0.6334000 -0.7609000
v -0.0524582 0.0008255 -0.0040529
vn 0.0373000 0.0818000 -0.9960000
v -0.0111476 -0.0027182 0.0030578
vn 0.4084000 -0.1308000 -0.9034000
v -0.0132342 -0.0103709 0.0006769
vn 0.4221000 -0.6422000 -0.6398000
v -0.0247927 -0.0136479 -0.0007684
vn 0.0464000 -0.1032000 -0.9936000
v -0.0611018 -0.0010869 -0.0051582
vn -0.3486000 0.8370000 -0.4217000
v -0.0493110 -0.0261791 -0.0042479
vn -0.0030000 0.2121000 -0.9772000
v 0.0725863 0.0023637 0.0025172
vn -0.0386000 0.8488000 -0.5273000
v -0.0896322 0.0049255 -0.0028745
vn -0.5986000 0.7853000 -0.1582000
v -0.0480025 -0.0241116 -0.0002499
vn -0.1941000 -0.9454000 -0.2618000
v -0.0671396 -0.0333978 -0.0035591
vn 0.4769000 -0.7258000 0.4957000
v -0.0419111 -0.0283998 0.0047649
vn 0.2659000 -0.1686000 0.9491000
v -0.0983696 -0.0075160 0.0061250
vn -0.0355000 -0.3970000 0.9171000
v -0.0475828 -0.0030634 0.0093092
vn 0.0322000 -0.4362000 -0.8993000
v -0.0595021 -0.0322911 -0.0067161
vn 0.4759000 -0.2699000 0.8371000
v 0.0070412 -0.0033740 0.0075426
vn -0.3353000 0.8802000 -0.3360000
v -0.0087714 0.0088262 0.0039879
vn -0.0872000 -0.0248000 -0.9959000
v -0.0900958 0.0033389 -0.0038405
vn 0.5222000 -0.8500000 -0.0697000
v -0.0925290 -0.0019142 0.0025733
vn 0.0762000 -0.7400000 0.6683000
v 0.0570258 -0.0043939 0.0035185
vn -0.0611000 -0.9153000 0.3982000
v -0.0501915 -0.0051618 0.0066570
vn 0.0976000 0.9282000 -0.3590000
v 0.0745890 0.0037153 0.0035055
vn -0.9077000 -0.1593000 -0.3881000
v -0.0421042 -0.0125941 0.0005840
vn -0.1269000 -0.9914000 0.0315000
v -0.0728119 -0.0046052 0.0035177
vn -0.1493000 0.9884000 0.0291000
v -0.0914688 0.0058865 0.0017439
vn 0.0197000 -0.7217000 -0.6919000
v -0.0541391 -0.0036298 -0.0034081
vn 0.0428000 -0.9722000 -0.2301000
v 0.0458985 -0.0057685 0.0027486
vn 0.3903000 -0.9203000 0.0264000
v -0.0465784 -0.0319473 0.0013723
vn 0.0832000 0.9744000 -0.2086000
v -0.0406125 0.0008510 0.0002434
vn 0.2651000 -0.7240000 -0.6369000
v -0.0927756 -0.0002471 -0.0017257
vn 0.0396000 0.7429000 -0.6683000
v 0.0221469 0.0062851 0.0033896
vn 0.6338000 -0.3380000 -0.6957000
v -0.0973631 -0.0048721 -0.0030324
vn -0.5654000 -0.8044000 -0.1826000
v -0.0907143 -0.0230273 -0.0012980
vn 0.1330000 0.5351000 0.8342000
v -0.0705602 -0.0284771 0.0059434
vn -0.1907000 -0.9461000 -0.2617000
v -0.0484281 -0.0049635 -0.0004403
vn -0.1195000 -0.2955000 0.9478000
v -0.0026319 -0.0037254 0.0092794
vn 0.0860000 0.8861000 -0.4554000
v -0.0639891 -0.0285456 -0.0049759
vn 0.3599000 0.9279000 0.0971000
v -0.0746046 -0.0251226 0.0007905
vn -0.5345000 0.1084000 -0.8382000
v -0.0384484 -0.0130249 -0.0026010
vn -0.0206000 -0.1897000 0.9816000
v -0.0577038 -0.0325574 0.0068334
vn -0.1786000 -0.7463000 0.6413000
v -0.0858687 -0.0010616 0.0074703
vn -0.2123000 -0.4364000 0.8743000
v -0.0407695 -0.0056861 0.0086634
vn -0.0019000 0.3831000 -0.9237000
v -0.0580330 -0.0302981 -0.0069712
vn -0.0038000 0.0410000 -0.9992000
v -0.0150722 0.0014959 0.0035520
vn -0.2375000 -0.9547000 0.1795000
v -0.0682878 -0.0335910 0.0033017
vn 0.4091000 0.6287000 -0.6614000
v -0.0170740 -0.0063576 0.0015689
vn -0.0570000 0.9934000 -0.0998000
v -0.0354149 0.0008541 0.0021809
vn 0.3561000 -0.1515000 -0.9221000
v -0.0294005 -0.0143796 -0.0026515
vn -0.2871000 -0.7414000 -0.6065000
v -0.0726674 -0.0308730 -0.0056888
vn 0.2330000 0.2914000 -0.9278000
v -0.0968020 -0.0129374 -0.0044372
vn 0.0494000 -0.5998000 0.7986000
v 0.0174276 -0.0063748 0.0042094
vn 0.0705000 0.9268000 0.3689000
v -0.0500803 0.0003475 0.0076069
vn -0.5879000 0.6019000 0.5405000
v -0.0436077 -0.0234774 0.0057020
vn 0.0388000 -0.1225000 0.9917000
v -0.0276177 -0.0090508 0.0083292
vn 0.1129000 0.7839000 -0.6106000
v -0.0334498 0.0005376 0.0008172
vn 0.0523000 -0.9238000 -0.3792000
v -0.0578920 -0.0337732 -0.0044013
vn 0.0898000 0.7073000 0.7012000
v -0.0642374 -0.0299193 0.0060293
vn 0.0088000 0.2546000 -0.9670000
v 0.0599671 0.0034245 0.0028121
vn 0.0878000 -0.9181000 0.3865000
v 0.0886938 -0.0026740 0.0023219
vn 0.9205000 -0.3707000 0.1236000
v -0.0951037 -0.0051629 0.0032203
vn 0.0996000 -0.4242000 0.9001000
v 0.0000930 -0.0085669 0.0073563
vn -0.5054000 -0.3166000 0.8027000
v -0.0997300 -0.0131539 0.0053158
vn 0.1745000 0.2284000 -0.9578000
v -0.0110709 -0.0103781 0.0025619
vn -0.3647000 -0.9080000 -0.2065000
v -0.0755978 -0.0308188 -0.0030748
vn 0.2286000 -0.1492000 0.9620000
v 0.0028012 -0.0013134 0.0093498
vn 0.0222000 0.5716000 -0.8202000
v 0.0375836 0.0052815 0.0032684
vn -0.0787000 -0.4817000 -0.8728000
v -0.0443365 -0.0039478 -0.0027159
vn 0.9070000 0.2459000 0.3418000
v -0.0958358 -0.0097878 0.0032676
vn -0.9065000 -0.4153000 0.0752000
v -0.1024163 -0.0128649 0.0013699
vn 0.5042000 -0.8590000 -0.0889000
v -0.0260567 -0.0152334 0.0023565
vn 0.0609000 0.7364000 0.6738000
v -0.0650988 0.0007696 0.0092280
vn -0.0873000 -0.4487000 0.8894000
v -0.0664328 -0.0319737 0.0067160
vn -0.0909000 0.7833000 0.6149000
v -0.0897619 0.0045755 0.0069492
vn 0.2399000 0.8988000 -0.3670000
v -0.0717559 -0.0269187 -0.0050320
vn 0.2648000 -0.9056000 -0.3312000
v -0.0127467 -0.0112960 0.0022567
vn 0.0561000 -0.2405000 0.9690000
v -0.0152069 -0.0094495 0.0076796
vn 0.1762000 -0.4747000 -0.8623000
v -0.0517262 -0.0308633 -0.0065355
vn 0.6436000 -0.7090000 -0.2882000
v -0.0386345 -0.0261312 -0.0013596
vn -0.0120000 -0.5884000 0.8085000
v -0.0585750 -0.0032611 0.0091918
vn 0.2813000 0.1605000 0.9461000
v -0.0977762 -0.0121928 0.0058472
vn 0.0248000 0.1714000 -0.9849000
v -0.0354050 -0.0096775 -0.0029838
vn 0.0446000 -0.3549000 0.9338000
v 0.0003102 -0.0065610 0.0077250
vn -0.1742000 -0.0293000 0.9843000
v -0.0075114 0.0019533 0.0085139
vn -0.0218000 0.0970000 -0.9950000
v -0.0886585 -0.0207927 -0.0057063
vn -0.0834000 0.9066000 -0.4138000
v -0.0586095 -0.0284875 -0.0044477
vn -0.1039000 0.0085000 0.9946000
v -0.0862867 0.0019214 0.0088662
vn -0.2048000 0.7387000 0.6421000
v -0.0232524 0.0018719 0.0078021
vn 0.0566000 0.8998000 0.4327000
v 0.0321096 0.0056921 0.0048452
vn 0.1030000 -0.0602000 -0.9929000
v 0.1016819 -0.0012184 0.0018510
vn -0.1351000 0.8996000 0.4153000
v -0.0315394 0.0004956 0.0067775
vn 0.1862000 -0.1946000 -0.9630000
v -0.0949314 0.0002619 -0.0033675
vn -0.2048000 -0.1714000 0.9637000
v -0.0368452 -0.0094650 0.0084140
vn 0.0842000 0.4807000 -0.8729000
v 0.0106481 0.0067865 0.0034228
vn -0.0412000 -0.8139000 0.5796000
v -0.0591989 -0.0045393 0.0080151
vn 0.4403000 -0.5758000 0.6889000
v -0.0949006 -0.0023638 0.0062487
vn 0.0305000 -0.7663000 -0.6418000
v 0.0808522 -0.0030132 0.0020803
vn 0.7323000 0.1738000 -0.6584000
v -0.0974255 -0.0086016 -0.0029120
vn 0.7466000 0.6347000 -0.1996000
v -0.0941808 -0.0126924 -0.0008786
vn -0.1155000 -0.5901000 -0.7990000
v -0.0672828 -0.0316318 -0.0068510
vn -0.3148000 -0.7570000 0.5725000
v -0.0758506 -0.0304808 0.0054644
vn 0.0036000 0.7943000 0.6076000
v -0.0379770 -0.0006835 0.0079063
vn -0.0134000 -0.8944000 0.4470000
v -0.0599700 -0.0341318 0.0046990
vn 0.6414000 -0.7449000 0.1838000
v -0.0309421 -0.0190228 0.0039623
vn 0.4178000 -0.7641000 0.4916000
v 0.0058764 -0.0081094 0.0042022
vn -0.5711000 0.8205000 -0.0272000
v -0.0973032 0.0033431 0.0016343
vn -0.0010000 0.6588000 -0.7523000
v 0.0536826 0.0045214 0.0030185
vn -0.0728000 -0.0368000 0.9967000
v -0.0809518 0.0010173 0.0092870
vn 0.1993000 -0.4336000 0.8788000
v -0.0272657 -0.0141449 0.0072815
vn 0.1437000 0.4322000 0.8902000
v 0.0875767 0.0019917 0.0029383
vn 0.1141000 -0.8785000 0.4638000
v -0.0101192 -0.0104657 0.0063219
vn -0.4124000 -0.9050000 0.1042000
v -0.0791325 -0.0296229 0.0036190
vn -0.4887000 -0.7698000 0.4106000
v -0.0868971 -0.0250497 0.0046208
vn -0.1490000 0.9658000 0.2122000
v -0.0583750 -0.0283516 0.0027177
vn 0.0792000 0.9555000 -0.2841000
v -0.0756004 0.0039923 -0.0019410
vn -0.6508000 -0.2421000 -0.7196000
v -0.1002532 -0.0114386 -0.0035680
vn -0.0792000 0.8125000 0.5775000
v -0.0033913 0.0094350 0.0075859
vn 0.0298000 -0.4616000 -0.8866000
v 0.0533913 -0.0046922 0.0024761
vn 0.3782000 -0.2794000 -0.8826000
v -0.0421570 -0.0264897 -0.0056353
vn -0.0553000 -0.0200000 0.9983000
v -0.0799335 -0.0268424 0.0063608
vn 0.5863000 -0.8097000 -0.0259000
v -0.0408702 -0.0288544 0.0014204
vn 0.0945000 0.8505000 -0.5175000
v -0.0281816 0.0019750 0.0032847
vn -0.0425000 -0.9905000 0.1307000
v -0.0620739 -0.0055451 0.0049093
vn 0.0932000 0.9920000 -0.0854000
v -0.0613626 0.0024036 -0.0022314
vn 0.0416000 0.9980000 -0.0469000
v -0.0616143 -0.0282027 -0.0012212
vn 0.0046000 -0.0037000 1.0000000
v -0.0622440 -0.0009749 0.0099785
vn -0.9261000 0.1516000 -0.3454000
v -0.1028042 -0.0056563 -0.0005362
vn 0.0913000 0.0820000 -0.9924000
v 0.0085912 0.0013893 0.0028224
vn 0.3178000 -0.9478000 -0.0276000
v -0.0203223 -0.0131730 0.0034893
vn 0.2448000 -0.8139000 0.5268000
v -0.0515143 -0.0324716 0.0058278
vn 0.0510000 -0.3408000 0.9387000
v 0.0723263 -0.0022113 0.0033196
vn 0.1836000 0.9462000 -0.2663000
v 0.0068826 0.0073698 0.0044473
vn -0.0786000 0.2247000 0.9712000
v -0.0150381 0.0028600 0.0085435
vn 0.0210000 0.1081000 -0.9939000
v 0.0927983 -0.0009636 0.0016782
vn -0.0452000 -0.9637000 -0.2631000
v -0.0608139 -0.0051668 0.0001239
vn -0.0111000 0.0964000 -0.9953000
v -0.0115290 0.0003669 0.0033508
vn 0.0436000 0.4482000 -0.8929000
v -0.0007240 0.0104419 0.0042460
vn 0.1798000 0.3417000 -0.9224000
v -0.0428569 -0.0009553 -0.0027972
vn -0.0958000 0.6176000 -0.7806000
v -0.0035936 0.0101594 0.0039250
vn 0.2835000 -0.8979000 -0.3369000
v -0.0504828 -0.0323836 -0.0038166
vn 0.0641000 0.5097000 0.8580000
v -0.0484361 -0.0007016 0.0090922
vn -0.1593000 0.0788000 -0.9841000
v -0.0996799 -0.0035872 -0.0036485
vn 0.6427000 0.6487000 0.4076000
v -0.0932200 -0.0146098 0.0038868
vn -0.4918000 0.7421000 0.4554000
v -0.0963157 0.0030016 0.0057982
vn -0.2899000 -0.3087000 0.9059000
v -0.0950686 -0.0175027 0.0056923
vn 0.4754000 0.8744000 0.0973000
v 0.0038806 0.0094108 0.0038857
vn 0.0139000 0.1421000 0.9898000
v -0.0400093 -0.0025588 0.0091653
vn -0.7927000 -0.1937000 0.5781000
v -0.0403883 -0.0123313 0.0056476
vn 0.2405000 0.9026000 0.3570000
v -0.0693142 -0.0275544 0.0038503
vn 0.4279000 -0.7223000 -0.5433000
v -0.0457299 -0.0295910 -0.0050518
vn -0.4787000 -0.8662000 -0.1432000
v -0.0837718 -0.0271348 -0.0020622
vn 0.1080000 0.9343000 0.3398000
v -0.0728969 0.0026077 0.0074035
vn -0.4268000 0.0724000 0.9015000
v -0.0378593 -0.0174133 0.0071156
vn -0.5356000 -0.5617000 0.6306000
v -0.0422879 -0.0085685 0.0060004
vn -0.7305000 -0.6459000 -0.2217000
v -0.0433883 -0.0094567 0.0012151
vn -0.1023000 -0.5114000 0.8532000
v -0.0765723 -0.0019380 0.0087059
vn -0.3862000 -0.8185000 0.4253000
v -0.0459449 -0.0065001 0.0059291
vn 0.2112000 0.1163000 -0.9705000
v -0.0212975 -0.0100075 -0.0004383
vn -0.5584000 0.4779000 -0.6781000
v -0.0986888 0.0009156 -0.0028958
vn -0.0058000 0.3603000 0.9328000
v -0.0337447 -0.0012558 0.0087324
vn -0.2536000 -0.0810000 -0.9639000
v -0.0392891 -0.0077269 -0.0025829
vn 0.1723000 0.6784000 -0.7142000
v -0.0279516 0.0012077 0.0019251
vn -0.7645000 0.2177000 0.6067000
v -0.0404075 -0.0180569 0.0051390
vn 0.0639000 0.3893000 -0.9189000
v -0.0646076 -0.0301722 -0.0069079
vn 0.0544000 -0.7355000 -0.6754000
v -0.0076401 -0.0108583 0.0024069
vn -0.0364000 -0.0354000 0.9987000
v -0.0451253 -0.0272932 0.0070347
vn -0.0384000 0.0608000 0.9974000
v -0.0016579 0.0015860 0.0102406
vn -0.6252000 -0.7176000 0.3070000
v -0.0949240 -0.0195418 0.0034910
vn 0.1036000 0.9915000 -0.0793000
v -0.0837332 0.0050206 -0.0010719
vn -0.1347000 -0.8949000 0.4255000
v -0.0761887 -0.0031692 0.0073397
vn 0.0486000 -0.8045000 0.5919000
v 0.0373065 -0.0054582 0.0039096
vn -0.1330000 -0.5838000 -0.8009000
v -0.0763297 -0.0016514 -0.0039558
vn 0.0701000 0.8224000 0.5646000
v 0.0120344 0.0068557 0.0050676
vn -0.0105000 -0.1548000 0.9879000
v -0.0353611 -0.0141816 0.0080082
vn 0.0600000 0.2499000 -0.9664000
v -0.0765614 -0.0270455 -0.0067212
vn -0.9374000 0.3479000 0.0151000
v -0.0421771 -0.0173225 0.0012185
vn 0.3564000 0.5269000 -0.7716000
v -0.0180569 -0.0051101 0.0030156
vn -0.2739000 0.9114000 -0.3072000
v -0.0222677 0.0036803 0.0033101
vn 0.3113000 0.7393000 0.5971000
v -0.0778125 -0.0254371 0.0053836
vn 0.0211000 0.1920000 -0.9812000
v -0.0466528 -0.0268871 -0.0064926
vn 0.3211000 0.4715000 0.8214000
v -0.0895105 -0.0194434 0.0055988
vn 0.1265000 0.0199000 -0.9918000
v 0.0067658 -0.0061395 0.0025235
vn -0.0022000 0.9822000 0.1876000
v -0.0383933 0.0004762 0.0045342
vn -0.6877000 -0.6774000 -0.2611000
v -0.0984110 -0.0171444 -0.0005988
vn -0.1481000 0.2351000 -0.9606000
v -0.0356177 -0.0169525 -0.0044070
vn 0.2869000 -0.4131000 0.8643000
v -0.0372567 -0.0228005 0.0066897
vn -0.0715000 0.2819000 0.9568000
v -0.0031462 0.0076785 0.0084695
vn 0.0195000 0.9093000 -0.4156000
v 0.0599838 0.0048907 0.0032702
vn 0.6097000 -0.6596000 -0.4396000
v -0.0302616 -0.0173225 -0.0016249
vn -0.0608000 -0.6977000 -0.7138000
v -0.0661955 -0.0029971 -0.0040409
vn -0.0514000 0.3239000 0.9447000
v -0.0293149 -0.0010935 0.0087412
vn 0.0038000 0.2940000 0.9558000
v -0.0732986 0.0004989 0.0097166
vn 0.2486000 -0.6617000 -0.7074000
v -0.0191031 -0.0119036 0.0000601
vn -0.0050000 -0.0346000 0.9994000
v -0.0627204 -0.0318279 0.0068033
vn -0.3836000 0.9225000 0.0443000
v -0.0522807 -0.0264638 0.0001428
vn -0.2697000 0.6819000 0.6799000
v -0.0505099 -0.0273978 0.0055843
# 250 vertices, 0 vertices normals


usemtl material_0
vt 0.0000000 0.0000000
f 236/1/236 182/1/182 148/1/148
f 45/1/45 191/1/191 182/1/182
f 182/1/182 200/1/200 186/1/186
f 72/1/72 193/1/193 190/1/190
f 219/1/219 12/1/12 45/1/45
f 191/1/191 171/1/171 200/1/200
f 58/1/58 12/1/12 118/1/118
f 182/1/182 41/1/41 45/1/45
f 12/1/12 58/1/58 191/1/191
f 193/1/193 58/1/58 190/1/190
f 58/1/58 193/1/193 191/1/191
f 99/1/99 190/1/190 58/1/58
f 191/1/191 200/1/200 182/1/182
f 190/1/190 26/1/26 72/1/72
f 99/1/99 26/1/26 190/1/190
f 12/1/12 191/1/191 45/1/45
f 41/1/41 182/1/182 236/1/236
vt 0.1381080 0.9929470
vt 0.1353080 0.9933160
vt 0.1372130 0.9866560
f 159/2/159 39/3/39 71/4/71
vt 0.1426820 0.9783010
vt 0.1455100 0.9828770
f 4/5/4 159/6/159 71/4/71
vt 0.1581330 0.9795230
vt 0.1496090 0.9818290
vt 0.1499740 0.9754550
f 41/7/41 159/8/159 4/9/4
vt 0.1377050 0.9611340
vt 0.1429340 0.9635850
vt 0.1409940 0.9700830
f 116/10/116 4/11/4 71/12/71
vt 0.1734150 0.9500360
vt 0.1728340 0.9598540
vt 0.1641030 0.9539640
f 45/13/45 41/14/41 4/15/4
vt 0.1318090 0.9592900
vt 0.1338710 0.9679150
f 137/16/137 116/10/116 71/17/71
vt 0.1031260 0.9720450
vt 0.1024010 0.9781630
vt 0.0968080 0.9769160
f 120/18/120 137/19/137 71/20/71
vt 0.1754150 0.9419780
vt 0.1708000 0.9390940
vt 0.1748790 0.9346650
f 45/21/45 4/22/4 219/23/219
vt 0.0748010 0.9567390
vt 0.0743960 0.9649330
vt 0.0692310 0.9609890
f 221/24/221 2/25/2 241/26/241
vt 0.1095790 0.9469990
vt 0.1118170 0.9515060
vt 0.1007230 0.9521680
f 91/27/91 120/28/120 221/29/221
vt 0.1216220 0.9529190
vt 0.1163130 0.9457440
f 137/30/137 120/28/120 91/31/91
vt 0.1208070 0.9307280
vt 0.1239120 0.9237050
vt 0.1267620 0.9307880
f 91/32/91 17/33/17 137/34/137
vt 0.1317210 0.9276260
f 17/33/17 116/35/116 137/34/137
vt 0.1251750 0.9075350
vt 0.1289760 0.9128920
vt 0.1202640 0.9171900
f 131/36/131 116/37/116 17/38/17
vt 0.1072940 0.9299690
vt 0.0961540 0.9325940
vt 0.1022720 0.9271710
f 91/39/91 138/40/138 17/41/17
vt 0.0815740 0.9568910
vt 0.0899340 0.9646350
vt 0.0834660 0.9630800
f 221/42/221 120/43/120 2/44/2
vt 0.0864940 0.9715110
vt 0.0958590 0.9680190
vt 0.0900280 0.9774140
f 2/45/2 120/46/120 71/47/71
vt 0.0773990 0.9711530
vt 0.0839430 0.9763910
vt 0.0765010 0.9780040
f 2/48/2 71/49/71 22/50/22
vt 0.2077990 0.8062990
vt 0.2006430 0.8097890
vt 0.2051570 0.8011570
f 212/51/212 60/52/60 103/53/103
vt 0.2059910 0.8136950
vt 0.2006900 0.8190150
f 60/52/60 212/54/212 247/55/247
vt 0.0531190 0.8954910
vt 0.0605060 0.8968920
vt 0.0568060 0.9009450
f 1/56/1 187/57/187 171/58/171
vt 0.0712830 0.9383740
vt 0.0771780 0.9364620
vt 0.0775490 0.9469460
f 241/59/241 138/60/138 221/61/221
vt 0.1032800 0.9363140
vt 0.0957560 0.9389450
f 138/40/138 91/62/91 221/63/221
vt 0.1410660 0.8908820
vt 0.1449060 0.8948680
vt 0.1395180 0.8993820
f 131/64/131 165/65/165 116/66/116
vt 0.0842330 0.9056720
vt 0.0745270 0.9034220
vt 0.0818310 0.8979930
f 138/67/138 187/68/187 17/69/17
vt 0.0577240 0.9143860
vt 0.0543320 0.9070890
vt 0.0634450 0.9049320
f 241/70/241 171/71/171 187/72/187
vt 0.0699230 0.9208380
vt 0.0625730 0.9167910
vt 0.0661040 0.9112150
f 138/73/138 241/74/241 187/75/187
vt 0.1642320 0.8739200
vt 0.1587400 0.8794160
vt 0.1531880 0.8760360
f 130/76/130 165/77/165 52/78/52
vt 0.1421120 0.8525160
vt 0.1501700 0.8594590
vt 0.1477340 0.8644400
f 131/79/131 52/80/52 165/81/165
vt 0.0967150 0.8820080
vt 0.0879900 0.8783410
vt 0.0942040 0.8736590
f 17/82/17 187/83/187 131/84/131
vt 0.1614290 0.9159300
vt 0.1586080 0.9210310
vt 0.1537310 0.9125900
f 219/85/219 4/86/4 165/87/165
vt 0.1478010 0.9177400
vt 0.1418520 0.9173640
vt 0.1450680 0.9087180
f 4/88/4 116/89/116 165/90/165
vt 0.1707850 0.8863630
vt 0.1697730 0.8922830
vt 0.1601290 0.8878980
f 130/91/130 219/92/219 165/93/165
vt 0.0699210 0.8517740
vt 0.0684140 0.8445740
vt 0.0756370 0.8464260
f 187/94/187 142/95/142 245/96/245
vt 0.0644820 0.8547750
f 187/94/187 1/97/1 142/95/142
vt 0.0921280 0.8525830
vt 0.0847810 0.8571330
vt 0.0875040 0.8461960
f 131/98/131 187/99/187 245/100/245
vt 0.1625100 0.8544780
vt 0.1563170 0.8561790
vt 0.1610850 0.8469780
f 130/101/130 52/102/52 183/103/183
vt 0.1830720 0.8500820
vt 0.1778390 0.8532470
vt 0.1763380 0.8441510
f 247/104/247 130/105/130 183/106/183
vt 0.0877760 0.4590940
vt 0.0889080 0.4624780
vt 0.0860660 0.4626810
f 68/107/68 115/108/115 150/109/150
vt 0.1040160 0.4411560
vt 0.1064660 0.4469620
vt 0.1006170 0.4467940
f 117/110/117 135/111/135 68/112/68
vt 0.1236430 0.4583400
vt 0.1275170 0.4547830
vt 0.1275920 0.4601800
f 135/113/135 199/114/199 235/115/235
vt 0.1146010 0.4481820
vt 0.1173750 0.4440240
vt 0.1203810 0.4463330
f 135/116/135 117/117/117 199/118/199
vt 0.1466270 0.4628380
vt 0.1471070 0.4662290
vt 0.1438160 0.4627420
f 222/119/222 167/120/167 199/121/199
vt 0.0765350 0.4543330
vt 0.0792740 0.4513560
vt 0.0782110 0.4557750
f 150/122/150 53/123/53 68/124/68
vt 0.0835500 0.4452810
vt 0.0888180 0.4444730
vt 0.0870930 0.4483800
f 35/125/35 117/126/117 68/127/68
f 35/125/35 68/127/68 53/123/53
vt 0.0409380 0.4799800
vt 0.0452700 0.4809870
vt 0.0387480 0.4874240
f 198/128/198 34/129/34 128/130/128
vt 0.0503750 0.5142650
vt 0.0421510 0.5109520
vt 0.0450610 0.5071420
f 141/131/141 128/132/128 34/133/34
vt 0.0472910 0.5190900
f 14/134/14 128/132/128 141/131/141
vt 0.0557120 0.5255770
vt 0.0569090 0.5280520
vt 0.0512640 0.5312920
f 141/135/141 162/136/162 14/137/14
vt 0.0386630 0.5386050
vt 0.0438080 0.5336350
vt 0.0458380 0.5389830
f 206/138/206 128/139/128 14/140/14
vt 0.0269890 0.5121770
vt 0.0358500 0.5118840
vt 0.0305560 0.5163720
f 80/141/80 128/142/128 206/143/206
vt 0.0506320 0.4607170
vt 0.0550920 0.4612570
vt 0.0527710 0.4660520
f 198/144/198 53/145/53 34/146/34
vt 0.0136480 0.5486950
vt 0.0211260 0.5455330
vt 0.0195090 0.5516280
f 169/147/169 223/148/223 206/149/206
vt 0.0592930 0.5605710
vt 0.0541600 0.5526670
vt 0.0594540 0.5546220
f 246/150/246 14/151/14 162/152/162
vt 0.0597810 0.5878210
vt 0.0568420 0.5831690
vt 0.0622220 0.5852300
f 126/153/126 246/154/246 180/155/180
vt 0.0484860 0.5826300
vt 0.0519320 0.5880660
f 206/156/206 246/154/246 126/157/126
vt 0.0511570 0.5723950
vt 0.0569970 0.5780960
f 14/158/14 246/159/246 206/156/206
vt 0.0203520 0.6057120
vt 0.0275420 0.6099370
vt 0.0218090 0.6128660
f 178/160/178 206/161/206 46/162/46
vt 0.0476540 0.6057220
vt 0.0540330 0.6065010
vt 0.0492300 0.6121450
f 206/163/206 126/164/126 46/165/46
vt 0.0207670 0.5154940
f 80/141/80 206/143/206 223/166/223
vt 0.1584330 0.5002950
vt 0.1574970 0.4967010
vt 0.1619380 0.4971960
f 174/167/174 199/168/199 167/169/167
vt 0.1662880 0.5024190
vt 0.1704690 0.5017650
vt 0.1670400 0.5076930
f 167/170/167 155/171/155 174/172/174
vt 0.2294930 0.5992380
vt 0.2224660 0.5993770
vt 0.2296560 0.5961510
f 111/173/111 16/174/16 66/175/66
vt 0.1760600 0.5118700
vt 0.1803590 0.5076610
vt 0.1815970 0.5113440
f 155/176/155 167/177/167 166/178/166
vt 0.2429740 0.6501240
vt 0.2368140 0.6461500
vt 0.2423740 0.6465450
f 132/179/132 194/180/194 111/181/111
vt 0.1777680 0.5526530
vt 0.1817750 0.5512300
vt 0.1784970 0.5577650
f 174/182/174 155/183/155 127/184/127
vt 0.1991760 0.5683450
vt 0.1932060 0.5701270
vt 0.1940190 0.5621020
f 100/185/100 155/186/155 166/187/166
vt 0.2283230 0.6061120
vt 0.2227710 0.6095240
vt 0.2236870 0.6033100
f 111/188/111 9/189/9 16/190/16
vt 0.2420540 0.6677590
vt 0.2410440 0.6696830
vt 0.2364110 0.6651270
f 132/191/132 204/192/204 194/193/194
vt 0.1818280 0.5836390
vt 0.1783650 0.5786470
vt 0.1812620 0.5769640
f 248/194/248 89/195/89 127/196/127
vt 0.1959910 0.5826780
vt 0.1896020 0.5859040
vt 0.1920260 0.5793510
f 100/197/100 127/198/127 155/199/155
vt 0.2033410 0.5972940
vt 0.2010690 0.6018220
vt 0.1943710 0.5989490
f 100/200/100 16/201/16 157/202/157
vt 0.1955000 0.5944760
vt 0.1899180 0.5945780
f 100/203/100 157/202/157 127/204/127
vt 0.1865680 0.5987550
f 248/205/248 127/204/127 157/202/157
vt 0.1901430 0.6050000
f 157/202/157 95/206/95 248/205/248
vt 0.2255490 0.7514180
vt 0.2193300 0.7534510
vt 0.2214950 0.7449900
f 103/207/103 243/208/243 173/209/173
vt 0.1994750 0.8015380
vt 0.2058120 0.7946230
f 103/53/103 60/210/60 243/211/243
vt 0.1886730 0.8172450
vt 0.1787500 0.8160790
vt 0.1833660 0.8092470
f 60/212/60 183/213/183 125/214/125
vt 0.1857710 0.8291200
vt 0.1796980 0.8221180
f 247/215/247 183/216/183 60/212/60
vt 0.2189110 0.6720450
vt 0.2235130 0.6699180
vt 0.2234130 0.6777730
f 83/217/83 194/218/194 204/219/204
vt 0.2290890 0.6879590
vt 0.2253820 0.6962320
vt 0.2217540 0.6908010
f 204/220/204 133/221/133 175/222/175
vt 0.2297410 0.7003460
vt 0.2306930 0.6941180
f 173/223/173 133/221/133 204/224/204
vt 0.2065660 0.7411160
vt 0.2008450 0.7427700
vt 0.2029800 0.7358510
f 243/225/243 158/226/158 133/227/133
vt 0.0661590 0.7950660
vt 0.0677800 0.7873940
vt 0.0736760 0.7906850
f 145/228/145 214/229/214 245/230/245
vt 0.0955730 0.7808590
vt 0.0969840 0.7919540
vt 0.0914880 0.7874280
f 109/231/109 131/232/131 245/233/245
vt 0.0685680 0.7711740
vt 0.0629620 0.7728910
vt 0.0656280 0.7631550
f 214/234/214 145/235/145 156/236/156
vt 0.0578320 0.7659360
vt 0.0561680 0.7622070
f 156/236/156 145/237/145 237/238/237
vt 0.0746360 0.7643840
vt 0.0698430 0.7598830
vt 0.0763940 0.7549620
f 214/239/214 156/240/156 201/241/201
vt 0.0910340 0.7725010
vt 0.0830910 0.7692040
vt 0.0914850 0.7652370
f 245/242/245 214/243/214 109/244/109
vt 0.1294910 0.7666300
vt 0.1378230 0.7736370
vt 0.1303090 0.7770710
f 228/245/228 163/246/163 109/247/109
vt 0.1182840 0.7623880
vt 0.1121310 0.7629100
vt 0.1104020 0.7561820
f 228/248/228 109/249/109 147/250/147
vt 0.1366760 0.7636290
vt 0.1446580 0.7696500
f 228/251/228 54/252/54 163/246/163
vt 0.1155370 0.7394420
vt 0.1163120 0.7335310
vt 0.1207160 0.7344480
f 147/253/147 208/254/208 202/255/202
vt 0.1653050 0.7079000
vt 0.1586580 0.7081600
vt 0.1655280 0.7032950
f 207/256/207 217/257/217 108/258/108
vt 0.1715920 0.7027560
f 108/258/108 220/259/220 207/256/207
vt 0.1760460 0.7103880
f 240/260/240 207/256/207 220/259/220
vt 0.1765620 0.6482780
vt 0.1807040 0.6530330
vt 0.1779670 0.6516650
f 55/261/55 95/262/95 250/263/250
vt 0.1775050 0.6712750
vt 0.1715230 0.6692120
vt 0.1740000 0.6665190
f 220/264/220 108/265/108 250/266/250
vt 0.1793020 0.6611850
vt 0.1857220 0.6602980
vt 0.1858920 0.6670740
f 220/267/220 95/268/95 184/269/184
vt 0.1771070 0.6554200
f 220/267/220 250/270/250 95/262/95
vt 0.2220820 0.6407810
vt 0.2190100 0.6476830
vt 0.2161230 0.6412960
f 194/271/194 83/272/83 9/273/9
vt 0.2260420 0.6361350
vt 0.2209910 0.6356340
f 111/274/111 194/271/194 9/275/9
vt 0.0196520 0.6303090
vt 0.0192860 0.6405420
vt 0.0150120 0.6358620
f 46/276/46 40/277/40 178/278/178
vt 0.0444230 0.6410600
vt 0.0516090 0.6397080
vt 0.0493630 0.6469050
f 46/279/46 126/280/126 107/281/107
vt 0.0339710 0.6555070
vt 0.0371460 0.6465900
vt 0.0412430 0.6505230
f 40/282/40 46/283/46 107/284/107
vt 0.0594800 0.6832850
vt 0.0531610 0.6802200
vt 0.0589560 0.6751990
f 195/285/195 107/286/107 126/287/126
vt 0.0670610 0.6734150
vt 0.0651740 0.6791780
f 126/287/126 180/288/180 195/289/195
vt 0.1506140 0.7337230
vt 0.1574080 0.7322300
vt 0.1553000 0.7380110
f 207/290/207 240/291/240 228/292/228
vt 0.1222210 0.7403940
vt 0.1272280 0.7325810
vt 0.1309990 0.7373650
f 147/293/147 202/294/202 207/295/207
vt 0.1878540 0.6830310
vt 0.1805670 0.6865080
vt 0.1844880 0.6793920
f 67/296/67 220/297/220 184/298/184
vt 0.1854670 0.7230540
vt 0.1816920 0.7178890
vt 0.1857580 0.7144660
f 158/299/158 240/300/240 67/301/67
vt 0.1787910 0.6931380
vt 0.1860050 0.6940210
vt 0.1837150 0.7002550
f 220/302/220 67/303/67 240/304/240
vt 0.2007330 0.7189330
vt 0.1911090 0.7234840
vt 0.1945330 0.7176720
f 175/305/175 158/306/158 67/307/67
vt 0.2055390 0.7234560
vt 0.1973500 0.7279900
f 175/305/175 133/308/133 158/309/158
vt 0.2225580 0.7370100
vt 0.2128590 0.7389340
vt 0.2158060 0.7340540
f 173/310/173 243/311/243 133/312/133
vt 0.2012640 0.6726300
vt 0.1949690 0.6734910
vt 0.1939450 0.6678240
f 83/313/83 67/314/67 184/315/184
vt 0.1725460 0.7519250
vt 0.1637880 0.7568640
vt 0.1678850 0.7444210
f 158/316/158 54/317/54 240/318/240
vt 0.1523610 0.7461700
vt 0.1595780 0.7456660
vt 0.1541780 0.7538350
f 228/319/228 240/320/240 54/321/54
vt 0.1906010 0.7888920
vt 0.1839610 0.7900470
vt 0.1850830 0.7786790
f 243/322/243 125/323/125 158/324/158
vt 0.1927770 0.8080390
vt 0.1869590 0.8036680
vt 0.1912480 0.7977710
f 60/325/60 125/326/125 243/327/243
vt 0.1728910 0.8124100
vt 0.1683550 0.8220180
vt 0.1623680 0.8194630
f 125/328/125 183/329/183 33/330/33
vt 0.1352230 0.7438280
vt 0.1266230 0.7434010
f 207/295/207 228/331/228 147/332/147
vt 0.1670410 0.7665450
vt 0.1712550 0.7675540
vt 0.1674480 0.7768700
f 54/333/54 158/334/158 33/335/33
vt 0.1563580 0.7776070
vt 0.1615450 0.7710180
f 33/335/33 163/336/163 54/337/54
vt 0.1748180 0.7840360
f 125/323/125 33/338/33 158/324/158
vt 0.1599100 0.8292100
vt 0.1483080 0.8286650
vt 0.1558090 0.8234960
f 183/339/183 52/340/52 33/341/33
vt 0.1446490 0.8058110
vt 0.1500360 0.8076970
vt 0.1427050 0.8181850
f 163/342/163 33/343/33 52/344/52
vt 0.1321370 0.8157350
vt 0.1390850 0.8124810
vt 0.1359340 0.8210290
f 109/345/109 52/346/52 131/347/131
vt 0.1307740 0.8060420
vt 0.1385070 0.8048320
f 52/346/52 109/348/109 163/349/163
vt 0.0951710 0.7480930
vt 0.0867340 0.7456940
vt 0.0919210 0.7406250
f 147/350/147 201/351/201 97/352/97
vt 0.0833680 0.7618480
vt 0.0915110 0.7546970
f 109/244/109 214/353/214 147/354/147
vt 0.0843130 0.7539470
f 201/355/201 147/354/147 214/353/214
vt 0.0668210 0.6978990
vt 0.0691440 0.6913480
vt 0.0701800 0.6972760
f 195/356/195 69/357/69 201/358/201
vt 0.0572330 0.7127330
vt 0.0584930 0.7222240
vt 0.0512370 0.7162240
f 195/359/195 156/360/156 107/361/107
vt 0.0527330 0.7255200
vt 0.0588860 0.7329460
vt 0.0520670 0.7334310
f 107/362/107 156/363/156 237/364/237
vt 0.0644070 0.7247970
vt 0.0669650 0.7344290
f 156/363/156 195/365/195 201/366/201
vt 0.2033680 0.6824830
vt 0.2101420 0.6849460
vt 0.2010140 0.6868800
f 83/367/83 175/368/175 67/369/67
vt 0.2115330 0.6789270
vt 0.2178070 0.6794580
f 83/370/83 204/371/204 175/368/175
vt 0.1992850 0.6489740
vt 0.2081960 0.6460380
vt 0.2077980 0.6516520
f 184/372/184 9/373/9 83/374/83
vt 0.1978720 0.6331280
vt 0.2016860 0.6293060
vt 0.2033460 0.6373430
f 184/375/184 157/376/157 9/377/9
vt 0.1946790 0.6285330
f 95/378/95 157/376/157 184/375/184
vt 0.2126440 0.6084290
vt 0.2085300 0.6138260
vt 0.2045700 0.6112560
f 16/379/16 9/380/9 157/381/157
vt 0.0697610 0.6792810
f 180/288/180 69/382/69 195/289/195
vt 0.0628150 0.8117490
vt 0.0674800 0.8043030
vt 0.0695040 0.8115450
f 232/383/232 145/384/145 142/385/142
vt 0.0745870 0.8090280
f 142/385/142 145/384/145 245/386/245
vt 0.5562100 0.4694420
vt 0.5517040 0.4581610
vt 0.5614070 0.4591800
f 185/387/185 114/388/114 164/389/164
vt 0.5493470 0.4792880
vt 0.5479860 0.4767080
vt 0.5493490 0.4743790
f 6/390/6 151/391/151 185/392/185
vt 0.5743960 0.4722500
vt 0.5841140 0.4744070
vt 0.5743410 0.4792430
f 164/393/164 77/394/77 185/395/185
vt 0.5764440 0.5397300
vt 0.5812680 0.5466180
vt 0.5700460 0.5483750
f 77/396/77 42/397/42 185/398/185
vt 0.5426020 0.5339090
vt 0.5410250 0.5310310
vt 0.5436370 0.5243720
f 75/399/75 25/400/25 185/401/185
vt 0.5710310 0.5810980
vt 0.5662660 0.5724040
vt 0.5757660 0.5709050
f 5/402/5 185/403/185 42/404/42
vt 0.5510360 0.5750470
vt 0.5577950 0.5734900
vt 0.5548520 0.5848580
f 75/405/75 185/406/185 5/407/5
vt 0.5908710 0.6280570
vt 0.5870430 0.6339630
vt 0.5869010 0.6241410
f 161/408/161 143/409/143 42/410/42
vt 0.5785230 0.6277010
vt 0.5711420 0.6241540
vt 0.5745200 0.6146050
f 143/411/143 5/412/5 42/413/42
vt 0.5274070 0.6035450
vt 0.5296680 0.5978950
vt 0.5281850 0.6054190
f 172/414/172 25/415/25 75/416/75
vt 0.5765940 0.8241700
vt 0.5753180 0.8290810
vt 0.5742110 0.8220560
f 86/417/86 227/418/227 3/419/3
vt 0.5643810 0.8538950
vt 0.5644560 0.8456520
vt 0.5715780 0.8530100
f 39/420/39 3/421/3 227/422/227
vt 0.5679240 0.8701540
vt 0.5623030 0.8804570
vt 0.5585980 0.8736650
f 227/423/227 47/424/47 39/425/39
vt 0.5402470 0.8075110
vt 0.5322350 0.8043210
vt 0.5398270 0.7997930
f 3/426/3 106/427/106 15/428/15
vt 0.5238630 0.8692900
vt 0.5297210 0.8721780
vt 0.5205050 0.8769100
f 39/429/39 22/430/22 71/431/71
vt 0.5060720 0.8512060
vt 0.5136560 0.8517320
vt 0.5071740 0.8601010
f 159/432/159 106/433/106 39/434/39
vt 0.5232710 0.8488480
vt 0.5304400 0.8541240
vt 0.5215770 0.8611800
f 106/435/106 3/436/3 39/437/39
vt 0.5478750 0.8830450
vt 0.5518070 0.8742400
f 47/424/47 22/438/22 39/439/39
vt 0.5774250 0.8785040
vt 0.5696680 0.8860710
f 227/423/227 186/440/186 47/441/47
vt 0.5927530 0.9065410
vt 0.5969780 0.9121280
vt 0.5880000 0.9110210
f 186/442/186 200/443/200 47/444/47
vt 0.5881040 0.9189240
f 200/443/200 2/445/2 47/444/47
vt 0.5707370 0.8996510
vt 0.5639820 0.9020390
vt 0.5592570 0.8936070
f 47/446/47 2/447/2 22/448/22
vt 0.5855030 0.9421940
vt 0.5864480 0.9526320
vt 0.5796400 0.9445540
f 191/449/191 193/450/193 171/451/171
vt 0.5945010 0.9304940
vt 0.5816420 0.9336410
vt 0.5830230 0.9277310
f 200/452/200 171/453/171 2/454/2
vt 0.5423030 0.5181020
vt 0.5432110 0.5123020
vt 0.5464110 0.5190960
f 25/455/25 6/456/6 185/457/185
vt 0.5248030 0.6574840
vt 0.5215820 0.6528550
vt 0.5254400 0.6459270
f 225/458/225 82/459/82 75/460/75
vt 0.5334520 0.6333780
vt 0.5398140 0.6412900
vt 0.5313510 0.6402770
f 75/461/75 5/462/5 225/463/225
vt 0.5651770 0.7397170
vt 0.5570970 0.7339580
vt 0.5624060 0.7309790
f 3/464/3 5/465/5 143/466/143
vt 0.5234490 0.7150100
vt 0.5330490 0.7187120
vt 0.5248860 0.7234520
f 225/467/225 5/468/5 15/469/15
vt 0.5397050 0.7335390
vt 0.5405680 0.7275070
vt 0.5457470 0.7347770
f 15/470/15 5/471/5 3/472/3
vt 0.5053480 0.7568550
vt 0.5110990 0.7567620
vt 0.5075690 0.7633710
f 44/473/44 15/474/15 106/475/106
vt 0.5029050 0.7726660
vt 0.5070230 0.7739740
vt 0.5031560 0.7763320
f 44/476/44 106/477/106 11/478/11
vt 0.4960940 0.8221520
vt 0.5019310 0.8170740
vt 0.4995590 0.8246570
f 11/479/11 106/480/106 159/481/159
vt 0.5180870 0.7199550
vt 0.5137410 0.7206770
vt 0.5157320 0.7155750
f 15/482/15 44/483/44 225/484/225
vt 0.5679540 0.9369220
vt 0.5610990 0.9354860
vt 0.5634850 0.9309350
f 171/485/171 241/486/241 2/487/2
vt 0.6617730 0.3724880
vt 0.6612990 0.3765980
vt 0.6560070 0.3757570
f 118/488/118 99/489/99 58/490/58
vt 0.6712920 0.3733290
vt 0.6684880 0.3798100
f 99/489/99 118/491/118 231/492/231
vt 0.6139100 0.4289280
vt 0.6208630 0.4217980
vt 0.6252210 0.4279370
f 1/493/1 26/494/26 232/495/232
vt 0.6287230 0.4323750
vt 0.6283710 0.4237070
vt 0.6357940 0.4262300
f 232/496/232 26/497/26 99/498/99
vt 0.6393130 0.4512480
vt 0.6452950 0.4406380
vt 0.6481450 0.4493870
f 232/499/232 99/500/99 176/501/176
vt 0.6924340 0.3793250
vt 0.6967260 0.3800310
vt 0.6914110 0.3870380
f 231/502/231 118/503/118 101/504/101
vt 0.6995530 0.3844400
f 118/503/118 59/505/59 101/504/101
vt 0.6601960 0.4442720
vt 0.6574170 0.4518830
vt 0.6519240 0.4415020
f 231/506/231 176/507/176 99/508/99
vt 0.6433310 0.4795810
vt 0.6339390 0.4816500
vt 0.6326050 0.4743710
f 176/509/176 145/510/145 232/511/232
vt 0.6617490 0.4602340
vt 0.6641710 0.4491050
f 216/512/216 176/507/176 101/513/101
f 101/513/101 176/507/176 231/506/231
vt 0.6776870 0.4649870
vt 0.6784280 0.4551350
vt 0.6875290 0.4592340
f 216/514/216 101/515/101 212/516/212
vt 0.6981250 0.4701710
vt 0.6954360 0.4771940
vt 0.6879930 0.4730020
f 212/517/212 38/518/38 216/519/216
vt 0.6574680 0.4772630
vt 0.6548310 0.4845850
vt 0.6518270 0.4803700
f 216/520/216 102/521/102 176/522/176
vt 0.6605710 0.4839010
f 110/523/110 102/521/102 216/520/216
vt 0.6689830 0.4932500
vt 0.6725630 0.4838020
vt 0.6764520 0.4899560
f 110/524/110 216/525/216 38/526/38
vt 0.7120200 0.5203990
vt 0.7208570 0.5102410
vt 0.7248960 0.5157810
f 38/527/38 136/528/136 215/529/215
vt 0.7074700 0.4723860
vt 0.7169310 0.4720890
vt 0.7133830 0.4785160
f 38/530/38 212/531/212 136/532/136
vt 0.7021390 0.3750220
vt 0.6970940 0.3731730
vt 0.7022310 0.3705450
f 59/533/59 118/534/118 130/535/130
vt 0.7000800 0.4078490
vt 0.6997620 0.4180830
vt 0.6900930 0.4103900
f 59/536/59 212/537/212 101/538/101
vt 0.7077670 0.3884040
vt 0.7115130 0.3891880
vt 0.7134610 0.3947630
f 59/539/59 130/540/130 247/541/247
vt 0.6871190 0.3607890
vt 0.6830570 0.3545920
vt 0.6896290 0.3526700
f 118/542/118 12/543/12 219/544/219
vt 0.6941000 0.3670730
vt 0.6999160 0.3614960
vt 0.7014450 0.3662020
f 118/545/118 219/546/219 130/547/130
vt 0.7018240 0.4017060
vt 0.7086300 0.3969830
vt 0.7071300 0.4055040
f 59/548/59 247/549/247 212/550/212
vt 0.8252760 0.7710320
vt 0.8227420 0.7591300
vt 0.8306580 0.7661450
f 213/551/213 146/552/146 196/553/196
vt 0.8171420 0.7593490
vt 0.8174820 0.7665890
f 73/554/73 146/552/146 213/555/213
vt 0.8578980 0.7774500
vt 0.8517490 0.7703460
vt 0.8585490 0.7703290
f 196/556/196 146/557/146 87/558/87
vt 0.8704230 0.7702370
vt 0.8756370 0.7683590
vt 0.8778130 0.7741560
f 87/559/87 152/560/152 196/561/196
vt 0.8563730 0.7909550
vt 0.8618720 0.7857510
vt 0.8642420 0.7916990
f 213/562/213 196/563/196 181/564/181
vt 0.8827610 0.7693970
vt 0.8900240 0.7687840
f 196/561/196 152/565/152 48/566/48
vt 0.8179350 0.7533620
f 146/552/146 73/554/73 85/567/85
vt 0.9071700 0.7480080
vt 0.9161490 0.7472570
vt 0.9118390 0.7524440
f 152/568/152 105/569/105 48/570/48
vt 0.9176780 0.7155600
vt 0.9222220 0.7217460
vt 0.9153360 0.7205260
f 50/571/50 139/572/139 105/573/105
vt 0.9301760 0.7255050
vt 0.9236450 0.7322840
f 7/574/7 105/575/105 139/572/139
vt 0.8261740 0.7055160
vt 0.8216350 0.7075490
vt 0.8237700 0.7037520
f 21/576/21 32/577/32 56/578/56
vt 0.7885290 0.6995350
vt 0.7957130 0.6975610
vt 0.7966370 0.7031190
f 226/579/226 18/580/18 49/581/49
vt 0.7460800 0.7010380
vt 0.7413710 0.6935590
vt 0.7464110 0.6900720
f 169/582/169 24/583/24 8/584/8
vt 0.7616030 0.7212410
vt 0.7554940 0.7200490
vt 0.7582370 0.7108310
f 64/585/64 169/586/169 8/587/8
vt 0.8036670 0.7145580
vt 0.8116260 0.7096290
vt 0.8114640 0.7162290
f 49/588/49 18/589/18 32/590/32
vt 0.7871140 0.7180450
vt 0.7797820 0.7217220
vt 0.7800600 0.7118050
f 49/591/49 73/592/73 226/593/226
vt 0.7719410 0.7137750
vt 0.7664550 0.7117640
vt 0.7749930 0.7072190
f 73/594/73 8/595/8 226/596/226
vt 0.7675270 0.7200330
f 64/597/64 8/595/8 73/594/73
vt 0.8084760 0.7281450
vt 0.8079110 0.7371930
vt 0.8005840 0.7326060
f 32/598/32 85/599/85 49/600/49
vt 0.8153040 0.7021730
vt 0.8228640 0.7002080
f 32/577/32 18/601/18 56/602/56
vt 0.8221810 0.7435520
vt 0.8188000 0.7356640
vt 0.8270690 0.7388740
f 85/603/85 32/604/32 74/605/74
vt 0.8080490 0.7518430
vt 0.8063180 0.7451430
vt 0.8166860 0.7475130
f 73/606/73 49/607/49 85/608/85
vt 0.8005420 0.7676360
vt 0.8041990 0.7593190
vt 0.8096590 0.7678760
f 64/609/64 73/610/73 36/611/36
vt 0.8104880 0.7602550
f 36/611/36 73/612/73 213/555/213
vt 0.7875730 0.7582690
vt 0.7811390 0.7645720
vt 0.7803830 0.7570540
f 64/613/64 80/614/80 223/615/223
vt 0.7717610 0.7330540
vt 0.7723980 0.7412760
vt 0.7659650 0.7365650
f 64/616/64 223/617/223 169/618/169
vt 0.8049200 0.7709960
vt 0.8109970 0.7768180
vt 0.8044940 0.7781080
f 64/619/64 36/620/36 80/621/80
vt 0.8150850 0.7860210
vt 0.8151530 0.7948510
vt 0.8053490 0.7921420
f 36/622/36 160/623/160 80/624/80
vt 0.8442110 0.8018380
vt 0.8466160 0.8084420
vt 0.8378710 0.8087530
f 213/625/213 181/626/181 28/627/28
vt 0.8211430 0.7803660
vt 0.8245080 0.7864570
vt 0.8197340 0.7919250
f 36/628/36 213/629/213 160/630/160
vt 0.8352030 0.7947240
vt 0.8338660 0.8002660
vt 0.8258310 0.7964370
f 213/631/213 28/632/28 160/633/160
vt 0.7933240 0.8104700
vt 0.7881440 0.8123020
vt 0.7870880 0.8080460
f 198/634/198 128/635/128 80/636/80
vt 0.7590510 0.6849800
vt 0.7528050 0.6882540
vt 0.7548340 0.6795640
f 226/637/226 8/638/8 244/639/244
vt 0.7550240 0.6581820
vt 0.7608330 0.6503720
vt 0.7622350 0.6566410
f 244/640/244 18/641/18 226/642/226
vt 0.7667050 0.6413490
vt 0.7669640 0.6449540
vt 0.7635010 0.6422380
f 189/643/189 18/644/18 244/645/244
vt 0.7694530 0.6426680
f 79/646/79 18/644/18 189/643/189
vt 0.7354780 0.6875670
vt 0.7276780 0.6891390
vt 0.7264690 0.6817860
f 24/647/24 169/648/169 178/649/178
vt 0.8280290 0.8143730
vt 0.8244690 0.8220130
vt 0.8183530 0.8167160
f 28/650/28 53/651/53 198/652/198
vt 0.8190840 0.8101740
f 160/653/160 28/650/28 198/652/198
vt 0.8081540 0.8114610
vt 0.7999500 0.8160080
vt 0.8022380 0.8065280
f 160/654/160 198/655/198 80/656/80
vt 0.9483300 0.6176620
vt 0.9444290 0.6109290
vt 0.9478050 0.6126430
f 139/657/139 229/658/229 27/659/27
vt 0.9413660 0.6204880
f 50/660/50 229/658/229 139/657/139
vt 0.9355680 0.6121200
f 50/660/50 20/661/20 229/658/229
vt 0.9413120 0.5820060
vt 0.9304580 0.5869910
vt 0.9356730 0.5803570
f 229/662/229 20/663/20 129/664/129
vt 0.9307070 0.5498050
vt 0.9312530 0.5424550
vt 0.9361580 0.5484540
f 129/665/129 218/666/218 229/667/229
vt 0.9364310 0.5422760
f 154/668/154 229/667/229 218/666/218
vt 0.7445450 0.6280130
vt 0.7470210 0.6268680
vt 0.7498380 0.6301390
f 81/669/81 189/670/189 244/671/244
vt 0.9020350 0.5139560
vt 0.8963670 0.5112640
vt 0.8983450 0.5075320
f 92/672/92 140/673/140 98/674/98
vt 0.9077130 0.5137140
vt 0.9142980 0.5153660
vt 0.9090230 0.5198890
f 98/675/98 218/676/218 92/677/92
vt 0.9021920 0.5045900
vt 0.9009570 0.4988630
vt 0.9063890 0.5009730
f 218/678/218 98/679/98 70/680/70
vt 0.8822360 0.5022640
vt 0.8835170 0.4960980
vt 0.8888570 0.4979710
f 140/681/140 37/682/37 98/683/98
vt 0.8776260 0.4958710
f 37/682/37 140/681/140 29/684/29
vt 0.8783000 0.4921180
vt 0.8801130 0.4869960
vt 0.8869890 0.4926630
f 37/685/37 132/686/132 98/687/98
vt 0.8888760 0.4891900
vt 0.8844040 0.4876410
f 70/688/70 98/687/98 132/689/132
vt 0.8666080 0.4912500
vt 0.8597480 0.4972130
vt 0.8616130 0.4933130
f 37/690/37 62/691/62 234/692/234
vt 0.8657800 0.4986920
f 37/690/37 29/693/29 62/691/62
vt 0.8618700 0.5055270
f 29/693/29 249/694/249 62/691/62
vt 0.8569770 0.4830640
vt 0.8505790 0.4800010
vt 0.8578270 0.4784460
f 37/695/37 234/696/234 132/697/132
vt 0.8544680 0.4733830
f 234/696/234 204/698/204 132/697/132
vt 0.8407220 0.5092640
vt 0.8453420 0.5024690
vt 0.8469410 0.5086050
f 65/699/65 62/700/62 249/701/249
vt 0.8298510 0.5027490
vt 0.8315980 0.4964350
vt 0.8379650 0.4996050
f 65/702/65 10/703/10 62/704/62
vt 0.8231840 0.4993050
f 10/703/10 65/702/65 13/705/13
vt 0.8482300 0.4904960
vt 0.8422710 0.4871670
vt 0.8468200 0.4847430
f 62/706/62 10/707/10 234/708/234
vt 0.8405470 0.5202420
vt 0.8451960 0.5204590
vt 0.8424990 0.5264540
f 65/709/65 249/710/249 108/711/108
vt 0.8476210 0.5225700
vt 0.8475280 0.5300290
f 249/712/249 250/713/250 108/711/108
vt 0.8723550 0.5156850
vt 0.8725070 0.5225070
vt 0.8675390 0.5175240
f 29/714/29 168/715/168 249/716/249
vt 0.7124000 0.5756060
vt 0.7090450 0.5721530
vt 0.7197740 0.5710410
f 81/717/81 19/718/19 122/719/122
vt 0.7323420 0.5624270
vt 0.7239360 0.5587930
vt 0.7303770 0.5550000
f 90/720/90 122/721/122 209/722/209
vt 0.7273350 0.5706090
vt 0.7221930 0.5766850
f 90/723/90 81/724/81 122/719/122
vt 0.7426710 0.5578530
vt 0.7497100 0.5589740
vt 0.7400810 0.5637020
f 209/725/209 211/726/211 90/727/90
vt 0.7555290 0.5252660
vt 0.7481630 0.5281990
vt 0.7476340 0.5158550
f 78/728/78 209/729/209 215/730/215
vt 0.7231040 0.5444270
vt 0.7321360 0.5420260
vt 0.7291630 0.5492450
f 122/731/122 215/732/215 209/733/209
vt 0.7078500 0.5421270
vt 0.7106010 0.5320390
vt 0.7178280 0.5379000
f 192/734/192 215/735/215 122/736/122
vt 0.7162850 0.6269590
vt 0.7161630 0.6195420
vt 0.7233830 0.6219420
f 57/737/57 19/738/19 61/739/61
vt 0.7197770 0.6480750
vt 0.7252670 0.6431110
vt 0.7260700 0.6501740
f 57/740/57 61/741/61 24/742/24
vt 0.7206820 0.6101280
vt 0.7193930 0.6156060
vt 0.7144280 0.6119550
f 81/743/81 61/744/61 19/745/19
vt 0.7314660 0.6448160
vt 0.7320910 0.6533410
f 24/742/24 61/746/61 8/747/8
vt 0.7359580 0.6461380
f 244/748/244 8/747/8 61/746/61
vt 0.7105640 0.6494150
vt 0.7157190 0.6443400
vt 0.7146050 0.6552080
f 178/749/178 57/750/57 24/751/24
vt 0.8837650 0.5235130
vt 0.8805240 0.5257280
vt 0.8801550 0.5227230
f 179/752/179 168/753/168 29/754/29
vt 0.8818980 0.5169760
f 29/754/29 140/755/140 179/752/179
vt 0.8877090 0.5180180
vt 0.8949300 0.5229910
vt 0.8875880 0.5223900
f 140/756/140 92/757/92 179/758/179
vt 0.8340640 0.5218250
vt 0.8311030 0.5295270
vt 0.8300950 0.5240890
f 65/759/65 108/760/108 230/761/230
vt 0.8041290 0.5154830
vt 0.8120820 0.5170050
vt 0.8089900 0.5236990
f 13/762/13 65/763/65 230/764/230
vt 0.7856890 0.5083940
vt 0.7932360 0.5102290
vt 0.7878310 0.5172260
f 94/765/94 13/766/13 230/767/230
vt 0.7825200 0.5220550
vt 0.7730810 0.5238990
vt 0.7719230 0.5121320
f 230/768/230 78/769/78 94/770/94
vt 0.8129120 0.5334450
vt 0.8101290 0.5318100
vt 0.8153600 0.5319710
f 217/771/217 230/772/230 108/773/108
vt 0.7820190 0.5362440
vt 0.7881660 0.5375670
vt 0.7849000 0.5432740
f 230/774/230 217/775/217 202/776/202
vt 0.7766790 0.5423500
f 202/776/202 78/777/78 230/774/230
vt 0.7699020 0.5486950
vt 0.7764800 0.5477070
f 209/778/209 78/777/78 202/779/202
vt 0.7562950 0.5182230
vt 0.7523820 0.5063000
f 78/780/78 215/730/215 94/781/94
vt 0.7834220 0.4819250
vt 0.7877660 0.4907960
vt 0.7779840 0.4911360
f 239/782/239 13/783/13 94/784/94
vt 0.7432830 0.4963870
vt 0.7476850 0.4862270
vt 0.7529490 0.4914460
f 136/785/136 239/786/239 94/787/94
vt 0.7489660 0.4985720
vt 0.7400270 0.5081920
f 94/788/94 215/789/215 136/785/136
vt 0.8384310 0.4707890
vt 0.8463160 0.4734880
vt 0.8375250 0.4769760
f 173/790/173 204/791/204 234/792/234
vt 0.8112850 0.4772410
vt 0.8153470 0.4802080
vt 0.8074910 0.4856160
f 173/793/173 234/794/234 10/795/10
vt 0.7963690 0.4824980
vt 0.8011850 0.4857390
vt 0.7955320 0.4918860
f 239/796/239 10/797/10 13/798/13
vt 0.8036190 0.4786940
f 173/799/173 10/797/10 239/796/239
vt 0.7387560 0.4848640
vt 0.7448340 0.4788250
f 136/800/136 103/801/103 239/786/239
vt 0.7316810 0.4619060
vt 0.7287300 0.4681970
vt 0.7256040 0.4604630
f 103/802/103 136/803/136 212/804/212
vt 0.7945090 0.4771030
vt 0.7935140 0.4730750
vt 0.7977840 0.4735500
f 239/805/239 103/806/103 173/807/173
vt 0.6483580 0.4907700
f 176/509/176 102/521/102 145/808/145
vt 0.6526450 0.5078170
vt 0.6590390 0.5066510
vt 0.6566090 0.5163080
f 145/809/145 102/810/102 237/811/237
vt 0.7915830 0.5530640
vt 0.7881250 0.5485450
vt 0.7931530 0.5492340
f 207/812/207 202/813/202 217/814/217
vt 0.8563330 0.5257690
vt 0.8595960 0.5310820
vt 0.8555800 0.5305680
f 249/815/249 168/816/168 250/817/250
vt 0.9037580 0.5287930
vt 0.9002780 0.5293810
vt 0.8967670 0.5276650
f 92/818/92 129/819/129 179/820/179
vt 0.9143440 0.5271660
vt 0.9213390 0.5242090
vt 0.9173340 0.5323280
f 92/821/92 218/822/218 129/823/129
vt 0.6235060 0.4350550
vt 0.6181770 0.4386270
f 232/824/232 142/825/142 1/493/1
vt 0.7039430 0.5315700
vt 0.7014140 0.5241870
f 192/826/192 38/827/38 215/735/215
vt 0.7030000 0.5649590
vt 0.7043150 0.5581940
vt 0.7095730 0.5615110
f 19/828/19 192/829/192 122/830/122
vt 0.6974280 0.5678190
vt 0.6978640 0.5612660
f 57/831/57 192/832/192 19/828/19
vt 0.7438060 0.5767740
vt 0.7464460 0.5808940
vt 0.7402260 0.5796240
f 211/833/211 76/834/76 90/835/90
vt 0.6758590 0.5208290
vt 0.6776410 0.5290630
vt 0.6690870 0.5217390
f 110/836/110 84/837/84 102/838/102
vt 0.6985480 0.5324880
vt 0.6892460 0.5286530
f 38/827/38 192/839/192 110/840/110
vt 0.6850220 0.5535430
vt 0.6972780 0.5535200
vt 0.6921180 0.5582190
f 84/841/84 192/842/192 57/843/57
vt 0.7217020 0.6907000
vt 0.7170580 0.6912280
vt 0.7177820 0.6867410
f 169/844/169 206/845/206 178/846/178
vt 0.7347090 0.6268260
vt 0.7284060 0.6248970
vt 0.7324160 0.6200350
f 244/847/244 61/848/61 81/849/81
vt 0.7733890 0.5536510
vt 0.7672150 0.5553070
f 209/778/209 202/850/202 208/851/208
vt 0.7620770 0.5637350
vt 0.7652030 0.5653360
vt 0.7633840 0.5657290
f 209/852/209 208/853/208 211/854/211
vt 0.6889310 0.5649120
vt 0.6793970 0.5643750
vt 0.6845360 0.5612800
f 57/855/57 178/856/178 84/857/84
vt 0.6677130 0.5450740
vt 0.6713100 0.5383920
vt 0.6756110 0.5466850
f 237/858/237 102/859/102 84/860/84
vt 0.6595170 0.5660820
vt 0.6666910 0.5665860
vt 0.6648600 0.5713940
f 107/861/107 237/862/237 40/863/40
vt 0.6748620 0.5578980
vt 0.6726750 0.5663050
f 84/864/84 178/856/178 40/865/40
vt 0.6689230 0.5612110
f 84/864/84 40/865/40 237/866/237
vt 0.6879880 0.5387790
vt 0.6827360 0.5343750
f 192/867/192 84/868/84 110/840/110
vt 0.4241080 0.8147740
vt 0.4240060 0.8147070
vt 0.4242400 0.8147150
f 144/869/144 188/870/188 164/871/164
vt 0.4238850 0.8147440
vt 0.4239710 0.8147330
vt 0.4239480 0.8147540
f 114/872/114 188/873/188 144/874/144
vt 0.4227540 0.8123150
vt 0.4211110 0.8142440
vt 0.4181820 0.8104300
f 188/875/188 114/876/114 151/877/151
vt 0.4238670 0.8152380
vt 0.4246420 0.8164550
vt 0.4233110 0.8152010
f 144/878/144 164/879/164 114/880/114
vt 0.4400790 0.7787600
vt 0.4398910 0.7848740
vt 0.4337790 0.7822260
f 77/881/77 164/882/164 188/883/188
vt 0.4008420 0.7414050
vt 0.4042390 0.7436800
vt 0.4026020 0.7468110
f 185/884/185 151/885/151 114/886/114
vt 0.4428860 0.7351700
vt 0.4389400 0.7426710
vt 0.4339190 0.7345810
f 77/887/77 188/888/188 63/889/63
vt 0.4319780 0.7401890
vt 0.4227720 0.7417230
vt 0.4253500 0.7326200
f 188/890/188 151/891/151 63/892/63
vt 0.4175240 0.7265190
vt 0.4123640 0.7337360
vt 0.4110890 0.7242280
f 63/893/63 151/894/151 6/895/6
vt 0.4351800 0.7067270
vt 0.4364570 0.6990550
vt 0.4428730 0.6985020
f 63/896/63 113/897/113 77/898/77
vt 0.4471870 0.6741020
vt 0.4504740 0.6682550
vt 0.4510820 0.6713550
f 242/899/242 42/900/42 77/901/77
vt 0.4409850 0.6787310
vt 0.4435420 0.6876840
vt 0.4363920 0.6832330
f 242/902/242 77/903/77 113/904/113
vt 0.4136410 0.6928070
vt 0.4085060 0.6988760
vt 0.4050120 0.6899330
f 63/905/63 6/906/6 25/907/25
vt 0.4210560 0.6783770
vt 0.4165700 0.6731350
vt 0.4200850 0.6669690
f 63/908/63 25/909/25 113/910/113
vt 0.4411340 0.6398130
vt 0.4435220 0.6458090
vt 0.4365970 0.6509540
f 161/911/161 242/912/242 113/913/113
vt 0.4227380 0.6512980
vt 0.4157110 0.6499300
vt 0.4187110 0.6437340
f 113/914/113 25/915/25 161/916/161
vt 0.4222130 0.5733350
vt 0.4169170 0.5829480
vt 0.4152470 0.5746080
f 121/917/121 161/918/161 172/919/172
vt 0.4122260 0.6372480
vt 0.4087840 0.6439060
f 161/920/161 25/915/25 172/921/172
vt 0.4007470 0.5667990
vt 0.3924020 0.5667410
vt 0.3972560 0.5601110
f 121/922/121 172/923/172 43/924/43
vt 0.3907470 0.6228280
vt 0.3883690 0.6207300
vt 0.3892960 0.6155950
f 172/925/172 75/926/75 82/927/82
vt 0.4527680 0.4114350
vt 0.4471220 0.4110250
vt 0.4466200 0.4054770
f 227/928/227 86/929/86 148/930/148
vt 0.4491100 0.3907550
vt 0.4544590 0.3949980
vt 0.4475830 0.3972100
f 186/931/186 227/932/227 148/933/148
vt 0.4212920 0.4341460
vt 0.4153850 0.4353270
vt 0.4132090 0.4263360
f 86/934/86 11/935/11 148/936/148
vt 0.4480120 0.4517420
vt 0.4511530 0.4549910
vt 0.4498220 0.4598850
f 86/937/86 3/938/3 143/939/143
vt 0.3699610 0.4067580
vt 0.3721890 0.4138330
vt 0.3673770 0.4099170
f 41/940/41 11/941/11 159/942/159
vt 0.3924100 0.3785370
vt 0.3919670 0.3860080
vt 0.3828800 0.3809300
f 148/943/148 11/944/11 236/945/236
vt 0.4471630 0.6322600
vt 0.4491740 0.6364540
vt 0.4445060 0.6341710
f 42/946/42 242/947/242 161/948/161
vt 0.4467430 0.5832100
vt 0.4420070 0.5874560
vt 0.4428840 0.5754470
f 143/949/143 161/950/161 121/951/121
vt 0.4089830 0.4863330
vt 0.4076030 0.4976980
vt 0.4020090 0.4908730
f 86/952/86 43/953/43 44/954/44
vt 0.4191640 0.4989160
vt 0.4134620 0.5044910
vt 0.4127410 0.4960130
f 121/955/121 43/956/43 86/957/86
vt 0.4469650 0.4994160
vt 0.4501980 0.5005020
vt 0.4490590 0.5048720
f 86/958/86 143/959/143 121/960/121
vt 0.3928120 0.5537790
vt 0.3881510 0.5619070
vt 0.3858520 0.5551040
f 43/961/43 172/962/172 82/963/82
vt 0.3984900 0.4736320
vt 0.3996370 0.4648410
vt 0.4040800 0.4701380
f 44/964/44 11/965/11 86/966/86
vt 0.3801870 0.5178440
vt 0.3798780 0.5247010
vt 0.3779610 0.5203250
f 43/967/43 82/968/82 225/969/225
vt 0.3768060 0.5155840
f 43/967/43 225/969/225 44/970/44
vt 0.3800740 0.3941770
vt 0.3823340 0.4004380
vt 0.3715400 0.3942170
f 236/971/236 11/972/11 41/973/41
vt 0.4353330 0.3759250
vt 0.4388420 0.3858330
vt 0.4322550 0.3800940
f 186/974/186 148/975/148 182/976/182
vt 0.4535320 0.1902820
vt 0.4567960 0.1973160
vt 0.4469150 0.1959480
f 193/977/193 72/978/72 171/979/171
vt 0.4224930 0.2106760
vt 0.4183500 0.2065910
vt 0.4278870 0.2097480
f 26/980/26 1/981/1 72/982/72
vt 0.4272840 0.2025530
f 72/982/72 1/981/1 171/983/171
vt 0.5647980 0.0408880
vt 0.5594940 0.0458100
vt 0.5564710 0.0363000
f 74/984/74 150/985/150 115/986/115
vt 0.5725910 0.0441230
vt 0.5640400 0.0498370
f 21/987/21 150/988/150 74/984/74
vt 0.5436990 0.0539910
vt 0.5461360 0.0472640
vt 0.5533640 0.0559600
f 53/989/53 150/990/150 34/991/34
vt 0.5631740 0.0554640
vt 0.5717070 0.0542340
vt 0.5649940 0.0613540
f 150/992/150 21/993/21 34/994/34
vt 0.5751500 0.0620300
vt 0.5774330 0.0698660
vt 0.5708350 0.0692550
f 21/995/21 96/996/96 34/997/34
vt 0.6017840 0.0658580
vt 0.6099380 0.0667390
vt 0.6078360 0.0755200
f 21/998/21 56/999/56 96/1000/96
vt 0.6167150 0.0756680
vt 0.6143540 0.0815620
f 56/1001/56 224/1002/224 96/1000/96
vt 0.6071330 0.0834910
f 224/1002/224 210/1003/210 96/1000/96
vt 0.6368080 0.0649840
vt 0.6342020 0.0717200
vt 0.6331050 0.0647020
f 18/1004/18 79/1005/79 56/1006/56
vt 0.5911990 0.0348480
vt 0.5949040 0.0416140
vt 0.5863840 0.0436970
f 74/1007/74 32/1008/32 21/1009/21
vt 0.5876910 0.0789020
vt 0.5850510 0.0847000
vt 0.5828140 0.0821970
f 96/1010/96 141/1011/141 34/1012/34
vt 0.6018090 0.0873040
vt 0.5962380 0.0865030
vt 0.5945400 0.0806550
f 210/1013/210 141/1014/141 96/1015/96
vt 0.5977880 0.0924090
vt 0.6003600 0.0923840
f 141/1016/141 210/1013/210 162/1017/162
vt 0.6366990 0.0784880
vt 0.6352070 0.0848320
vt 0.6303920 0.0764550
f 79/1018/79 224/1019/224 56/1020/56
vt 0.6264750 0.1081990
vt 0.6314850 0.1067120
vt 0.6303760 0.1108840
f 162/1021/162 210/1022/210 246/1023/246
vt 0.6501410 0.1195590
vt 0.6576930 0.1169950
vt 0.6543090 0.1214610
f 246/1024/246 210/1025/210 180/1026/180
vt 0.6863190 0.1286640
vt 0.6816960 0.1218830
vt 0.6902950 0.1224880
f 180/1027/180 210/1028/210 134/1029/134
vt 0.6856310 0.1163590
f 210/1028/210 149/1030/149 134/1029/134
vt 0.6780130 0.1092540
vt 0.6740010 0.1165260
vt 0.6700570 0.1118070
f 149/1031/149 210/1032/210 224/1033/224
vt 0.6739970 0.1000600
vt 0.6705940 0.1063370
vt 0.6671580 0.0991350
f 177/1034/177 149/1035/149 224/1036/224
vt 0.6754250 0.0932070
f 177/1034/177 224/1036/224 79/1037/79
vt 0.8277890 0.1526010
vt 0.8306100 0.1461010
vt 0.8344510 0.1511930
f 97/1038/97 208/1039/208 147/1040/147
vt 0.7530230 0.0908650
vt 0.7549870 0.0878390
vt 0.7590060 0.0900200
f 189/1041/189 81/1042/81 90/1043/90
vt 0.7564670 0.0984690
vt 0.7527970 0.1082680
vt 0.7515940 0.0983210
f 90/1044/90 177/1045/177 189/1046/189
vt 0.7616630 0.1073700
vt 0.7587630 0.1139660
f 90/1047/90 76/1048/76 177/1045/177
vt 0.7300020 0.1130870
vt 0.7346800 0.1214590
vt 0.7297180 0.1245520
f 177/1049/177 76/1050/76 149/1051/149
vt 0.7045710 0.0881790
vt 0.6973380 0.0890260
vt 0.6967910 0.0794030
f 177/1052/177 79/1053/79 189/1054/189
vt 0.8194200 0.1453630
vt 0.8208900 0.1528910
vt 0.8147230 0.1530000
f 208/1055/208 97/1056/97 211/1057/211
vt 0.7800000 0.1492420
vt 0.7877220 0.1462900
vt 0.7886710 0.1572820
f 76/1058/76 211/1059/211 69/1060/69
vt 0.7963770 0.1587220
vt 0.7960330 0.1513050
f 97/1061/97 69/1060/69 211/1062/211
vt 0.7523240 0.1356970
vt 0.7501740 0.1466180
vt 0.7440380 0.1406490
f 76/1063/76 134/1064/134 149/1065/149
vt 0.7988650 0.1645740
vt 0.7920330 0.1654450
f 97/1066/97 201/1067/201 69/1060/69
vt 0.7550290 0.1429140
vt 0.7582300 0.1513530
f 76/1068/76 69/1069/69 134/1064/134
vt 0.7433470 0.1528220
vt 0.7447780 0.1481050
vt 0.7503490 0.1532120
f 180/1070/180 134/1071/134 69/1072/69
vt 0.0296090 0.3837470
vt 0.0312030 0.3814000
vt 0.0323030 0.3862700
f 196/1073/196 48/1074/48 181/1075/181
vt 0.0398800 0.3508720
vt 0.0343490 0.3458980
vt 0.0380720 0.3425540
f 170/1076/170 48/1077/48 105/1078/105
vt 0.0438190 0.3431870
f 170/1076/170 105/1078/105 7/1079/7
vt 0.0386880 0.3705250
vt 0.0326460 0.3725120
vt 0.0333220 0.3701660
f 181/1080/181 48/1081/48 170/1082/170
vt 0.0484610 0.3579690
vt 0.0542650 0.3617830
vt 0.0513240 0.3660960
f 170/1083/170 124/1084/124 181/1085/181
vt 0.0502480 0.3408860
vt 0.0463230 0.3476970
f 7/1079/7 238/1086/238 170/1087/170
vt 0.0522620 0.3499560
vt 0.0569180 0.3475950
vt 0.0590420 0.3526730
f 170/1088/170 238/1089/238 124/1090/124
vt 0.0755290 0.3756310
vt 0.0794710 0.3794910
vt 0.0740150 0.3832990
f 124/1091/124 117/1092/117 35/1093/35
vt 0.0950660 0.3261250
vt 0.0941060 0.3297800
vt 0.0892170 0.3250340
f 199/1094/199 117/1095/117 222/1096/222
vt 0.0621130 0.3777240
vt 0.0648010 0.3729130
vt 0.0696020 0.3777330
f 181/1097/181 124/1098/124 35/1099/35
vt 0.0806810 0.3352360
vt 0.0851910 0.3403760
vt 0.0785440 0.3450300
f 222/1100/222 117/1101/117 124/1102/124
vt 0.0748490 0.3395840
f 238/1103/238 222/1100/222 124/1102/124
vt 0.0528520 0.3018380
vt 0.0603130 0.2997630
vt 0.0575580 0.3077190
f 7/1104/7 88/1105/88 238/1106/238
vt 0.0608520 0.2736360
vt 0.0617420 0.2662420
vt 0.0677340 0.2675570
f 88/1107/88 27/1108/27 205/1109/205
vt 0.0548440 0.2684230
f 7/1110/7 27/1108/27 88/1107/88
vt 0.0495570 0.4038590
vt 0.0556700 0.3995460
vt 0.0558170 0.4100940
f 181/1111/181 35/1112/35 28/1113/28
vt 0.0625730 0.4206380
vt 0.0611980 0.4164520
vt 0.0657330 0.4126290
f 53/1114/53 28/1115/28 35/1116/35
vt 0.0543750 0.2559260
vt 0.0527160 0.2626760
vt 0.0489930 0.2563640
f 27/1117/27 7/1118/7 139/1119/139
vt 0.0886300 0.2873810
vt 0.0849190 0.2921160
vt 0.0864260 0.2819010
f 222/1120/222 238/1121/238 88/1122/88
vt 0.0682400 0.2098350
vt 0.0755470 0.2085910
vt 0.0718980 0.2147090
f 27/1123/27 119/1124/119 205/1125/205
vt 0.0565700 0.1956410
vt 0.0603520 0.1911840
vt 0.0597520 0.2010450
f 229/1126/229 104/1127/104 27/1128/27
vt 0.0882470 0.2610790
vt 0.0977740 0.2646590
vt 0.0923400 0.2693530
f 205/1129/205 167/1130/167 88/1131/88
vt 0.0647710 0.1974190
vt 0.0740640 0.1972300
vt 0.0680490 0.2034270
f 104/1132/104 119/1133/119 27/1134/27
vt 0.0654060 0.1835290
vt 0.0575280 0.1869030
vt 0.0602320 0.1790590
f 104/1135/104 229/1136/229 154/1137/154
vt 0.0782710 0.1701630
vt 0.0737620 0.1778080
vt 0.0700920 0.1677410
f 66/1138/66 119/1139/119 104/1140/104
vt 0.0685020 0.1539080
vt 0.0670490 0.1470850
vt 0.0769720 0.1534480
f 104/1141/104 154/1142/154 66/1143/66
vt 0.0710600 0.1321500
vt 0.0728960 0.1193960
vt 0.0750730 0.1253780
f 154/1144/154 111/1145/111 66/1146/66
vt 0.0610960 0.1302530
vt 0.0611750 0.1367280
vt 0.0586600 0.1333960
f 70/1147/70 154/1148/154 218/1149/218
vt 0.0924380 0.2823100
f 167/1150/167 222/1120/222 88/1122/88
vt 0.0981610 0.2194310
vt 0.0871910 0.2200640
vt 0.0943620 0.2127890
f 166/1151/166 205/1152/205 119/1153/119
vt 0.0632150 0.1169990
vt 0.0670860 0.1258700
f 70/1154/70 111/1145/111 154/1155/154
vt 0.1021340 0.2514560
vt 0.0960880 0.2554780
vt 0.0958870 0.2464270
f 166/1156/166 167/1157/167 205/1158/205
vt 0.0889180 0.1429370
vt 0.0941730 0.1409220
vt 0.0950510 0.1447520
f 66/1159/66 16/1160/16 100/1161/100
vt 0.0622540 0.0815840
vt 0.0654720 0.0842110
vt 0.0611870 0.0861230
f 132/1162/132 111/1163/111 70/1164/70
vt 0.0915040 0.1705080
vt 0.0992460 0.1706920
vt 0.0940450 0.1780350
f 66/1165/66 100/1166/100 119/1167/119
vt 0.1027820 0.1805350
vt 0.1078150 0.1814510
vt 0.1072530 0.1856770
f 119/1168/119 100/1169/100 166/1170/166
vt 0.1191380 0.0419170
vt 0.1270070 0.0364320
vt 0.1262580 0.0433280
f 123/1171/123 135/1172/135 197/1173/197
vt 0.1176890 0.0238940
vt 0.1236030 0.0249550
vt 0.1183490 0.0318460
f 68/1174/68 135/1175/135 123/1176/123
vt 0.1056150 0.0214020
vt 0.1093840 0.0227520
vt 0.1063670 0.0253590
f 115/1177/115 68/1178/68 123/1179/123
vt 0.0909010 0.0486560
vt 0.0967990 0.0511230
vt 0.0977750 0.0587980
f 152/1180/152 123/1181/123 153/1182/153
vt 0.0712850 0.0202920
vt 0.0767920 0.0207990
vt 0.0703190 0.0257950
f 85/1183/85 74/1184/74 87/1185/87
vt 0.0846520 0.0239530
vt 0.0758890 0.0272590
f 74/1184/74 115/1186/115 87/1187/87
vt 0.0846210 0.0432710
vt 0.0894340 0.0389120
f 115/1188/115 123/1189/123 152/1180/152
vt 0.0641490 0.0251420
vt 0.0658140 0.0191080
f 146/1190/146 85/1191/85 87/1185/87
vt 0.0765370 0.0443400
vt 0.0845740 0.0490060
f 87/1192/87 115/1188/115 152/1193/152
vt 0.0918950 0.0706170
vt 0.0943980 0.0645490
vt 0.1010440 0.0664720
f 105/1194/105 152/1195/152 153/1196/153
vt 0.0970320 0.0719830
vt 0.1012360 0.0721850
f 105/1197/105 153/1196/153 50/1198/50
vt 0.1194480 0.0500260
f 153/1199/153 123/1171/123 197/1173/197
vt 0.1273390 0.0518090
vt 0.1220400 0.0592160
f 197/1200/197 30/1201/30 153/1199/153
vt 0.1351260 0.0483400
vt 0.1394950 0.0422070
vt 0.1449810 0.0464790
f 197/1202/197 135/1203/135 235/1204/235
vt 0.1516160 0.0666750
vt 0.1582390 0.0623510
vt 0.1581160 0.0684090
f 197/1205/197 235/1206/235 51/1207/51
vt 0.1242510 0.0945840
vt 0.1258300 0.0877910
vt 0.1325020 0.0907440
f 50/1208/50 153/1209/153 30/1210/30
vt 0.1550430 0.0791670
vt 0.1459540 0.0832790
vt 0.1480660 0.0764860
f 51/1211/51 30/1212/30 197/1213/197
vt 0.1346100 0.1073230
vt 0.1293880 0.1034170
vt 0.1374990 0.1026970
f 20/1214/20 50/1215/50 30/1216/30
vt 0.1705940 0.1261410
vt 0.1695690 0.1169130
vt 0.1765070 0.1241460
f 20/1217/20 30/1218/30 51/1219/51
vt 0.1703700 0.1420160
vt 0.1802050 0.1442170
vt 0.1725880 0.1460720
f 20/1220/20 93/1221/93 129/1222/129
vt 0.1735040 0.1331310
vt 0.1797900 0.1346710
f 20/1223/20 51/1219/51 93/1224/93
vt 0.1873180 0.1743840
vt 0.1936630 0.1721470
vt 0.1938520 0.1783660
f 129/1225/129 93/1226/93 31/1227/31
vt 0.1667140 0.0884090
vt 0.1756860 0.0854770
vt 0.1756920 0.0914820
f 51/1228/51 235/1229/235 233/1230/233
vt 0.1857160 0.0880460
vt 0.1822760 0.0933520
f 235/1229/235 174/1231/174 233/1232/233
vt 0.1831110 0.0782590
vt 0.1808070 0.0821470
vt 0.1761600 0.0783310
f 199/1233/199 174/1234/174 235/1235/235
vt 0.2028600 0.1201980
vt 0.1985660 0.1299360
vt 0.1944570 0.1187590
f 233/1236/233 93/1237/93 51/1238/51
vt 0.2171810 0.1338750
vt 0.2171950 0.1286140
vt 0.2248440 0.1314070
f 89/1239/89 233/1240/233 174/1241/174
vt 0.2127270 0.1513260
vt 0.2153400 0.1410510
vt 0.2202400 0.1476470
f 93/1242/93 233/1243/233 203/1244/203
vt 0.2186960 0.1574000
vt 0.2155340 0.1651880
vt 0.2123520 0.1587640
f 203/1245/203 31/1246/31 93/1247/93
vt 0.2358090 0.1387900
vt 0.2392310 0.1458500
vt 0.2356120 0.1439910
f 127/1248/127 89/1249/89 174/1250/174
vt 0.2230260 0.1411030
f 89/1251/89 203/1244/203 233/1243/233
vt 0.2377610 0.2047850
vt 0.2390590 0.1967430
vt 0.2452030 0.2001600
f 179/1252/179 23/1253/23 168/1254/168
vt 0.2247610 0.1869370
vt 0.2318880 0.1939530
vt 0.2242620 0.1945080
f 31/1255/31 23/1256/23 179/1257/179
vt 0.2217430 0.1713660
vt 0.2231620 0.1624080
vt 0.2269420 0.1707120
f 31/1258/31 203/1259/203 23/1260/23
vt 0.2360170 0.1653910
vt 0.2375800 0.1574520
vt 0.2426380 0.1594460
f 203/1261/203 89/1262/89 112/1263/112
vt 0.2454450 0.1638440
vt 0.2451060 0.1722210
f 203/1261/203 112/1264/112 23/1265/23
vt 0.2532300 0.1622550
vt 0.2477790 0.1579740
f 248/1266/248 112/1264/112 89/1267/89
vt 0.2638650 0.2056890
vt 0.2567980 0.2006260
vt 0.2695340 0.2016670
f 168/1268/168 23/1269/23 55/1270/55
vt 0.2635720 0.1887010
vt 0.2684430 0.1949580
vt 0.2611920 0.1949600
f 112/1271/112 55/1272/55 23/1273/23
vt 0.2709200 0.1896070
f 55/1272/55 112/1271/112 248/1274/248
vt 0.2723950 0.2254390
vt 0.2811630 0.2210430
vt 0.2814810 0.2287940
f 168/1275/168 55/1276/55 250/1277/250
vt 0.2796490 0.2007010
vt 0.2748150 0.1995030
vt 0.2780730 0.1982300
f 95/1278/95 55/1279/55 248/1280/248
vt 0.2155200 0.1979780
vt 0.2192280 0.1950390
vt 0.2201370 0.1991190
f 129/1281/129 31/1282/31 179/1283/179
# 500 faces, 1283 coords texture

# End of File
