v -0.0112871 -0.0111709 0.0023001
v -0.0093624 -0.0071132 0.0025830
v 0.0085908 0.0013872 0.0028230
v 0.0010313 -0.0104727 0.0022547
v -0.0112871 -0.0106441 0.0064275
v -0.0112871 0.0076367 0.0038541
v -0.0035923 0.0101585 0.0039252
v 0.0090466 0.0025825 0.0029559
v 0.0090466 -0.0081393 0.0024267
v 0.0027809 -0.0092013 0.0060030
v 0.0000919 -0.0085666 0.0073561
v -0.0112871 -0.0092224 0.0075961
v -0.0112871 0.0071670 0.0054136
v -0.0087713 0.0088256 0.0039885
v -0.0007242 0.0104419 0.0042465
v 0.0038796 0.0094095 0.0038861
v -0.0033893 0.0094349 0.0075851
v 0.0090466 0.0070337 0.0038588
v 0.0090466 -0.0077902 0.0037056
v 0.0090466 -0.0076315 0.0042043
v 0.0070403 -0.0033728 0.0075421
v 0.0028008 -0.0013123 0.0093495
v -0.0026310 -0.0037240 0.0092791
v -0.0016577 0.0015840 0.0102406
v -0.0112871 0.0024069 0.0085287
v -0.0112871 0.0062467 0.0074945
v 0.0030894 0.0074209 0.0083121
v 0.0090466 0.0071522 0.0047085
v -0.0031445 0.0076769 0.0084693
v -0.0112871 0.0049774 0.0082347
v 0.0090466 -0.0004004 0.0048281
v 0.0090466 -0.0003666 0.0048304
v 0.0090466 0.0067545 0.0052823
v 0.0071239 0.0035303 0.0077783
v -0.0112871 0.0043787 0.0085201
f 1 2 3
f 1 3 4
f 1 4 5
f 1 5 12
f 1 12 25
f 1 25 35
f 1 35 30
f 1 30 26
f 1 26 13
f 1 13 6
f 1 6 2
f 2 6 3
f 3 6 7
f 3 7 8
f 3 8 9
f 3 9 4
f 4 9 10
f 4 10 5
f 5 10 11
f 5 11 12
f 6 13 14
f 6 14 7
f 7 15 16
f 7 16 8
f 7 14 17
f 7 17 15
f 8 16 18
f 8 18 28
f 8 28 33
f 8 33 32
f 8 32 31
f 8 31 20
f 8 20 19
f 8 19 9
f 9 19 10
f 10 19 20
f 10 20 21
f 10 21 11
f 11 21 22
f 11 22 23
f 11 23 12
f 12 23 24
f 12 24 25
f 13 26 14
f 14 26 17
f 15 17 27
f 15 27 16
f 16 27 28
f 16 28 18
f 17 29 27
f 17 26 30
f 17 30 29
f 20 31 21
f 21 31 32
f 21 32 33
f 21 33 34
f 21 34 22
f 22 34 24
f 22 24 23
f 24 34 27
f 24 27 29
f 24 29 35
f 24 35 25
f 27 33 28
f 27 34 33
f 29 30 35
