v -0.0580316 -0.0302983 -0.0069712
v -0.0595016 -0.0322905 -0.0067147
v -0.0637846 -0.0319279 -0.0067902
v -0.0637846 -0.0301885 -0.0069150
v -0.0466551 -0.0268872 -0.0064926
v -0.0529414 -0.0290577 -0.0067751
v -0.0517257 -0.0308633 -0.0065351
v -0.0578897 -0.0337726 -0.0044012
v -0.0637846 -0.0324282 -0.0059386
v -0.0637846 -0.0286055 -0.0050430
v -0.0465769 -0.0268029 -0.0064487
v -0.0457012 -0.0268029 -0.0063102
v -0.0425189 -0.0268029 -0.0055751
v -0.0457306 -0.0295911 -0.0050513
v -0.0504832 -0.0323831 -0.0038157
v -0.0562019 -0.0344543 0.0016054
v -0.0633468 -0.0344889 0.0015094
v -0.0637846 -0.0335334 -0.0038637
v -0.0637846 -0.0285438 -0.0049553
v -0.0513637 -0.0268029 -0.0042627
v -0.0400142 -0.0268029 -0.0020754
v -0.0391875 -0.0268029 -0.0006739
v -0.0408703 -0.0288545 0.0014202
v -0.0465793 -0.0319467 0.0013722
v -0.0599688 -0.0341315 0.0046978
v -0.0515129 -0.0324711 0.0058265
v -0.0637846 -0.0338832 0.0040574
v -0.0637846 -0.0344083 0.0016684
v -0.0637846 -0.0343617 0.0009211
v -0.0637846 -0.0279277 -0.0020370
v -0.0528827 -0.0268029 -0.0009769
v -0.0637846 -0.0278757 -0.0009824
v -0.0387985 -0.0268029 0.0019496
v -0.0400436 -0.0268029 0.0046279
v -0.0419123 -0.0284001 0.0047636
v -0.0577013 -0.0325569 0.0068331
v -0.0637846 -0.0328570 0.0058895
v -0.0451264 -0.0272935 0.0070346
v -0.0533743 -0.0268029 0.0006043
v -0.0637846 -0.0285115 0.0036569
v -0.0494632 -0.0268029 0.0056015
v -0.0405841 -0.0268029 0.0053136
v -0.0627181 -0.0318278 0.0068029
v -0.0637846 -0.0318692 0.0067782
v -0.0442679 -0.0268029 0.0069963
v -0.0447669 -0.0268029 0.0070387
v -0.0637846 -0.0299221 0.0060335
v -0.0637846 -0.0313719 0.0066863
f 1 2 3
f 1 3 4
f 1 4 5
f 1 5 6
f 1 6 7
f 1 7 2
f 2 7 8
f 2 8 3
f 3 9 18
f 3 18 29
f 3 29 28
f 3 28 27
f 3 27 37
f 3 37 44
f 3 44 48
f 3 48 47
f 3 47 40
f 3 40 32
f 3 32 30
f 3 30 19
f 3 19 10
f 3 10 4
f 3 8 9
f 4 10 11
f 4 11 5
f 5 7 6
f 5 11 12
f 5 12 7
f 7 12 13
f 7 13 14
f 7 14 15
f 7 15 8
f 8 16 17
f 8 17 18
f 8 18 9
f 8 15 16
f 10 19 11
f 11 20 31
f 11 31 39
f 11 39 41
f 11 41 46
f 11 46 45
f 11 45 42
f 11 42 34
f 11 34 33
f 11 33 22
f 11 22 21
f 11 21 13
f 11 13 12
f 11 19 20
f 13 21 14
f 14 21 22
f 14 22 23
f 14 23 24
f 14 24 15
f 15 24 16
f 16 25 17
f 16 24 26
f 16 26 25
f 17 25 27
f 17 27 28
f 17 28 29
f 17 29 18
f 19 30 20
f 20 30 32
f 20 32 31
f 22 33 23
f 23 33 34
f 23 34 35
f 23 35 24
f 24 35 26
f 25 26 36
f 25 36 37
f 25 37 27
f 26 35 38
f 26 38 36
f 31 32 39
f 32 40 41
f 32 41 39
f 34 42 35
f 35 42 38
f 36 43 44
f 36 44 37
f 36 38 43
f 38 42 45
f 38 45 46
f 38 46 43
f 40 47 41
f 41 47 46
f 43 46 44
f 44 46 48
f 46 47 48
