v -0.0698599 -0.0402033 -0.00967365
v -0.0685494 -0.0402033 -0.00946586
v -0.0770468 -0.0402033 -0.00639486
v -0.0584514 -0.0295999 -0.00685641
v -0.0562896 -0.0295999 -0.00714612
v -0.0632374 -0.0397341 -0.00845285
v -0.0637762 -0.0402033 -0.00836293
v -0.0793266 -0.0402033 -0.00146367
v -0.0663685 -0.0295999 0.00104388
v -0.0632916 -0.0295999 -0.00344973
v -0.0525622 -0.0295999 -0.00595529
v -0.0500879 -0.0295999 -0.00401918
v -0.0488317 -0.0295999 -0.00232683
v -0.057954 -0.0391964 -0.00203911
v -0.0600202 -0.0402033 -0.00311406
v -0.0800632 -0.0402033 0.000906013
v -0.0620959 -0.0295999 0.00796912
v -0.047569 -0.0295999 0.00514387
v -0.0474893 -0.0295999 0.00566736
v -0.0587798 -0.0402033 -0.00101012
v -0.0741931 -0.0402033 0.00840269
v -0.0593506 -0.0295999 0.0106445
v -0.0476615 -0.0295999 0.00603301
v -0.0600648 -0.0402033 0.00694212
v -0.0581995 -0.0402033 0.00292604
v -0.0582155 -0.0402033 0.00280816
v -0.0671465 -0.0402033 0.0105566
v -0.0548739 -0.0295999 0.0107384
v -0.0508946 -0.0295999 0.0101869
v -0.0608779 -0.0402033 0.00796912
v -0.0663972 -0.0402033 0.0104946
v -0.0558878 -0.0342015 0.0100331
f 1 2 7
f 1 7 15
f 1 15 20
f 1 20 26
f 1 26 25
f 1 25 24
f 1 24 30
f 1 30 31
f 1 31 27
f 1 27 21
f 1 21 16
f 1 16 8
f 1 8 3
f 1 3 4
f 1 4 5
f 1 5 2
f 2 5 6
f 2 6 7
f 3 8 9
f 3 9 10
f 3 10 4
f 4 10 9
f 4 9 17
f 4 17 22
f 4 22 28
f 4 28 29
f 4 29 23
f 4 23 19
f 4 19 18
f 4 18 13
f 4 13 12
f 4 12 11
f 4 11 5
f 5 11 6
f 6 11 12
f 6 12 13
f 6 13 14
f 6 14 7
f 7 14 15
f 8 16 9
f 9 16 17
f 13 18 14
f 14 18 19
f 14 19 20
f 14 20 15
f 16 21 17
f 17 21 22
f 19 23 24
f 19 24 25
f 19 25 26
f 19 26 20
f 21 27 22
f 22 27 28
f 23 29 24
f 24 29 30
f 27 31 28
f 28 31 29
f 29 31 32
f 29 32 30
f 30 32 31
