v -0.0320219 -0.00421448 0.0125299
v -0.0320219 -0.00420988 0.00465517
v -0.032013 -0.00421448 0.00465517
v -0.0169306 -0.00421448 0.0120768
v -0.0169306 0.00361351 0.0127925
v -0.0320219 0.00166994 0.0129463
v -0.0169306 -0.00421448 0.00458973
v -0.0320219 0.00596206 0.00503226
v -0.0169306 0.00656953 0.0127802
v -0.0169306 0.00746538 0.0123524
v -0.0169306 0.00937061 0.0112416
v -0.0320219 0.00380526 0.0115835
v -0.0169306 -0.00385245 0.00461345
v -0.0169306 0.0107512 0.00812017
v -0.0169306 0.0114553 0.00578072
f 1 2 3
f 1 3 7
f 1 7 4
f 1 4 5
f 1 5 6
f 1 6 12
f 1 12 8
f 1 8 2
f 2 7 3
f 2 8 7
f 4 7 13
f 4 13 15
f 4 15 14
f 4 14 11
f 4 11 10
f 4 10 9
f 4 9 5
f 5 9 6
f 6 9 10
f 6 10 11
f 6 11 12
f 7 8 13
f 8 12 14
f 8 14 15
f 8 15 13
f 11 14 12
