v -0.0562857 -0.0295999 -0.0071477
v -0.0584475 -0.0295999 -0.00685725
v -0.0531792 -0.0170758 -0.00497508
v -0.0534246 -0.0254281 -0.00660884
v -0.0320253 -0.018889 -0.000398621
v -0.0525572 -0.0295999 -0.00595534
v -0.0580609 -0.0170758 -0.00389163
v -0.0632889 -0.0295999 -0.00345023
v -0.0357739 -0.0170758 -0.00170181
v -0.0320253 -0.0170758 -0.000524736
v -0.0320253 -0.0203123 0.0049288
v -0.0488321 -0.0295999 -0.00232666
v -0.0500828 -0.0295999 -0.00401775
v -0.0638974 -0.0170758 0.00124279
v -0.0663685 -0.0295999 0.00104597
v -0.0320253 -0.0170758 0.0111906
v -0.0320253 -0.0202277 0.00580014
v -0.0474906 -0.0295999 0.00566638
v -0.047568 -0.0295999 0.00514472
v -0.0612985 -0.0170758 0.00860334
v -0.0620953 -0.0295999 0.00796894
v -0.0467107 -0.0170758 0.0122741
v -0.0548703 -0.0295999 0.0107377
v -0.0320253 -0.0185065 0.010883
v -0.0320253 -0.0187811 0.0105199
v -0.0476621 -0.0295999 0.00603326
v -0.0593452 -0.0295999 0.0106441
v -0.0556335 -0.0170758 0.0121499
v -0.0543593 -0.0170758 0.0123734
v -0.0530414 -0.0212734 0.0120123
v -0.050893 -0.0295999 0.0101874
f 1 2 3
f 1 3 4
f 1 4 5
f 1 5 6
f 1 6 13
f 1 13 12
f 1 12 19
f 1 19 18
f 1 18 26
f 1 26 31
f 1 31 23
f 1 23 27
f 1 27 21
f 1 21 15
f 1 15 8
f 1 8 2
f 2 7 3
f 2 8 7
f 3 7 14
f 3 14 20
f 3 20 28
f 3 28 29
f 3 29 22
f 3 22 16
f 3 16 10
f 3 10 9
f 3 9 4
f 4 9 5
f 5 9 10
f 5 10 16
f 5 16 24
f 5 24 25
f 5 25 17
f 5 17 11
f 5 11 12
f 5 12 13
f 5 13 6
f 7 8 14
f 8 15 14
f 11 17 18
f 11 18 19
f 11 19 12
f 14 15 20
f 15 21 20
f 16 22 23
f 16 23 24
f 17 25 26
f 17 26 18
f 20 21 27
f 20 27 28
f 22 29 30
f 22 30 23
f 23 31 24
f 23 30 27
f 24 31 25
f 25 31 26
f 27 30 29
f 27 29 28
