v -0.136652 0.00263297 0.0125329
v -0.136652 0.00131446 0.0118985
v -0.136652 0.00520836 0.0110953
v -0.139911 0.00252107 0.0121864
v -0.148053 -0.00773833 0.00965072
v -0.145174 -0.00773833 0.00927224
v -0.136652 -0.00179774 0.00810658
v -0.136652 0.00638091 0.0100701
v -0.144475 0.00450126 0.00869652
v -0.148852 -0.00206372 0.0103935
v -0.152462 -0.00773833 0.00823452
v -0.142657 -0.00773833 0.0048353
v -0.136652 -0.00191289 0.006797
v -0.136652 0.00840489 0.00430045
v -0.137204 0.0088298 0.00261594
v -0.15063 0.000231108 0.00284161
v -0.145954 0.00501375 0.00245246
v -0.152529 -0.00745614 0.00824163
v -0.152555 -0.00773833 0.00809415
v -0.142702 -0.00773833 0.00470203
v -0.136652 -0.00219832 0.00198869
v -0.136652 0.00873087 0.00278474
v -0.136652 0.00876655 0.00241515
v -0.136652 0.0085395 0.0012264
v -0.136652 0.00692421 -0.00409011
v -0.142457 0.005703 -0.00350551
v -0.148033 0.00137284 -0.00434243
v -0.1539 -0.00773833 -0.000491874
v -0.152988 -0.00773833 0.00576107
v -0.14605 -0.00773833 -0.00453434
v -0.136652 -0.000613842 -0.00211064
v -0.136652 0.0051516 -0.00529486
v -0.136652 0.00458235 -0.00559338
v -0.149519 -0.00538026 -0.00547255
v -0.15308 -0.00773833 -0.00192584
v -0.153738 -0.00773833 -0.00107115
v -0.149775 -0.00773833 -0.00562003
v -0.136652 0.00404879 -0.00561292
v -0.136652 -0.000192178 -0.0030986
f 1 2 7
f 1 7 13
f 1 13 21
f 1 21 31
f 1 31 39
f 1 39 38
f 1 38 33
f 1 33 32
f 1 32 25
f 1 25 24
f 1 24 23
f 1 23 22
f 1 22 14
f 1 14 8
f 1 8 3
f 1 3 4
f 1 4 5
f 1 5 6
f 1 6 2
f 2 6 7
f 3 8 9
f 3 9 4
f 4 10 5
f 4 9 10
f 5 10 11
f 5 11 19
f 5 19 29
f 5 29 28
f 5 28 36
f 5 36 35
f 5 35 37
f 5 37 30
f 5 30 20
f 5 20 12
f 5 12 6
f 6 12 7
f 7 12 13
f 8 14 15
f 8 15 9
f 9 16 10
f 9 15 17
f 9 17 16
f 10 16 18
f 10 18 11
f 11 18 19
f 12 20 21
f 12 21 13
f 14 22 15
f 15 22 23
f 15 23 24
f 15 24 25
f 15 25 26
f 15 26 17
f 16 17 27
f 16 27 28
f 16 28 18
f 17 26 27
f 18 28 29
f 18 29 19
f 20 30 21
f 21 30 31
f 25 32 26
f 26 32 27
f 27 32 33
f 27 33 34
f 27 34 35
f 27 35 36
f 27 36 28
f 30 37 38
f 30 38 39
f 30 39 31
f 33 38 37
f 33 37 34
f 34 37 35
