v -0.105116 0.00205487 -0.0080057
v -0.10083 0.00320088 -0.00722313
v -0.0786935 0.00123823 -0.0060785
v -0.0916571 -0.00162934 -0.00773585
v -0.114489 -0.00247654 -0.00593233
v -0.136651 0.00404808 -0.005613
v -0.135141 0.00500733 -0.00575917
v -0.134445 0.00738763 -0.00431096
v -0.0920456 0.00360495 -0.00334624
v -0.113399 0.00598696 -0.00290997
v -0.0748276 -0.00168706 -0.00636634
v -0.0726472 0.00215334 -0.00103224
v -0.0726472 0.00125012 -0.00388594
v -0.0726472 0.000115992 -0.00528693
v -0.0726472 -0.00163443 -0.00591659
v -0.0726472 -0.00279742 -0.00576592
v -0.0726472 -0.00572102 -0.0045066
v -0.0812123 -0.00544427 -0.00511153
v -0.0992949 -0.00449521 -0.00606051
v -0.11556 -0.00532373 -0.000294646
v -0.136651 -0.000193006 -0.00309887
v -0.136651 0.00458288 -0.00559501
v -0.136651 0.00515164 -0.00529592
v -0.125598 0.00753025 -0.00160568
v -0.136651 0.00692413 -0.00408833
v -0.136651 0.00854043 0.00122778
v -0.136651 0.00876794 0.00241513
v -0.0726472 0.00185283 0.00413769
v -0.0726472 -0.00744597 -0.000658948
v -0.0912248 -0.00774988 0.000186592
v -0.136651 -0.0021981 0.00198786
v -0.136651 -0.000614059 -0.00210941
v -0.109213 -0.00690777 0.00527557
v -0.136651 0.00873059 0.00278618
v -0.0726472 0.000547231 0.0107581
v -0.0726472 -0.0085767 0.00953026
v -0.093117 -0.00831694 0.00736244
v -0.123606 -0.00424224 0.00710608
v -0.136651 -0.00191287 0.00679799
v -0.114282 -0.00475327 0.0110077
v -0.136651 0.00840461 0.0042996
v -0.0726472 0.000309541 0.011471
v -0.134639 0.00686302 0.010423
v -0.0726472 -0.00461745 0.0139491
v -0.0888 -0.0068076 0.0120219
v -0.136651 -0.00179742 0.00810678
v -0.114852 -0.00290608 0.0130586
v -0.1288 -0.00159199 0.0112033
v -0.136651 0.00638084 0.01007
v -0.0726597 -0.00105209 0.0136365
v -0.0726472 -0.00105379 0.0136365
v -0.11875 0.00348271 0.0134746
v -0.136651 0.00520767 0.0110954
v -0.136651 0.00263382 0.0125324
v -0.129426 0.0028817 0.013297
v -0.0726472 -0.00441372 0.0140211
v -0.0878664 -0.0048908 0.0137872
v -0.136651 0.00131293 0.0118982
v -0.0933676 -0.00146126 0.0149678
v -0.109946 0.000747571 0.0145743
v -0.121425 0.00152516 0.0139289
v -0.0976533 0.00115334 0.0138412
v -0.0726472 -0.00108774 0.013641
f 1 2 3
f 1 3 4
f 1 4 5
f 1 5 6
f 1 6 7
f 1 7 8
f 1 8 2
f 2 9 3
f 2 8 10
f 2 10 9
f 3 11 4
f 3 9 12
f 3 12 13
f 3 13 14
f 3 14 15
f 3 15 11
f 4 11 16
f 4 16 17
f 4 17 18
f 4 18 19
f 4 19 5
f 5 20 21
f 5 21 6
f 5 19 20
f 6 22 7
f 6 21 32
f 6 32 31
f 6 31 39
f 6 39 46
f 6 46 58
f 6 58 54
f 6 54 53
f 6 53 49
f 6 49 41
f 6 41 34
f 6 34 27
f 6 27 26
f 6 26 25
f 6 25 23
f 6 23 22
f 7 22 23
f 7 23 8
f 8 24 10
f 8 23 25
f 8 25 26
f 8 26 27
f 8 27 24
f 9 10 12
f 10 24 12
f 11 15 16
f 12 28 35
f 12 35 42
f 12 42 51
f 12 51 63
f 12 63 56
f 12 56 44
f 12 44 36
f 12 36 29
f 12 29 17
f 12 17 16
f 12 16 15
f 12 15 14
f 12 14 13
f 12 24 27
f 12 27 28
f 17 29 18
f 18 30 19
f 18 29 30
f 19 30 20
f 20 31 32
f 20 32 21
f 20 30 33
f 20 33 31
f 27 34 28
f 28 34 35
f 29 36 30
f 30 37 33
f 30 36 37
f 31 33 38
f 31 38 39
f 33 37 40
f 33 40 38
f 34 41 35
f 35 41 43
f 35 43 42
f 36 44 45
f 36 45 37
f 37 45 40
f 38 40 46
f 38 46 39
f 40 47 48
f 40 48 46
f 40 45 47
f 41 49 43
f 42 50 51
f 42 43 52
f 42 52 50
f 43 49 53
f 43 53 54
f 43 54 55
f 43 55 52
f 44 56 57
f 44 57 45
f 45 57 47
f 46 48 58
f 47 57 59
f 47 59 60
f 47 60 61
f 47 61 54
f 47 54 58
f 47 58 48
f 50 52 62
f 50 62 59
f 50 59 51
f 51 59 63
f 52 55 60
f 52 60 62
f 54 61 55
f 55 61 60
f 56 59 57
f 56 63 59
f 59 62 60
