v -0.0169306 -0.0167563 0.00345011
v -0.0140436 -0.0106698 0.00387457
v 0.0128862 0.00208084 0.00423455
v 0.001547 -0.0157091 0.0033821
v -0.0169306 -0.0159662 0.00964119
v -0.0169306 0.011455 0.00578114
v -0.00538846 0.0152377 0.00588785
v 0.0135699 0.0038738 0.00443388
v 0.0135699 -0.0122089 0.00364006
v 0.00417131 -0.0138019 0.00900449
v 0.000137819 -0.0128499 0.0110342
v -0.0169306 -0.0138336 0.0113942
v -0.0169306 0.0107505 0.00812039
v -0.0131569 0.0132384 0.00598282
v -0.00108626 0.0156629 0.00636976
v 0.00581934 0.0141143 0.00582922
v -0.00508393 0.0141524 0.0113777
v 0.0135699 0.0105506 0.00578818
v 0.0135699 -0.0116853 0.00555836
v 0.0135699 -0.0114473 0.00630645
v 0.0105604 -0.00505926 0.0113132
v 0.00420117 -0.00196839 0.0140242
v -0.00394643 -0.00558604 0.0139187
v -0.00248649 0.00237597 0.0153609
v -0.0169306 0.00361041 0.012793
v -0.0169306 0.00937009 0.0112417
v 0.00463407 0.0111313 0.0124682
v 0.0135699 0.0107283 0.00706274
v -0.0047167 0.0115153 0.0127039
v -0.0169306 0.00746607 0.0123521
v 0.0135699 -0.00060066 0.00724214
v 0.0135699 -0.000549886 0.00724566
v 0.0135699 0.0101317 0.0079234
v 0.0106858 0.00529548 0.0116674
v -0.0169306 0.006568 0.0127801
f 1 2 3
f 1 3 4
f 1 4 5
f 1 5 12
f 1 12 25
f 1 25 35
f 1 35 30
f 1 30 26
f 1 26 13
f 1 13 6
f 1 6 2
f 2 6 3
f 3 6 7
f 3 7 8
f 3 8 9
f 3 9 4
f 4 9 10
f 4 10 5
f 5 10 11
f 5 11 12
f 6 13 14
f 6 14 7
f 7 15 16
f 7 16 8
f 7 14 17
f 7 17 15
f 8 16 18
f 8 18 28
f 8 28 33
f 8 33 32
f 8 32 31
f 8 31 20
f 8 20 19
f 8 19 9
f 9 19 10
f 10 19 20
f 10 20 21
f 10 21 11
f 11 21 22
f 11 22 23
f 11 23 12
f 12 23 24
f 12 24 25
f 13 26 14
f 14 26 17
f 15 17 27
f 15 27 16
f 16 27 28
f 16 28 18
f 17 29 27
f 17 26 30
f 17 30 29
f 20 31 21
f 21 31 32
f 21 32 33
f 21 33 34
f 21 34 22
f 22 34 24
f 22 24 23
f 24 34 27
f 24 27 29
f 24 29 35
f 24 35 25
f 27 33 28
f 27 34 33
f 29 30 35
