v -0.0870474 -0.0454475 -0.0104568
v -0.0892524 -0.0484358 -0.0100721
v -0.0956769 -0.0478918 -0.0101853
v -0.0956769 -0.0452827 -0.0103725
v -0.0699827 -0.0403308 -0.00973889
v -0.0794121 -0.0435865 -0.0101626
v -0.0775886 -0.046295 -0.00980266
v -0.0868346 -0.0506589 -0.00660187
v -0.0956769 -0.0486423 -0.00890783
v -0.0956769 -0.0429083 -0.00756457
v -0.0698653 -0.0402044 -0.00967306
v -0.0685518 -0.0402044 -0.0094653
v -0.0637784 -0.0402044 -0.00836271
v -0.0685959 -0.0443866 -0.00757692
v -0.0757248 -0.0485746 -0.00572351
v -0.0843029 -0.0516814 0.00240805
v -0.0950202 -0.0517333 0.00226406
v -0.0956769 -0.0503001 -0.0057955
v -0.0956769 -0.0428157 -0.00743292
v -0.0770456 -0.0402044 -0.00639411
v -0.0600213 -0.0402044 -0.0031131
v -0.0587812 -0.0402044 -0.00101078
v -0.0613055 -0.0432818 0.00213035
v -0.069869 -0.04792 0.00205835
v -0.0899532 -0.0511973 0.00704672
v -0.0772694 -0.0487066 0.00873968
v -0.0956769 -0.0508248 0.00608607
v -0.0956769 -0.0516125 0.00250267
v -0.0956769 -0.0515426 0.00138158
v -0.0956769 -0.0418915 -0.0030555
v -0.0793241 -0.0402044 -0.00146539
v -0.0956769 -0.0418136 -0.00147362
v -0.0581978 -0.0402044 0.00292437
v -0.0600654 -0.0402044 0.00694181
v -0.0628685 -0.0426002 0.00714546
v -0.086552 -0.0488353 0.0102496
v -0.0956769 -0.0492855 0.0088343
v -0.0676896 -0.0409402 0.0105519
v -0.0800615 -0.0402044 0.000906397
v -0.0956769 -0.0427672 0.00548541
v -0.0741948 -0.0402044 0.00840232
v -0.0608762 -0.0402044 0.00797034
v -0.0940772 -0.0477417 0.0102043
v -0.0956769 -0.0478038 0.0101673
v -0.0664018 -0.0402044 0.0104944
v -0.0671503 -0.0402044 0.0105581
v -0.0956769 -0.0448832 0.00905029
v -0.0956769 -0.0470578 0.0100295
f 1 2 3
f 1 3 4
f 1 4 5
f 1 5 6
f 1 6 7
f 1 7 2
f 2 7 8
f 2 8 3
f 3 9 18
f 3 18 29
f 3 29 28
f 3 28 27
f 3 27 37
f 3 37 44
f 3 44 48
f 3 48 47
f 3 47 40
f 3 40 32
f 3 32 30
f 3 30 19
f 3 19 10
f 3 10 4
f 3 8 9
f 4 10 11
f 4 11 5
f 5 7 6
f 5 11 12
f 5 12 7
f 7 12 13
f 7 13 14
f 7 14 15
f 7 15 8
f 8 16 17
f 8 17 18
f 8 18 9
f 8 15 16
f 10 19 11
f 11 20 31
f 11 31 39
f 11 39 41
f 11 41 46
f 11 46 45
f 11 45 42
f 11 42 34
f 11 34 33
f 11 33 22
f 11 22 21
f 11 21 13
f 11 13 12
f 11 19 20
f 13 21 14
f 14 21 22
f 14 22 23
f 14 23 24
f 14 24 15
f 15 24 16
f 16 25 17
f 16 24 26
f 16 26 25
f 17 25 27
f 17 27 28
f 17 28 29
f 17 29 18
f 19 30 20
f 20 30 32
f 20 32 31
f 22 33 23
f 23 33 34
f 23 34 35
f 23 35 24
f 24 35 26
f 25 26 36
f 25 36 37
f 25 37 27
f 26 35 38
f 26 38 36
f 31 32 39
f 32 40 41
f 32 41 39
f 34 42 35
f 35 42 38
f 36 43 44
f 36 44 37
f 36 38 43
f 38 42 45
f 38 45 46
f 38 46 43
f 40 47 41
f 41 47 46
f 43 46 44
f 44 46 48
f 46 47 48
