v -0.0320259 0.0059627 0.00503144
v -0.0320259 0.00380453 0.0115838
v -0.0320259 -0.0149763 -0.000662095
v -0.0642833 -0.00143416 -0.00419494
v -0.0726409 0.000115125 -0.00528797
v -0.0726409 0.00124946 -0.00388459
v -0.0726409 0.00215152 -0.00103295
v -0.0726409 0.00185158 0.00413749
v -0.0726409 0.000548112 0.0107582
v -0.0320259 0.00166892 0.0129462
v -0.0726409 0.000309068 0.0114706
v -0.0726409 -0.00105755 0.0136371
v -0.0320259 -0.0150078 -0.000669903
v -0.0726409 -0.00163712 -0.00591841
v -0.0414292 -0.0135758 0.0124933
v -0.0320259 -0.013878 0.0120015
v -0.0726409 -0.00109137 0.013641
v -0.0726409 -0.00441545 0.0140216
v -0.0600131 -0.00384039 0.0137464
v -0.0320259 -0.0150507 -0.00067771
v -0.0531823 -0.0170758 -0.00497567
v -0.0726409 -0.00280077 -0.00576617
v -0.0467093 -0.0170758 0.0122747
v -0.0320259 -0.0170758 0.0111915
v -0.0726409 -0.00461841 0.0139494
v -0.0543592 -0.0170758 0.0123723
v -0.0320259 -0.0170758 -0.000525466
v -0.0357753 -0.0170758 -0.00170243
v -0.035827 -0.0170758 -0.00171219
v -0.0580609 -0.0170758 -0.0038924
v -0.0726409 -0.00572117 -0.00450528
v -0.0726409 -0.00857618 0.00953044
v -0.0612973 -0.0170758 0.00860331
v -0.0556315 -0.0170758 0.0121498
v -0.0638977 -0.0170758 0.00124291
v -0.0726409 -0.00744636 -0.000658192
f 1 2 10
f 1 10 16
f 1 16 24
f 1 24 27
f 1 27 20
f 1 20 13
f 1 13 3
f 1 3 4
f 1 4 5
f 1 5 6
f 1 6 7
f 1 7 8
f 1 8 9
f 1 9 2
f 2 9 11
f 2 11 12
f 2 12 10
f 3 13 4
f 4 14 5
f 4 13 14
f 5 14 22
f 5 22 31
f 5 31 36
f 5 36 32
f 5 32 25
f 5 25 18
f 5 18 17
f 5 17 12
f 5 12 11
f 5 11 9
f 5 9 8
f 5 8 7
f 5 7 6
f 10 15 16
f 10 12 17
f 10 17 18
f 10 18 19
f 10 19 15
f 13 20 14
f 14 21 22
f 14 20 21
f 15 23 16
f 15 19 18
f 15 18 23
f 16 23 24
f 18 25 26
f 18 26 23
f 20 27 28
f 20 28 29
f 20 29 21
f 21 30 22
f 21 29 28
f 21 28 27
f 21 27 24
f 21 24 23
f 21 23 26
f 21 26 34
f 21 34 33
f 21 33 35
f 21 35 30
f 22 30 31
f 25 32 33
f 25 33 34
f 25 34 26
f 30 35 31
f 31 35 36
f 32 35 33
f 32 36 35
