v -0.0956806 -0.0452802 -0.0103737
v -0.0956806 -0.0429062 -0.00756483
v -0.0956806 -0.0478913 -0.0101847
v -0.100927 -0.0474468 -0.0102752
v -0.0969114 -0.045258 -0.0103617
v -0.11484 -0.0405692 -0.0100802
v -0.123378 -0.0361564 -0.00936438
v -0.123378 -0.0346712 -0.00839121
v -0.0956806 -0.0428136 -0.00743413
v -0.0956806 -0.0486431 -0.00890796
v -0.0956806 -0.0503005 -0.00579543
v -0.10071 -0.0500949 -0.00533699
v -0.109003 -0.046308 -0.00853196
v -0.123378 -0.0396322 -0.0084254
v -0.123378 -0.0395304 -0.00847968
v -0.123378 -0.0327657 -0.00492681
v -0.0956806 -0.0418914 -0.00305487
v -0.123378 -0.0326953 -0.0046976
v -0.0956806 -0.051543 0.00138069
v -0.102434 -0.0503857 0.00495166
v -0.113395 -0.0462265 -0.00461114
v -0.0956806 -0.0516134 0.00250265
v -0.123378 -0.0396896 -0.0083128
v -0.0956806 -0.0418136 -0.00147448
v -0.123378 -0.0328416 0.00413934
v -0.0956806 -0.0508245 0.00608568
v -0.0956806 -0.0492857 0.00883428
v -0.0996497 -0.0479598 0.0100729
v -0.113775 -0.045721 0.00819488
v -0.118698 -0.0444339 0.00542819
v -0.123378 -0.0419266 -0.000300239
v -0.123378 -0.0417303 -0.00337457
v -0.0956806 -0.0427655 0.00548449
v -0.123378 -0.0335194 0.00566746
v -0.0956806 -0.0478042 0.0101674
v -0.119899 -0.0402637 0.00954003
v -0.123378 -0.0393693 0.00867141
v -0.123378 -0.0410007 0.007463
v -0.123378 -0.0416803 0.00603139
v -0.0956806 -0.0448821 0.00905143
v -0.123378 -0.0347453 0.00819689
v -0.0956806 -0.0470561 0.0100286
v -0.123378 -0.0381193 0.00938722
v -0.123378 -0.0375786 0.00926255
f 1 2 9
f 1 9 17
f 1 17 24
f 1 24 33
f 1 33 40
f 1 40 42
f 1 42 35
f 1 35 27
f 1 27 26
f 1 26 22
f 1 22 19
f 1 19 11
f 1 11 10
f 1 10 3
f 1 3 4
f 1 4 5
f 1 5 6
f 1 6 7
f 1 7 8
f 1 8 2
f 2 8 9
f 3 10 4
f 4 10 11
f 4 11 12
f 4 12 13
f 4 13 14
f 4 14 15
f 4 15 6
f 4 6 5
f 6 15 7
f 7 15 14
f 7 14 23
f 7 23 32
f 7 32 31
f 7 31 39
f 7 39 38
f 7 38 37
f 7 37 43
f 7 43 44
f 7 44 41
f 7 41 34
f 7 34 25
f 7 25 18
f 7 18 16
f 7 16 8
f 8 16 9
f 9 16 18
f 9 18 17
f 11 19 12
f 12 20 21
f 12 21 13
f 12 19 22
f 12 22 20
f 13 21 23
f 13 23 14
f 17 18 24
f 18 25 24
f 20 22 26
f 20 26 27
f 20 27 28
f 20 28 29
f 20 29 30
f 20 30 21
f 21 30 31
f 21 31 32
f 21 32 23
f 24 25 33
f 25 34 33
f 27 35 28
f 28 36 29
f 28 35 36
f 29 36 37
f 29 37 38
f 29 38 39
f 29 39 30
f 30 39 31
f 33 34 41
f 33 41 40
f 35 42 43
f 35 43 36
f 36 43 37
f 40 41 42
f 41 44 42
f 42 44 43
