v 0.0135699 0.0107308 0.00706169
v 0.0135699 0.0105511 0.00578766
v 0.0135699 0.0101335 0.00792198
v 0.0180584 0.0102817 0.00760135
v 0.0899695 0.00733561 0.00490568
v 0.0159773 0.0101784 0.00513424
v 0.0135699 0.00387534 0.00443321
v 0.0135699 -0.000602125 0.00724158
v 0.0295924 0.00924426 0.00775638
v 0.0481721 0.00853694 0.0072675
v 0.0863379 0.00670688 0.00625272
v 0.111882 0.00557292 0.00525805
v 0.131359 0.00298614 0.00440781
v 0.152523 -0.00182591 0.00277665
v 0.108876 0.00354526 0.00377609
v 0.0805301 0.00678098 0.00452791
v 0.139193 -0.00144418 0.0025174
v 0.0135699 -0.0122067 0.00363958
v 0.0135699 -0.01145 0.00630616
v 0.041793 -0.00892384 0.00620193
v 0.0682071 0.00121222 0.00650033
v 0.108481 -0.0033169 0.00497975
v 0.133032 -0.00401075 0.00348298
v 0.121267 -0.00451823 0.00312055
v 0.06886 -0.00865214 0.00412317
v 0.0135699 -0.0116858 0.00555751
v 0.109311 -0.00569261 0.00348192
v 0.0956822 -0.00665816 0.0035708
v 0.0855355 -0.00659079 0.00527762
f 1 2 7
f 1 7 18
f 1 18 26
f 1 26 19
f 1 19 8
f 1 8 3
f 1 3 4
f 1 4 5
f 1 5 2
f 2 6 7
f 2 5 6
f 3 8 9
f 3 9 4
f 4 9 10
f 4 10 11
f 4 11 5
f 5 11 12
f 5 12 13
f 5 13 14
f 5 14 15
f 5 15 16
f 5 16 6
f 6 16 17
f 6 17 7
f 7 17 18
f 8 19 20
f 8 20 9
f 9 20 21
f 9 21 11
f 9 11 10
f 11 21 22
f 11 22 12
f 12 22 13
f 13 22 14
f 14 17 15
f 14 22 23
f 14 23 24
f 14 24 18
f 14 18 17
f 15 17 16
f 18 25 26
f 18 24 27
f 18 27 28
f 18 28 25
f 19 26 25
f 19 25 29
f 19 29 20
f 20 29 21
f 21 29 22
f 22 29 23
f 23 27 24
f 23 29 25
f 23 25 27
f 25 28 27
