v -0.142389 -0.0170758 0.00148453
v -0.142829 -0.0170758 -0.00229276
v -0.142656 -0.00773833 0.00483547
v -0.142455 -0.0170758 0.00520832
v -0.145539 -0.0170758 -0.00583563
v -0.146053 -0.00773833 -0.00453458
v -0.142703 -0.00773833 0.00470175
v -0.145175 -0.00773833 0.00927193
v -0.146819 -0.0170758 0.00884244
v -0.146652 -0.0170758 -0.00642087
v -0.149775 -0.00773833 -0.00561853
v -0.148054 -0.00773833 0.00965107
v -0.148954 -0.0170758 0.00835475
v -0.150172 -0.0114081 -0.00584822
v -0.150377 -0.0170758 -0.00535895
v -0.154206 -0.00848508 -0.000802923
v -0.153079 -0.00773833 -0.0019262
v -0.152462 -0.00773833 0.00823518
v -0.15023 -0.0170758 0.00803067
v -0.150416 -0.0170758 -0.0053086
v -0.152988 -0.00773833 0.00576209
v -0.1539 -0.00773833 -0.000491427
v -0.153739 -0.00773833 -0.00107194
v -0.153744 -0.0170758 0.0014688
v -0.152555 -0.00773833 0.00809359
v -0.153419 -0.0170758 0.00321506
f 1 2 3
f 1 3 4
f 1 4 9
f 1 9 13
f 1 13 19
f 1 19 26
f 1 26 24
f 1 24 20
f 1 20 15
f 1 15 10
f 1 10 5
f 1 5 2
f 2 5 6
f 2 6 7
f 2 7 3
f 3 7 6
f 3 6 11
f 3 11 17
f 3 17 23
f 3 23 22
f 3 22 21
f 3 21 25
f 3 25 18
f 3 18 12
f 3 12 8
f 3 8 4
f 4 8 9
f 5 10 6
f 6 10 11
f 8 12 9
f 9 12 13
f 10 14 11
f 10 15 14
f 11 14 16
f 11 16 17
f 12 18 19
f 12 19 13
f 14 15 16
f 15 20 16
f 16 21 22
f 16 22 23
f 16 23 17
f 16 20 24
f 16 24 25
f 16 25 21
f 18 25 26
f 18 26 19
f 24 26 25
