v -0.0320219 -0.0203122 0.00493068
v -0.0320219 -0.0202255 0.00580212
v -0.0320219 -0.0188863 -0.000400098
v -0.0169306 -0.0167561 0.00345027
v -0.0320219 -0.0187791 0.01052
v -0.0169306 -0.0159667 0.00964085
v -0.0320219 -0.0150513 -0.00067808
v -0.0198526 -0.0155555 0.00101567
v -0.0169306 -0.00421601 0.00459064
v -0.0320219 -0.018505 0.0108834
v -0.0169306 -0.0138349 0.0113941
v -0.0320219 -0.0150087 -0.000670322
v -0.0320219 -0.0149772 -0.000662564
v -0.0320219 -0.00507786 0.00256331
v -0.0320219 -0.00472808 0.00334425
v -0.032013 -0.00421601 0.00465528
v -0.0169306 -0.00421601 0.0120767
v -0.0320219 -0.0138775 0.0120005
v -0.0169306 -0.0102584 0.0116501
v -0.0320219 -0.00421601 0.0125306
f 1 2 5
f 1 5 10
f 1 10 18
f 1 18 20
f 1 20 15
f 1 15 14
f 1 14 13
f 1 13 12
f 1 12 7
f 1 7 3
f 1 3 4
f 1 4 2
f 2 4 6
f 2 6 5
f 3 7 8
f 3 8 4
f 4 8 9
f 4 9 17
f 4 17 19
f 4 19 11
f 4 11 6
f 5 6 10
f 6 11 10
f 7 12 8
f 8 12 13
f 8 13 9
f 9 13 14
f 9 14 15
f 9 15 16
f 9 16 20
f 9 20 17
f 10 11 18
f 11 19 18
f 15 20 16
f 17 20 18
f 17 18 19
