v -0.142389 -0.0170782 0.00148313
v -0.142826 -0.0170782 -0.00229284
v -0.142455 -0.0170782 0.0052077
v -0.123381 -0.032694 -0.00469756
v -0.145537 -0.0170782 -0.00583568
v -0.123381 -0.0327622 -0.00492702
v -0.123381 -0.0346691 -0.00839093
v -0.146815 -0.0170782 0.00884232
v -0.123381 -0.0347421 0.00819616
v -0.123381 -0.0335162 0.00566661
v -0.123381 -0.03284 0.00413934
v -0.146649 -0.0170782 -0.00641942
v -0.123381 -0.0361553 -0.00936383
v -0.148952 -0.0170782 0.00835403
v -0.146664 -0.0182896 0.00877072
v -0.123381 -0.0381158 0.00938567
v -0.123381 -0.0375758 0.00926268
v -0.150376 -0.0170782 -0.0053584
v -0.132991 -0.0311884 -0.00855797
v -0.145201 -0.0194084 -0.00665439
v -0.123381 -0.039529 -0.00847904
v -0.123678 -0.0394925 -0.00842397
v -0.149594 -0.0197319 0.00797221
v -0.150228 -0.0170782 0.00803095
v -0.1426 -0.0262556 0.00853759
v -0.123381 -0.039366 0.0086716
v -0.150379 -0.0171585 -0.00535106
v -0.150415 -0.0170782 -0.00530884
v -0.139916 -0.0282866 -0.00731523
v -0.123381 -0.0396312 -0.0084258
v -0.125661 -0.0407014 -0.00309319
v -0.136073 -0.0345402 -0.0019459
v -0.123381 -0.0396871 -0.00831383
v -0.153417 -0.0170782 0.00321416
v -0.153622 -0.019299 0.00205402
v -0.142383 -0.0293131 0.00523523
v -0.130348 -0.0375734 0.00692955
v -0.123381 -0.0409982 0.00746189
v -0.147615 -0.025718 -0.000897734
v -0.153741 -0.0170782 0.00146661
v -0.123381 -0.0417279 -0.00337405
v -0.123381 -0.0419225 -0.000301142
v -0.123381 -0.0416768 0.00603191
f 1 2 5
f 1 5 12
f 1 12 18
f 1 18 28
f 1 28 40
f 1 40 34
f 1 34 24
f 1 24 14
f 1 14 8
f 1 8 3
f 1 3 4
f 1 4 2
f 2 4 6
f 2 6 7
f 2 7 5
f 3 8 9
f 3 9 10
f 3 10 11
f 3 11 4
f 4 11 10
f 4 10 9
f 4 9 17
f 4 17 16
f 4 16 26
f 4 26 38
f 4 38 43
f 4 43 42
f 4 42 41
f 4 41 33
f 4 33 30
f 4 30 21
f 4 21 13
f 4 13 7
f 4 7 6
f 5 7 12
f 7 13 12
f 8 14 15
f 8 15 16
f 8 16 17
f 8 17 9
f 12 13 19
f 12 19 20
f 12 20 18
f 13 21 22
f 13 22 19
f 14 23 15
f 14 24 23
f 15 23 25
f 15 25 16
f 16 25 26
f 18 27 28
f 18 20 27
f 19 22 29
f 19 29 20
f 20 29 27
f 21 30 22
f 22 31 32
f 22 32 29
f 22 30 33
f 22 33 31
f 23 24 34
f 23 34 35
f 23 35 36
f 23 36 25
f 25 36 37
f 25 37 26
f 26 37 38
f 27 39 35
f 27 35 28
f 27 29 39
f 28 35 40
f 29 32 39
f 31 33 41
f 31 41 42
f 31 42 43
f 31 43 37
f 31 37 32
f 32 37 36
f 32 36 39
f 34 40 35
f 35 39 36
f 37 43 38
